<?xml version="1.0" encoding="utf-8"?>
<!-- Generator: Adobe Illustrator 16.0.0, SVG Export Plug-In . SVG Version: 6.00 Build 0)  -->
<!DOCTYPE svg PUBLIC "-//W3C//DTD SVG 1.1//EN" "http://www.w3.org/Graphics/SVG/1.1/DTD/svg11.dtd">
<svg version="1.1" id="Layer_1" xmlns="http://www.w3.org/2000/svg" xmlns:xlink="http://www.w3.org/1999/xlink" x="0px" y="0px"
	 width="50px" height="50px" viewBox="-315.5 -315.5 50 50" enable-background="new -315.5 -315.5 50 50" xml:space="preserve">
<path d="M-286.859-288.604c-0.17-0.292-0.399-0.519-0.689-0.681c-0.201-0.116-0.49-0.222-0.868-0.318
	c0.352-0.121,0.636-0.271,0.851-0.456c0.215-0.183,0.38-0.395,0.494-0.633c0.114-0.24,0.171-0.493,0.171-0.76
	c0-0.366-0.107-0.704-0.324-1.011s-0.525-0.543-0.926-0.706c-0.156-0.064-0.341-0.112-0.542-0.151v-1.425h-1.368v1.329h-0.881
	v-1.329h-1.368v1.329h-2.088v1.118h0.319c0.212,0,0.355,0.019,0.432,0.058c0.075,0.038,0.128,0.091,0.159,0.156
	s0.046,0.219,0.046,0.458v4.507c0,0.236-0.015,0.387-0.046,0.455c-0.031,0.067-0.084,0.12-0.159,0.156
	c-0.076,0.037-0.219,0.055-0.432,0.055h-0.319v1.118h2.088v1.329h1.368v-1.329h0.779c0.035,0,0.067-0.001,0.102-0.001v1.33h1.368
	v-1.444c0.23-0.044,0.432-0.1,0.604-0.17c0.473-0.189,0.838-0.464,1.096-0.826c0.259-0.361,0.388-0.755,0.388-1.184
	C-286.604-287.987-286.688-288.313-286.859-288.604z M-291.441-292.112h0.886c0.518,0,0.876,0.032,1.077,0.096
	c0.2,0.063,0.355,0.171,0.461,0.321c0.106,0.151,0.159,0.332,0.159,0.544c0,0.205-0.056,0.386-0.168,0.542
	c-0.112,0.156-0.279,0.272-0.501,0.351c-0.222,0.077-0.565,0.116-1.028,0.116h-0.886V-292.112z M-288.938-287.119
	c-0.158,0.201-0.35,0.333-0.576,0.397c-0.225,0.064-0.51,0.096-0.853,0.096h-0.59c-0.196,0-0.316-0.011-0.361-0.032
	s-0.076-0.059-0.095-0.113c-0.016-0.043-0.025-0.188-0.029-0.435v-1.75h1.046c0.458,0,0.799,0.043,1.023,0.128
	c0.224,0.084,0.391,0.21,0.503,0.376c0.112,0.167,0.167,0.369,0.167,0.609C-288.701-287.561-288.78-287.32-288.938-287.119z
	 M-275.111-283.168c-0.105-1.489-0.802-3.196-2.088-5.018c-0.281-0.397-0.59-0.794-0.916-1.189c0.326-0.396,0.635-0.792,0.916-1.19
	c2.12-3.002,2.666-5.703,1.538-7.605c-0.935-1.576-2.884-2.409-5.638-2.409c-0.933,0-1.93,0.097-2.969,0.281
	c-0.987-2.632-2.331-4.6-3.888-5.595c0.043-0.182,0.073-0.369,0.073-0.563c0-1.335-1.082-2.417-2.417-2.417
	s-2.417,1.082-2.417,2.417c0,0.195,0.029,0.382,0.073,0.563c-1.558,0.995-2.901,2.963-3.888,5.595
	c-1.039-0.184-2.036-0.281-2.969-0.281c-2.754,0-4.703,0.833-5.638,2.409c-1.128,1.902-0.582,4.604,1.538,7.605
	c0.281,0.398,0.59,0.795,0.916,1.19c-0.326,0.395-0.635,0.792-0.916,1.189c-1.286,1.821-1.983,3.529-2.088,5.018
	c-0.85,0.374-1.445,1.221-1.445,2.21c0,1.334,1.082,2.417,2.417,2.417c0.506,0,0.975-0.156,1.363-0.422
	c1.005,0.518,2.295,0.793,3.854,0.793c0.933,0,1.929-0.097,2.968-0.281c1.456,3.881,3.687,6.326,6.233,6.326
	s4.778-2.445,6.233-6.326c1.039,0.183,2.035,0.281,2.968,0.281c0,0,0,0,0.001,0c1.558,0,2.848-0.276,3.853-0.793
	c0.388,0.266,0.857,0.422,1.363,0.422c1.335,0,2.417-1.082,2.417-2.417C-273.666-281.947-274.261-282.794-275.111-283.168z
	 M-281.299-299.58c1.661,0,3.837,0.333,4.777,1.919c0.902,1.521,0.357,3.897-1.494,6.519c-0.236,0.334-0.492,0.669-0.762,1.002
	c-1.132-1.256-2.478-2.482-3.985-3.639c-0.24-2.026-0.637-3.9-1.171-5.552C-283.007-299.488-282.119-299.58-281.299-299.58z
	 M-286.93-283.354c-1.175,0.697-2.374,1.313-3.57,1.85c-1.196-0.538-2.396-1.153-3.57-1.85c-1.134-0.673-2.204-1.396-3.211-2.148
	c-0.138-1.248-0.219-2.542-0.219-3.873c0-1.332,0.081-2.625,0.219-3.873c1.007-0.752,2.077-1.475,3.212-2.148
	c1.175-0.696,2.374-1.312,3.569-1.85c1.196,0.538,2.395,1.153,3.569,1.85c1.135,0.673,2.205,1.396,3.212,2.148
	c0.138,1.248,0.219,2.542,0.219,3.873c0,1.331-0.081,2.625-0.219,3.873C-284.726-284.75-285.795-284.027-286.93-283.354z
	 M-283.896-284.135c-0.249,1.631-0.608,3.148-1.057,4.508c-1.38-0.306-2.832-0.757-4.312-1.352c0.95-0.459,1.902-0.956,2.845-1.515
	C-285.543-283.014-284.703-283.565-283.896-284.135z M-291.735-280.979c-1.48,0.596-2.932,1.046-4.312,1.352
	c-0.449-1.36-0.808-2.877-1.057-4.508c0.807,0.569,1.646,1.121,2.523,1.641C-293.637-281.935-292.685-281.438-291.735-280.979z
	 M-298.375-286.353c-1.196-0.973-2.267-1.989-3.188-3.022c0.921-1.034,1.992-2.049,3.188-3.022
	c-0.077,0.981-0.125,1.986-0.125,3.022S-298.452-287.333-298.375-286.353z M-297.104-294.615c0.249-1.631,0.608-3.148,1.057-4.508
	c1.38,0.306,2.832,0.756,4.312,1.352c-0.95,0.458-1.901,0.956-2.844,1.515C-295.457-295.736-296.296-295.185-297.104-294.615z
	 M-289.265-297.771c1.48-0.596,2.932-1.046,4.312-1.352c0.449,1.359,0.808,2.877,1.057,4.508c-0.807-0.57-1.647-1.121-2.524-1.641
	C-287.364-296.815-288.315-297.313-289.265-297.771z M-282.625-292.397c1.196,0.973,2.268,1.988,3.188,3.022
	c-0.92,1.034-1.992,2.049-3.188,3.022c0.078-0.981,0.125-1.986,0.125-3.022S-282.548-291.417-282.625-292.397z M-292.397-304.977
	c0.442,0.565,1.123,0.936,1.897,0.936s1.455-0.37,1.897-0.936c1.287,0.875,2.431,2.605,3.31,4.897
	c-1.667,0.376-3.423,0.962-5.207,1.74c-1.784-0.778-3.539-1.364-5.207-1.74C-294.828-302.372-293.684-304.102-292.397-304.977z
	 M-302.984-291.142c-1.851-2.622-2.396-4.998-1.494-6.519c0.94-1.586,3.117-1.919,4.777-1.919c0.82,0,1.708,0.092,2.635,0.25
	c-0.534,1.652-0.931,3.525-1.171,5.552c-1.507,1.156-2.853,2.382-3.985,3.639C-302.493-290.473-302.748-290.808-302.984-291.142z
	 M-299.701-279.17c-0.99,0-2.161-0.125-3.146-0.558c0.215-0.361,0.347-0.779,0.347-1.23c0-1.313-1.048-2.375-2.352-2.411
	c0.157-1.248,0.78-2.699,1.868-4.24c0.236-0.334,0.492-0.668,0.762-1.001c1.132,1.256,2.478,2.482,3.985,3.639
	c0.24,2.026,0.637,3.899,1.17,5.552C-297.993-279.262-298.881-279.17-299.701-279.17z M-290.5-273.125
	c-2.045,0-3.914-2.173-5.207-5.545c1.668-0.375,3.423-0.961,5.207-1.74c1.784,0.778,3.539,1.364,5.207,1.74
	C-286.586-275.298-288.455-273.125-290.5-273.125z M-281.299-279.17c-0.82,0-1.708-0.092-2.634-0.25
	c0.534-1.652,0.931-3.525,1.17-5.551c1.507-1.157,2.853-2.382,3.985-3.639c0.27,0.333,0.526,0.667,0.762,1.001
	c1.088,1.542,1.711,2.993,1.868,4.24c-1.304,0.035-2.352,1.098-2.352,2.411c0,0.451,0.132,0.869,0.347,1.23
	C-279.139-279.296-280.308-279.17-281.299-279.17C-281.299-279.17-281.299-279.17-281.299-279.17z"/>
</svg>
