<?xml version="1.0" encoding="utf-8"?>
<!-- Generator: Adobe Illustrator 16.0.0, SVG Export Plug-In . SVG Version: 6.00 Build 0)  -->
<!DOCTYPE svg PUBLIC "-//W3C//DTD SVG 1.1//EN" "http://www.w3.org/Graphics/SVG/1.1/DTD/svg11.dtd">
<svg version="1.1" id="Layer_1" xmlns="http://www.w3.org/2000/svg" xmlns:xlink="http://www.w3.org/1999/xlink" x="0px" y="0px"
	 width="50px" height="50px" viewBox="-245.5 -315.5 50 50" enable-background="new -245.5 -315.5 50 50" xml:space="preserve">
<path d="M-216.73-290.385c-0.256-0.148-0.626-0.284-1.109-0.407c0.45-0.153,0.813-0.346,1.087-0.581
	c0.274-0.234,0.485-0.504,0.631-0.81c0.146-0.306,0.219-0.629,0.219-0.969c0-0.468-0.138-0.899-0.413-1.291
	c-0.277-0.392-0.671-0.693-1.183-0.902c-0.199-0.082-0.436-0.143-0.692-0.192v-1.821h-1.748v1.698h-1.123v-1.698h-1.748v1.698
	h-2.666v1.428h0.407c0.271,0,0.455,0.025,0.551,0.074c0.096,0.049,0.164,0.116,0.203,0.199c0.04,0.084,0.06,0.279,0.06,0.584v5.755
	c0,0.301-0.02,0.495-0.06,0.581c-0.04,0.086-0.107,0.153-0.203,0.2c-0.097,0.047-0.28,0.07-0.551,0.07h-0.407v1.428h2.666v1.698
	h1.748v-1.698h0.994c0.044,0,0.086-0.001,0.129-0.001v1.699h1.748v-1.845c0.293-0.056,0.551-0.127,0.771-0.216
	c0.604-0.241,1.07-0.593,1.399-1.054c0.33-0.46,0.495-0.965,0.495-1.512c0-0.458-0.108-0.874-0.325-1.246
	C-216.068-289.889-216.361-290.178-216.73-290.385z M-221.702-293.996h1.132c0.66,0,1.119,0.042,1.375,0.123
	c0.256,0.081,0.453,0.218,0.588,0.411c0.135,0.192,0.203,0.424,0.203,0.695c0,0.261-0.071,0.492-0.214,0.692
	c-0.144,0.199-0.356,0.348-0.64,0.447c-0.284,0.099-0.721,0.148-1.313,0.148h-1.132V-293.996z M-218.505-287.619
	c-0.202,0.257-0.447,0.426-0.735,0.507c-0.288,0.082-0.651,0.123-1.088,0.123h-0.753c-0.25,0-0.404-0.015-0.461-0.042
	c-0.057-0.027-0.097-0.075-0.122-0.144c-0.021-0.054-0.032-0.239-0.037-0.555v-2.234h1.335c0.585,0,1.021,0.055,1.307,0.163
	c0.285,0.108,0.499,0.269,0.642,0.48c0.143,0.213,0.214,0.471,0.214,0.777C-218.203-288.184-218.304-287.875-218.505-287.619z
	 M-229.75-280.75h18.5c0.276,0,0.5-0.224,0.5-0.5v-18.5c0-0.276-0.224-0.5-0.5-0.5h-18.5c-0.276,0-0.5,0.224-0.5,0.5v18.5
	C-230.25-280.974-230.026-280.75-229.75-280.75z M-229.25-299.25h17.5v17.5h-17.5V-299.25z M-203.458-292.369v-5.424h-4.387v-4.361
	c0-0.552-0.448-1-1-1h-4.361v-4.387h-5.424v4.387h-3.738v-4.387h-5.424v4.387h-4.361c-0.552,0-1,0.448-1,1v4.361h-4.387v5.424h4.387
	v3.738h-4.387v5.424h4.387v4.361c0,0.552,0.448,1,1,1h4.361v4.387h5.424v-4.387h3.738v4.387h5.424v-4.387h4.361c0.552,0,1-0.448,1-1
	v-4.361h4.387v-5.424h-4.387v-3.738H-203.458z M-209.846-279.846h-21.309v-21.309h21.309V-279.846z"/>
</svg>
