<?xml version="1.0" encoding="utf-8"?>
<!-- Generator: Adobe Illustrator 16.0.0, SVG Export Plug-In . SVG Version: 6.00 Build 0)  -->
<!DOCTYPE svg PUBLIC "-//W3C//DTD SVG 1.1//EN" "http://www.w3.org/Graphics/SVG/1.1/DTD/svg11.dtd">
<svg version="1.1" id="Layer_1" xmlns="http://www.w3.org/2000/svg" xmlns:xlink="http://www.w3.org/1999/xlink" x="0px" y="0px"
	 width="50px" height="50px" viewBox="-175.5 -315.5 50 50" enable-background="new -175.5 -315.5 50 50" xml:space="preserve">
<path d="M-166.663-289.984c-0.276,0-0.5-0.208-0.5-0.484v-0.032c0-1.747,0.269-3.468,0.8-5.115c0.085-0.263,0.367-0.405,0.629-0.323
	c0.263,0.085,0.407,0.367,0.323,0.629c-0.499,1.548-0.752,3.166-0.752,4.809C-166.163-290.224-166.386-289.984-166.663-289.984z
	 M-145.647-275.604c-1.557,0.507-3.184,0.765-4.837,0.767c-0.276,0-0.5,0.225-0.5,0.5s0.224,0.5,0.5,0.5h0
	c1.758-0.002,3.49-0.276,5.146-0.815c0.263-0.085,0.406-0.368,0.321-0.63S-145.385-275.689-145.647-275.604z M-165.392-285.632
	c-0.085-0.262-0.364-0.406-0.63-0.32c-0.262,0.085-0.406,0.368-0.32,0.63c0.542,1.66,1.341,3.221,2.376,4.638
	c0.098,0.134,0.25,0.205,0.404,0.205c0.102,0,0.206-0.031,0.294-0.096c0.223-0.163,0.272-0.476,0.109-0.699
	C-164.13-282.606-164.882-284.072-165.392-285.632z M-145.706-305.416c1.563,0.502,3.033,1.246,4.37,2.212
	c0.089,0.064,0.191,0.095,0.292,0.095c0.155,0,0.308-0.072,0.406-0.207c0.162-0.224,0.111-0.537-0.112-0.698
	c-1.422-1.028-2.986-1.82-4.65-2.354c-0.263-0.083-0.544,0.061-0.629,0.323C-146.113-305.782-145.969-305.5-145.706-305.416z
	 M-163.6-299.47c0.155,0,0.308-0.072,0.405-0.207c0.965-1.333,2.127-2.501,3.456-3.473c0.223-0.163,0.271-0.476,0.108-0.699
	c-0.162-0.223-0.475-0.271-0.699-0.108c-1.413,1.033-2.649,2.276-3.675,3.693c-0.162,0.224-0.112,0.536,0.112,0.698
	C-163.804-299.5-163.701-299.47-163.6-299.47z M-155.538-305.362c0.051,0,0.104-0.008,0.156-0.025
	c1.556-0.51,3.183-0.771,4.835-0.775c0.276-0.001,0.5-0.225,0.499-0.501c-0.001-0.275-0.225-0.499-0.5-0.499c0,0-0.001,0-0.001,0
	c-1.757,0.005-3.488,0.283-5.144,0.825c-0.262,0.086-0.405,0.368-0.319,0.631C-155.944-305.496-155.749-305.362-155.538-305.362z
	 M-155.324-275.594c-1.562-0.505-3.031-1.252-4.366-2.221c-0.223-0.164-0.537-0.112-0.698,0.111
	c-0.162,0.224-0.112,0.536,0.111,0.698c1.42,1.03,2.983,1.825,4.645,2.362c0.051,0.017,0.103,0.024,0.154,0.024
	c0.211,0,0.407-0.135,0.476-0.346C-154.917-275.227-155.061-275.509-155.324-275.594z M-137.824-281.298
	c-0.968,1.33-2.133,2.496-3.463,3.465c-0.223,0.163-0.272,0.476-0.11,0.699c0.098,0.134,0.25,0.206,0.405,0.206
	c0.102,0,0.205-0.031,0.294-0.096c1.415-1.031,2.653-2.271,3.683-3.686c0.163-0.223,0.113-0.536-0.11-0.698
	C-137.349-281.572-137.662-281.522-137.824-281.298z M-134.337-291.032c-0.276,0-0.5,0.255-0.5,0.532
	c0,1.653-0.256,3.281-0.762,4.839c-0.085,0.263,0.059,0.544,0.321,0.63c0.051,0.017,0.103,0.024,0.154,0.024
	c0.211,0,0.407-0.134,0.476-0.346c0.538-1.657,0.811-3.389,0.811-5.147v-0.064C-133.837-290.84-134.061-291.032-134.337-291.032z
	 M-135.618-295.397c0.069,0.21,0.265,0.344,0.475,0.344c0.052,0,0.104-0.008,0.156-0.025c0.262-0.086,0.405-0.369,0.319-0.631
	c-0.546-1.66-1.349-3.219-2.386-4.633c-0.165-0.223-0.477-0.271-0.699-0.107s-0.271,0.476-0.107,0.699
	C-136.885-298.422-136.131-296.957-135.618-295.397z M-130.5-290.5c0,11.028-8.972,20-20,20s-20-8.972-20-20s8.972-20,20-20
	S-130.5-301.528-130.5-290.5z M-132.5-290.5c0-9.925-8.075-18-18-18s-18,8.075-18,18s8.075,18,18,18S-132.5-280.575-132.5-290.5z
	 M-148.814-289.682c-0.335-0.127-0.844-0.191-1.53-0.191h-1.563v2.614c0.006,0.37,0.02,0.586,0.043,0.649
	c0.029,0.081,0.076,0.137,0.143,0.169c0.066,0.031,0.246,0.048,0.539,0.048h0.882c0.512,0,0.936-0.048,1.273-0.144
	c0.337-0.094,0.624-0.292,0.86-0.593c0.236-0.3,0.354-0.66,0.354-1.082c0-0.358-0.083-0.66-0.25-0.91
	C-148.23-289.367-148.48-289.555-148.814-289.682z M-136.065-290.5c0,7.972-6.463,14.435-14.435,14.435s-14.435-6.463-14.435-14.435
	s6.463-14.435,14.435-14.435S-136.065-298.472-136.065-290.5z M-144.678-287.89c0-0.537-0.127-1.022-0.381-1.458
	c-0.254-0.437-0.598-0.775-1.029-1.018c-0.3-0.174-0.733-0.333-1.298-0.476c0.526-0.179,0.95-0.405,1.272-0.68
	c0.321-0.274,0.567-0.59,0.738-0.947c0.17-0.358,0.255-0.736,0.255-1.134c0-0.548-0.161-1.052-0.483-1.511
	c-0.324-0.458-0.785-0.811-1.385-1.055c-0.233-0.095-0.51-0.167-0.809-0.225v-2.131h-2.045v1.987h-1.314v-1.987h-2.045v1.987h-3.119
	v1.67h0.477c0.317,0,0.532,0.03,0.645,0.087c0.113,0.057,0.192,0.136,0.238,0.233c0.047,0.098,0.07,0.327,0.07,0.684v6.734
	c0,0.353-0.022,0.579-0.07,0.68c-0.046,0.101-0.125,0.179-0.238,0.233c-0.113,0.055-0.327,0.083-0.645,0.083h-0.477v1.67h3.119
	v1.987h2.045v-1.987h1.163c0.052,0,0.101-0.001,0.152-0.001v1.988h2.045v-2.159c0.343-0.066,0.645-0.149,0.902-0.252
	c0.706-0.283,1.251-0.693,1.638-1.233C-144.872-286.659-144.678-287.25-144.678-287.89z M-149.046-291.821
	c0.333-0.115,0.581-0.29,0.749-0.522c0.167-0.233,0.25-0.504,0.25-0.81c0-0.317-0.079-0.588-0.237-0.813
	c-0.159-0.225-0.39-0.385-0.689-0.48c-0.3-0.096-0.837-0.144-1.61-0.144h-1.324v2.943h1.324
	C-149.889-291.647-149.378-291.705-149.046-291.821z"/>
</svg>
