<?xml version="1.0" encoding="utf-8"?>
<!-- Generator: Adobe Illustrator 16.0.0, SVG Export Plug-In . SVG Version: 6.00 Build 0)  -->
<!DOCTYPE svg PUBLIC "-//W3C//DTD SVG 1.1//EN" "http://www.w3.org/Graphics/SVG/1.1/DTD/svg11.dtd">
<svg version="1.1" id="Layer_1" xmlns="http://www.w3.org/2000/svg" xmlns:xlink="http://www.w3.org/1999/xlink" x="0px" y="0px"
	 width="50px" height="50px" viewBox="-105.5 -315.5 50 50" enable-background="new -105.5 -315.5 50 50" xml:space="preserve">
<path d="M-64.167-307.833h-32.667c-0.552,0-1,0.448-1,1v32.667c0,0.552,0.448,1,1,1h32.667c0.552,0,1-0.448,1-1v-32.667
	C-63.167-307.386-63.614-307.833-64.167-307.833z M-65.167-275.167h-30.667v-30.667h30.667V-275.167z M-85.103-278.069
	c0.429,0.159,0.867,0.296,1.315,0.411v0.965h1.315v-0.699c0.646,0.097,1.301,0.163,1.973,0.163c1.137,0,2.234-0.159,3.288-0.429
	v0.965h1.315v-1.376c0.45-0.167,0.889-0.356,1.315-0.57v0.631h1.315v-1.38c0.572-0.374,1.109-0.795,1.616-1.25h3.644v-1.315h-2.356
	c0.353-0.417,0.677-0.856,0.976-1.315h0.065v-0.107c0.536-0.837,0.976-1.739,1.315-2.69v0.167h1.315v-1.315h-0.965
	c0.217-0.848,0.351-1.726,0.396-2.63h0.57v-1.314h-0.57c-0.022-0.445-0.065-0.883-0.13-1.315h0.7v-1.315h-0.965
	c-0.115-0.448-0.252-0.886-0.411-1.315h1.376v-9.205h-9.205v1.376c-1.24-0.46-2.564-0.738-3.945-0.807v-0.569h-3.945v0.965
	c-0.448,0.115-0.886,0.251-1.315,0.411v-1.376h-9.205v9.205h1.376c-0.159,0.429-0.296,0.867-0.411,1.315h-0.965v5.26h0.7
	c0.137,0.911,0.364,1.79,0.677,2.63h-1.376v9.205h9.205V-278.069z M-80.5-278.229c-6.777,0-12.271-5.494-12.271-12.271
	c0-6.776,5.494-12.271,12.271-12.271s12.271,5.495,12.271,12.271C-68.229-283.723-73.723-278.229-80.5-278.229z M-74.583-302.992
	h6.575v6.575h-0.631c-0.227-0.453-0.474-0.893-0.749-1.315h0.065v-3.945h-3.945v0.065c-0.422-0.275-0.862-0.522-1.315-0.749
	V-302.992z M-92.992-296.417v-6.575h6.575v0.631c-0.453,0.227-0.893,0.474-1.315,0.749v-0.065h-3.945v3.945h0.065
	c-0.275,0.422-0.522,0.862-0.749,1.315H-92.992z M-92.992-278.008v-6.575h0.631c0.227,0.453,0.474,0.893,0.749,1.315h-0.065v3.945
	h3.945v-0.065c0.422,0.275,0.862,0.522,1.315,0.749v0.631H-92.992z M-73.268-276.693v-1.315h1.315v1.315H-73.268z M-70.638-279.323
	h3.945v1.315h-1.315v1.315h-1.315v-1.315h-1.315V-279.323z M-66.693-281.953h-1.315v-1.315h1.315V-281.953z M-78.422-289.324
	c0.143,0.213,0.214,0.47,0.214,0.775c0,0.359-0.102,0.667-0.302,0.922c-0.201,0.256-0.445,0.425-0.733,0.505
	s-0.65,0.123-1.085,0.123h-0.751c-0.25,0-0.403-0.014-0.459-0.042c-0.057-0.026-0.098-0.074-0.122-0.144
	c-0.02-0.053-0.032-0.237-0.037-0.554v-2.228h1.332c0.583,0,1.018,0.055,1.304,0.163C-78.778-289.694-78.565-289.535-78.422-289.324
	z M-80.57-291.478h-1.128v-2.509h1.128c0.66,0,1.117,0.042,1.373,0.123c0.255,0.081,0.452,0.218,0.587,0.41s0.203,0.422,0.203,0.693
	c0,0.26-0.071,0.491-0.214,0.69c-0.143,0.198-0.355,0.348-0.638,0.446C-79.543-291.526-79.979-291.478-80.57-291.478z
	 M-80.5-301.482c-6.065,0-10.982,4.917-10.982,10.982c0,6.066,4.917,10.982,10.982,10.982s10.982-4.917,10.982-10.982
	C-69.518-296.565-74.435-301.482-80.5-301.482z M-76.032-286.767c-0.328,0.46-0.793,0.811-1.395,1.052
	c-0.22,0.088-0.477,0.159-0.77,0.216v1.839h-1.744v-1.695c-0.043,0-0.084,0.001-0.129,0.001h-0.99v1.694h-1.744v-1.694h-2.659
	v-1.423h0.406c0.271,0,0.454-0.023,0.55-0.07s0.163-0.112,0.203-0.2c0.04-0.085,0.06-0.278,0.06-0.579v-5.741
	c0-0.304-0.02-0.499-0.06-0.583c-0.04-0.083-0.106-0.151-0.203-0.198c-0.096-0.049-0.279-0.074-0.55-0.074h-0.406v-1.424h2.659
	v-1.693h1.744v1.693h1.119v-1.693h1.744v1.816c0.256,0.049,0.492,0.11,0.69,0.191c0.511,0.209,0.904,0.509,1.18,0.899
	c0.274,0.392,0.412,0.821,0.412,1.289c0,0.339-0.073,0.662-0.217,0.966c-0.146,0.305-0.356,0.574-0.63,0.808
	c-0.273,0.234-0.635,0.426-1.084,0.58c0.481,0.122,0.851,0.257,1.106,0.406c0.369,0.207,0.661,0.495,0.878,0.867
	c0.216,0.372,0.325,0.786,0.325,1.242C-75.538-287.729-75.702-287.226-76.032-286.767z"/>
</svg>
