<?xml version="1.0" encoding="utf-8"?>
<!-- Generator: Adobe Illustrator 16.0.0, SVG Export Plug-In . SVG Version: 6.00 Build 0)  -->
<!DOCTYPE svg PUBLIC "-//W3C//DTD SVG 1.1//EN" "http://www.w3.org/Graphics/SVG/1.1/DTD/svg11.dtd">
<svg version="1.1" id="Layer_1" xmlns="http://www.w3.org/2000/svg" xmlns:xlink="http://www.w3.org/1999/xlink" x="0px" y="0px"
	 width="50px" height="50px" viewBox="-35.5 -315.5 50 50" enable-background="new -35.5 -315.5 50 50" xml:space="preserve">
<path d="M-7.669-290.414c-0.192-0.111-0.47-0.213-0.833-0.305c0.338-0.115,0.61-0.261,0.816-0.437
	c0.206-0.176,0.364-0.378,0.474-0.608c0.109-0.23,0.165-0.472,0.165-0.728c0-0.352-0.104-0.676-0.311-0.969
	c-0.208-0.295-0.504-0.521-0.889-0.678c-0.149-0.061-0.327-0.108-0.52-0.145v-1.367h-1.313v1.275h-0.844v-1.275h-1.313v1.275h-2.002
	v1.073h0.306c0.204,0,0.341,0.019,0.414,0.056c0.072,0.036,0.123,0.087,0.152,0.149c0.03,0.063,0.045,0.21,0.045,0.439v4.323
	c0,0.226-0.015,0.371-0.045,0.436c-0.029,0.065-0.08,0.115-0.152,0.15c-0.073,0.035-0.21,0.053-0.414,0.053h-0.306v1.072h2.002
	v1.275h1.313v-1.275h0.746c0.033,0,0.065-0.001,0.098-0.001v1.276h1.313v-1.385c0.22-0.042,0.414-0.096,0.579-0.162
	c0.453-0.181,0.803-0.446,1.051-0.792c0.248-0.346,0.372-0.725,0.372-1.136c0-0.345-0.082-0.656-0.245-0.936
	S-7.392-290.258-7.669-290.414z M-11.403-293.125h0.85c0.496,0,0.841,0.031,1.033,0.092c0.192,0.061,0.34,0.164,0.442,0.308
	c0.102,0.146,0.152,0.319,0.152,0.523c0,0.196-0.054,0.37-0.162,0.52c-0.107,0.149-0.267,0.26-0.48,0.335
	c-0.213,0.075-0.542,0.112-0.986,0.112h-0.85V-293.125z M-9.001-288.335c-0.152,0.192-0.336,0.32-0.552,0.38
	c-0.217,0.061-0.489,0.093-0.817,0.093h-0.566c-0.188,0-0.303-0.011-0.346-0.032c-0.043-0.02-0.074-0.056-0.092-0.108
	c-0.015-0.04-0.023-0.179-0.028-0.417v-1.677h1.003c0.44,0,0.767,0.041,0.981,0.123c0.215,0.081,0.375,0.202,0.482,0.36
	c0.107,0.16,0.161,0.354,0.161,0.584C-8.775-288.76-8.851-288.529-9.001-288.335z M-0.595-306.5h-19.811
	c-3.361,0-6.095,2.734-6.095,6.095v19.811c0,3.361,2.734,6.095,6.095,6.095h19.811c3.361,0,6.095-2.734,6.095-6.095v-19.811
	C5.5-303.766,2.766-306.5-0.595-306.5z M-6.667-279v2.5h-7.667v-2.5H-6.667z M-21-280v-4.667h3.625v2.167c0,0.276,0.224,0.5,0.5,0.5
	h12.751c0.276,0,0.5-0.224,0.5-0.5v-2.167H0V-280H-21z M-14.333-302v-2.5h7.667v2.5H-14.333z M0-301v4.667h-3.625v-2.167
	c0-0.276-0.224-0.5-0.5-0.5h-12.751c-0.276,0-0.5,0.224-0.5,0.5v2.167H-21V-301H0z M3.5-291H1v-4.333h2.5V-291z M0-291h-3.625
	v-4.333H0V-291z M-5.542-290h0.917v4.333h-0.917c-0.276,0-0.5,0.224-0.5,0.5s0.224,0.5,0.5,0.5h0.917V-283h-11.751v-1.667h0.917
	c0.276,0,0.5-0.224,0.5-0.5s-0.224-0.5-0.5-0.5h-0.917V-290h0.917c0.276,0,0.5-0.224,0.5-0.5s-0.224-0.5-0.5-0.5h-0.917v-4.333
	h0.917c0.276,0,0.5-0.224,0.5-0.5s-0.224-0.5-0.5-0.5h-0.917V-298h11.751v1.667h-0.917c-0.276,0-0.5,0.224-0.5,0.5
	s0.224,0.5,0.5,0.5h0.917V-291h-0.917c-0.276,0-0.5,0.224-0.5,0.5S-5.818-290-5.542-290z M-17.375-295.333V-291H-21v-4.333H-17.375z
	 M-22-291h-2.5v-4.333h2.5V-291z M-24.5-290h2.5v4.333h-2.5V-290z M-21-290h3.625v4.333H-21V-290z M-3.625-285.667V-290H0v4.333
	H-3.625z M1-290h2.5v4.333H1V-290z M3.5-300.405v4.072H1v-5.167c0-0.276-0.224-0.5-0.5-0.5h-6.167v-2.5h5.072
	C1.663-304.5,3.5-302.663,3.5-300.405z M-20.405-304.5h5.072v2.5H-21.5c-0.276,0-0.5,0.224-0.5,0.5v5.167h-2.5v-4.072
	C-24.5-302.663-22.663-304.5-20.405-304.5z M-24.5-280.595v-4.072h2.5v5.167c0,0.276,0.224,0.5,0.5,0.5h6.167v2.5h-5.072
	C-22.663-276.5-24.5-278.337-24.5-280.595z M-0.595-276.5h-5.072v-2.5H0.5c0.276,0,0.5-0.224,0.5-0.5v-5.167h2.5v4.072
	C3.5-278.337,1.663-276.5-0.595-276.5z"/>
</svg>
