<?xml version="1.0" encoding="utf-8"?>
<!-- Generator: Adobe Illustrator 16.0.0, SVG Export Plug-In . SVG Version: 6.00 Build 0)  -->
<!DOCTYPE svg PUBLIC "-//W3C//DTD SVG 1.1//EN" "http://www.w3.org/Graphics/SVG/1.1/DTD/svg11.dtd">
<svg version="1.1" id="Layer_1" xmlns="http://www.w3.org/2000/svg" xmlns:xlink="http://www.w3.org/1999/xlink" x="0px" y="0px"
	 width="50px" height="50px" viewBox="34.5 -315.5 50 50" enable-background="new 34.5 -315.5 50 50" xml:space="preserve">
<path d="M75.611-277.356H73.43c0.449-0.098,0.792-0.479,0.792-0.958v-3.75c0-0.228-0.09-0.428-0.218-0.596
	c3.04-2.349,5.01-6.02,5.01-10.15c0-7.077-5.757-12.833-12.834-12.833c-5.273,0-9.81,3.199-11.781,7.756
	c-0.126-0.058-0.264-0.094-0.412-0.094h-10.61c-0.553,0-1,0.448-1,1v18.667c0,0.479,0.343,0.86,0.792,0.958h-2.182
	c-0.553,0-1,0.448-1,1s0.447,1,1,1h34.625c0.553,0,1-0.448,1-1S76.164-277.356,75.611-277.356z M66.18-304.644
	c6.525,0,11.834,5.309,11.834,11.833s-5.309,11.833-11.834,11.833c-6.524,0-11.833-5.309-11.833-11.833
	S59.655-304.644,66.18-304.644z M44.376-295.981h9.384c-0.26,1.017-0.413,2.075-0.413,3.171c0,7.077,5.757,12.833,12.833,12.833
	c2.184,0,4.24-0.551,6.042-1.517v2.179H44.376V-295.981z M75.529-288.311c0.679-1.409,1.023-2.923,1.023-4.499
	c0-0.276,0.224-0.522,0.5-0.522s0.5,0.202,0.5,0.478v0.044c0,1.728-0.378,3.387-1.123,4.934c-0.086,0.179-0.265,0.283-0.45,0.283
	c-0.073,0-0.147-0.016-0.217-0.05C75.514-287.763,75.409-288.062,75.529-288.311z M73.354-284.625
	c0.172,0.215,0.138,0.53-0.078,0.703c-1.33,1.063-2.905,1.823-4.557,2.2c-0.037,0.009-0.075,0.013-0.111,0.013
	c-0.229,0-0.435-0.157-0.487-0.389c-0.062-0.27,0.107-0.538,0.376-0.599c1.505-0.343,2.941-1.037,4.154-2.006
	C72.869-284.875,73.183-284.84,73.354-284.625z M64.259-282.094c-0.052,0.232-0.259,0.39-0.487,0.39
	c-0.036,0-0.073-0.004-0.11-0.012c-1.651-0.374-3.229-1.131-4.561-2.191c-0.216-0.172-0.252-0.486-0.08-0.703
	c0.174-0.216,0.489-0.25,0.703-0.08c1.215,0.967,2.652,1.658,4.158,1.998C64.151-282.631,64.32-282.364,64.259-282.094z
	 M54.808-292.787c0-0.276,0.223-0.5,0.499-0.501h0.001c0.275,0,0.5,0.223,0.5,0.499c0.003,1.576,0.35,3.088,1.032,4.497
	c0.12,0.249,0.017,0.547-0.232,0.668c-0.07,0.034-0.145,0.05-0.218,0.05c-0.186,0-0.363-0.104-0.45-0.282
	C55.191-289.401,54.811-291.06,54.808-292.787z M63.242-303.293c-0.062-0.269,0.106-0.538,0.375-0.6
	c1.645-0.379,3.409-0.386,5.059-0.015c0.27,0.061,0.439,0.328,0.379,0.597c-0.061,0.27-0.324,0.44-0.598,0.378
	c-1.505-0.337-3.114-0.332-4.615,0.014c-0.038,0.009-0.075,0.013-0.112,0.013C63.501-302.906,63.296-303.062,63.242-303.293z
	 M55.92-297.723c0.733-1.528,1.821-2.898,3.147-3.961c0.214-0.171,0.529-0.139,0.702,0.077s0.139,0.53-0.077,0.703
	c-1.209,0.97-2.202,2.219-2.87,3.614c-0.086,0.179-0.266,0.284-0.451,0.284c-0.073,0-0.146-0.016-0.216-0.049
	C55.906-297.175,55.801-297.474,55.92-297.723z M72.62-300.943c-0.217-0.171-0.253-0.486-0.081-0.702
	c0.172-0.217,0.486-0.252,0.702-0.081c1.332,1.056,2.428,2.419,3.169,3.942c0.121,0.248,0.018,0.547-0.23,0.668
	c-0.07,0.034-0.145,0.05-0.219,0.05c-0.185,0-0.363-0.104-0.449-0.281C74.835-298.736,73.835-299.979,72.62-300.943z M67.82-291.882
	c0.112,0.168,0.168,0.371,0.168,0.612c0,0.283-0.079,0.526-0.238,0.727c-0.159,0.203-0.352,0.336-0.578,0.399
	c-0.228,0.064-0.512,0.097-0.856,0.097h-0.593c-0.197,0-0.319-0.012-0.363-0.032c-0.045-0.021-0.077-0.06-0.097-0.114
	c-0.016-0.043-0.025-0.188-0.029-0.437v-1.759h1.052c0.461,0,0.804,0.043,1.029,0.129C67.539-292.174,67.707-292.048,67.82-291.882z
	 M66.18-302.521c-5.362,0-9.711,4.348-9.711,9.711s4.349,9.711,9.711,9.711c5.363,0,9.712-4.348,9.712-9.711
	S71.543-302.521,66.18-302.521z M69.706-289.863c-0.259,0.363-0.626,0.639-1.101,0.83c-0.174,0.069-0.377,0.125-0.607,0.169v1.453
	h-1.375v-1.337c-0.034,0-0.067,0-0.104,0h-0.781v1.337h-1.376v-1.337h-2.099v-1.124h0.32c0.214,0,0.358-0.019,0.434-0.056
	c0.077-0.037,0.129-0.089,0.16-0.157c0.032-0.067,0.047-0.22,0.047-0.458v-4.53c0-0.24-0.015-0.394-0.047-0.46
	c-0.031-0.065-0.083-0.118-0.16-0.157c-0.075-0.038-0.22-0.058-0.434-0.058h-0.32v-1.124h2.099v-1.337h1.376v1.337h0.885v-1.337
	h1.375v1.434c0.201,0.039,0.388,0.087,0.545,0.151c0.403,0.165,0.714,0.401,0.931,0.709c0.217,0.309,0.325,0.648,0.325,1.017
	c0,0.268-0.057,0.522-0.171,0.763c-0.116,0.24-0.281,0.453-0.497,0.637c-0.217,0.185-0.502,0.337-0.855,0.458
	c0.38,0.097,0.671,0.203,0.872,0.32c0.291,0.163,0.521,0.391,0.692,0.685c0.171,0.293,0.257,0.62,0.257,0.981
	C70.097-290.624,69.966-290.226,69.706-289.863z M66.125-293.582h-0.892v-1.98h0.892c0.521,0,0.881,0.033,1.083,0.097
	c0.201,0.064,0.356,0.171,0.464,0.323c0.105,0.151,0.159,0.333,0.159,0.547c0,0.206-0.056,0.388-0.169,0.545
	c-0.113,0.157-0.279,0.274-0.503,0.352C66.935-293.621,66.591-293.582,66.125-293.582z"/>
</svg>
