<?xml version="1.0" encoding="utf-8"?>
<!-- Generator: Adobe Illustrator 16.0.0, SVG Export Plug-In . SVG Version: 6.00 Build 0)  -->
<!DOCTYPE svg PUBLIC "-//W3C//DTD SVG 1.1//EN" "http://www.w3.org/Graphics/SVG/1.1/DTD/svg11.dtd">
<svg version="1.1" id="Layer_1" xmlns="http://www.w3.org/2000/svg" xmlns:xlink="http://www.w3.org/1999/xlink" x="0px" y="0px"
	 width="50px" height="50px" viewBox="104.5 -315.5 50 50" enable-background="new 104.5 -315.5 50 50" xml:space="preserve">
<path d="M146.813-277.323h-1.571c0.105-0.158,0.182-0.337,0.182-0.542v-18.667c0-0.552-0.447-1-1-1h-5.888
	c-0.471-4.569-4.343-8.146-9.035-8.146s-8.564,3.576-9.035,8.146h-5.888c-0.553,0-1,0.448-1,1v18.667
	c0,0.205,0.076,0.384,0.182,0.542h-1.571c-0.553,0-1,0.448-1,1s0.447,1,1,1h34.625c0.553,0,1-0.448,1-1
	S147.365-277.323,146.813-277.323z M129.5-304.677c4.362,0,7.919,3.475,8.069,7.8c-0.04,0.108-0.069,0.223-0.069,0.345
	c0,0.107,0.029,0.205,0.061,0.302c-0.246,6.004-6.495,13.452-8.07,15.233c-1.589-1.713-7.817-8.836-8.053-15.227
	c0.033-0.099,0.063-0.199,0.063-0.308c0-0.123-0.029-0.237-0.069-0.345C121.581-301.202,125.138-304.677,129.5-304.677z
	 M115.577-295.532h4.907c0.691,7.479,8.32,15.279,8.66,15.623c0.094,0.095,0.222,0.148,0.355,0.148c0.002,0,0.005,0,0.007,0
	c0.136-0.002,0.266-0.059,0.358-0.158c0.338-0.362,7.918-8.546,8.646-15.613h4.911v16.667h-27.846V-295.532z M135.714-293.011
	c0.117,0.073,0.152,0.227,0.079,0.344c-0.366,0.587-0.813,1.119-1.326,1.581c-0.048,0.043-0.107,0.064-0.167,0.064
	c-0.068,0-0.137-0.028-0.186-0.083c-0.093-0.103-0.084-0.261,0.019-0.353c0.479-0.431,0.895-0.927,1.236-1.474
	C135.441-293.049,135.597-293.083,135.714-293.011z M134.772-301.072c-0.09-0.105-0.077-0.263,0.028-0.353
	c0.104-0.089,0.263-0.077,0.353,0.028c0.447,0.526,0.819,1.112,1.104,1.741c0.058,0.126,0.002,0.274-0.124,0.331
	c-0.034,0.015-0.068,0.022-0.104,0.022c-0.095,0-0.186-0.055-0.228-0.146C135.536-300.035,135.189-300.581,134.772-301.072z
	 M136.417-296.594c0-0.34-0.024-0.679-0.072-1.009c-0.021-0.137,0.074-0.264,0.211-0.284c0.145-0.019,0.264,0.075,0.283,0.211
	c0.052,0.354,0.078,0.717,0.078,1.081c0,0.695-0.096,1.382-0.285,2.042c-0.031,0.11-0.132,0.181-0.24,0.181
	c-0.022,0-0.046-0.003-0.069-0.01c-0.132-0.038-0.209-0.176-0.171-0.309C136.327-295.304,136.417-295.945,136.417-296.594z
	 M131.439-303.5c0.042-0.132,0.183-0.205,0.314-0.163c0.658,0.209,1.283,0.511,1.857,0.895c0.115,0.077,0.146,0.232,0.069,0.347
	c-0.049,0.072-0.128,0.111-0.208,0.111c-0.048,0-0.097-0.014-0.139-0.042c-0.536-0.358-1.118-0.639-1.732-0.834
	C131.471-303.228,131.397-303.368,131.439-303.5z M125.254-291.133c0.109,0.085,0.129,0.242,0.044,0.351
	c-0.049,0.063-0.123,0.097-0.197,0.097c-0.054,0-0.108-0.017-0.153-0.053c-0.546-0.424-1.029-0.922-1.438-1.48
	c-0.081-0.111-0.057-0.268,0.055-0.349c0.109-0.083,0.267-0.059,0.35,0.054C124.294-291.993,124.745-291.529,125.254-291.133z
	 M129.014-289.439c-0.014,0.129-0.122,0.225-0.249,0.225c-0.008,0-0.017,0-0.025-0.001c-0.689-0.07-1.363-0.237-2.003-0.494
	c-0.128-0.052-0.189-0.197-0.138-0.325c0.051-0.129,0.195-0.19,0.325-0.139c0.596,0.24,1.224,0.395,1.866,0.461
	C128.928-289.699,129.027-289.576,129.014-289.439z M132.875-290.264c0.061,0.124,0.01,0.273-0.114,0.334
	c-0.621,0.304-1.281,0.52-1.961,0.64c-0.015,0.003-0.03,0.004-0.044,0.004c-0.119,0-0.225-0.085-0.246-0.207
	c-0.024-0.136,0.066-0.266,0.202-0.29c0.635-0.112,1.25-0.313,1.828-0.597C132.666-290.438,132.813-290.388,132.875-290.264z
	 M122.537-294.035c-0.237-0.645-0.383-1.323-0.435-2.016c-0.011-0.138,0.093-0.258,0.23-0.268c0.128-0.018,0.258,0.093,0.268,0.231
	c0.049,0.647,0.185,1.28,0.405,1.881c0.048,0.129-0.019,0.273-0.148,0.321c-0.028,0.01-0.058,0.015-0.086,0.015
	C122.67-293.872,122.574-293.934,122.537-294.035z M122.238-298.109c0.141-0.677,0.376-1.33,0.699-1.942
	c0.065-0.123,0.215-0.167,0.338-0.104c0.122,0.064,0.168,0.216,0.104,0.338c-0.301,0.57-0.52,1.179-0.65,1.81
	c-0.024,0.118-0.129,0.199-0.245,0.199c-0.017,0-0.033-0.001-0.051-0.005C122.298-297.842,122.211-297.974,122.238-298.109z
	 M124.15-301.37c-0.1-0.096-0.104-0.254-0.008-0.354c0.479-0.5,1.023-0.93,1.619-1.278c0.116-0.07,0.271-0.029,0.342,0.09
	c0.069,0.119,0.029,0.272-0.09,0.342c-0.556,0.325-1.063,0.726-1.51,1.192c-0.049,0.051-0.115,0.077-0.181,0.077
	C124.261-301.301,124.199-301.324,124.15-301.37z M127.489-303.479c-0.034-0.134,0.047-0.27,0.181-0.304
	c0.595-0.151,1.21-0.228,1.83-0.228l0.22,0.003c0.138,0.004,0.247,0.119,0.243,0.257s-0.128,0.227-0.257,0.243l-0.206-0.003
	c-0.578,0-1.153,0.071-1.707,0.212c-0.021,0.005-0.041,0.008-0.062,0.008C127.619-303.291,127.518-303.366,127.489-303.479z
	 M129.464-297.236h-0.577v-1.28h0.577c0.338,0,0.57,0.021,0.7,0.063c0.13,0.041,0.231,0.111,0.3,0.209s0.103,0.216,0.103,0.354
	c0,0.133-0.036,0.251-0.107,0.353c-0.074,0.102-0.182,0.177-0.325,0.227C129.988-297.261,129.766-297.236,129.464-297.236z
	 M128.906-295.044c-0.009-0.028-0.016-0.122-0.02-0.282v-1.137h0.682c0.298,0,0.519,0.028,0.664,0.083
	c0.146,0.055,0.256,0.136,0.327,0.244c0.074,0.109,0.109,0.24,0.109,0.396c0,0.183-0.051,0.34-0.153,0.47
	c-0.104,0.131-0.229,0.217-0.374,0.258c-0.146,0.042-0.332,0.063-0.555,0.063h-0.383c-0.127,0-0.206-0.008-0.235-0.021
	C128.94-294.984,128.92-295.009,128.906-295.044z M129.5-290.463c3.387,0,6.131-2.745,6.131-6.131s-2.744-6.131-6.131-6.131
	s-6.131,2.745-6.131,6.131S126.113-290.463,129.5-290.463z M126.968-294.837h0.207c0.139,0,0.231-0.012,0.281-0.036
	c0.05-0.023,0.082-0.058,0.103-0.102c0.021-0.043,0.03-0.142,0.03-0.295v-2.929c0-0.155-0.01-0.255-0.03-0.298
	c-0.021-0.042-0.053-0.076-0.103-0.102c-0.05-0.024-0.143-0.037-0.281-0.037h-0.207v-0.727h1.356v-0.865h0.89v0.865h0.572v-0.865
	h0.89v0.927c0.131,0.025,0.25,0.056,0.352,0.097c0.262,0.107,0.462,0.26,0.603,0.459c0.141,0.2,0.211,0.419,0.211,0.658
	c0,0.173-0.038,0.337-0.111,0.493c-0.075,0.155-0.182,0.293-0.322,0.412s-0.323,0.218-0.553,0.295
	c0.246,0.063,0.435,0.131,0.564,0.207c0.188,0.106,0.338,0.253,0.447,0.443c0.111,0.189,0.166,0.401,0.166,0.634
	c0,0.279-0.084,0.536-0.252,0.77c-0.168,0.235-0.405,0.414-0.712,0.537c-0.113,0.044-0.243,0.081-0.393,0.11v0.939h-0.89v-0.865
	c-0.022,0-0.043,0-0.067,0h-0.505v0.865h-0.89v-0.865h-1.356V-294.837z"/>
</svg>
