<?xml version="1.0" encoding="utf-8"?>
<!-- Generator: Adobe Illustrator 16.0.0, SVG Export Plug-In . SVG Version: 6.00 Build 0)  -->
<!DOCTYPE svg PUBLIC "-//W3C//DTD SVG 1.1//EN" "http://www.w3.org/Graphics/SVG/1.1/DTD/svg11.dtd">
<svg version="1.1" id="Layer_1" xmlns="http://www.w3.org/2000/svg" xmlns:xlink="http://www.w3.org/1999/xlink" x="0px" y="0px"
	 width="50px" height="50px" viewBox="174.5 -315.5 50 50" enable-background="new 174.5 -315.5 50 50" xml:space="preserve">
<path d="M199.5-309.178c-7.268,0-13.181,5.913-13.181,13.18c0,11.162,11.961,23.366,12.47,23.879
	c0.188,0.19,0.444,0.296,0.711,0.296c0.005,0,0.01,0,0.014,0c0.272-0.004,0.53-0.118,0.716-0.316
	c0.509-0.543,12.451-13.415,12.451-23.859C212.681-303.265,206.768-309.178,199.5-309.178z M199.481-274.301
	c-2.586-2.826-11.162-12.865-11.162-21.697c0-6.165,5.016-11.18,11.181-11.18s11.181,5.015,11.181,11.18
	C210.681-287.739,202.05-277.242,199.481-274.301z M192.223-289.937c0.166,0.22,0.122,0.534-0.098,0.7
	c-0.091,0.068-0.196,0.101-0.302,0.101c-0.151,0-0.301-0.068-0.399-0.199c-0.855-1.132-1.452-2.404-1.774-3.781
	c-0.063-0.269,0.104-0.538,0.373-0.601c0.277-0.06,0.538,0.105,0.602,0.373C190.913-292.104,191.451-290.958,192.223-289.937z
	 M194.018-303.343c-0.146-0.234-0.073-0.543,0.161-0.688c1.206-0.747,2.528-1.224,3.93-1.416c0.266-0.043,0.526,0.153,0.563,0.427
	c0.038,0.273-0.153,0.526-0.427,0.563c-1.263,0.174-2.453,0.603-3.539,1.275c-0.082,0.051-0.173,0.075-0.264,0.075
	C194.275-303.106,194.112-303.19,194.018-303.343z M201.657-304.813c0.075-0.266,0.347-0.422,0.617-0.344
	c1.359,0.387,2.603,1.043,3.694,1.952c0.212,0.177,0.24,0.492,0.063,0.704c-0.099,0.119-0.24,0.18-0.384,0.18
	c-0.113,0-0.227-0.038-0.32-0.116c-0.983-0.819-2.103-1.411-3.327-1.759C201.735-304.271,201.581-304.547,201.657-304.813z
	 M199.109-285.808c-0.024,0.259-0.242,0.454-0.497,0.454c-0.016,0-0.031,0-0.047-0.002c-1.411-0.13-2.754-0.545-3.99-1.235
	c-0.241-0.134-0.328-0.439-0.193-0.68c0.135-0.242,0.439-0.326,0.68-0.193c1.115,0.622,2.324,0.996,3.596,1.112
	C198.932-286.326,199.135-286.083,199.109-285.808z M189.956-296.707c-0.271-0.051-0.45-0.312-0.399-0.583
	c0.259-1.39,0.798-2.688,1.601-3.858c0.156-0.228,0.468-0.285,0.695-0.129c0.228,0.156,0.285,0.467,0.129,0.695
	c-0.724,1.055-1.209,2.224-1.442,3.476c-0.045,0.24-0.255,0.408-0.49,0.408C190.018-296.699,189.987-296.702,189.956-296.707z
	 M206.346-288.658c0.187,0.204,0.172,0.521-0.032,0.707c-1.05,0.957-2.261,1.669-3.6,2.117c-0.053,0.018-0.106,0.026-0.159,0.026
	c-0.209,0-0.404-0.132-0.475-0.341c-0.087-0.262,0.054-0.545,0.315-0.633c1.207-0.404,2.299-1.046,3.244-1.908
	C205.844-288.877,206.16-288.861,206.346-288.658z M209.615-295.428c0,1.421-0.289,2.796-0.859,4.087
	c-0.082,0.187-0.266,0.298-0.457,0.298c-0.067,0-0.137-0.014-0.202-0.042c-0.252-0.112-0.367-0.407-0.255-0.66
	c0.513-1.163,0.773-2.402,0.773-3.683c0-0.074,0.016-0.144,0.045-0.208c-0.032-0.063-0.052-0.133-0.056-0.208
	c-0.056-1.277-0.372-2.502-0.939-3.642c-0.123-0.248-0.022-0.547,0.225-0.671c0.245-0.123,0.548-0.022,0.67,0.225
	c0.631,1.266,0.982,2.626,1.045,4.044c0.003,0.082-0.013,0.16-0.045,0.229C209.595-295.588,209.615-295.51,209.615-295.428z
	 M199.454-296.244h-0.734v-1.628h0.734c0.43,0,0.726,0.027,0.891,0.08c0.165,0.052,0.294,0.141,0.381,0.266
	c0.087,0.125,0.131,0.275,0.131,0.45c0,0.169-0.046,0.32-0.137,0.448c-0.095,0.129-0.231,0.225-0.414,0.289
	C200.121-296.276,199.838-296.244,199.454-296.244z M200.848-294.846c0.095,0.138,0.139,0.305,0.139,0.503
	c0,0.233-0.064,0.433-0.194,0.598c-0.132,0.167-0.291,0.276-0.476,0.329c-0.187,0.053-0.423,0.079-0.706,0.079h-0.486
	c-0.162,0-0.263-0.01-0.3-0.026c-0.036-0.018-0.062-0.049-0.079-0.094c-0.012-0.036-0.021-0.155-0.025-0.359v-1.446h0.867
	c0.379,0,0.659,0.035,0.845,0.106C200.616-295.086,200.757-294.983,200.848-294.846z M199.5-303.225
	c-4.308,0-7.797,3.491-7.797,7.797c0,4.307,3.489,7.797,7.797,7.797s7.797-3.491,7.797-7.797
	C207.297-299.734,203.808-303.225,199.5-303.225z M202.4-293.187c-0.214,0.299-0.516,0.526-0.906,0.683
	c-0.144,0.057-0.309,0.103-0.499,0.14v1.194h-1.131v-1.1c-0.029,0-0.055,0-0.086,0h-0.643v1.1h-1.131v-1.1h-1.726v-0.923h0.264
	c0.176,0,0.294-0.016,0.357-0.046c0.063-0.03,0.104-0.073,0.131-0.13c0.025-0.055,0.038-0.181,0.038-0.375v-3.726
	c0-0.197-0.013-0.324-0.038-0.378c-0.026-0.054-0.067-0.097-0.131-0.129c-0.063-0.031-0.182-0.047-0.357-0.047h-0.264v-0.924h1.726
	v-1.1h1.131v1.1h0.729v-1.1h1.131v1.179c0.167,0.032,0.318,0.071,0.447,0.124c0.333,0.136,0.588,0.331,0.767,0.583
	c0.179,0.254,0.268,0.533,0.268,0.836c0,0.22-0.048,0.429-0.141,0.627c-0.096,0.197-0.231,0.373-0.41,0.524
	c-0.179,0.152-0.411,0.277-0.703,0.376c0.313,0.08,0.553,0.167,0.718,0.263c0.239,0.135,0.43,0.322,0.569,0.563
	c0.141,0.241,0.211,0.51,0.211,0.807C202.721-293.811,202.613-293.484,202.4-293.187z"/>
</svg>
