<?xml version="1.0" encoding="utf-8"?>
<!-- Generator: Adobe Illustrator 16.0.0, SVG Export Plug-In . SVG Version: 6.00 Build 0)  -->
<!DOCTYPE svg PUBLIC "-//W3C//DTD SVG 1.1//EN" "http://www.w3.org/Graphics/SVG/1.1/DTD/svg11.dtd">
<svg version="1.1" id="Layer_1" xmlns="http://www.w3.org/2000/svg" xmlns:xlink="http://www.w3.org/1999/xlink" x="0px" y="0px"
	 width="50px" height="50px" viewBox="244.5 -315.5 50 50" enable-background="new 244.5 -315.5 50 50" xml:space="preserve">
<path d="M259.771-292.912h-0.779v-1.734h0.779c0.455,0,0.771,0.028,0.948,0.084c0.176,0.056,0.313,0.151,0.405,0.284
	c0.093,0.132,0.141,0.292,0.141,0.479c0,0.179-0.05,0.339-0.147,0.477c-0.1,0.137-0.246,0.24-0.44,0.308
	C260.48-292.946,260.179-292.912,259.771-292.912z M260.813-291.754c-0.198-0.075-0.497-0.113-0.9-0.113h-0.921v1.54
	c0.003,0.219,0.011,0.346,0.024,0.383c0.017,0.048,0.045,0.082,0.084,0.099c0.039,0.02,0.146,0.029,0.318,0.029h0.52
	c0.301,0,0.551-0.029,0.751-0.084c0.197-0.056,0.365-0.172,0.505-0.35c0.139-0.177,0.21-0.389,0.21-0.638
	c0-0.21-0.05-0.388-0.147-0.536C261.155-291.569,261.01-291.68,260.813-291.754z M267.409-292.237c0,4.193-3.398,7.59-7.59,7.59
	c-4.192,0-7.591-3.397-7.591-7.59c0-4.191,3.398-7.59,7.591-7.59C264.011-299.827,267.409-296.428,267.409-292.237z M263.25-290.7
	c0-0.315-0.075-0.602-0.226-0.858c-0.151-0.257-0.352-0.456-0.606-0.6c-0.177-0.102-0.432-0.196-0.766-0.28
	c0.312-0.106,0.562-0.239,0.75-0.4c0.189-0.162,0.336-0.348,0.436-0.558c0.1-0.211,0.149-0.434,0.149-0.668
	c0-0.323-0.095-0.62-0.282-0.891c-0.191-0.27-0.464-0.477-0.816-0.622c-0.138-0.056-0.301-0.098-0.478-0.132v-1.255h-1.206v1.17
	h-0.773v-1.17h-1.204v1.17h-1.839v0.984h0.281c0.188,0,0.313,0.017,0.38,0.051c0.065,0.033,0.112,0.08,0.14,0.137
	c0.027,0.058,0.041,0.193,0.041,0.403v3.968c0,0.208-0.014,0.341-0.041,0.4c-0.027,0.061-0.074,0.105-0.14,0.138
	c-0.066,0.032-0.191,0.048-0.38,0.048h-0.281v0.984h1.839v1.171h1.204v-1.171h0.685c0.03,0,0.061,0,0.089,0v1.171h1.206v-1.271
	c0.201-0.04,0.381-0.089,0.531-0.149c0.417-0.167,0.738-0.409,0.964-0.728C263.135-289.974,263.25-290.322,263.25-290.7z
	 M288.688-280.398c0,4.491-3.652,8.145-8.143,8.145c-4.491,0-8.145-3.654-8.145-8.145c0-0.421,0.042-0.832,0.104-1.235l-5.636-4.182
	l0.095-0.17c-1.744,1.991-4.296,3.256-7.144,3.256c-5.242,0-9.507-4.265-9.507-9.507c0-5.242,4.265-9.506,9.507-9.506
	c2.974,0,5.631,1.375,7.375,3.521l6.409-3.739c-0.205-0.548-0.333-1.134-0.333-1.753c0-2.774,2.258-5.031,5.032-5.031
	c2.773,0,5.03,2.257,5.03,5.031c0,2.775-2.257,5.032-5.03,5.032c-1.659,0-3.121-0.817-4.038-2.059l-5.791,4.597
	c0.542,1.194,0.851,2.515,0.851,3.909c0,1.734-0.474,3.355-1.288,4.757l5.759,2.529c1.465-2.165,3.943-3.591,6.75-3.591
	C285.035-288.542,288.688-284.889,288.688-280.398z M273.813-303.715c0,2.48,2.009,4.489,4.489,4.489
	c2.479,0,4.486-2.009,4.486-4.489c0-2.478-2.008-4.488-4.486-4.488C275.822-308.203,273.813-306.193,273.813-303.715z
	 M268.299-292.237c0-4.684-3.796-8.481-8.479-8.481s-8.48,3.797-8.48,8.481c0,4.685,3.797,8.481,8.48,8.481
	S268.299-287.552,268.299-292.237z M287.809-280.398c0-4.012-3.251-7.265-7.264-7.265c-4.014,0-7.266,3.253-7.266,7.265
	c0,4.014,3.252,7.266,7.266,7.266C284.558-273.132,287.809-276.385,287.809-280.398z M281.279-281.065
	c0.166-0.059,0.291-0.147,0.377-0.264c0.084-0.117,0.128-0.255,0.128-0.409c0-0.161-0.042-0.297-0.122-0.41
	c-0.079-0.114-0.196-0.196-0.347-0.244c-0.151-0.047-0.423-0.072-0.812-0.072h-0.668v1.486h0.668
	C280.853-280.977,281.111-281.006,281.279-281.065z M281.396-279.985c-0.17-0.064-0.427-0.097-0.771-0.097h-0.789v1.319
	c0.002,0.188,0.008,0.297,0.021,0.328c0.014,0.041,0.037,0.07,0.071,0.084c0.033,0.017,0.125,0.026,0.272,0.026h0.445
	c0.257,0,0.472-0.026,0.644-0.073c0.168-0.048,0.313-0.147,0.433-0.299c0.119-0.151,0.179-0.333,0.179-0.546
	c0-0.18-0.042-0.332-0.125-0.458C281.689-279.826,281.564-279.921,281.396-279.985z M287.046-280.398
	c0,3.592-2.911,6.503-6.501,6.503c-3.592,0-6.504-2.911-6.504-6.503c0-3.591,2.912-6.503,6.504-6.503
	C284.135-286.901,287.046-283.99,287.046-280.398z M283.483-279.081c0-0.271-0.064-0.516-0.193-0.735
	c-0.129-0.221-0.301-0.392-0.519-0.514c-0.152-0.088-0.371-0.168-0.657-0.241c0.267-0.091,0.481-0.205,0.644-0.343
	c0.163-0.139,0.287-0.298,0.372-0.478c0.086-0.181,0.129-0.372,0.129-0.572c0-0.277-0.081-0.532-0.242-0.764
	c-0.163-0.23-0.397-0.408-0.7-0.532c-0.117-0.048-0.258-0.084-0.408-0.113v-1.075h-1.034v1.002h-0.661v-1.002h-1.032v1.002h-1.575
	v0.843h0.241c0.159,0,0.268,0.016,0.325,0.044c0.057,0.028,0.097,0.068,0.119,0.118c0.024,0.049,0.037,0.165,0.037,0.345v3.399
	c0,0.178-0.013,0.292-0.037,0.343c-0.022,0.051-0.063,0.091-0.119,0.118c-0.058,0.028-0.166,0.042-0.325,0.042h-0.241v0.843h1.575
	v1.002h1.032v-1.002h0.585c0.027,0,0.053-0.001,0.076-0.001v1.004h1.034v-1.089c0.172-0.034,0.326-0.076,0.455-0.128
	c0.357-0.142,0.633-0.349,0.825-0.623C283.385-278.46,283.483-278.757,283.483-279.081z M278.756-304.126
	c0.104-0.036,0.181-0.091,0.233-0.163c0.052-0.072,0.078-0.158,0.078-0.252c0-0.099-0.026-0.183-0.075-0.253
	c-0.049-0.071-0.121-0.121-0.214-0.15c-0.094-0.029-0.262-0.044-0.502-0.044h-0.413v0.918h0.413
	C278.492-304.072,278.652-304.09,278.756-304.126z M277.921-302.45c0.021,0.011,0.077,0.016,0.169,0.016h0.274
	c0.159,0,0.292-0.016,0.397-0.045c0.104-0.029,0.194-0.091,0.267-0.185c0.074-0.094,0.111-0.206,0.111-0.337
	c0-0.111-0.026-0.206-0.078-0.284c-0.052-0.077-0.13-0.135-0.233-0.175c-0.106-0.04-0.264-0.06-0.477-0.06h-0.488v0.814
	c0.003,0.116,0.006,0.184,0.013,0.203C277.886-302.476,277.9-302.458,277.921-302.45z M274.284-303.715
	c0-2.218,1.799-4.017,4.019-4.017c2.217,0,4.016,1.799,4.016,4.017c0,2.22-1.799,4.018-4.016,4.018
	C276.083-299.697,274.284-301.495,274.284-303.715z M276.485-301.832h0.974v0.62h0.639v-0.62h0.361c0.017,0,0.031,0,0.047,0v0.62
	h0.639v-0.673c0.106-0.021,0.201-0.047,0.281-0.08c0.221-0.088,0.391-0.215,0.509-0.385c0.122-0.167,0.183-0.351,0.183-0.551
	c0-0.167-0.04-0.318-0.119-0.454c-0.079-0.137-0.187-0.242-0.32-0.317c-0.094-0.054-0.229-0.104-0.406-0.148
	c0.165-0.057,0.298-0.127,0.398-0.212c0.1-0.085,0.176-0.184,0.229-0.295c0.053-0.111,0.08-0.229,0.08-0.354
	c0-0.171-0.05-0.328-0.15-0.472c-0.101-0.143-0.245-0.252-0.433-0.329c-0.072-0.029-0.159-0.052-0.252-0.069v-0.664h-0.639v0.619
	h-0.408v-0.619h-0.639v0.619h-0.974v0.52h0.149c0.1,0,0.165,0.01,0.201,0.028c0.035,0.018,0.06,0.042,0.073,0.073
	c0.016,0.031,0.023,0.102,0.023,0.213v2.1c0,0.11-0.008,0.18-0.023,0.212c-0.014,0.032-0.038,0.056-0.073,0.073
	c-0.036,0.017-0.102,0.026-0.201,0.026h-0.149V-301.832z"/>
</svg>
