<?xml version="1.0" encoding="utf-8"?>
<!-- Generator: Adobe Illustrator 16.0.0, SVG Export Plug-In . SVG Version: 6.00 Build 0)  -->
<!DOCTYPE svg PUBLIC "-//W3C//DTD SVG 1.1//EN" "http://www.w3.org/Graphics/SVG/1.1/DTD/svg11.dtd">
<svg version="1.1" id="Layer_1" xmlns="http://www.w3.org/2000/svg" xmlns:xlink="http://www.w3.org/1999/xlink" x="0px" y="0px"
	 width="50px" height="50px" viewBox="314.5 -315.5 50 50" enable-background="new 314.5 -315.5 50 50" xml:space="preserve">
<path d="M350.504-294.762l1.743-7.262c0.108,0.011,0.215,0.033,0.327,0.033c1.792,0,3.25-1.458,3.25-3.25s-1.458-3.25-3.25-3.25
	s-3.25,1.458-3.25,3.25c0,1.33,0.805,2.473,1.952,2.976l-1.725,7.185c-0.997-0.282-2.044-0.444-3.13-0.444
	c-3.079,0-5.872,1.222-7.939,3.198L332.548-299c1.081-0.962,1.776-2.348,1.776-3.906c0-2.895-2.355-5.25-5.25-5.25
	s-5.25,2.355-5.25,5.25s2.355,5.25,5.25,5.25c0.976,0,1.879-0.285,2.663-0.751l6.052,6.807c-1.748,1.987-2.823,4.573-2.866,7.41
	l-5.362,0.417c0.002-0.045,0.014-0.088,0.014-0.134c0-2.343-1.906-4.25-4.25-4.25s-4.25,1.907-4.25,4.25s1.906,4.25,4.25,4.25
	c1.942,0,3.566-1.317,4.072-3.1l5.56-0.433c0.427,5.958,5.399,10.68,11.466,10.68c6.344,0,11.504-5.162,11.504-11.507
	C357.926-288.922,354.835-293.109,350.504-294.762z M350.324-305.24c0-1.241,1.01-2.25,2.25-2.25s2.25,1.009,2.25,2.25
	s-1.01,2.25-2.25,2.25S350.324-304,350.324-305.24z M324.824-302.906c0-2.343,1.906-4.25,4.25-4.25s4.25,1.907,4.25,4.25
	s-1.906,4.25-4.25,4.25S324.824-300.563,324.824-302.906z M325.324-280.656c-1.792,0-3.25-1.458-3.25-3.25s1.458-3.25,3.25-3.25
	s3.25,1.458,3.25,3.25S327.116-280.656,325.324-280.656z M346.422-273.751c-5.67,0-10.266-4.596-10.266-10.266
	c0-5.669,4.596-10.266,10.266-10.266c5.668,0,10.264,4.597,10.264,10.266C356.686-278.347,352.09-273.751,346.422-273.751z
	 M346.363-284.834h-0.943v-2.1h0.943c0.551,0,0.934,0.034,1.146,0.103c0.213,0.067,0.379,0.183,0.49,0.343
	c0.113,0.16,0.172,0.354,0.172,0.58c0,0.217-0.061,0.411-0.18,0.577c-0.121,0.166-0.297,0.291-0.533,0.373
	S346.857-284.834,346.363-284.834z M348.16-283.033c0.119,0.179,0.178,0.394,0.178,0.648c0,0.301-0.086,0.559-0.254,0.772
	s-0.371,0.354-0.611,0.423c-0.242,0.066-0.545,0.103-0.908,0.103h-0.629c-0.209,0-0.338-0.012-0.385-0.036
	c-0.047-0.021-0.082-0.062-0.102-0.119c-0.018-0.045-0.027-0.199-0.029-0.464v-1.864h1.113c0.488,0,0.85,0.046,1.09,0.138
	C347.863-283.343,348.039-283.209,348.16-283.033z M346.422-293.204c-5.074,0-9.188,4.114-9.188,9.188
	c0,5.075,4.113,9.188,9.188,9.188c5.072,0,9.186-4.112,9.186-9.188C355.607-289.09,351.494-293.204,346.422-293.204z
	 M350.158-280.895c-0.273,0.386-0.662,0.679-1.166,0.881c-0.184,0.073-0.4,0.133-0.645,0.181v1.538h-1.459v-1.418
	c-0.035,0-0.07,0.001-0.107,0.001h-0.828v1.417h-1.459v-1.417h-2.225v-1.19h0.34c0.229,0,0.379-0.02,0.459-0.059
	s0.137-0.094,0.17-0.167c0.033-0.072,0.049-0.233,0.049-0.484v-4.803c0-0.254-0.016-0.418-0.049-0.488
	c-0.033-0.068-0.09-0.126-0.17-0.166c-0.08-0.041-0.23-0.062-0.459-0.062h-0.34v-1.191h2.225v-1.416h1.459v1.416h0.936v-1.416h1.459
	v1.519c0.215,0.042,0.412,0.092,0.578,0.16c0.428,0.175,0.758,0.426,0.988,0.752c0.227,0.328,0.342,0.688,0.342,1.078
	c0,0.283-0.061,0.554-0.182,0.809c-0.119,0.255-0.297,0.479-0.525,0.676c-0.229,0.195-0.531,0.356-0.908,0.484
	c0.404,0.102,0.713,0.217,0.926,0.34c0.309,0.174,0.551,0.415,0.734,0.726c0.182,0.311,0.273,0.657,0.273,1.039
	C350.574-281.699,350.434-281.278,350.158-280.895z M352.574-303.698c-0.852,0-1.541-0.69-1.541-1.542
	c0-0.851,0.689-1.541,1.541-1.541s1.543,0.69,1.543,1.541C354.117-304.389,353.426-303.698,352.574-303.698z M332.115-302.906
	c0,1.68-1.361,3.042-3.041,3.042s-3.043-1.362-3.043-3.042c0-1.681,1.363-3.042,3.043-3.042S332.115-304.587,332.115-302.906z
	 M327.365-283.906c0,1.127-0.914,2.042-2.041,2.042s-2.043-0.915-2.043-2.042c0-1.128,0.916-2.042,2.043-2.042
	S327.365-285.034,327.365-283.906z"/>
</svg>
