<?xml version="1.0" encoding="utf-8"?>
<!-- Generator: Adobe Illustrator 16.0.0, SVG Export Plug-In . SVG Version: 6.00 Build 0)  -->
<!DOCTYPE svg PUBLIC "-//W3C//DTD SVG 1.1//EN" "http://www.w3.org/Graphics/SVG/1.1/DTD/svg11.dtd">
<svg version="1.1" id="Layer_1" xmlns="http://www.w3.org/2000/svg" xmlns:xlink="http://www.w3.org/1999/xlink" x="0px" y="0px"
	 width="50px" height="50px" viewBox="314.5 314.5 50 50" enable-background="new 314.5 314.5 50 50" xml:space="preserve">
<path d="M340.603,339.605h0.824v-0.803h0.47c0.021,0,0.041,0,0.062,0v0.803h0.824v-0.872c0.14-0.026,0.261-0.061,0.364-0.103
	c0.285-0.113,0.506-0.278,0.661-0.496c0.156-0.22,0.234-0.458,0.234-0.716c0-0.216-0.052-0.413-0.154-0.589
	c-0.102-0.175-0.239-0.312-0.415-0.409c-0.121-0.069-0.296-0.134-0.524-0.192c0.213-0.072,0.385-0.163,0.515-0.273
	c0.13-0.112,0.229-0.24,0.297-0.384c0.07-0.145,0.105-0.297,0.105-0.458c0-0.222-0.065-0.425-0.196-0.61
	c-0.132-0.185-0.317-0.326-0.56-0.426c-0.094-0.037-0.204-0.067-0.327-0.09v-0.86h-0.824v0.803h-0.531v-0.803h-0.824v0.803h-1.259
	v0.673h0.189c0.129,0,0.217,0.012,0.262,0.036c0.045,0.022,0.078,0.055,0.096,0.095c0.02,0.039,0.028,0.131,0.028,0.276v2.718
	c0,0.142-0.009,0.232-0.028,0.273c-0.018,0.04-0.051,0.072-0.096,0.096c-0.045,0.021-0.133,0.032-0.262,0.032h-0.189v0.674h1.259
	V339.605z M341.126,334.714h0.533c0.312,0,0.529,0.021,0.65,0.059c0.12,0.038,0.214,0.104,0.276,0.193
	c0.064,0.092,0.097,0.202,0.097,0.33c0,0.122-0.034,0.231-0.102,0.325c-0.067,0.095-0.167,0.166-0.302,0.211
	c-0.134,0.048-0.341,0.072-0.62,0.072h-0.533V334.714z M341.126,336.619h0.629c0.278,0,0.482,0.025,0.618,0.076
	c0.134,0.053,0.236,0.128,0.303,0.229c0.067,0.1,0.103,0.221,0.103,0.366c0,0.17-0.049,0.315-0.144,0.438
	c-0.097,0.121-0.212,0.2-0.349,0.239c-0.135,0.037-0.307,0.058-0.513,0.058h-0.355c-0.118,0-0.192-0.007-0.219-0.021
	c-0.027-0.012-0.046-0.034-0.058-0.067c-0.009-0.025-0.015-0.112-0.016-0.262V336.619z M348.836,337.235
	c0,0.877-0.711,1.588-1.588,1.588c-0.293,0-0.564-0.086-0.8-0.225l-3.792,3.793c0.024,0.112,0.041,0.229,0.041,0.349
	c0,0.877-0.712,1.588-1.588,1.588c-0.877,0-1.588-0.711-1.588-1.588c0-0.136,0.022-0.267,0.055-0.393l-1.768-1.561
	c-0.285,0.277-0.675,0.45-1.104,0.45c-0.288,0-0.556-0.084-0.789-0.219l-2.682,2.716c0.064,0.173,0.105,0.356,0.105,0.551
	c0,0.877-0.711,1.588-1.588,1.588s-1.588-0.711-1.588-1.588c0-0.876,0.711-1.588,1.588-1.588c0.323,0,0.624,0.099,0.875,0.265
	l2.632-2.666c-0.089-0.198-0.141-0.416-0.141-0.647c0-0.876,0.711-1.587,1.587-1.587c0.877,0,1.589,0.711,1.589,1.587
	c0,0.083-0.013,0.164-0.025,0.242l1.841,1.625c0.273-0.224,0.619-0.363,1-0.363c0.392,0,0.745,0.147,1.022,0.382l3.663-3.663
	c-0.085-0.194-0.135-0.409-0.135-0.636c0-0.877,0.711-1.588,1.588-1.588S348.836,336.358,348.836,337.235z M352.938,328.473h-26.875
	c-1.92,0-3.481,1.497-3.481,3.337v15.381c0,1.84,1.562,3.337,3.481,3.337h26.875c1.92,0,3.481-1.497,3.481-3.337V331.81
	C356.419,329.97,354.857,328.473,352.938,328.473z M324.875,341c-0.828,0-1.5-0.672-1.5-1.5s0.672-1.5,1.5-1.5s1.5,0.672,1.5,1.5
	S325.703,341,324.875,341z M353.077,348.514c-0.047,0.004-0.092,0.014-0.14,0.014h-25.634v-18.055h25.634
	c0.048,0,0.093,0.01,0.14,0.014V348.514z M355.125,342.063c0,0.276-0.224,0.5-0.5,0.5s-0.5-0.224-0.5-0.5v-5.125
	c0-0.276,0.224-0.5,0.5-0.5s0.5,0.224,0.5,0.5V342.063z"/>
</svg>
