<?xml version="1.0" encoding="utf-8"?>
<!-- Generator: Adobe Illustrator 16.0.0, SVG Export Plug-In . SVG Version: 6.00 Build 0)  -->
<!DOCTYPE svg PUBLIC "-//W3C//DTD SVG 1.1//EN" "http://www.w3.org/Graphics/SVG/1.1/DTD/svg11.dtd">
<svg version="1.1" id="Layer_1" xmlns="http://www.w3.org/2000/svg" xmlns:xlink="http://www.w3.org/1999/xlink" x="0px" y="0px"
	 width="50px" height="50px" viewBox="-315.5 -245.5 50 50" enable-background="new -315.5 -245.5 50 50" xml:space="preserve">
<path d="M-285.215-225.118h-0.945v-2.103h0.945c0.553,0,0.937,0.035,1.15,0.103s0.378,0.183,0.492,0.343
	c0.112,0.161,0.169,0.354,0.169,0.581c0,0.219-0.059,0.412-0.179,0.579c-0.12,0.167-0.298,0.291-0.535,0.373
	C-284.354-225.158-284.72-225.118-285.215-225.118z M-283.952-223.713c-0.238-0.091-0.603-0.136-1.092-0.136h-1.116v1.868
	c0.004,0.264,0.014,0.418,0.03,0.464c0.021,0.057,0.054,0.098,0.103,0.121c0.047,0.021,0.176,0.034,0.385,0.034h0.63
	c0.365,0,0.669-0.034,0.91-0.103c0.24-0.067,0.445-0.208,0.614-0.423c0.168-0.214,0.252-0.472,0.252-0.772
	c0-0.256-0.06-0.471-0.179-0.65C-283.534-223.488-283.713-223.623-283.952-223.713z M-274.844-224.298
	c0,5.695-4.617,10.312-10.313,10.312c-5.694,0-10.312-4.617-10.312-10.312s4.617-10.312,10.312-10.312
	C-279.461-234.61-274.844-229.993-274.844-224.298z M-280.997-222.434c0-0.383-0.091-0.73-0.272-1.042
	c-0.181-0.312-0.427-0.554-0.734-0.727c-0.215-0.125-0.523-0.238-0.928-0.34c0.376-0.128,0.679-0.29,0.909-0.486
	c0.229-0.195,0.404-0.421,0.527-0.676c0.121-0.256,0.182-0.526,0.182-0.811c0-0.391-0.115-0.751-0.345-1.079
	c-0.231-0.327-0.561-0.579-0.989-0.754c-0.166-0.068-0.364-0.119-0.578-0.161v-1.521h-1.461v1.419h-0.939v-1.419h-1.461v1.419
	h-2.229v1.193h0.341c0.227,0,0.38,0.021,0.461,0.062c0.08,0.041,0.137,0.097,0.17,0.167c0.033,0.07,0.05,0.234,0.05,0.489v4.811
	c0,0.251-0.017,0.414-0.05,0.486c-0.033,0.072-0.09,0.127-0.17,0.167c-0.081,0.04-0.234,0.059-0.461,0.059h-0.341v1.193h2.229v1.42
	h1.461v-1.42h0.831c0.037,0,0.072,0,0.108,0v1.42h1.461v-1.542c0.245-0.047,0.461-0.106,0.645-0.18
	c0.505-0.202,0.895-0.495,1.17-0.881C-281.136-221.554-280.997-221.976-280.997-222.434z M-272-224.298
	c0,6.57-4.88,12.144-11.374,13.024l-9.352,7.615c-0.092,0.075-0.203,0.112-0.315,0.112c-0.1,0-0.2-0.03-0.286-0.09
	c-0.183-0.127-0.26-0.36-0.188-0.571l2.786-8.171c-0.729-0.341-1.412-0.75-2.055-1.207c-0.528,0.36-1.076,0.691-1.672,0.945
	l-2.211,7.345l-3.182-6.603c-5.157-0.643-9.152-5.034-9.152-10.365c0-5.774,4.681-10.455,10.455-10.455
	c1.028,0,2.016,0.164,2.953,0.443c2.406-3.141,6.184-5.178,10.436-5.178C-277.902-237.454-272-231.552-272-224.298z M-273-224.298
	c0-6.703-5.453-12.156-12.156-12.156c-6.702,0-12.155,5.453-12.155,12.156c0,4.883,2.904,9.275,7.399,11.188
	c0.241,0.103,0.362,0.374,0.277,0.621l-2.371,6.954l8.11-6.604c0.073-0.059,0.161-0.097,0.254-0.108
	C-277.575-213.002-273-218.183-273-224.298z"/>
</svg>
