<?xml version="1.0" encoding="utf-8"?>
<!-- Generator: Adobe Illustrator 16.0.0, SVG Export Plug-In . SVG Version: 6.00 Build 0)  -->
<!DOCTYPE svg PUBLIC "-//W3C//DTD SVG 1.1//EN" "http://www.w3.org/Graphics/SVG/1.1/DTD/svg11.dtd">
<svg version="1.1" id="Layer_1" xmlns="http://www.w3.org/2000/svg" xmlns:xlink="http://www.w3.org/1999/xlink" x="0px" y="0px"
	 width="50px" height="50px" viewBox="-245.5 -245.5 50 50" enable-background="new -245.5 -245.5 50 50" xml:space="preserve">
<path d="M-207.524-216.437v1.5c0,0.276-0.224,0.5-0.5,0.5s-0.5-0.224-0.5-0.5v-1.5c0-0.276,0.224-0.5,0.5-0.5
	S-207.524-216.713-207.524-216.437z M-234.19-221.379c0.276,0,0.5-0.224,0.5-0.5v-2.971c0-0.276-0.224-0.5-0.5-0.5
	s-0.5,0.224-0.5,0.5v2.971C-234.69-221.603-234.467-221.379-234.19-221.379z M-233.69-211.604v-1.364c0-0.276-0.224-0.5-0.5-0.5
	s-0.5,0.224-0.5,0.5v1.364c-0.001,0.606,0.113,1.197,0.34,1.755c0.078,0.195,0.266,0.313,0.463,0.313
	c0.063,0,0.126-0.012,0.188-0.037c0.256-0.104,0.38-0.395,0.276-0.651C-233.602-210.662-233.691-211.126-233.69-211.604z
	 M-234.19-215.438c0.276,0,0.5-0.224,0.5-0.5v-2.971c0-0.276-0.224-0.5-0.5-0.5s-0.5,0.224-0.5,0.5v2.971
	C-234.69-215.662-234.467-215.438-234.19-215.438z M-208.524-229.396v0.151c0,0.276,0.224,0.5,0.5,0.5s0.5-0.224,0.5-0.5v-0.151
	c0-1.059-0.363-2.096-1.022-2.922c-0.173-0.216-0.486-0.251-0.703-0.079c-0.216,0.172-0.251,0.487-0.078,0.703
	C-208.803-231.036-208.524-230.241-208.524-229.396z M-234.19-227.321c0.276,0,0.5-0.224,0.5-0.5v-1.576
	c0-0.414,0.067-0.82,0.201-1.206c0.091-0.261-0.047-0.546-0.308-0.636c-0.263-0.092-0.547,0.047-0.637,0.308
	c-0.171,0.492-0.257,1.008-0.257,1.534v1.576C-234.69-227.544-234.467-227.321-234.19-227.321z M-214.393-233.083h2.182
	c0.231,0,0.464,0.021,0.69,0.064c0.031,0.006,0.063,0.009,0.094,0.009c0.235,0,0.445-0.167,0.49-0.407
	c0.052-0.271-0.127-0.533-0.398-0.584c-0.288-0.055-0.583-0.082-0.876-0.082h-2.182c-0.276,0-0.5,0.224-0.5,0.5
	S-214.669-233.083-214.393-233.083z M-220.334-233.083h2.971c0.276,0,0.5-0.224,0.5-0.5s-0.224-0.5-0.5-0.5h-2.971
	c-0.276,0-0.5,0.224-0.5,0.5S-220.61-233.083-220.334-233.083z M-226.275-233.083h2.971c0.276,0,0.5-0.224,0.5-0.5
	s-0.224-0.5-0.5-0.5h-2.971c-0.276,0-0.5,0.224-0.5,0.5S-226.552-233.083-226.275-233.083z M-231.862-232.581
	c0.561-0.328,1.203-0.501,1.858-0.502h0.758c0.276,0,0.5-0.224,0.5-0.5s-0.224-0.5-0.5-0.5h-0.759c-0.832,0-1.648,0.221-2.362,0.639
	c-0.238,0.139-0.318,0.446-0.18,0.684c0.093,0.159,0.261,0.248,0.433,0.248C-232.029-232.513-231.942-232.535-231.862-232.581z
	 M-229.035-207.917h-0.969c-0.599,0-1.169-0.139-1.695-0.412c-0.246-0.127-0.548-0.032-0.675,0.213s-0.031,0.547,0.214,0.674
	c0.661,0.343,1.406,0.524,2.156,0.524h0.969c0.276,0,0.5-0.224,0.5-0.5S-228.759-207.917-229.035-207.917z M-208.024-212.466
	c-0.276,0-0.5,0.224-0.5,0.5v0.363c0,0.778-0.239,1.521-0.691,2.149c-0.161,0.224-0.11,0.537,0.113,0.698
	c0.089,0.063,0.19,0.094,0.292,0.094c0.155,0,0.309-0.072,0.406-0.208c0.575-0.799,0.88-1.745,0.88-2.733v-0.363
	C-207.524-212.243-207.748-212.466-208.024-212.466z M-211.339-208.021c-0.285,0.069-0.573,0.061-0.872,0.104h-1.971
	c-0.276,0-0.5,0.224-0.5,0.5s0.224,0.5,0.5,0.5h1.97c0.002,0,0.005,0,0.007,0c0.371,0,0.742-0.044,1.103-0.132
	c0.268-0.065,0.433-0.335,0.367-0.604S-211.073-208.088-211.339-208.021z M-217.152-207.917h-2.971c-0.276,0-0.5,0.224-0.5,0.5
	s0.224,0.5,0.5,0.5h2.971c0.276,0,0.5-0.224,0.5-0.5S-216.876-207.917-217.152-207.917z M-223.094-207.917h-2.971
	c-0.276,0-0.5,0.224-0.5,0.5s0.224,0.5,0.5,0.5h2.971c0.276,0,0.5-0.224,0.5-0.5S-222.817-207.917-223.094-207.917z
	 M-208.024-226.726c-0.276,0-0.5,0.224-0.5,0.5v1.5c0,0.276,0.224,0.5,0.5,0.5s0.5-0.224,0.5-0.5v-1.5
	C-207.524-226.502-207.748-226.726-208.024-226.726z M-203.271-220.058c0.012,0.966,0.022,1.8-0.514,2.343
	c-0.196,0.198-0.448,0.325-0.75,0.396c0.022,0.083,0.052,0.166,0.052,0.256v7.188c0,3.309-2.691,6-6,6h-21.25c-3.309,0-6-2.691-6-6
	v-21.25c0-3.309,2.691-6,6-6h21.25c3.309,0,6,2.691,6,6v7.313c0,0.049-0.021,0.09-0.028,0.137c0.291,0.073,0.535,0.198,0.727,0.391
	c0.536,0.543,0.525,1.377,0.514,2.343l-0.004,0.442L-203.271-220.058z M-206.482-217.063c0-0.066,0.025-0.125,0.037-0.188h-1.412
	c-1.792,0-3.25-1.458-3.25-3.25s1.458-3.25,3.25-3.25h1.388c-0.002-0.022-0.013-0.041-0.013-0.063v-7.313c0-2.206-1.795-4-4-4
	h-21.25c-2.206,0-4,1.794-4,4v21.25c0,2.206,1.794,4,4,4h21.25c2.205,0,4-1.794,4-4V-217.063z M-204.274-220.5l0.004-0.455
	c0.009-0.71,0.018-1.381-0.226-1.627c-0.11-0.111-0.315-0.168-0.611-0.168h-2.75c-1.241,0-2.25,1.009-2.25,2.25
	s1.009,2.25,2.25,2.25h2.75c0.296,0,0.501-0.057,0.611-0.168c0.243-0.246,0.234-0.917,0.226-1.627L-204.274-220.5z M-207.607-222
	c-0.829,0-1.5,0.671-1.5,1.5s0.671,1.5,1.5,1.5c0.828,0,1.5-0.671,1.5-1.5S-206.779-222-207.607-222z M-214.648-210.825
	c-0.095,0.126-0.243,0.201-0.4,0.201h-12.403c-0.158,0-0.307-0.074-0.401-0.201c-0.094-0.126-0.123-0.29-0.078-0.441l1.973-6.656
	c-1.406-1.313-2.206-3.126-2.206-5.024c0-3.813,3.102-6.914,6.914-6.914s6.914,3.102,6.914,6.914c0,1.898-0.8,3.711-2.205,5.024
	l1.973,6.656C-214.524-211.115-214.554-210.951-214.648-210.825z M-215.719-211.624l-1.872-6.317
	c-0.057-0.189,0.005-0.395,0.155-0.523c1.334-1.136,2.099-2.77,2.099-4.482c0-3.261-2.652-5.914-5.914-5.914
	c-3.261,0-5.914,2.653-5.914,5.914c0,1.712,0.766,3.346,2.1,4.482c0.15,0.128,0.211,0.333,0.155,0.523l-1.873,6.317H-215.719z
	 M-218.062-221.59c0.146,0.25,0.22,0.53,0.22,0.839c0,0.37-0.11,0.709-0.334,1.021c-0.222,0.311-0.537,0.547-0.943,0.71
	c-0.148,0.06-0.322,0.108-0.52,0.145v1.244h-1.179v-1.146c-0.029,0-0.058,0.002-0.087,0.002h-0.67v1.144h-1.179v-1.144h-1.797
	v-0.963h0.274c0.183,0,0.306-0.016,0.371-0.047s0.11-0.076,0.138-0.135c0.026-0.058,0.04-0.188,0.04-0.391v-3.881
	c0-0.206-0.014-0.337-0.04-0.394c-0.027-0.055-0.072-0.101-0.138-0.134c-0.065-0.034-0.188-0.05-0.371-0.05h-0.274v-0.963h1.797
	v-1.144h1.179v1.144h0.757v-1.144h1.179v1.227c0.172,0.033,0.333,0.076,0.466,0.13c0.346,0.142,0.611,0.344,0.799,0.608
	c0.185,0.265,0.277,0.554,0.277,0.87c0,0.23-0.05,0.448-0.147,0.655c-0.099,0.205-0.24,0.388-0.425,0.545
	c-0.185,0.158-0.43,0.289-0.733,0.393c0.326,0.083,0.575,0.173,0.747,0.274C-218.405-222.037-218.207-221.841-218.062-221.59z
	 M-222.007-222.914h0.764c0.399,0,0.693-0.033,0.886-0.101c0.19-0.066,0.335-0.167,0.431-0.301c0.096-0.135,0.145-0.291,0.145-0.466
	c0-0.184-0.045-0.34-0.138-0.47c-0.091-0.129-0.224-0.222-0.396-0.275c-0.172-0.055-0.481-0.083-0.927-0.083h-0.764V-222.914z
	 M-219.647-220.934c0-0.207-0.048-0.381-0.144-0.524c-0.096-0.143-0.241-0.251-0.434-0.324c-0.192-0.074-0.485-0.109-0.882-0.109
	h-0.9v1.506c0.004,0.213,0.012,0.337,0.025,0.374c0.016,0.046,0.044,0.079,0.082,0.098c0.037,0.018,0.143,0.027,0.311,0.027h0.509
	c0.295,0,0.539-0.027,0.733-0.082c0.194-0.055,0.359-0.169,0.495-0.342C-219.716-220.484-219.647-220.692-219.647-220.934z"/>
</svg>
