<?xml version="1.0" encoding="utf-8"?>
<!-- Generator: Adobe Illustrator 16.0.0, SVG Export Plug-In . SVG Version: 6.00 Build 0)  -->
<!DOCTYPE svg PUBLIC "-//W3C//DTD SVG 1.1//EN" "http://www.w3.org/Graphics/SVG/1.1/DTD/svg11.dtd">
<svg version="1.1" id="Layer_1" xmlns="http://www.w3.org/2000/svg" xmlns:xlink="http://www.w3.org/1999/xlink" x="0px" y="0px"
	 width="50px" height="50px" viewBox="-175.5 -245.5 50 50" enable-background="new -175.5 -245.5 50 50" xml:space="preserve">
<path d="M-141.753-220.5c0-5.104-4.151-9.257-9.254-9.257c-5.105,0-9.258,4.153-9.258,9.257s4.153,9.257,9.258,9.257
	C-145.904-211.243-141.753-215.396-141.753-220.5z M-151.007-212.241c-4.562,0-8.259-3.697-8.259-8.259
	c0-4.561,3.697-8.259,8.259-8.259c4.559,0,8.256,3.698,8.256,8.259C-142.751-215.938-146.448-212.241-151.007-212.241z
	 M-151.055-221.158h-0.759v-1.688h0.759c0.443,0,0.751,0.027,0.922,0.082c0.171,0.054,0.305,0.147,0.395,0.276
	c0.091,0.128,0.138,0.284,0.138,0.467c0,0.174-0.049,0.33-0.145,0.464c-0.097,0.133-0.238,0.233-0.428,0.3
	C-150.363-221.191-150.658-221.158-151.055-221.158z M-149.61-219.709c0.097,0.144,0.144,0.317,0.144,0.522
	c0,0.242-0.069,0.449-0.204,0.621c-0.135,0.172-0.298,0.285-0.492,0.34c-0.195,0.054-0.439,0.083-0.731,0.083h-0.506
	c-0.168,0-0.271-0.009-0.309-0.029c-0.037-0.016-0.066-0.049-0.082-0.096c-0.014-0.036-0.022-0.16-0.023-0.374v-1.499h0.896
	c0.392,0,0.684,0.037,0.877,0.11C-149.848-219.958-149.707-219.85-149.61-219.709z M-151.007-227.891
	c-4.083,0-7.392,3.31-7.392,7.391c0,4.083,3.309,7.391,7.392,7.391c4.08,0,7.389-3.308,7.389-7.391
	C-143.619-224.581-146.928-227.891-151.007-227.891z M-148.002-217.988c-0.22,0.31-0.532,0.546-0.938,0.708
	c-0.147,0.059-0.322,0.107-0.519,0.145v1.238h-1.173v-1.141c-0.029,0-0.057,0.001-0.086,0.001h-0.666v1.14h-1.174v-1.14h-1.79
	v-0.958h0.273c0.184,0,0.305-0.016,0.37-0.047c0.063-0.031,0.109-0.076,0.136-0.134c0.028-0.059,0.04-0.188,0.04-0.39v-3.863
	c0-0.205-0.012-0.336-0.04-0.393c-0.026-0.055-0.072-0.101-0.136-0.134c-0.065-0.033-0.186-0.049-0.37-0.049h-0.273v-0.958h1.79
	v-1.139h1.174v1.139h0.752v-1.139h1.173v1.222c0.173,0.034,0.332,0.074,0.466,0.129c0.344,0.141,0.61,0.342,0.794,0.605
	c0.183,0.264,0.275,0.553,0.275,0.868c0,0.227-0.049,0.445-0.146,0.65c-0.096,0.205-0.238,0.386-0.422,0.543
	c-0.184,0.157-0.428,0.287-0.731,0.389c0.325,0.082,0.574,0.175,0.745,0.274c0.249,0.14,0.443,0.333,0.591,0.584
	c0.146,0.25,0.22,0.528,0.22,0.835C-147.667-218.636-147.781-218.297-148.002-217.988z M-137.525-216.437v1.5
	c0,0.276-0.224,0.5-0.5,0.5s-0.5-0.224-0.5-0.5v-1.5c0-0.276,0.224-0.5,0.5-0.5S-137.525-216.713-137.525-216.437z
	 M-163.424-210.224c0.104,0.256-0.02,0.547-0.276,0.651c-0.062,0.025-0.125,0.037-0.188,0.037c-0.198,0-0.385-0.118-0.463-0.313
	c-0.226-0.559-0.34-1.149-0.34-1.755v-1.364c0-0.276,0.224-0.5,0.5-0.5s0.5,0.224,0.5,0.5v1.364
	C-163.691-211.126-163.602-210.662-163.424-210.224z M-164.691-227.821v-1.576c0-0.526,0.086-1.042,0.257-1.534
	c0.09-0.261,0.375-0.4,0.636-0.308c0.261,0.09,0.399,0.375,0.308,0.636c-0.134,0.386-0.202,0.792-0.202,1.206v1.576
	c0,0.276-0.224,0.5-0.5,0.5S-164.691-227.544-164.691-227.821z M-164.691-221.879v-2.971c0-0.276,0.224-0.5,0.5-0.5
	s0.5,0.224,0.5,0.5v2.971c0,0.276-0.224,0.5-0.5,0.5S-164.691-221.603-164.691-221.879z M-164.691-215.938v-2.971
	c0-0.276,0.224-0.5,0.5-0.5s0.5,0.224,0.5,0.5v2.971c0,0.276-0.224,0.5-0.5,0.5S-164.691-215.662-164.691-215.938z
	 M-156.776-233.583c0-0.276,0.224-0.5,0.5-0.5h2.971c0.276,0,0.5,0.224,0.5,0.5s-0.224,0.5-0.5,0.5h-2.971
	C-156.552-233.083-156.776-233.307-156.776-233.583z M-139.329-231.695c-0.172-0.216-0.137-0.531,0.079-0.703
	c0.216-0.172,0.53-0.137,0.703,0.079c0.659,0.826,1.022,1.864,1.022,2.922v0.151c0,0.276-0.224,0.5-0.5,0.5s-0.5-0.224-0.5-0.5
	v-0.151C-138.525-230.241-138.803-231.036-139.329-231.695z M-144.893-233.583c0-0.276,0.224-0.5,0.5-0.5h2.182
	c0.293,0,0.588,0.027,0.876,0.082c0.271,0.051,0.45,0.313,0.398,0.584c-0.045,0.24-0.255,0.407-0.491,0.407
	c-0.031,0-0.062-0.003-0.093-0.009c-0.227-0.043-0.459-0.064-0.691-0.064h-2.182C-144.669-233.083-144.893-233.307-144.893-233.583z
	 M-150.834-233.583c0-0.276,0.224-0.5,0.5-0.5h2.971c0.276,0,0.5,0.224,0.5,0.5s-0.224,0.5-0.5,0.5h-2.971
	C-150.611-233.083-150.834-233.307-150.834-233.583z M-162.115-232.513c-0.172,0-0.339-0.088-0.432-0.248
	c-0.139-0.238-0.059-0.545,0.179-0.684c0.714-0.417,1.531-0.638,2.363-0.639h0.758c0.276,0,0.5,0.224,0.5,0.5s-0.224,0.5-0.5,0.5
	h-0.758c-0.655,0-1.297,0.174-1.858,0.502C-161.942-232.535-162.029-232.513-162.115-232.513z M-146.653-207.417
	c0,0.276-0.224,0.5-0.5,0.5h-2.971c-0.276,0-0.5-0.224-0.5-0.5s0.224-0.5,0.5-0.5h2.971
	C-146.876-207.917-146.653-207.693-146.653-207.417z M-137.525-211.966v0.363c0,0.989-0.304,1.934-0.88,2.733
	c-0.098,0.136-0.251,0.208-0.406,0.208c-0.101,0-0.203-0.031-0.292-0.094c-0.224-0.161-0.275-0.474-0.114-0.698
	c0.452-0.628,0.691-1.372,0.691-2.149v-0.363c0-0.276,0.224-0.5,0.5-0.5S-137.525-212.243-137.525-211.966z M-140.735-207.653
	c0.065,0.269-0.1,0.539-0.368,0.604c-0.36,0.087-0.731,0.132-1.103,0.132c-0.002,0-0.004,0-0.006,0h-1.97
	c-0.276,0-0.5-0.224-0.5-0.5s0.224-0.5,0.5-0.5h1.971c0.296-0.042,0.587-0.034,0.872-0.104
	C-141.074-208.088-140.8-207.921-140.735-207.653z M-158.535-207.417c0,0.276-0.224,0.5-0.5,0.5h-0.969
	c-0.75,0-1.495-0.181-2.156-0.524c-0.245-0.127-0.34-0.429-0.213-0.674c0.127-0.245,0.428-0.341,0.674-0.213
	c0.527,0.273,1.097,0.412,1.695,0.412h0.969C-158.759-207.917-158.535-207.693-158.535-207.417z M-152.594-207.417
	c0,0.276-0.224,0.5-0.5,0.5h-2.97c-0.276,0-0.5-0.224-0.5-0.5s0.224-0.5,0.5-0.5h2.97
	C-152.818-207.917-152.594-207.693-152.594-207.417z M-137.525-226.226v1.5c0,0.276-0.224,0.5-0.5,0.5s-0.5-0.224-0.5-0.5v-1.5
	c0-0.276,0.224-0.5,0.5-0.5S-137.525-226.502-137.525-226.226z M-133.274-220.5l0.003-0.442c0.012-0.966,0.022-1.8-0.514-2.343
	c-0.185-0.187-0.42-0.31-0.698-0.384v-7.457c0-3.309-2.691-6-6-6h-21.25c-3.309,0-6,2.691-6,6v21.25c0,3.309,2.691,6,6,6h21.25
	c3.309,0,6-2.691,6-6v-7.457c0.278-0.074,0.514-0.197,0.698-0.384c0.536-0.543,0.526-1.377,0.514-2.343L-133.274-220.5z
	 M-140.483-205.875h-21.25c-2.206,0-4-1.794-4-4v-21.25c0-2.206,1.794-4,4-4h21.25c2.206,0,4,1.794,4,4v7.375h-1.375
	c-1.792,0-3.25,1.458-3.25,3.25s1.458,3.25,3.25,3.25h1.375v7.375C-136.483-207.669-138.277-205.875-140.483-205.875z
	 M-134.271-220.045c0.009,0.71,0.017,1.381-0.226,1.627c-0.061,0.062-0.159,0.103-0.278,0.13c-0.181-0.182-0.432-0.295-0.709-0.295
	c-0.293,0-0.551,0.131-0.734,0.333h-1.641c-1.241,0-2.25-1.009-2.25-2.25s1.009-2.25,2.25-2.25h1.584
	c0.183,0.247,0.461,0.417,0.791,0.417c0.31,0,0.576-0.149,0.759-0.37c0.097,0.028,0.174,0.067,0.228,0.121
	c0.243,0.246,0.234,0.917,0.226,1.627l-0.004,0.455L-134.271-220.045z M-136.108-220.5c0,0.829-0.671,1.5-1.5,1.5
	s-1.5-0.671-1.5-1.5s0.671-1.5,1.5-1.5S-136.108-221.329-136.108-220.5z"/>
</svg>
