<?xml version="1.0" encoding="utf-8"?>
<!-- Generator: Adobe Illustrator 16.0.0, SVG Export Plug-In . SVG Version: 6.00 Build 0)  -->
<!DOCTYPE svg PUBLIC "-//W3C//DTD SVG 1.1//EN" "http://www.w3.org/Graphics/SVG/1.1/DTD/svg11.dtd">
<svg version="1.1" id="Layer_1" xmlns="http://www.w3.org/2000/svg" xmlns:xlink="http://www.w3.org/1999/xlink" x="0px" y="0px"
	 width="50px" height="50px" viewBox="-35.5 -245.5 50 50" enable-background="new -35.5 -245.5 50 50" xml:space="preserve">
<path d="M-15.531-222.962h-0.604v-1.345h0.604c0.354,0,0.599,0.022,0.736,0.066c0.137,0.043,0.241,0.116,0.314,0.219
	c0.072,0.103,0.108,0.226,0.108,0.372c0,0.139-0.038,0.263-0.115,0.369c-0.076,0.106-0.19,0.187-0.342,0.239
	S-15.213-222.962-15.531-222.962z M-14.723-222.064c-0.152-0.058-0.386-0.087-0.698-0.087h-0.714v1.195
	c0.003,0.169,0.009,0.268,0.02,0.296c0.014,0.037,0.034,0.063,0.065,0.077c0.029,0.014,0.112,0.022,0.246,0.022h0.402
	c0.234,0,0.428-0.022,0.582-0.065c0.154-0.043,0.285-0.134,0.393-0.271c0.108-0.137,0.162-0.302,0.162-0.494
	c0-0.164-0.038-0.301-0.114-0.416C-14.456-221.92-14.57-222.006-14.723-222.064z M-8.898-222.438c0,3.642-2.953,6.595-6.596,6.595
	c-3.642,0-6.594-2.953-6.594-6.595c0-3.643,2.952-6.595,6.594-6.595C-11.851-229.032-8.898-226.08-8.898-222.438z M-12.833-221.245
	c0-0.246-0.058-0.468-0.174-0.666c-0.115-0.2-0.272-0.354-0.471-0.466c-0.137-0.079-0.334-0.151-0.593-0.217
	c0.241-0.082,0.435-0.186,0.582-0.311c0.146-0.125,0.258-0.27,0.337-0.433c0.077-0.163,0.116-0.336,0.116-0.519
	c0-0.25-0.073-0.48-0.221-0.69c-0.147-0.209-0.358-0.371-0.632-0.482c-0.107-0.043-0.233-0.076-0.37-0.102v-0.974h-0.935v0.908h-0.6
	v-0.908h-0.935v0.908h-1.426v0.763h0.218c0.146,0,0.243,0.014,0.295,0.04s0.087,0.063,0.108,0.106
	c0.021,0.045,0.032,0.149,0.032,0.313v3.077c0,0.161-0.011,0.264-0.032,0.31c-0.021,0.047-0.057,0.083-0.108,0.107
	c-0.052,0.025-0.149,0.038-0.295,0.038h-0.218v0.763h1.426v0.908h0.935v-0.908h0.53c0.024,0,0.047,0,0.069,0v0.909h0.935v-0.987
	c0.156-0.029,0.294-0.068,0.412-0.115c0.322-0.129,0.571-0.316,0.748-0.563C-12.922-220.684-12.833-220.953-12.833-221.245z
	 M7.245-215.726c0,3.858-3.139,6.997-6.996,6.997h-7.937v0.823H-5.6l-4.9,4.9l-4.9-4.901h2.089v-0.823h-7.806
	c-3.858,0-6.997-3.139-6.997-6.997c0-2.219,1.078-4.318,2.854-5.629c-0.043-0.37-0.064-0.729-0.064-1.083
	c0-5.422,4.411-9.834,9.832-9.834c4.13,0,7.751,2.55,9.183,6.333c0.785-0.297,1.618-0.451,2.458-0.451
	c2.711,0,5.197,1.604,6.338,4.041C5.312-221.396,7.245-218.742,7.245-215.726z M5.245-215.726c0-2.274-1.54-4.261-3.745-4.831
	c-0.313-0.081-0.568-0.309-0.684-0.612c-0.735-1.926-2.611-3.221-4.668-3.221c-0.895,0-1.779,0.246-2.557,0.71
	c-0.273,0.163-0.606,0.187-0.899,0.064s-0.51-0.377-0.585-0.685c-0.858-3.516-3.984-5.972-7.601-5.972
	c-4.318,0-7.832,3.514-7.832,7.834c0,0.44,0.043,0.894,0.131,1.388c0.073,0.41-0.115,0.822-0.473,1.035
	c-1.532,0.913-2.447,2.516-2.447,4.289c0,2.755,2.242,4.997,4.997,4.997h7.806v-2.935h5.623v2.935h7.937
	C3.003-210.729,5.245-212.97,5.245-215.726z M4.245-216.226c-0.276,0-0.5,0.224-0.5,0.5c0,1.928-1.568,3.497-3.496,3.497h-3.017
	c-0.276,0-0.5,0.224-0.5,0.5s0.224,0.5,0.5,0.5h3.017c2.479,0,4.496-2.018,4.496-4.497C4.745-216.002,4.521-216.226,4.245-216.226z
	 M-0.585-220.633l0.368,0.965c0.058,0.151,0.185,0.265,0.342,0.306l1,0.259c0.517,0.133,1.003,0.388,1.407,0.735
	c0.095,0.081,0.211,0.121,0.327,0.121c0.14,0,0.28-0.059,0.379-0.173c0.18-0.209,0.157-0.525-0.052-0.706
	c-0.519-0.447-1.145-0.774-1.81-0.946l-0.75-0.194L0.35-220.99c-0.663-1.734-2.351-2.899-4.202-2.899c-0.804,0-1.6,0.221-2.3,0.64
	c-0.237,0.142-0.314,0.448-0.173,0.686c0.142,0.237,0.449,0.313,0.686,0.173c0.546-0.326,1.164-0.498,1.788-0.498
	C-2.413-222.889-1.1-221.982-0.585-220.633z"/>
</svg>
