<?xml version="1.0" encoding="utf-8"?>
<!-- Generator: Adobe Illustrator 16.0.0, SVG Export Plug-In . SVG Version: 6.00 Build 0)  -->
<!DOCTYPE svg PUBLIC "-//W3C//DTD SVG 1.1//EN" "http://www.w3.org/Graphics/SVG/1.1/DTD/svg11.dtd">
<svg version="1.1" id="Layer_1" xmlns="http://www.w3.org/2000/svg" xmlns:xlink="http://www.w3.org/1999/xlink" x="0px" y="0px"
	 width="50px" height="50px" viewBox="34.5 -245.5 50 50" enable-background="new 34.5 -245.5 50 50" xml:space="preserve">
<path d="M55.556-221.807c0.076,0.114,0.114,0.251,0.114,0.416c0,0.192-0.054,0.357-0.162,0.494
	c-0.107,0.137-0.238,0.228-0.393,0.271c-0.154,0.043-0.348,0.065-0.582,0.065h-0.402c-0.134,0-0.217-0.008-0.246-0.022
	c-0.031-0.015-0.052-0.041-0.065-0.077c-0.011-0.028-0.017-0.127-0.02-0.296v-1.195h0.714c0.313,0,0.546,0.029,0.698,0.087
	C55.365-222.006,55.479-221.92,55.556-221.807z M61.037-222.438c0,3.642-2.953,6.595-6.596,6.595c-3.642,0-6.594-2.953-6.594-6.595
	c0-3.643,2.952-6.595,6.594-6.595C58.084-229.032,61.037-226.08,61.037-222.438z M57.102-221.245c0-0.246-0.058-0.468-0.174-0.666
	c-0.115-0.2-0.272-0.354-0.471-0.466c-0.137-0.079-0.334-0.151-0.593-0.217c0.241-0.082,0.435-0.186,0.582-0.311
	c0.146-0.125,0.258-0.27,0.337-0.433c0.077-0.163,0.116-0.336,0.116-0.519c0-0.25-0.073-0.48-0.221-0.69
	c-0.147-0.209-0.358-0.371-0.632-0.482c-0.107-0.043-0.233-0.076-0.37-0.102v-0.974h-0.935v0.908h-0.6v-0.908h-0.935v0.908h-1.426
	v0.763H52c0.146,0,0.243,0.014,0.295,0.04s0.087,0.063,0.108,0.106c0.021,0.045,0.032,0.149,0.032,0.313v3.077
	c0,0.161-0.011,0.264-0.032,0.31c-0.021,0.047-0.057,0.083-0.108,0.107c-0.052,0.025-0.149,0.038-0.295,0.038h-0.218v0.763h1.426
	v0.908h0.935v-0.908h0.53c0.024,0,0.047,0,0.069,0v0.909h0.935v-0.987c0.156-0.029,0.294-0.068,0.412-0.115
	c0.322-0.129,0.571-0.316,0.748-0.563C57.013-220.684,57.102-220.953,57.102-221.245z M55.106-223.041
	c0.151-0.053,0.266-0.133,0.342-0.239c0.077-0.106,0.115-0.23,0.115-0.369c0-0.146-0.036-0.269-0.108-0.372
	c-0.073-0.104-0.178-0.176-0.314-0.219c-0.138-0.043-0.383-0.066-0.736-0.066H53.8v1.345h0.604
	C54.722-222.962,54.955-222.988,55.106-223.041z M77.18-215.726c0,3.858-3.139,6.997-6.996,6.997H48.817
	c-3.858,0-6.997-3.139-6.997-6.997c0-2.219,1.078-4.318,2.854-5.629c-0.043-0.37-0.064-0.729-0.064-1.083
	c0-5.422,4.41-9.834,9.832-9.834c4.131,0,7.751,2.55,9.183,6.333c0.785-0.297,1.618-0.451,2.459-0.451
	c2.711,0,5.197,1.604,6.339,4.041C75.247-221.396,77.18-218.742,77.18-215.726z M75.18-215.726c0-2.274-1.54-4.261-3.744-4.831
	c-0.313-0.081-0.568-0.309-0.685-0.612c-0.735-1.926-2.611-3.221-4.668-3.221c-0.895,0-1.778,0.246-2.557,0.71
	c-0.272,0.163-0.605,0.186-0.898,0.064c-0.293-0.123-0.511-0.377-0.586-0.685c-0.858-3.516-3.984-5.972-7.601-5.972
	c-4.318,0-7.832,3.514-7.832,7.834c0,0.44,0.043,0.894,0.131,1.388c0.073,0.41-0.115,0.822-0.473,1.035
	c-1.532,0.913-2.447,2.516-2.447,4.289c0,2.755,2.241,4.997,4.997,4.997h21.366C72.938-210.729,75.18-212.97,75.18-215.726z
	 M74.18-216.226c-0.276,0-0.5,0.224-0.5,0.5c0,1.928-1.568,3.497-3.496,3.497h-3.017c-0.276,0-0.5,0.224-0.5,0.5s0.224,0.5,0.5,0.5
	h3.017c2.479,0,4.496-2.018,4.496-4.497C74.68-216.002,74.456-216.226,74.18-216.226z M69.351-220.633l0.368,0.965
	c0.058,0.151,0.185,0.265,0.342,0.306l0.999,0.259c0.518,0.133,1.004,0.388,1.407,0.735c0.094,0.081,0.21,0.121,0.326,0.121
	c0.141,0,0.28-0.059,0.379-0.173c0.18-0.209,0.156-0.525-0.053-0.706c-0.519-0.447-1.145-0.774-1.81-0.946l-0.749-0.194
	l-0.276-0.724c-0.662-1.734-2.351-2.899-4.201-2.899c-0.805,0-1.6,0.221-2.301,0.64c-0.236,0.142-0.314,0.448-0.173,0.686
	s0.448,0.312,0.687,0.173c0.545-0.326,1.163-0.498,1.787-0.498C67.521-222.889,68.835-221.982,69.351-220.633z"/>
</svg>
