<?xml version="1.0" encoding="utf-8"?>
<!-- Generator: Adobe Illustrator 16.0.0, SVG Export Plug-In . SVG Version: 6.00 Build 0)  -->
<!DOCTYPE svg PUBLIC "-//W3C//DTD SVG 1.1//EN" "http://www.w3.org/Graphics/SVG/1.1/DTD/svg11.dtd">
<svg version="1.1" id="Layer_1" xmlns="http://www.w3.org/2000/svg" xmlns:xlink="http://www.w3.org/1999/xlink" x="0px" y="0px"
	 width="50px" height="50px" viewBox="104.5 -245.5 50 50" enable-background="new 104.5 -245.5 50 50" xml:space="preserve">
<path d="M146.813-211.396h-1.571c0.105-0.158,0.182-0.337,0.182-0.542v-18.667c0-0.552-0.447-1-1-1h-29.846c-0.553,0-1,0.448-1,1
	v18.667c0,0.205,0.076,0.384,0.182,0.542h-1.571c-0.553,0-1,0.448-1,1s0.447,1,1,1h34.625c0.553,0,1-0.448,1-1
	S147.365-211.396,146.813-211.396z M129.61-217.599c0.485,0,0.847,0.046,1.084,0.136c0.236,0.089,0.414,0.222,0.531,0.398
	c0.12,0.176,0.18,0.391,0.18,0.644c0,0.299-0.082,0.554-0.25,0.767c-0.169,0.213-0.373,0.353-0.609,0.42
	c-0.239,0.067-0.541,0.102-0.904,0.102h-0.625c-0.208,0-0.336-0.012-0.383-0.035c-0.047-0.022-0.08-0.062-0.1-0.119
	c-0.018-0.046-0.029-0.199-0.031-0.461v-1.853H129.61z M128.503-218.856v-2.087h0.938c0.549,0,0.931,0.034,1.143,0.102
	c0.213,0.068,0.375,0.181,0.487,0.341c0.113,0.16,0.169,0.352,0.169,0.577c0,0.217-0.06,0.408-0.178,0.574
	c-0.119,0.166-0.297,0.289-0.531,0.371c-0.235,0.081-0.599,0.123-1.09,0.123H128.503z M129.035-213.764h0.823
	c0.036,0,0.071-0.001,0.106-0.001v0.828h-0.93V-213.764z M115.577-229.604h27.846v16.667h-4.087v-15.275h-4.887v15.275h-3.035
	v-0.948c0.243-0.046,0.459-0.106,0.641-0.179c0.5-0.2,0.886-0.491,1.16-0.875c0.272-0.381,0.412-0.8,0.412-1.254
	c0-0.38-0.091-0.725-0.272-1.034c-0.177-0.309-0.423-0.549-0.729-0.721c-0.213-0.123-0.519-0.235-0.92-0.337
	c0.375-0.127,0.674-0.287,0.902-0.482c0.228-0.194,0.403-0.418,0.522-0.671c0.122-0.254,0.182-0.521,0.182-0.804
	c0-0.389-0.113-0.746-0.344-1.071c-0.228-0.325-0.556-0.574-0.979-0.748c-0.166-0.067-0.361-0.119-0.576-0.16v-1.509h-1.449v1.408
	h-0.93v-1.408h-1.449v1.408h-2.213v1.184h0.337c0.224,0,0.379,0.021,0.458,0.062c0.08,0.041,0.136,0.096,0.169,0.166
	c0.03,0.07,0.049,0.231,0.049,0.484v4.774c0,0.25-0.019,0.411-0.049,0.481c-0.033,0.072-0.089,0.127-0.169,0.166
	c-0.079,0.04-0.234,0.059-0.458,0.059h-0.337v1.184h2.213v0.827h-3.035v-6.146h-4.887v6.146h-4.087V-229.604z"/>
</svg>
