<?xml version="1.0" encoding="utf-8"?>
<!-- Generator: Adobe Illustrator 16.0.0, SVG Export Plug-In . SVG Version: 6.00 Build 0)  -->
<!DOCTYPE svg PUBLIC "-//W3C//DTD SVG 1.1//EN" "http://www.w3.org/Graphics/SVG/1.1/DTD/svg11.dtd">
<svg version="1.1" id="Layer_1" xmlns="http://www.w3.org/2000/svg" xmlns:xlink="http://www.w3.org/1999/xlink" x="0px" y="0px"
	 width="50px" height="50px" viewBox="174.5 -245.5 50 50" enable-background="new 174.5 -245.5 50 50" xml:space="preserve">
<path d="M205.328-215.897c-0.271-0.466-0.641-0.83-1.102-1.089c-0.324-0.185-0.785-0.355-1.393-0.509
	c0.566-0.192,1.02-0.435,1.364-0.729c0.346-0.293,0.608-0.632,0.79-1.016c0.183-0.384,0.276-0.788,0.276-1.215
	c0-0.587-0.174-1.126-0.52-1.618c-0.347-0.492-0.843-0.869-1.482-1.131c-0.25-0.102-0.546-0.179-0.869-0.241v-2.282h-2.188v2.129
	h-1.408v-2.129h-2.19v2.129h-3.344v1.79h0.509c0.34,0,0.572,0.031,0.692,0.093c0.122,0.062,0.205,0.145,0.256,0.25
	c0.048,0.105,0.073,0.348,0.073,0.732v7.215c0,0.377-0.025,0.621-0.073,0.729c-0.051,0.108-0.134,0.191-0.256,0.25
	c-0.12,0.058-0.353,0.088-0.692,0.088h-0.509v1.79h3.344v2.128h2.19v-2.128h1.245c0.056,0,0.107-0.001,0.163-0.001v2.13h2.188
	v-2.313c0.368-0.069,0.692-0.16,0.969-0.27c0.755-0.303,1.338-0.743,1.754-1.322c0.412-0.578,0.621-1.21,0.621-1.896
	C205.737-214.91,205.602-215.43,205.328-215.897z M201.137-221.359c0.322,0.103,0.567,0.274,0.738,0.515s0.253,0.532,0.253,0.872
	c0,0.328-0.089,0.616-0.268,0.868c-0.18,0.25-0.448,0.437-0.803,0.561c-0.355,0.123-0.905,0.185-1.646,0.185h-1.417v-3.153h1.417
	C200.239-221.512,200.814-221.461,201.137-221.359z M199.713-212.73h-0.943c-0.313,0-0.507-0.017-0.578-0.052
	c-0.069-0.034-0.121-0.094-0.153-0.18c-0.023-0.069-0.039-0.3-0.044-0.696v-2.8h1.674c0.732,0,1.281,0.068,1.639,0.205
	c0.356,0.135,0.625,0.336,0.804,0.602c0.181,0.267,0.269,0.59,0.269,0.974c0,0.452-0.125,0.838-0.379,1.159
	c-0.253,0.322-0.562,0.533-0.922,0.635C200.719-212.782,200.264-212.73,199.713-212.73z M192.019-208.5h-7.385v-10.203h7.385V-208.5
	z M214.366-208.5h-7.385v-24h7.385V-208.5z"/>
</svg>
