<?xml version="1.0" encoding="utf-8"?>
<!-- Generator: Adobe Illustrator 16.0.0, SVG Export Plug-In . SVG Version: 6.00 Build 0)  -->
<!DOCTYPE svg PUBLIC "-//W3C//DTD SVG 1.1//EN" "http://www.w3.org/Graphics/SVG/1.1/DTD/svg11.dtd">
<svg version="1.1" id="Layer_1" xmlns="http://www.w3.org/2000/svg" xmlns:xlink="http://www.w3.org/1999/xlink" x="0px" y="0px"
	 width="50px" height="50px" viewBox="244.5 -245.5 50 50" enable-background="new 244.5 -245.5 50 50" xml:space="preserve">
<path d="M275.629-212.752c-0.279-0.483-0.662-0.859-1.141-1.128c-0.335-0.191-0.813-0.368-1.441-0.527
	c0.586-0.199,1.056-0.451,1.412-0.754c0.358-0.304,0.63-0.655,0.818-1.052c0.189-0.397,0.286-0.816,0.286-1.258
	c0-0.608-0.18-1.167-0.538-1.675c-0.358-0.509-0.872-0.899-1.535-1.171c-0.258-0.105-0.564-0.186-0.899-0.25v-2.362h-2.267v2.204
	h-1.457v-2.204h-2.269v2.204h-3.462v1.853h0.527c0.352,0,0.592,0.032,0.716,0.096c0.126,0.064,0.213,0.15,0.266,0.259
	c0.049,0.109,0.075,0.361,0.075,0.758v7.471c0,0.391-0.026,0.642-0.075,0.754c-0.053,0.112-0.14,0.198-0.266,0.259
	c-0.124,0.061-0.364,0.091-0.716,0.091h-0.527v1.853h3.462v2.204h2.269v-2.204h1.289c0.057,0,0.111,0,0.168-0.001v2.206h2.267
	v-2.395c0.381-0.072,0.717-0.165,1.003-0.279c0.782-0.314,1.386-0.77,1.816-1.369c0.427-0.598,0.643-1.253,0.643-1.964
	C276.053-211.73,275.912-212.268,275.629-212.752z M271.29-218.408c0.334,0.106,0.587,0.284,0.764,0.534s0.263,0.55,0.263,0.902
	c0,0.339-0.092,0.638-0.277,0.898c-0.187,0.259-0.465,0.453-0.831,0.581c-0.368,0.127-0.938,0.192-1.705,0.192h-1.468v-3.265h1.468
	C270.36-218.566,270.956-218.514,271.29-218.408z M269.815-209.473h-0.977c-0.324,0-0.525-0.018-0.599-0.053
	c-0.072-0.035-0.126-0.098-0.159-0.187c-0.024-0.071-0.04-0.311-0.046-0.721v-2.9h1.733c0.759,0,1.327,0.071,1.696,0.212
	c0.37,0.14,0.648,0.349,0.833,0.624c0.187,0.276,0.278,0.611,0.278,1.008c0,0.467-0.129,0.867-0.393,1.2
	c-0.262,0.333-0.581,0.552-0.954,0.657C270.856-209.526,270.385-209.473,269.815-209.473z M261.849-205.093h-7.647v-10.564h7.647
	V-205.093z M284.988-205.093h-7.646v-24.851h7.646V-205.093z M277.235-233.175l-21.882,15.741l-1.342-1.869l21.882-15.742
	l-0.62-0.863l3.088,0.506l-0.507,3.088L277.235-233.175z"/>
</svg>
