<?xml version="1.0" encoding="utf-8"?>
<!-- Generator: Adobe Illustrator 16.0.0, SVG Export Plug-In . SVG Version: 6.00 Build 0)  -->
<!DOCTYPE svg PUBLIC "-//W3C//DTD SVG 1.1//EN" "http://www.w3.org/Graphics/SVG/1.1/DTD/svg11.dtd">
<svg version="1.1" id="Layer_1" xmlns="http://www.w3.org/2000/svg" xmlns:xlink="http://www.w3.org/1999/xlink" x="0px" y="0px"
	 width="50px" height="50px" viewBox="314.5 -245.5 50 50" enable-background="new 314.5 -245.5 50 50" xml:space="preserve">
<path d="M339.458-231.253h-0.697v-1.552h0.697c0.407,0,0.69,0.025,0.848,0.076c0.157,0.05,0.28,0.135,0.362,0.253
	c0.084,0.118,0.127,0.261,0.127,0.429c0,0.16-0.045,0.304-0.133,0.427c-0.089,0.123-0.219,0.215-0.394,0.276
	C340.094-231.284,339.823-231.253,339.458-231.253z M340.73-228.872c0.124-0.158,0.188-0.349,0.188-0.571
	c0-0.188-0.043-0.347-0.132-0.479c-0.089-0.13-0.219-0.229-0.396-0.295c-0.178-0.068-0.445-0.102-0.806-0.102h-0.823v1.378
	c0.001,0.196,0.009,0.31,0.021,0.343c0.015,0.042,0.041,0.073,0.075,0.088c0.035,0.018,0.13,0.027,0.284,0.027h0.465
	c0.269,0,0.493-0.027,0.672-0.076C340.456-228.609,340.606-228.713,340.73-228.872z M339.502-223.857
	c-3.752,0-6.793-3.04-6.793-6.792c0-3.75,3.041-6.792,6.793-6.792c3.749,0,6.79,3.042,6.79,6.792
	C346.292-226.897,343.251-223.857,339.502-223.857z M339.155-227.466h0.612c0.027,0,0.053-0.001,0.079-0.001v1.048h1.078v-1.137
	c0.181-0.035,0.341-0.079,0.477-0.133c0.373-0.149,0.66-0.366,0.862-0.651c0.203-0.284,0.308-0.595,0.308-0.933
	c0-0.282-0.068-0.539-0.202-0.768c-0.136-0.23-0.314-0.408-0.543-0.537c-0.157-0.091-0.386-0.176-0.685-0.251
	c0.278-0.094,0.503-0.213,0.672-0.358c0.169-0.145,0.3-0.311,0.388-0.5c0.09-0.188,0.135-0.389,0.135-0.598
	c0-0.289-0.085-0.555-0.253-0.797c-0.17-0.241-0.414-0.427-0.73-0.556c-0.123-0.051-0.269-0.087-0.428-0.119v-1.123h-1.078v1.047
	h-0.691v-1.047h-1.079v1.047h-1.645v0.881h0.251c0.169,0,0.28,0.015,0.34,0.045c0.059,0.03,0.101,0.072,0.125,0.123
	c0.025,0.052,0.036,0.173,0.036,0.361v3.55c0,0.186-0.011,0.305-0.036,0.358c-0.024,0.054-0.066,0.094-0.125,0.123
	c-0.06,0.029-0.171,0.043-0.34,0.043h-0.251v0.88h1.645v1.047h1.079V-227.466z M339.985-206.576
	c0.111-0.039,0.193-0.097,0.248-0.174c0.057-0.078,0.084-0.169,0.084-0.27c0-0.106-0.027-0.196-0.08-0.271
	c-0.051-0.075-0.129-0.128-0.229-0.16s-0.277-0.047-0.535-0.047h-0.441v0.98h0.441C339.704-206.518,339.874-206.538,339.985-206.576
	z M340.062-205.863c-0.111-0.043-0.281-0.064-0.508-0.064h-0.521v0.871c0.002,0.124,0.006,0.196,0.014,0.217
	c0.01,0.027,0.025,0.046,0.047,0.055c0.023,0.012,0.082,0.017,0.18,0.017h0.295c0.17,0,0.311-0.017,0.424-0.048
	c0.113-0.032,0.207-0.098,0.285-0.198c0.08-0.1,0.119-0.22,0.119-0.361c0-0.119-0.027-0.219-0.084-0.303
	C340.257-205.759,340.175-205.821,340.062-205.863z M325.235-206.576c0.111-0.039,0.193-0.097,0.248-0.174
	c0.057-0.078,0.084-0.169,0.084-0.27c0-0.106-0.027-0.196-0.08-0.271c-0.051-0.075-0.129-0.128-0.229-0.16s-0.277-0.047-0.535-0.047
	h-0.441v0.98h0.441C324.954-206.518,325.124-206.538,325.235-206.576z M325.312-205.863c-0.111-0.043-0.281-0.064-0.508-0.064
	h-0.521v0.871c0.002,0.124,0.006,0.196,0.014,0.217c0.01,0.027,0.025,0.046,0.047,0.055c0.023,0.012,0.082,0.017,0.18,0.017h0.295
	c0.17,0,0.311-0.017,0.424-0.048c0.113-0.032,0.207-0.098,0.285-0.198c0.08-0.1,0.119-0.22,0.119-0.361
	c0-0.119-0.027-0.219-0.084-0.303C325.507-205.759,325.425-205.821,325.312-205.863z M354.735-206.576
	c0.111-0.039,0.193-0.097,0.248-0.174c0.057-0.078,0.084-0.169,0.084-0.27c0-0.106-0.027-0.196-0.08-0.271
	c-0.051-0.075-0.129-0.128-0.229-0.16s-0.277-0.047-0.535-0.047h-0.441v0.98h0.441C354.454-206.518,354.624-206.538,354.735-206.576
	z M354.812-205.863c-0.111-0.043-0.281-0.064-0.508-0.064h-0.521v0.871c0.002,0.124,0.006,0.196,0.014,0.217
	c0.01,0.027,0.025,0.046,0.047,0.055c0.023,0.012,0.082,0.017,0.18,0.017h0.295c0.17,0,0.311-0.017,0.424-0.048
	c0.113-0.032,0.207-0.098,0.285-0.198c0.08-0.1,0.119-0.22,0.119-0.361c0-0.119-0.027-0.219-0.084-0.303
	C355.007-205.759,354.925-205.821,354.812-205.863z M358.542-206.136c0,2.371-1.922,4.292-4.291,4.292
	c-2.371,0-4.293-1.921-4.293-4.292c0-2.147,1.582-3.911,3.643-4.227v-6.208h-13.45v6.208c2.059,0.315,3.642,2.079,3.642,4.227
	c0,2.371-1.922,4.292-4.291,4.292c-2.371,0-4.293-1.921-4.293-4.292c0-2.147,1.582-3.911,3.642-4.226v-6.208h-13.45v6.208
	c2.06,0.315,3.643,2.079,3.643,4.227c0,2.371-1.922,4.292-4.291,4.292c-2.371,0-4.293-1.921-4.293-4.292
	c0-2.147,1.581-3.91,3.641-4.226v-6.858c0-0.359,0.291-0.65,0.65-0.65h14.101v-4.305c-4.387-0.335-7.855-4.003-7.855-8.474
	c0-4.69,3.816-8.507,8.508-8.507c4.689,0,8.504,3.816,8.504,8.507c0,4.472-3.469,8.141-7.855,8.474v4.304h14.101
	c0.359,0,0.65,0.291,0.65,0.65v6.858C356.96-210.047,358.542-208.283,358.542-206.136z M339.502-223.06
	c4.189,0,7.587-3.397,7.587-7.589c0-4.191-3.397-7.589-7.587-7.589c-4.192,0-7.59,3.398-7.59,7.589
	C331.912-226.457,335.31-223.06,339.502-223.06z M325.649-208.1v-0.709h-0.68v0.662h-0.438v-0.662h-0.682v0.662h-1.039v0.557h0.158
	c0.107,0,0.178,0.009,0.215,0.028s0.063,0.046,0.078,0.078c0.016,0.033,0.023,0.109,0.023,0.229v2.243
	c0,0.117-0.008,0.192-0.023,0.227c-0.016,0.034-0.041,0.06-0.078,0.078c-0.037,0.019-0.107,0.027-0.215,0.027h-0.158v0.557h1.039
	v0.662h0.682v-0.662h0.387c0.018,0,0.033-0.001,0.051-0.001v0.663h0.68v-0.719c0.115-0.022,0.217-0.05,0.303-0.084
	c0.234-0.094,0.416-0.231,0.543-0.412c0.129-0.179,0.195-0.376,0.195-0.589c0-0.178-0.043-0.34-0.127-0.485
	c-0.086-0.145-0.199-0.258-0.344-0.339c-0.1-0.058-0.244-0.112-0.434-0.159c0.178-0.06,0.318-0.135,0.426-0.226
	c0.107-0.092,0.189-0.196,0.244-0.315c0.057-0.119,0.086-0.246,0.086-0.378c0-0.183-0.055-0.351-0.16-0.504
	c-0.107-0.152-0.262-0.27-0.461-0.351C325.843-208.057,325.751-208.08,325.649-208.1z M340.399-208.1v-0.709h-0.68v0.662h-0.438
	v-0.662h-0.682v0.662h-1.039v0.557h0.158c0.107,0,0.178,0.009,0.215,0.028s0.063,0.046,0.078,0.078
	c0.016,0.033,0.023,0.109,0.023,0.229v2.243c0,0.117-0.008,0.192-0.023,0.227c-0.016,0.034-0.041,0.06-0.078,0.078
	c-0.037,0.019-0.107,0.027-0.215,0.027h-0.158v0.557h1.039v0.662h0.682v-0.662h0.387c0.018,0,0.033-0.001,0.051-0.001v0.663h0.68
	v-0.719c0.115-0.022,0.217-0.05,0.303-0.084c0.234-0.094,0.416-0.231,0.543-0.412c0.129-0.179,0.195-0.376,0.195-0.589
	c0-0.178-0.043-0.34-0.127-0.485c-0.086-0.145-0.199-0.258-0.344-0.339c-0.1-0.058-0.244-0.112-0.434-0.159
	c0.178-0.06,0.318-0.135,0.426-0.226c0.107-0.092,0.189-0.196,0.244-0.315c0.057-0.119,0.086-0.246,0.086-0.378
	c0-0.183-0.055-0.351-0.16-0.504c-0.107-0.152-0.262-0.27-0.461-0.351C340.593-208.057,340.501-208.08,340.399-208.1z
	 M356.19-205.267c0-0.178-0.043-0.34-0.127-0.485c-0.086-0.145-0.199-0.258-0.344-0.339c-0.1-0.058-0.244-0.112-0.434-0.159
	c0.178-0.06,0.318-0.135,0.426-0.226c0.107-0.092,0.189-0.196,0.244-0.315c0.057-0.119,0.086-0.246,0.086-0.378
	c0-0.183-0.055-0.351-0.16-0.504c-0.107-0.152-0.262-0.27-0.461-0.351c-0.078-0.032-0.17-0.055-0.271-0.075v-0.709h-0.68v0.662
	h-0.438v-0.662h-0.682v0.662h-1.039v0.557h0.158c0.107,0,0.178,0.009,0.215,0.028s0.063,0.046,0.078,0.078
	c0.016,0.033,0.023,0.109,0.023,0.229v2.243c0,0.117-0.008,0.192-0.023,0.227c-0.016,0.034-0.041,0.06-0.078,0.078
	c-0.037,0.019-0.107,0.027-0.215,0.027h-0.158v0.557h1.039v0.662h0.682v-0.662h0.387c0.018,0,0.033-0.001,0.051-0.001v0.663h0.68
	v-0.719c0.115-0.022,0.217-0.05,0.303-0.084c0.234-0.094,0.416-0.231,0.543-0.412C356.124-204.857,356.19-205.054,356.19-205.267z"
	/>
</svg>
