<?xml version="1.0" encoding="utf-8"?>
<!-- Generator: Adobe Illustrator 16.0.0, SVG Export Plug-In . SVG Version: 6.00 Build 0)  -->
<!DOCTYPE svg PUBLIC "-//W3C//DTD SVG 1.1//EN" "http://www.w3.org/Graphics/SVG/1.1/DTD/svg11.dtd">
<svg version="1.1" id="Layer_1" xmlns="http://www.w3.org/2000/svg" xmlns:xlink="http://www.w3.org/1999/xlink" x="0px" y="0px"
	 width="50px" height="50px" viewBox="-315.5 -175.5 50 50" enable-background="new -315.5 -175.5 50 50" xml:space="preserve">
<path d="M-295.802-158.729l-0.759,0.012l-0.025-1.689l0.759-0.011c0.443-0.006,0.752,0.016,0.923,0.068
	c0.172,0.052,0.307,0.143,0.399,0.27c0.093,0.126,0.143,0.282,0.145,0.465c0.003,0.174-0.043,0.331-0.137,0.466
	c-0.095,0.135-0.235,0.238-0.424,0.307C-295.11-158.772-295.404-158.734-295.802-158.729z M-294.771-157.617
	c-0.194-0.071-0.486-0.103-0.878-0.097l-0.896,0.013l0.022,1.499c0.005,0.213,0.015,0.337,0.029,0.374
	c0.017,0.046,0.046,0.079,0.083,0.094c0.039,0.019,0.142,0.027,0.31,0.025l0.506-0.008c0.292-0.004,0.535-0.038,0.729-0.094
	c0.192-0.058,0.354-0.173,0.487-0.347c0.133-0.175,0.198-0.383,0.195-0.625c-0.003-0.205-0.052-0.377-0.151-0.52
	C-294.434-157.441-294.576-157.547-294.771-157.617z M-276.002-139.328l-5.512,5.395c-0.175,0.171-0.402,0.257-0.629,0.257
	c-0.233,0-0.467-0.09-0.643-0.271c-0.348-0.355-0.342-0.925,0.014-1.272l4.226-4.136l-2.326-2.376l-2.751,2.692
	c-0.175,0.171-0.402,0.257-0.629,0.257c-0.233,0-0.467-0.09-0.643-0.271c-0.348-0.355-0.342-0.925,0.014-1.272l2.751-2.692
	l-7.739-7.908c-3.665,3.018-9.109,2.783-12.491-0.672c-3.57-3.647-3.508-9.519,0.14-13.088c3.648-3.57,9.521-3.507,13.091,0.141
	c3.333,3.406,3.496,8.75,0.535,12.35L-276.002-139.328z M-290.568-151.64l-0.614-0.628c-1.229,0.968-2.768,1.561-4.452,1.585
	c-4.082,0.061-7.44-3.197-7.5-7.28c-0.061-4.08,3.199-7.438,7.281-7.5c4.08-0.06,7.438,3.2,7.498,7.281
	c0.026,1.748-0.56,3.36-1.555,4.64l0.611,0.625c2.575-3.213,2.408-7.914-0.544-10.93c-3.19-3.261-8.418-3.317-11.679-0.126
	c-3.258,3.188-3.314,8.417-0.124,11.677C-298.646-149.229-293.84-149-290.568-151.64z M-294.146-154.73
	c0.196-0.041,0.37-0.091,0.517-0.153c0.404-0.168,0.713-0.409,0.928-0.722c0.216-0.312,0.325-0.652,0.32-1.02
	c-0.004-0.307-0.083-0.584-0.232-0.832c-0.151-0.248-0.349-0.439-0.6-0.575c-0.172-0.097-0.423-0.186-0.749-0.263
	c0.301-0.106,0.544-0.24,0.726-0.4s0.321-0.343,0.414-0.55c0.095-0.207,0.14-0.425,0.137-0.652
	c-0.005-0.315-0.101-0.603-0.289-0.863c-0.189-0.26-0.457-0.458-0.803-0.593c-0.135-0.053-0.294-0.091-0.468-0.122l-0.019-1.221
	l-1.172,0.018l0.017,1.139l-0.753,0.012l-0.017-1.14l-1.174,0.017l0.017,1.14l-1.79,0.026l0.014,0.958l0.274-0.004
	c0.183-0.003,0.305,0.012,0.37,0.043c0.064,0.032,0.111,0.078,0.138,0.132c0.029,0.056,0.042,0.188,0.046,0.393l0.058,3.863
	c0.003,0.202-0.007,0.332-0.034,0.39c-0.025,0.059-0.07,0.104-0.133,0.136c-0.064,0.033-0.185,0.05-0.37,0.053l-0.273,0.004
	l0.014,0.958l1.79-0.026l0.017,1.14l1.174-0.017l-0.017-1.14l0.666-0.009c0.03-0.001,0.058-0.002,0.086-0.002l0.017,1.14
	l1.173-0.017L-294.146-154.73z"/>
</svg>
