<?xml version="1.0" encoding="utf-8"?>
<!-- Generator: Adobe Illustrator 16.0.0, SVG Export Plug-In . SVG Version: 6.00 Build 0)  -->
<!DOCTYPE svg PUBLIC "-//W3C//DTD SVG 1.1//EN" "http://www.w3.org/Graphics/SVG/1.1/DTD/svg11.dtd">
<svg version="1.1" id="Layer_1" xmlns="http://www.w3.org/2000/svg" xmlns:xlink="http://www.w3.org/1999/xlink" x="0px" y="0px"
	 width="50px" height="50px" viewBox="-245.5 -175.5 50 50" enable-background="new -245.5 -175.5 50 50" xml:space="preserve">
<path d="M-217.097-140.394v-2.719c0.433-0.083,0.813-0.188,1.137-0.318c0.889-0.356,1.577-0.874,2.063-1.553
	c0.486-0.68,0.729-1.423,0.729-2.23c0-0.676-0.16-1.288-0.479-1.837c-0.32-0.548-0.752-0.976-1.297-1.281
	c-0.377-0.218-0.922-0.418-1.634-0.6c0.664-0.226,1.198-0.51,1.603-0.856c0.404-0.345,0.714-0.743,0.93-1.193
	c0.215-0.451,0.322-0.927,0.322-1.429c0-0.69-0.203-1.325-0.61-1.903c-0.407-0.578-0.988-1.021-1.743-1.33
	c-0.292-0.12-0.641-0.209-1.02-0.283v-2.683h-2.576v2.501h-1.655v-2.501h-2.576v2.501h-3.929v2.105h0.6
	c0.399,0,0.67,0.036,0.812,0.109c0.142,0.073,0.242,0.171,0.3,0.294c0.058,0.124,0.087,0.411,0.087,0.861v8.482
	c0,0.443-0.029,0.729-0.087,0.856c-0.059,0.127-0.158,0.226-0.3,0.294c-0.142,0.069-0.413,0.104-0.812,0.104h-0.6v2.104h3.929v2.502
	h2.576v-2.502h1.465c0.066,0,0.126-0.002,0.19-0.002v2.504H-217.097z M-222.271-155.652h1.667c0.975,0,1.65,0.06,2.028,0.18
	c0.378,0.12,0.667,0.322,0.867,0.605c0.2,0.284,0.3,0.625,0.3,1.025c0,0.385-0.105,0.725-0.316,1.02s-0.525,0.515-0.943,0.659
	c-0.417,0.146-1.063,0.219-1.936,0.219h-1.667V-155.652z M-220.248-145.327h-1.11c-0.37,0-0.597-0.021-0.681-0.061
	c-0.083-0.04-0.143-0.11-0.179-0.212c-0.029-0.08-0.047-0.353-0.054-0.818v-3.293h1.969c0.863,0,1.505,0.081,1.926,0.24
	c0.42,0.16,0.736,0.396,0.946,0.709c0.211,0.313,0.316,0.694,0.316,1.145c0,0.531-0.148,0.985-0.446,1.363
	c-0.297,0.378-0.658,0.627-1.082,0.747C-219.068-145.387-219.602-145.327-220.248-145.327z M-232.274-152.564l-5.233,4.995
	c-0.186,0.178-0.434,0.276-0.69,0.276c-0.008,0-0.016,0-0.023,0c-0.265-0.006-0.517-0.117-0.7-0.309l-4.992-5.234
	c-0.381-0.4-0.366-1.033,0.033-1.414c0.4-0.381,1.033-0.366,1.414,0.033l3.269,3.427c0.113-7.865,5.172-14.89,12.735-17.417
	c8.069-2.695,16.936,0.413,21.564,7.558c0.3,0.463,0.168,1.083-0.296,1.383c-0.464,0.301-1.083,0.167-1.383-0.296
	c-4.132-6.38-12.05-9.156-19.252-6.749c-6.792,2.27-11.317,8.604-11.365,15.677l3.54-3.378c0.4-0.38,1.032-0.367,1.414,0.033
	C-231.86-153.579-231.875-152.945-232.274-152.564z M-197.099-146.952c-0.389,0.392-1.022,0.396-1.414,0.007l-3.387-3.354
	c-0.076,7.901-5.141,14.969-12.731,17.505c-1.944,0.65-3.937,0.962-5.904,0.962c-6.194,0-12.147-3.097-15.661-8.521
	c-0.3-0.463-0.168-1.083,0.296-1.383c0.464-0.3,1.083-0.168,1.383,0.296c4.132,6.379,12.049,9.155,19.252,6.749
	c6.791-2.27,11.315-8.603,11.364-15.676l-3.431,3.462c-0.196,0.197-0.453,0.296-0.71,0.296c-0.254,0-0.509-0.097-0.704-0.29
	c-0.392-0.389-0.395-1.022-0.006-1.415l5.092-5.138c0.389-0.393,1.021-0.396,1.414-0.006l5.141,5.09
	C-196.713-147.978-196.71-147.345-197.099-146.952z"/>
</svg>
