<?xml version="1.0" encoding="utf-8"?>
<!-- Generator: Adobe Illustrator 16.0.0, SVG Export Plug-In . SVG Version: 6.00 Build 0)  -->
<!DOCTYPE svg PUBLIC "-//W3C//DTD SVG 1.1//EN" "http://www.w3.org/Graphics/SVG/1.1/DTD/svg11.dtd">
<svg version="1.1" id="Layer_1" xmlns="http://www.w3.org/2000/svg" xmlns:xlink="http://www.w3.org/1999/xlink" x="0px" y="0px"
	 width="50px" height="50px" viewBox="-175.5 -175.5 50 50" enable-background="new -175.5 -175.5 50 50" xml:space="preserve">
<path d="M-144.816-150.317c-0.377-0.218-0.922-0.418-1.634-0.6c0.664-0.226,1.198-0.51,1.603-0.856
	c0.404-0.345,0.714-0.743,0.93-1.193c0.215-0.451,0.322-0.927,0.322-1.429c0-0.69-0.203-1.325-0.61-1.903
	c-0.407-0.578-0.988-1.021-1.743-1.33c-0.292-0.12-0.641-0.209-1.02-0.283v-2.683h-2.576v2.501h-1.655v-2.501h-2.576v2.501h-3.929
	v2.105h0.6c0.399,0,0.67,0.036,0.812,0.109c0.142,0.073,0.242,0.171,0.3,0.294c0.058,0.124,0.087,0.411,0.087,0.861v8.482
	c0,0.443-0.029,0.729-0.087,0.856c-0.059,0.127-0.158,0.226-0.3,0.294c-0.142,0.069-0.413,0.104-0.812,0.104h-0.6v2.104h3.929v2.502
	h2.576v-2.502h1.465c0.066,0,0.126-0.002,0.19-0.002v2.504h2.576v-2.719c0.433-0.083,0.813-0.188,1.137-0.318
	c0.889-0.356,1.577-0.874,2.063-1.553c0.486-0.68,0.729-1.423,0.729-2.23c0-0.676-0.16-1.288-0.479-1.837
	C-143.839-149.585-144.271-150.013-144.816-150.317z M-152.143-155.638h1.667c0.975,0,1.65,0.06,2.028,0.18
	c0.378,0.12,0.667,0.322,0.867,0.605c0.2,0.284,0.3,0.625,0.3,1.025c0,0.385-0.105,0.725-0.316,1.02s-0.525,0.515-0.943,0.659
	c-0.417,0.146-1.063,0.219-1.936,0.219h-1.667V-155.638z M-147.433-146.24c-0.297,0.378-0.658,0.627-1.082,0.747
	c-0.425,0.12-0.959,0.18-1.604,0.18h-1.11c-0.37,0-0.597-0.021-0.681-0.061c-0.083-0.04-0.143-0.11-0.179-0.212
	c-0.029-0.08-0.047-0.353-0.054-0.818v-3.293h1.969c0.863,0,1.505,0.081,1.926,0.24c0.42,0.16,0.736,0.396,0.946,0.709
	c0.211,0.313,0.316,0.694,0.316,1.145C-146.986-147.072-147.135-146.618-147.433-146.24z M-133.083-157.235
	c0.375-0.341,0.707-0.733,0.957-1.191c0.585-1.075,0.716-2.314,0.37-3.488c-0.57-1.936-2.377-3.287-4.393-3.287
	c-0.438,0-0.876,0.063-1.299,0.188c-0.296,0.087-0.578,0.203-0.845,0.343c-6.462-5.536-15.839-6.005-22.811-1.138
	c-6.955,4.854-9.75,13.788-6.817,21.748c-1.256,1.146-1.837,2.938-1.325,4.676c0.571,1.936,2.378,3.288,4.394,3.288
	c0.438,0,0.875-0.063,1.298-0.188c0.276-0.082,0.538-0.191,0.789-0.319c0.055,0.097,0.119,0.19,0.208,0.267
	c3.482,2.987,7.812,4.501,12.157,4.501c3.719,0,7.448-1.109,10.665-3.355c6.975-4.868,9.768-13.84,6.793-21.817
	C-132.975-157.095-133.031-157.164-133.083-157.235z M-136.883-163.095c0.24-0.071,0.486-0.106,0.733-0.106
	c1.135,0,2.153,0.762,2.475,1.853c0.195,0.662,0.122,1.36-0.208,1.966c-0.33,0.606-0.876,1.047-1.538,1.243
	c-1.342,0.395-2.817-0.418-3.209-1.746c-0.195-0.663-0.121-1.361,0.209-1.967C-138.091-162.459-137.545-162.9-136.883-163.095z
	 M-164.12-138.204c-1.341,0.398-2.816-0.418-3.208-1.747c-0.403-1.366,0.381-2.806,1.747-3.209c0.239-0.07,0.486-0.106,0.732-0.106
	c1.136,0,2.154,0.762,2.476,1.854c0.195,0.662,0.121,1.36-0.208,1.966C-162.912-138.841-163.458-138.399-164.12-138.204z
	 M-140.879-136.831c-6.228,4.345-14.605,3.926-20.375-1.024c0,0-0.001,0-0.001-0.001c0.157-0.2,0.306-0.407,0.43-0.634
	c0.585-1.075,0.717-2.314,0.37-3.488c-0.571-1.935-2.378-3.287-4.394-3.287c-0.438,0-0.875,0.063-1.299,0.188
	c-0.001,0-0.002,0.001-0.003,0.001c-2.427-7.024,0.076-14.823,6.191-19.092c6.143-4.289,14.376-3.927,20.137,0.837
	c-0.125,0.169-0.252,0.335-0.354,0.522c-0.585,1.075-0.717,2.314-0.37,3.488c0.57,1.936,2.377,3.287,4.394,3.287
	c0.438,0,0.875-0.063,1.299-0.188c0.021-0.006,0.039-0.018,0.06-0.024C-132.176-149.14-134.671-141.165-140.879-136.831z"/>
</svg>
