<?xml version="1.0" encoding="utf-8"?>
<!-- Generator: Adobe Illustrator 16.0.0, SVG Export Plug-In . SVG Version: 6.00 Build 0)  -->
<!DOCTYPE svg PUBLIC "-//W3C//DTD SVG 1.1//EN" "http://www.w3.org/Graphics/SVG/1.1/DTD/svg11.dtd">
<svg version="1.1" id="Layer_1" xmlns="http://www.w3.org/2000/svg" xmlns:xlink="http://www.w3.org/1999/xlink" x="0px" y="0px"
	 width="50px" height="50px" viewBox="-105.5 -175.5 50 50" enable-background="new -105.5 -175.5 50 50" xml:space="preserve">
<path d="M-77.047-150.395c-0.234-0.136-0.573-0.261-1.016-0.373c0.413-0.14,0.744-0.317,0.996-0.532
	c0.25-0.215,0.443-0.462,0.578-0.742c0.133-0.28,0.2-0.576,0.2-0.888c0-0.429-0.126-0.823-0.379-1.183
	c-0.252-0.358-0.613-0.634-1.083-0.826c-0.182-0.075-0.398-0.13-0.633-0.176v-1.667h-1.601v1.555h-1.028v-1.555h-1.601v1.555h-2.441
	v1.308h0.373c0.248,0,0.417,0.022,0.504,0.068c0.088,0.045,0.15,0.106,0.187,0.183s0.054,0.255,0.054,0.535v5.271
	c0,0.276-0.018,0.453-0.054,0.532c-0.036,0.08-0.098,0.14-0.187,0.183c-0.088,0.043-0.256,0.064-0.504,0.064h-0.373v1.308h2.441
	v1.555h1.601v-1.555h0.91c0.042,0,0.079-0.001,0.119-0.001v1.556h1.601v-1.689c0.269-0.051,0.505-0.117,0.706-0.198
	c0.553-0.221,0.98-0.543,1.282-0.965c0.302-0.422,0.454-0.884,0.454-1.385c0-0.42-0.1-0.801-0.298-1.142
	C-76.44-149.94-76.709-150.205-77.047-150.395z M-81.601-153.701h1.036c0.606,0,1.026,0.037,1.261,0.111
	c0.235,0.075,0.415,0.2,0.539,0.376c0.124,0.177,0.186,0.389,0.186,0.637c0,0.24-0.064,0.45-0.196,0.633
	c-0.131,0.184-0.327,0.32-0.586,0.41c-0.259,0.09-0.661,0.136-1.203,0.136h-1.036V-153.701z M-78.673-147.861
	c-0.185,0.235-0.409,0.39-0.673,0.464c-0.264,0.075-0.596,0.112-0.997,0.112h-0.689c-0.23,0-0.372-0.013-0.423-0.038
	c-0.051-0.025-0.088-0.069-0.111-0.132c-0.018-0.05-0.029-0.22-0.034-0.509v-2.046h1.224c0.537,0,0.936,0.05,1.197,0.149
	c0.261,0.1,0.457,0.246,0.588,0.44s0.196,0.431,0.196,0.711C-78.396-148.378-78.489-148.096-78.673-147.861z M-80.5-169.25
	c-10.339,0-18.75,8.411-18.75,18.75s8.411,18.75,18.75,18.75s18.75-8.411,18.75-18.75S-70.161-169.25-80.5-169.25z M-65.973-142.197
	h-4.114c-0.784-2.393-1.226-5.062-1.274-7.803h7.586C-63.859-147.167-64.645-144.511-65.973-142.197z M-81-133.775
	c-4.081-0.121-7.792-1.705-10.638-4.25c0.554-0.979,1.039-2.042,1.448-3.172H-81V-133.775z M-80-141.197h9.186
	c0.41,1.125,0.898,2.184,1.458,3.167c-2.848,2.547-6.561,4.133-10.644,4.254V-141.197z M-89.867-142.197
	c0.8-2.556,1.244-5.387,1.244-8.303c0-2.941-0.435-5.758-1.232-8.303h18.71c-0.798,2.543-1.232,5.358-1.232,8.303
	c0,2.943,0.435,5.759,1.232,8.303H-89.867z M-97.225-150h7.585c-0.048,2.754-0.493,5.415-1.276,7.803h-4.112
	C-96.355-144.511-97.141-147.167-97.225-150z M-95.027-158.803h4.115c0.784,2.394,1.226,5.063,1.274,7.803h-7.586
	C-97.141-153.833-96.355-156.489-95.027-158.803z M-80-167.225c4.083,0.121,7.795,1.707,10.643,4.254
	c-0.56,0.984-1.048,2.042-1.458,3.168H-80V-167.225z M-81-159.803h-9.188c-0.409-1.125-0.897-2.184-1.457-3.167
	c2.847-2.547,6.561-4.134,10.644-4.255V-159.803z M-71.361-151c0.049-2.742,0.491-5.41,1.275-7.803h4.114
	c1.328,2.313,2.113,4.969,2.197,7.803H-71.361z M-66.581-159.803h-3.149c0.332-0.871,0.702-1.704,1.124-2.475
	C-67.855-161.52-67.177-160.691-66.581-159.803z M-92.396-162.275c0.422,0.771,0.794,1.602,1.125,2.472h-3.148
	C-93.824-160.69-93.146-161.518-92.396-162.275z M-94.419-141.197h3.157c-0.332,0.871-0.712,1.697-1.136,2.469
	C-93.147-139.484-93.825-140.311-94.419-141.197z M-68.605-138.724c-0.422-0.771-0.793-1.603-1.125-2.474h3.149
	C-67.176-140.309-67.855-139.481-68.605-138.724z"/>
</svg>
