<?xml version="1.0" encoding="utf-8"?>
<!-- Generator: Adobe Illustrator 16.0.0, SVG Export Plug-In . SVG Version: 6.00 Build 0)  -->
<!DOCTYPE svg PUBLIC "-//W3C//DTD SVG 1.1//EN" "http://www.w3.org/Graphics/SVG/1.1/DTD/svg11.dtd">
<svg version="1.1" id="Layer_1" xmlns="http://www.w3.org/2000/svg" xmlns:xlink="http://www.w3.org/1999/xlink" x="0px" y="0px"
	 width="50px" height="50px" viewBox="-35.5 -175.5 50 50" enable-background="new -35.5 -175.5 50 50" xml:space="preserve">
<path d="M0.185-142.192c0.212,0.177,0.239,0.493,0.062,0.704c-1.055,1.258-2.309,2.312-3.726,3.132
	c-0.079,0.046-0.165,0.067-0.25,0.067c-0.172,0-0.34-0.089-0.433-0.25c-0.139-0.239-0.057-0.545,0.182-0.683
	c1.316-0.762,2.48-1.741,3.461-2.909C-0.341-142.342-0.027-142.37,0.185-142.192z M-8.227-137.673
	c-1.484,0.261-3.041,0.262-4.522,0.004c-0.271-0.046-0.53,0.136-0.578,0.407c-0.047,0.272,0.135,0.531,0.407,0.579
	c0.794,0.138,1.608,0.208,2.42,0.208c0.821,0,1.644-0.072,2.446-0.212c0.272-0.048,0.454-0.307,0.406-0.579
	C-7.696-137.539-7.955-137.72-8.227-137.673z M-20.561-159.553c-0.212-0.177-0.528-0.148-0.705,0.063
	c-1.054,1.262-1.871,2.682-2.428,4.221c-0.094,0.26,0.041,0.546,0.3,0.64c0.056,0.021,0.113,0.03,0.17,0.03
	c0.205,0,0.396-0.126,0.47-0.33c0.517-1.429,1.275-2.748,2.255-3.919C-20.321-159.061-20.349-159.376-20.561-159.553z
	 M-8.276-163.336c1.5,0.258,2.931,0.773,4.252,1.532c0.079,0.045,0.164,0.066,0.249,0.066c0.173,0,0.342-0.09,0.434-0.251
	c0.138-0.239,0.055-0.545-0.185-0.683c-1.424-0.817-2.965-1.373-4.582-1.65c-0.27-0.045-0.53,0.136-0.577,0.408
	S-8.549-163.383-8.276-163.336z M-17.293-161.697c0.085,0,0.172-0.022,0.251-0.068c1.317-0.767,2.745-1.291,4.243-1.557
	c0.272-0.048,0.453-0.308,0.405-0.58c-0.048-0.271-0.309-0.454-0.58-0.405c-1.614,0.287-3.152,0.851-4.571,1.677
	c-0.239,0.139-0.319,0.445-0.181,0.684C-17.633-161.786-17.466-161.697-17.293-161.697z M-23.525-150.474
	c0-0.276-0.224-0.499-0.5-0.499c0,0,0,0-0.001,0c-0.276,0-0.5,0.225-0.499,0.501c0.003,1.646,0.289,3.259,0.851,4.793
	c0.074,0.203,0.266,0.328,0.47,0.328c0.057,0,0.115-0.01,0.172-0.03c0.259-0.095,0.393-0.382,0.298-0.642
	C-23.256-147.447-23.522-148.944-23.525-150.474z M-16.999-139.209c-1.318-0.76-2.484-1.737-3.467-2.904
	c-0.179-0.21-0.494-0.238-0.705-0.06c-0.211,0.178-0.238,0.493-0.06,0.705c1.058,1.255,2.313,2.307,3.732,3.125
	c0.079,0.045,0.165,0.067,0.25,0.067c0.173,0,0.341-0.09,0.434-0.25C-16.677-138.766-16.759-139.071-16.999-139.209z M3.025-151.027
	c-0.276,0-0.5,0.251-0.5,0.527c0,1.53-0.263,3.029-0.781,4.454c-0.095,0.259,0.039,0.546,0.299,0.641
	c0.056,0.021,0.114,0.03,0.171,0.03c0.204,0,0.396-0.126,0.47-0.329c0.559-1.535,0.842-3.149,0.842-4.796v-0.055
	C3.525-150.831,3.301-151.027,3.025-151.027z M2.195-154.676c0.058,0,0.116-0.01,0.173-0.031c0.259-0.096,0.392-0.383,0.296-0.642
	c-0.566-1.535-1.391-2.95-2.452-4.204c-0.179-0.21-0.494-0.238-0.705-0.059c-0.211,0.178-0.237,0.494-0.059,0.705
	c0.985,1.166,1.751,2.479,2.277,3.904C1.8-154.801,1.991-154.676,2.195-154.676z M-9.282-151.605
	c0.279-0.097,0.486-0.243,0.627-0.438c0.14-0.195,0.209-0.422,0.209-0.679c0-0.266-0.066-0.493-0.198-0.681
	c-0.133-0.188-0.326-0.322-0.577-0.402c-0.251-0.08-0.701-0.12-1.348-0.12h-1.109v2.465h1.109
	C-9.988-151.46-9.561-151.508-9.282-151.605z M-9.088-149.815c-0.28-0.106-0.707-0.159-1.281-0.159h-1.309v2.19
	c0.005,0.31,0.017,0.49,0.036,0.543c0.024,0.067,0.063,0.115,0.12,0.142c0.055,0.025,0.206,0.04,0.452,0.04h0.738
	c0.429,0,0.784-0.04,1.066-0.12c0.282-0.08,0.522-0.246,0.721-0.498c0.197-0.251,0.296-0.553,0.296-0.905
	c0-0.3-0.07-0.553-0.209-0.762C-8.599-149.55-8.808-149.708-9.088-149.815z M0.955-150.5c0,6.326-5.129,11.455-11.455,11.455
	s-11.455-5.129-11.455-11.455s5.129-11.455,11.455-11.455S0.955-156.826,0.955-150.5z M-5.624-148.313
	c0-0.449-0.107-0.857-0.319-1.222c-0.213-0.365-0.501-0.649-0.862-0.852c-0.251-0.146-0.614-0.279-1.087-0.399
	c0.44-0.15,0.796-0.339,1.065-0.569c0.268-0.23,0.474-0.494,0.618-0.793c0.143-0.3,0.214-0.617,0.214-0.951
	c0-0.458-0.135-0.88-0.404-1.265c-0.271-0.384-0.658-0.679-1.16-0.883c-0.195-0.081-0.427-0.14-0.677-0.188v-1.785h-1.713v1.664
	h-1.102v-1.664h-1.713v1.664h-2.612v1.399h0.399c0.266,0,0.446,0.025,0.54,0.073c0.095,0.047,0.161,0.113,0.199,0.195
	c0.04,0.082,0.059,0.274,0.059,0.572v5.64c0,0.295-0.019,0.485-0.059,0.57c-0.039,0.084-0.104,0.149-0.199,0.195
	c-0.094,0.046-0.274,0.069-0.54,0.069h-0.399v1.399h2.612v1.664h1.713v-1.664h0.974c0.044,0,0.084-0.002,0.127-0.002v1.666h1.713
	v-1.808c0.287-0.056,0.54-0.125,0.755-0.211c0.591-0.237,1.048-0.581,1.371-1.034C-5.787-147.283-5.624-147.777-5.624-148.313z
	 M10.667-154.328v7.655c0,0.552-0.448,1-1,1H6.601c-0.378,1.339-0.913,2.628-1.597,3.848l2.17,2.17c0.391,0.391,0.391,1.023,0,1.414
	l-5.413,5.413c-0.391,0.391-1.023,0.391-1.414,0l-2.17-2.17c-1.22,0.684-2.509,1.219-3.848,1.597v3.066c0,0.552-0.448,1-1,1h-7.655
	c-0.552,0-1-0.448-1-1v-3.066c-1.339-0.378-2.628-0.913-3.848-1.597l-2.17,2.17c-0.391,0.391-1.023,0.391-1.414,0l-5.413-5.413
	c-0.391-0.391-0.391-1.023,0-1.414l2.17-2.17c-0.684-1.22-1.219-2.509-1.597-3.848h-3.066c-0.552,0-1-0.448-1-1v-7.655
	c0-0.552,0.448-1,1-1h3.066c0.378-1.339,0.913-2.628,1.597-3.848l-2.17-2.17c-0.391-0.391-0.391-1.023,0-1.414l5.413-5.413
	c0.391-0.391,1.023-0.391,1.414,0l2.17,2.17c1.22-0.684,2.509-1.219,3.848-1.597v-3.066c0-0.552,0.448-1,1-1h7.655
	c0.552,0,1,0.448,1,1v3.066c1.339,0.378,2.628,0.913,3.848,1.597l2.17-2.17c0.391-0.391,1.023-0.391,1.414,0l5.413,5.413
	c0.391,0.391,0.391,1.023,0,1.414l-2.17,2.17c0.684,1.22,1.219,2.509,1.597,3.848h3.066
	C10.219-155.328,10.667-154.88,10.667-154.328z M8.667-153.328H5.826c-0.465,0-0.868-0.32-0.974-0.772
	c-0.389-1.663-1.046-3.246-1.954-4.707c-0.245-0.395-0.186-0.906,0.143-1.235l2.011-2.011l-3.999-3.999l-2.011,2.011
	c-0.329,0.328-0.839,0.387-1.235,0.143c-1.461-0.908-3.044-1.565-4.707-1.954c-0.453-0.105-0.772-0.509-0.772-0.974v-2.841h-5.655
	v2.841c0,0.465-0.32,0.868-0.772,0.974c-1.663,0.389-3.246,1.046-4.707,1.954c-0.395,0.245-0.907,0.186-1.235-0.143l-2.011-2.011
	l-3.999,3.999l2.011,2.011c0.329,0.329,0.388,0.84,0.143,1.235c-0.908,1.461-1.565,3.044-1.954,4.707
	c-0.105,0.453-0.509,0.772-0.974,0.772h-2.841v5.655h2.841c0.465,0,0.868,0.32,0.974,0.772c0.389,1.663,1.046,3.246,1.954,4.707
	c0.245,0.395,0.186,0.906-0.143,1.235l-2.011,2.011l3.999,3.999l2.011-2.011c0.328-0.328,0.839-0.388,1.235-0.143
	c1.461,0.908,3.044,1.565,4.707,1.954c0.453,0.105,0.772,0.509,0.772,0.974v2.841h5.655v-2.841c0-0.465,0.32-0.868,0.772-0.974
	c1.663-0.389,3.246-1.046,4.707-1.954c0.396-0.244,0.907-0.186,1.235,0.143l2.011,2.011l3.999-3.999l-2.011-2.011
	c-0.329-0.329-0.388-0.84-0.143-1.235c0.908-1.461,1.565-3.044,1.954-4.707c0.105-0.453,0.509-0.772,0.974-0.772h2.841V-153.328z"/>
</svg>
