<?xml version="1.0" encoding="utf-8"?>
<!-- Generator: Adobe Illustrator 16.0.0, SVG Export Plug-In . SVG Version: 6.00 Build 0)  -->
<!DOCTYPE svg PUBLIC "-//W3C//DTD SVG 1.1//EN" "http://www.w3.org/Graphics/SVG/1.1/DTD/svg11.dtd">
<svg version="1.1" id="Layer_1" xmlns="http://www.w3.org/2000/svg" xmlns:xlink="http://www.w3.org/1999/xlink" x="0px" y="0px"
	 width="50px" height="50px" viewBox="34.5 -175.5 50 50" enable-background="new 34.5 -175.5 50 50" xml:space="preserve">
<path d="M62.703-152.851l-1.287,1.286l-0.852-0.852l1.285-1.286l-1.322-1.323l-1.287,1.286l-2.018-2.019l-1.08,1.081l0.309,0.309
	c0.205,0.205,0.324,0.363,0.359,0.474c0.037,0.109,0.037,0.212,0.004,0.304c-0.033,0.095-0.168,0.257-0.398,0.487l-4.359,4.358
	c-0.227,0.229-0.389,0.361-0.484,0.396c-0.096,0.036-0.195,0.036-0.305-0.002c-0.109-0.038-0.266-0.158-0.471-0.364l-0.309-0.308
	l-1.082,1.081l2.02,2.019l-1.285,1.285l1.324,1.324l1.285-1.286l0.754,0.754c0.031,0.033,0.064,0.063,0.098,0.096l-1.287,1.287
	l1.324,1.324l1.396-1.396c0.264,0.178,0.514,0.319,0.748,0.42c0.639,0.274,1.258,0.361,1.859,0.261
	c0.596-0.1,1.104-0.356,1.518-0.77c0.348-0.347,0.582-0.744,0.697-1.191c0.119-0.447,0.115-0.888-0.006-1.324
	c-0.082-0.307-0.26-0.69-0.533-1.149c0.457,0.226,0.879,0.354,1.264,0.384c0.387,0.029,0.75-0.016,1.092-0.136
	c0.34-0.122,0.643-0.311,0.9-0.569c0.354-0.354,0.576-0.784,0.664-1.29c0.086-0.507,0.016-1.034-0.215-1.579
	c-0.088-0.213-0.221-0.439-0.377-0.669l1.379-1.379L62.703-152.851z M57.768-145.613c-0.053,0.271-0.195,0.52-0.428,0.751
	c-0.271,0.272-0.58,0.429-0.928,0.471c-0.348,0.042-0.662-0.016-0.941-0.172c-0.279-0.156-0.586-0.4-0.916-0.731l-0.572-0.57
	c-0.189-0.19-0.295-0.318-0.316-0.38c-0.023-0.065-0.018-0.132,0.016-0.203c0.025-0.056,0.158-0.205,0.393-0.447l1.691-1.693
	l1.012,1.012c0.443,0.443,0.732,0.814,0.867,1.113C57.777-146.164,57.818-145.88,57.768-145.613z M60.389-148.212
	c-0.199,0.198-0.428,0.32-0.686,0.363c-0.262,0.042-0.535-0.006-0.824-0.147c-0.291-0.139-0.658-0.433-1.107-0.881l-0.857-0.858
	l1.906-1.905l0.855,0.857c0.5,0.5,0.818,0.878,0.949,1.134c0.133,0.255,0.18,0.508,0.137,0.756
	C60.717-148.645,60.594-148.418,60.389-148.212z M76.812-166.918c-0.049-0.472-0.422-0.844-0.894-0.893l-13.09-1.341
	c-0.298-0.03-0.596,0.074-0.809,0.288l-20.883,20.882c-0.391,0.391-0.391,1.023,0,1.414l14.43,14.432
	c0.188,0.188,0.441,0.293,0.707,0.293s0.52-0.105,0.707-0.293l20.883-20.883c0.213-0.212,0.318-0.51,0.288-0.809L76.812-166.918z
	 M56.273-134.257l-13.016-13.018l19.84-19.839l11.807,1.209l1.209,11.808L56.273-134.257z M71.518-162.518
	c1.281,1.281,1.281,3.356,0,4.637c-1.281,1.28-3.357,1.28-4.637,0c-1.281-1.281-1.281-3.356,0-4.637
	C68.16-163.797,70.236-163.798,71.518-162.518z"/>
</svg>
