<?xml version="1.0" encoding="utf-8"?>
<!-- Generator: Adobe Illustrator 16.0.0, SVG Export Plug-In . SVG Version: 6.00 Build 0)  -->
<!DOCTYPE svg PUBLIC "-//W3C//DTD SVG 1.1//EN" "http://www.w3.org/Graphics/SVG/1.1/DTD/svg11.dtd">
<svg version="1.1" id="Layer_1" xmlns="http://www.w3.org/2000/svg" xmlns:xlink="http://www.w3.org/1999/xlink" x="0px" y="0px"
	 width="50px" height="50px" viewBox="104.5 -175.5 50 50" enable-background="new 104.5 -175.5 50 50" xml:space="preserve">
<path d="M135.417-155.48l-1.204,1.205l-0.796-0.795l1.205-1.205l-1.239-1.239l-1.205,1.205l-1.893-1.893l-1.013,1.013l0.288,0.288
	c0.191,0.191,0.307,0.342,0.339,0.445c0.033,0.104,0.034,0.198,0.003,0.287c-0.034,0.085-0.156,0.239-0.373,0.456l-4.082,4.082
	c-0.213,0.214-0.366,0.334-0.453,0.37c-0.089,0.033-0.186,0.033-0.286-0.002c-0.102-0.034-0.25-0.151-0.442-0.342l-0.287-0.288
	l-1.014,1.013l1.894,1.893l-1.206,1.205l1.24,1.24l1.205-1.206l0.704,0.704c0.03,0.031,0.062,0.06,0.091,0.09l-1.206,1.207
	l1.239,1.239l1.312-1.31c0.245,0.17,0.48,0.303,0.699,0.395c0.599,0.257,1.178,0.337,1.74,0.245
	c0.559-0.093,1.036-0.332,1.426-0.721c0.324-0.325,0.541-0.697,0.65-1.117c0.113-0.416,0.107-0.831-0.007-1.24
	c-0.076-0.287-0.241-0.645-0.497-1.076c0.429,0.212,0.821,0.331,1.184,0.36c0.36,0.028,0.702-0.013,1.021-0.127
	c0.321-0.112,0.601-0.29,0.844-0.532c0.333-0.333,0.542-0.736,0.621-1.21c0.083-0.473,0.016-0.966-0.197-1.477
	c-0.085-0.199-0.206-0.411-0.355-0.63l1.291-1.291L135.417-155.48z M130.793-148.701c-0.048,0.254-0.181,0.488-0.396,0.704
	c-0.255,0.256-0.544,0.405-0.87,0.443c-0.327,0.038-0.621-0.017-0.881-0.163c-0.262-0.146-0.549-0.375-0.859-0.686l-0.534-0.535
	c-0.179-0.178-0.278-0.296-0.299-0.356c-0.021-0.059-0.017-0.121,0.016-0.187c0.025-0.055,0.146-0.195,0.367-0.42l1.585-1.585
	l0.947,0.947c0.416,0.415,0.685,0.764,0.812,1.043C130.806-149.217,130.844-148.952,130.793-148.701z M133.25-151.134
	c-0.186,0.186-0.399,0.298-0.643,0.339c-0.243,0.04-0.501-0.007-0.772-0.136c-0.271-0.132-0.616-0.408-1.036-0.828l-0.802-0.802
	l1.784-1.784l0.802,0.802c0.47,0.47,0.767,0.825,0.89,1.064c0.125,0.24,0.166,0.475,0.127,0.707
	C133.56-151.538,133.443-151.327,133.25-151.134z M146.274-161.032l-0.705,0.642c-0.7,0.637-1.63,0.988-2.616,0.988
	c-1.168,0-2.332-0.495-3.194-1.356c-1.66-1.661-1.822-4.213-0.369-5.812l0.642-0.706l-4.772-4.772l-27.307,27.307l4.773,4.772
	l0.705-0.642c0.7-0.637,1.629-0.987,2.616-0.987c1.185,0,2.319,0.481,3.194,1.356c1.66,1.661,1.822,4.213,0.369,5.812l-0.642,0.706
	l4.772,4.772l27.307-27.307L146.274-161.032z M121.676-133.846c1.526-2.373,1.152-5.636-1.021-7.809
	c-1.253-1.252-2.89-1.942-4.608-1.942c-1.154,0-2.261,0.323-3.199,0.923l-2.067-2.067l24.479-24.479l2.065,2.066
	c-1.526,2.373-1.152,5.636,1.021,7.809c1.253,1.252,2.89,1.942,4.608,1.942c1.154,0,2.261-0.324,3.199-0.924l2.067,2.067
	l-24.479,24.479L121.676-133.846z"/>
</svg>
