<?xml version="1.0" encoding="utf-8"?>
<!-- Generator: Adobe Illustrator 16.0.0, SVG Export Plug-In . SVG Version: 6.00 Build 0)  -->
<!DOCTYPE svg PUBLIC "-//W3C//DTD SVG 1.1//EN" "http://www.w3.org/Graphics/SVG/1.1/DTD/svg11.dtd">
<svg version="1.1" id="Layer_1" xmlns="http://www.w3.org/2000/svg" xmlns:xlink="http://www.w3.org/1999/xlink" x="0px" y="0px"
	 width="50px" height="50px" viewBox="174.5 -175.5 50 50" enable-background="new 174.5 -175.5 50 50" xml:space="preserve">
<path d="M207.551-138.357l1.549-1.549l-1.505-1.505l0.88-0.88c0.04-0.04,0.075-0.077,0.114-0.116l1.507,1.506l1.547-1.547
	l-1.635-1.635c0.211-0.31,0.376-0.603,0.494-0.876c0.319-0.748,0.42-1.472,0.306-2.175c-0.117-0.7-0.417-1.295-0.902-1.78
	c-0.406-0.407-0.87-0.678-1.395-0.816c-0.521-0.138-1.039-0.134-1.549,0.009c-0.36,0.098-0.807,0.304-1.345,0.625
	c0.265-0.536,0.413-1.028,0.449-1.48c0.037-0.452-0.017-0.877-0.159-1.276c-0.143-0.401-0.362-0.753-0.664-1.055
	c-0.415-0.415-0.92-0.673-1.512-0.776c-0.593-0.103-1.21-0.018-1.848,0.248c-0.249,0.105-0.513,0.26-0.785,0.444l-1.613-1.614
	l-1.548,1.548l1.505,1.505l-0.995,0.996l-1.506-1.505l-1.549,1.549l1.506,1.505l-2.364,2.364l1.265,1.266l0.36-0.36
	c0.24-0.24,0.426-0.383,0.555-0.424c0.13-0.043,0.247-0.043,0.358-0.004c0.108,0.041,0.298,0.194,0.569,0.466l5.102,5.102
	c0.268,0.267,0.421,0.457,0.464,0.567c0.04,0.112,0.04,0.229-0.004,0.358c-0.044,0.126-0.188,0.312-0.428,0.552l-0.359,0.36
	l1.266,1.265l2.364-2.364L207.551-138.357z M202.587-147.288l-1.003,1.002l-2.229-2.229l1.002-1.002
	c0.586-0.585,1.028-0.956,1.328-1.112c0.301-0.155,0.596-0.208,0.887-0.158s0.555,0.197,0.795,0.438
	c0.231,0.232,0.373,0.499,0.425,0.803c0.05,0.304-0.008,0.626-0.171,0.964C203.455-148.245,203.11-147.812,202.587-147.288z
	 M205.432-142.5c-0.064-0.032-0.239-0.185-0.523-0.461l-1.979-1.98l1.184-1.184c0.518-0.518,0.954-0.857,1.303-1.014
	c0.348-0.157,0.68-0.204,0.994-0.143c0.316,0.061,0.607,0.228,0.879,0.499c0.319,0.319,0.504,0.681,0.552,1.087
	c0.049,0.406-0.021,0.774-0.203,1.101c-0.182,0.326-0.468,0.685-0.856,1.074l-0.667,0.667c-0.222,0.221-0.371,0.346-0.445,0.372
	C205.595-142.457,205.516-142.462,205.432-142.5z M221.553-144.887l-17.854-17.854l2.74-2.74l-5.657-5.657l-21.92,21.92l5.657,5.657
	l2.74-2.74l17.854,17.854L221.553-144.887z M202.284-161.328l16.44,16.44l-13.612,13.612l-16.439-16.44L202.284-161.328z"/>
</svg>
