<?xml version="1.0" encoding="utf-8"?>
<!-- Generator: Adobe Illustrator 16.0.0, SVG Export Plug-In . SVG Version: 6.00 Build 0)  -->
<!DOCTYPE svg PUBLIC "-//W3C//DTD SVG 1.1//EN" "http://www.w3.org/Graphics/SVG/1.1/DTD/svg11.dtd">
<svg version="1.1" id="Layer_1" xmlns="http://www.w3.org/2000/svg" xmlns:xlink="http://www.w3.org/1999/xlink" x="0px" y="0px"
	 width="50px" height="50px" viewBox="244.5 -175.5 50 50" enable-background="new 244.5 -175.5 50 50" xml:space="preserve">
<path d="M282.691-155.583c-1.631-1.631-3.593-2.73-5.67-3.312l3.061-3.061l-5.656-5.657l-21.921,21.92l5.657,5.657l2.825-2.825
	c0.581,2.078,1.681,4.039,3.312,5.67c5.07,5.071,13.323,5.071,18.396-0.001C287.764-142.262,287.763-150.513,282.691-155.583z
	 M275.969-148.714c0.368-0.104,0.736-0.104,1.114-0.006c0.375,0.098,0.71,0.292,1.001,0.583c0.349,0.348,0.562,0.778,0.645,1.28
	c0.086,0.503,0.014,1.022-0.218,1.562c-0.084,0.197-0.203,0.406-0.354,0.629l1.173,1.173l-1.112,1.113l-1.081-1.082
	c-0.027,0.027-0.053,0.054-0.08,0.082l-0.634,0.632l1.081,1.082l-1.113,1.113l-1.081-1.081l-1.697,1.697l-0.907-0.909l0.258-0.259
	c0.174-0.174,0.274-0.304,0.307-0.396c0.03-0.09,0.031-0.175,0.002-0.256c-0.029-0.082-0.142-0.215-0.333-0.407l-3.664-3.664
	c-0.194-0.194-0.33-0.308-0.409-0.335c-0.078-0.027-0.165-0.027-0.256,0.002c-0.093,0.03-0.224,0.13-0.398,0.304l-0.258,0.259
	l-0.91-0.909l1.698-1.698l-1.08-1.081l1.113-1.113l1.079,1.081l0.715-0.714l-1.081-1.082l1.112-1.112l1.158,1.159
	c0.197-0.132,0.385-0.244,0.564-0.318c0.46-0.194,0.904-0.254,1.327-0.181c0.424,0.077,0.786,0.264,1.083,0.562
	c0.217,0.215,0.377,0.468,0.479,0.755c0.104,0.285,0.141,0.591,0.114,0.916c-0.023,0.323-0.133,0.678-0.322,1.063
	C275.388-148.498,275.713-148.646,275.969-148.714z M281.702-138.184c-4.532,4.533-11.879,4.532-16.411,0
	c-1.658-1.659-2.703-3.696-3.147-5.833l1.482-1.482c0.199,2.233,1.151,4.412,2.86,6.121c3.872,3.873,10.148,3.871,14.021-0.001
	c3.868-3.869,3.869-10.145-0.003-14.017c-1.709-1.709-3.888-2.661-6.121-2.861l1.483-1.483c2.138,0.444,4.175,1.49,5.834,3.148
	C286.231-150.06,286.231-142.713,281.702-138.184z M273.57-147.898c-0.118,0.243-0.366,0.554-0.743,0.93l-0.719,0.72l-1.601-1.601
	l0.719-0.72c0.421-0.421,0.738-0.687,0.952-0.796c0.215-0.112,0.429-0.15,0.637-0.112c0.208,0.035,0.4,0.139,0.573,0.312
	c0.164,0.166,0.267,0.359,0.303,0.577C273.727-148.37,273.688-148.142,273.57-147.898z M274.858-146.859
	c0.252-0.115,0.489-0.147,0.714-0.104c0.229,0.045,0.437,0.164,0.631,0.359c0.229,0.229,0.361,0.491,0.396,0.783
	c0.035,0.291-0.013,0.554-0.144,0.789c-0.134,0.236-0.337,0.496-0.614,0.772l-0.479,0.479c-0.16,0.16-0.267,0.248-0.321,0.266
	c-0.052,0.02-0.11,0.015-0.169-0.013c-0.048-0.021-0.174-0.131-0.376-0.333l-1.423-1.422l0.85-0.85
	C274.294-146.505,274.605-146.747,274.858-146.859z"/>
</svg>
