<?xml version="1.0" encoding="utf-8"?>
<!-- Generator: Adobe Illustrator 16.0.0, SVG Export Plug-In . SVG Version: 6.00 Build 0)  -->
<!DOCTYPE svg PUBLIC "-//W3C//DTD SVG 1.1//EN" "http://www.w3.org/Graphics/SVG/1.1/DTD/svg11.dtd">
<svg version="1.1" id="Layer_1" xmlns="http://www.w3.org/2000/svg" xmlns:xlink="http://www.w3.org/1999/xlink" x="0px" y="0px"
	 width="50px" height="50px" viewBox="314.5 -175.5 50 50" enable-background="new 314.5 -175.5 50 50" xml:space="preserve">
<path d="M332.457-143.189c0.12,0.179,0.18,0.395,0.18,0.651c0,0.302-0.085,0.561-0.255,0.775c-0.168,0.215-0.374,0.357-0.615,0.425
	c-0.242,0.068-0.546,0.104-0.913,0.104h-0.631c-0.211,0-0.34-0.013-0.387-0.035c-0.049-0.023-0.081-0.063-0.103-0.121
	c-0.017-0.044-0.025-0.2-0.03-0.465v-1.874h1.119c0.491,0,0.856,0.046,1.096,0.137C332.158-143.501,332.338-143.366,332.457-143.189
	z M359.634-161.166v21.891c0,0.552-0.447,1-1,1h-19.435c-1.87,2.682-4.973,4.441-8.49,4.441c-5.712,0-10.343-4.633-10.343-10.345
	c0-2.443,0.852-4.685,2.268-6.454v-10.533c0-0.552,0.447-1,1-1h35C359.187-162.166,359.634-161.718,359.634-161.166z
	 M334.883-142.309c0-0.385-0.092-0.733-0.273-1.044c-0.181-0.313-0.427-0.557-0.738-0.73c-0.214-0.124-0.523-0.238-0.931-0.341
	c0.379-0.129,0.683-0.291,0.914-0.488c0.229-0.195,0.404-0.422,0.528-0.678c0.121-0.256,0.183-0.527,0.183-0.813
	c0-0.392-0.115-0.754-0.346-1.082c-0.232-0.328-0.563-0.581-0.991-0.757c-0.169-0.068-0.367-0.12-0.581-0.16v-1.527h-1.466v1.424
	h-0.941v-1.424h-1.466v1.424h-2.236v1.196h0.342c0.228,0,0.381,0.022,0.463,0.063c0.081,0.041,0.137,0.099,0.169,0.167
	c0.034,0.071,0.051,0.234,0.051,0.491v4.826c0,0.253-0.017,0.414-0.051,0.486c-0.032,0.074-0.088,0.13-0.169,0.168
	c-0.082,0.039-0.235,0.06-0.463,0.06h-0.342v1.196h2.236v1.425h1.466v-1.425h0.832c0.039,0,0.074-0.001,0.109-0.001v1.426h1.466
	v-1.548c0.244-0.046,0.461-0.106,0.646-0.181c0.506-0.203,0.896-0.496,1.173-0.884C334.743-141.427,334.883-141.851,334.883-142.309
	z M357.634-144.067H341.05c-0.014,1.341-0.284,2.62-0.763,3.792h17.347V-144.067z M357.634-160.166h-33v7.628
	c1.707-1.243,3.802-1.985,6.075-1.985c4.337,0,8.046,2.671,9.584,6.456h17.341V-160.166z M331.753-145.125
	c0.237-0.083,0.416-0.209,0.536-0.375c0.121-0.167,0.181-0.361,0.181-0.579c0-0.229-0.057-0.422-0.17-0.584
	c-0.115-0.162-0.279-0.276-0.494-0.344c-0.216-0.068-0.601-0.104-1.154-0.104h-0.948v2.109h0.948
	C331.148-145.001,331.516-145.043,331.753-145.125z"/>
</svg>
