<?xml version="1.0" encoding="utf-8"?>
<!-- Generator: Adobe Illustrator 16.0.0, SVG Export Plug-In . SVG Version: 6.00 Build 0)  -->
<!DOCTYPE svg PUBLIC "-//W3C//DTD SVG 1.1//EN" "http://www.w3.org/Graphics/SVG/1.1/DTD/svg11.dtd">
<svg version="1.1" id="Layer_1" xmlns="http://www.w3.org/2000/svg" xmlns:xlink="http://www.w3.org/1999/xlink" x="0px" y="0px"
	 width="50px" height="50px" viewBox="-315.5 -105.5 50 50" enable-background="new -315.5 -105.5 50 50" xml:space="preserve">
<path d="M-285.215-75.429c-0.239-0.411-0.562-0.729-0.968-0.957c-0.282-0.164-0.689-0.313-1.22-0.448
	c0.495-0.169,0.894-0.381,1.196-0.64c0.302-0.258,0.534-0.555,0.694-0.891c0.16-0.336,0.241-0.692,0.241-1.067
	c0-0.515-0.151-0.989-0.455-1.421c-0.305-0.431-0.738-0.762-1.302-0.992c-0.219-0.09-0.479-0.157-0.762-0.211v-2.004h-1.923v1.869
	h-1.236v-1.869h-1.923v1.869h-2.934v1.571h0.448c0.299,0,0.5,0.027,0.606,0.082c0.106,0.054,0.18,0.127,0.224,0.219
	c0.044,0.092,0.065,0.308,0.065,0.643v6.333c0,0.332-0.021,0.544-0.065,0.64c-0.043,0.095-0.118,0.168-0.224,0.22
	c-0.106,0.051-0.308,0.077-0.606,0.077h-0.448v1.571h2.934v1.869h1.923v-1.869h1.094c0.049,0,0.095-0.001,0.143-0.001v1.87h1.923
	v-2.03c0.323-0.062,0.607-0.14,0.849-0.238c0.664-0.265,1.177-0.652,1.54-1.16c0.363-0.506,0.545-1.062,0.545-1.664
	C-284.857-74.563-284.977-75.02-285.215-75.429z M-288.895-80.225c0.281,0.089,0.498,0.24,0.647,0.452
	c0.149,0.212,0.224,0.466,0.224,0.765c0,0.288-0.079,0.542-0.236,0.762c-0.158,0.219-0.392,0.383-0.705,0.492
	s-0.794,0.163-1.444,0.163h-1.246v-2.769h1.246C-289.682-80.36-289.177-80.314-288.895-80.225z M-290.144-72.649h-0.829
	c-0.275,0-0.445-0.016-0.507-0.046c-0.063-0.029-0.107-0.083-0.134-0.159c-0.022-0.06-0.035-0.263-0.041-0.611v-2.458h1.47
	c0.644,0,1.124,0.061,1.438,0.18c0.313,0.119,0.549,0.296,0.707,0.528c0.157,0.235,0.235,0.519,0.235,0.855
	c0,0.396-0.111,0.735-0.333,1.017c-0.223,0.283-0.492,0.469-0.809,0.558C-289.263-72.695-289.662-72.649-290.144-72.649z
	 M-281.968-62.375h-16.728c-2.281,0-4.136-1.794-4.136-4v-28.25c0-2.206,1.855-4,4.136-4h16.728c2.281,0,4.136,1.794,4.136,4v28.25
	C-277.832-64.169-279.688-62.375-281.968-62.375z M-298.696-96.625c-1.178,0-2.136,0.897-2.136,2v28.25c0,1.103,0.958,2,2.136,2
	h16.728c1.178,0,2.136-0.897,2.136-2v-28.25c0-1.103-0.958-2-2.136-2H-298.696z M-285.709-91.063c0,0.794-0.776,1.438-1.734,1.438
	h-5.778c-0.958,0-1.734-0.644-1.734-1.438s0.776-1.438,1.734-1.438h0.308c0.1-1.116,1.211-1.998,2.581-1.998
	s2.481,0.882,2.581,1.998h0.308C-286.485-92.502-285.709-91.858-285.709-91.063z"/>
</svg>
