<?xml version="1.0" encoding="utf-8"?>
<!-- Generator: Adobe Illustrator 16.0.0, SVG Export Plug-In . SVG Version: 6.00 Build 0)  -->
<!DOCTYPE svg PUBLIC "-//W3C//DTD SVG 1.1//EN" "http://www.w3.org/Graphics/SVG/1.1/DTD/svg11.dtd">
<svg version="1.1" id="Layer_1" xmlns="http://www.w3.org/2000/svg" xmlns:xlink="http://www.w3.org/1999/xlink" x="0px" y="0px"
	 width="50px" height="50px" viewBox="-245.5 -105.5 50 50" enable-background="new -245.5 -105.5 50 50" xml:space="preserve">
<path d="M-199.818-76.173c0-5.697-3.512-10.583-8.482-12.624v-3.697c0-0.675-0.548-1.222-1.221-1.222h-24.102
	c-0.675,0-1.221,0.547-1.221,1.222v4.271c0,0.673,0.546,1.22,1.221,1.22h11.894c-0.604,0.462-1.167,0.971-1.686,1.525h-10.208
	c-0.675,0-1.221,0.547-1.221,1.22v4.271c0,0.675,0.546,1.221,1.221,1.221h6.77c-0.097,0.499-0.16,1.009-0.2,1.525h-6.57
	c-0.675,0-1.221,0.547-1.221,1.221v4.271c0,0.673,0.546,1.22,1.221,1.22h7.752c0.241,0.528,0.516,1.036,0.82,1.525h-8.573
	c-0.675,0-1.221,0.547-1.221,1.222v4.271c0,0.674,0.546,1.22,1.221,1.22h24.102c0.673,0,1.221-0.546,1.221-1.22v-0.038
	C-203.331-65.59-199.818-70.477-199.818-76.173z M-213.464-63.528c-6.972,0-12.644-5.672-12.644-12.645
	c0-6.973,5.672-12.646,12.644-12.646c6.973,0,12.646,5.673,12.646,12.646C-200.818-69.201-206.491-63.528-213.464-63.528z
	 M-223.088-71.526c0.113,0.235,0.015,0.518-0.219,0.632c-0.066,0.032-0.137,0.047-0.206,0.047c-0.175,0-0.344-0.098-0.426-0.266
	c-0.765-1.579-1.155-3.276-1.159-5.043c0-0.261,0.21-0.473,0.472-0.474c0,0,0,0,0.001,0c0.261,0,0.472,0.211,0.473,0.472
	C-224.149-74.535-223.791-72.976-223.088-71.526z M-223.958-81.207c0.749-1.563,1.862-2.964,3.218-4.052
	c0.205-0.163,0.501-0.13,0.665,0.073c0.164,0.204,0.131,0.501-0.073,0.665c-1.247,1-2.27,2.288-2.958,3.724
	c-0.081,0.169-0.25,0.268-0.426,0.268c-0.068,0-0.138-0.015-0.204-0.046C-223.972-80.688-224.071-80.971-223.958-81.207z
	 M-206.827-84.561c-0.205-0.162-0.239-0.459-0.077-0.664c0.162-0.205,0.46-0.24,0.664-0.077c1.362,1.08,2.483,2.474,3.243,4.032
	c0.114,0.235,0.017,0.518-0.218,0.632c-0.067,0.032-0.137,0.047-0.207,0.047c-0.175,0-0.344-0.097-0.426-0.265
	C-204.545-82.287-205.576-83.568-206.827-84.561z M-216.439-86.952c-0.059-0.254,0.1-0.508,0.354-0.567
	c1.687-0.388,3.487-0.394,5.175-0.015c0.255,0.057,0.415,0.31,0.357,0.564c-0.057,0.254-0.308,0.417-0.564,0.357
	c-1.551-0.348-3.207-0.343-4.755,0.014c-0.036,0.008-0.071,0.012-0.106,0.012C-216.194-86.585-216.389-86.733-216.439-86.952z
	 M-201.83-76.226v0.045c0,1.768-0.386,3.465-1.149,5.046c-0.081,0.168-0.25,0.267-0.426,0.267c-0.069,0-0.139-0.015-0.205-0.047
	c-0.235-0.113-0.333-0.396-0.22-0.631c0.7-1.451,1.055-3.011,1.055-4.635c0-0.261,0.211-0.495,0.473-0.495
	S-201.83-76.487-201.83-76.226z M-215.474-65.189c-0.05,0.219-0.245,0.368-0.461,0.368c-0.034,0-0.069-0.004-0.104-0.012
	c-1.69-0.382-3.303-1.157-4.665-2.241c-0.204-0.163-0.238-0.46-0.075-0.665c0.162-0.204,0.458-0.237,0.664-0.075
	c1.25,0.996,2.732,1.708,4.284,2.059C-215.576-65.697-215.417-65.444-215.474-65.189z M-206.131-67.752
	c0.163,0.204,0.13,0.501-0.074,0.664c-1.359,1.086-2.971,1.865-4.66,2.25c-0.036,0.008-0.071,0.012-0.106,0.012
	c-0.215,0-0.41-0.148-0.46-0.368c-0.058-0.255,0.101-0.508,0.355-0.566c1.552-0.354,3.032-1.069,4.281-2.067
	C-206.591-67.99-206.293-67.956-206.131-67.752z M-213.332-77.043h-0.978v-2.172h0.978c0.57,0,0.966,0.036,1.188,0.106
	c0.221,0.07,0.391,0.188,0.508,0.354c0.117,0.166,0.175,0.366,0.175,0.6c0,0.226-0.062,0.425-0.185,0.598
	c-0.124,0.172-0.308,0.301-0.553,0.386S-212.821-77.043-213.332-77.043z M-211.473-75.179c0.123,0.184,0.185,0.407,0.185,0.671
	c0,0.311-0.087,0.577-0.261,0.798c-0.175,0.222-0.386,0.368-0.635,0.438c-0.249,0.07-0.562,0.106-0.94,0.106h-0.65
	c-0.216,0-0.349-0.013-0.398-0.036c-0.049-0.023-0.084-0.064-0.105-0.125c-0.018-0.046-0.027-0.206-0.032-0.479v-1.929h1.153
	c0.505,0,0.882,0.047,1.129,0.141C-211.781-75.5-211.596-75.361-211.473-75.179z M-213.464-85.233c-4.999,0-9.051,4.053-9.051,9.053
	c0,4.999,4.052,9.051,9.051,9.051c4.999,0,9.052-4.053,9.052-9.051C-204.412-81.18-208.465-85.233-213.464-85.233z M-209.403-72.965
	c-0.285,0.398-0.688,0.702-1.208,0.91c-0.189,0.077-0.412,0.138-0.666,0.187v1.593h-1.509v-1.467c-0.037,0-0.073,0.001-0.112,0.001
	h-0.858v1.466h-1.509v-1.466h-2.302v-1.233h0.352c0.234,0,0.392-0.021,0.476-0.061c0.083-0.041,0.142-0.098,0.176-0.172
	c0.034-0.075,0.051-0.242,0.051-0.502v-4.97c0-0.263-0.017-0.432-0.051-0.505c-0.034-0.072-0.092-0.13-0.176-0.172
	c-0.083-0.042-0.241-0.064-0.476-0.064h-0.352v-1.233h2.302v-1.466h1.509v1.466h0.97v-1.466h1.509v1.572
	c0.222,0.042,0.426,0.096,0.598,0.166c0.442,0.181,0.782,0.44,1.021,0.779c0.238,0.338,0.356,0.71,0.356,1.115
	c0,0.294-0.063,0.573-0.189,0.837s-0.308,0.497-0.545,0.699c-0.237,0.203-0.55,0.369-0.938,0.502
	c0.417,0.105,0.736,0.223,0.958,0.351c0.319,0.179,0.572,0.429,0.76,0.751c0.187,0.322,0.281,0.68,0.281,1.076
	C-208.976-73.798-209.118-73.363-209.403-72.965z"/>
</svg>
