<?xml version="1.0" encoding="utf-8"?>
<!-- Generator: Adobe Illustrator 16.0.0, SVG Export Plug-In . SVG Version: 6.00 Build 0)  -->
<!DOCTYPE svg PUBLIC "-//W3C//DTD SVG 1.1//EN" "http://www.w3.org/Graphics/SVG/1.1/DTD/svg11.dtd">
<svg version="1.1" id="Layer_1" xmlns="http://www.w3.org/2000/svg" xmlns:xlink="http://www.w3.org/1999/xlink" x="0px" y="0px"
	 width="50px" height="50px" viewBox="-175.5 -105.5 50 50" enable-background="new -175.5 -105.5 50 50" xml:space="preserve">
<path d="M-133.884-92.44c-9.449-3.031-16.611-7.074-16.611-7.074h-0.011c0,0-7.058,4.098-16.609,7.074
	c0,0-3.351,21.315,16.56,30.954h0.11C-130.532-71.125-133.884-92.44-133.884-92.44z M-150.268-63.616l-0.232,0.122l-0.233-0.123
	c-14.702-7.739-14.981-22.707-14.716-27.11l0.02-0.338l0.322-0.106c6.917-2.291,12.364-5.057,14.384-6.14l0.234-0.125l0.235,0.123
	c2.04,1.072,7.525,3.815,14.377,6.135l0.316,0.107l0.023,0.332C-135.235-86.352-135.401-71.426-150.268-63.616z M-136.516-90.34
	c-6.525-2.235-11.78-4.826-13.969-5.965c-2.172,1.152-7.397,3.766-13.985,5.976c-0.214,4.605,0.375,18.397,13.97,25.705
	C-136.749-72-136.261-85.756-136.516-90.34z M-150.636-71.063c-5.586,0-10.114-4.528-10.114-10.114s4.528-10.114,10.114-10.114
	s10.114,4.528,10.114,10.114S-145.049-71.063-150.636-71.063z M-150.5-71.938c-0.529,0-1.061-0.046-1.579-0.136
	c-0.272-0.047-0.454-0.306-0.407-0.579c0.048-0.271,0.302-0.455,0.579-0.407c0.928,0.162,1.903,0.161,2.828-0.002
	c0.27-0.051,0.531,0.133,0.579,0.405c0.048,0.272-0.133,0.531-0.405,0.579C-149.427-71.984-149.964-71.938-150.5-71.938z
	 M-154.815-73.089c-0.085,0-0.17-0.021-0.25-0.067c-0.925-0.534-1.744-1.219-2.434-2.038c-0.178-0.211-0.151-0.527,0.06-0.705
	c0.211-0.179,0.527-0.15,0.705,0.06c0.614,0.729,1.344,1.34,2.169,1.816c0.239,0.138,0.321,0.444,0.183,0.683
	C-154.474-73.179-154.642-73.089-154.815-73.089z M-146.172-73.097c-0.172,0-0.34-0.089-0.433-0.25
	c-0.139-0.239-0.057-0.545,0.182-0.683c0.823-0.477,1.551-1.089,2.165-1.82c0.177-0.212,0.494-0.239,0.704-0.062
	c0.212,0.177,0.239,0.493,0.062,0.704c-0.688,0.82-1.506,1.507-2.43,2.042C-146-73.118-146.087-73.097-146.172-73.097z
	 M-158.621-77.611c-0.204,0-0.396-0.125-0.47-0.328c-0.366-1-0.553-2.052-0.555-3.125c0-0.276,0.223-0.5,0.499-0.501
	c0,0,0,0,0.001,0c0.276,0,0.5,0.223,0.5,0.499c0.002,0.957,0.168,1.894,0.494,2.784c0.095,0.259-0.039,0.546-0.298,0.642
	C-158.506-77.621-158.564-77.611-158.621-77.611z M-142.373-77.626c-0.057,0-0.114-0.01-0.171-0.03
	c-0.259-0.094-0.394-0.381-0.299-0.641c0.324-0.891,0.488-1.829,0.488-2.786c0-0.276,0.224-0.518,0.5-0.518s0.5,0.206,0.5,0.482
	v0.035c0,1.074-0.185,2.126-0.549,3.127C-141.977-77.752-142.168-77.626-142.373-77.626z M-158.633-83.523
	c-0.057,0-0.114-0.009-0.17-0.03c-0.26-0.094-0.394-0.381-0.3-0.64c0.363-1.004,0.896-1.93,1.583-2.752
	c0.177-0.211,0.492-0.241,0.705-0.063c0.212,0.177,0.24,0.493,0.063,0.705c-0.613,0.732-1.087,1.557-1.41,2.45
	C-158.236-83.649-158.428-83.523-158.633-83.523z M-142.385-83.572c-0.204,0-0.395-0.125-0.469-0.327
	c-0.328-0.891-0.807-1.712-1.424-2.441c-0.178-0.211-0.152-0.526,0.059-0.705c0.211-0.179,0.527-0.152,0.705,0.059
	c0.692,0.818,1.23,1.741,1.599,2.741c0.095,0.259-0.037,0.546-0.296,0.642C-142.269-83.582-142.327-83.572-142.385-83.572z
	 M-154.842-88.06c-0.172,0-0.34-0.089-0.433-0.249c-0.139-0.239-0.058-0.544,0.181-0.684c0.925-0.539,1.928-0.907,2.98-1.094
	c0.278-0.049,0.532,0.133,0.58,0.404c0.048,0.272-0.133,0.532-0.404,0.58c-0.937,0.167-1.83,0.495-2.653,0.974
	C-154.67-88.082-154.757-88.06-154.842-88.06z M-146.202-88.086c-0.084,0-0.17-0.021-0.249-0.066
	c-0.827-0.475-1.721-0.797-2.659-0.958c-0.272-0.046-0.455-0.305-0.408-0.577c0.046-0.271,0.306-0.452,0.577-0.408
	c1.054,0.181,2.059,0.543,2.988,1.076c0.239,0.138,0.322,0.443,0.185,0.683C-145.86-88.176-146.029-88.086-146.202-88.086z
	 M-146.672-80.272c-0.179-0.307-0.421-0.545-0.725-0.716c-0.211-0.122-0.516-0.234-0.913-0.335c0.37-0.126,0.668-0.285,0.895-0.479
	c0.225-0.193,0.398-0.415,0.519-0.666c0.12-0.252,0.18-0.519,0.18-0.799c0-0.385-0.113-0.739-0.339-1.063
	c-0.228-0.322-0.552-0.57-0.974-0.742c-0.164-0.068-0.359-0.118-0.569-0.158v-1.499h-1.439v1.397h-0.925v-1.397h-1.439v1.397h-2.194
	v1.175h0.335c0.223,0,0.374,0.021,0.453,0.062c0.08,0.04,0.135,0.095,0.167,0.164c0.033,0.069,0.049,0.23,0.049,0.48v4.738
	c0,0.248-0.016,0.407-0.049,0.479c-0.032,0.071-0.088,0.125-0.167,0.164c-0.079,0.039-0.23,0.058-0.453,0.058h-0.335v1.175h2.194
	v1.397h1.439v-1.397h0.818c0.037,0,0.07-0.001,0.106-0.001v1.398h1.439v-1.518c0.241-0.047,0.453-0.105,0.634-0.178
	c0.497-0.199,0.881-0.488,1.152-0.868c0.271-0.379,0.408-0.794,0.408-1.245C-146.404-79.624-146.494-79.966-146.672-80.272z
	 M-149.425-83.859c0.211,0.067,0.373,0.179,0.485,0.338c0.111,0.158,0.166,0.348,0.166,0.572c0,0.216-0.058,0.406-0.176,0.57
	c-0.118,0.164-0.292,0.286-0.527,0.368c-0.234,0.082-0.593,0.122-1.081,0.122h-0.932v-2.07h0.932
	C-150.014-83.96-149.636-83.927-149.425-83.859z M-150.359-78.193h-0.62c-0.207,0-0.333-0.012-0.379-0.033
	c-0.047-0.023-0.081-0.063-0.101-0.119c-0.017-0.045-0.026-0.196-0.03-0.457v-1.84h1.099c0.482,0,0.841,0.045,1.076,0.134
	c0.235,0.09,0.411,0.223,0.529,0.396c0.117,0.176,0.176,0.388,0.176,0.64c0,0.296-0.083,0.55-0.249,0.761
	c-0.166,0.212-0.368,0.351-0.605,0.417C-149.7-78.226-149.999-78.193-150.359-78.193z"/>
</svg>
