<?xml version="1.0" encoding="utf-8"?>
<!-- Generator: Adobe Illustrator 16.0.0, SVG Export Plug-In . SVG Version: 6.00 Build 0)  -->
<!DOCTYPE svg PUBLIC "-//W3C//DTD SVG 1.1//EN" "http://www.w3.org/Graphics/SVG/1.1/DTD/svg11.dtd">
<svg version="1.1" id="Layer_1" xmlns="http://www.w3.org/2000/svg" xmlns:xlink="http://www.w3.org/1999/xlink" x="0px" y="0px"
	 width="50px" height="50px" viewBox="-105.5 -105.5 50 50" enable-background="new -105.5 -105.5 50 50" xml:space="preserve">
<path d="M-65.085-80.5c0.138-1.259,3.152-2.938,2.87-4.172c-0.282-1.234-3.846-1.372-4.396-2.513s1.564-4.015,0.775-5.004
	s-4.061,0.433-5.051-0.356c-0.99-0.789-0.332-4.296-1.472-4.846c-1.141-0.549-3.471,2.152-4.705,1.871s-2.163-3.727-3.429-3.727
	s-2.194,3.446-3.429,3.727s-3.565-2.419-4.706-1.871c-1.141,0.549-1.472,4.846-1.472,4.846s-4.262-0.633-5.051,0.356
	c-0.79,0.99,1.325,3.864,0.775,5.004c-0.549,1.14-4.006,1.309-4.396,2.513c-0.39,1.205,2.87,2.907,2.87,4.172
	s-3.152,2.938-2.87,4.172s3.846,1.373,4.396,2.513c0.549,1.141-1.565,4.015-0.775,5.004c0.79,0.989,4.062-0.433,5.051,0.356
	c0.99,0.79,0.332,4.296,1.472,4.846c1.141,0.549,3.472-2.152,4.706-1.871c1.234,0.282,2.163,3.727,3.429,3.727
	s2.195-3.446,3.429-3.727s3.564,2.419,4.705,1.871c1.141-0.549,0.574-3.954,1.472-4.846c0.898-0.892,4.262,0.633,5.051-0.356
	s-0.775-5.004-0.775-5.004s4.113-1.279,4.396-2.513C-61.934-77.562-65.223-79.241-65.085-80.5z M-80.5-67.833
	c-6.996,0-12.667-5.671-12.667-12.667s5.671-12.667,12.667-12.667s12.667,5.671,12.667,12.667S-73.504-67.833-80.5-67.833z
	 M-81.984-69.592c-0.023,0-0.047-0.001-0.07-0.005c-1.041-0.147-2.053-0.442-3.008-0.877c-0.251-0.115-0.362-0.411-0.248-0.663
	c0.115-0.251,0.411-0.362,0.663-0.248c0.868,0.396,1.787,0.664,2.733,0.797c0.273,0.039,0.464,0.292,0.425,0.565
	C-81.524-69.772-81.739-69.592-81.984-69.592z M-78.995-69.595c-0.245,0-0.459-0.18-0.495-0.429
	c-0.039-0.273,0.151-0.527,0.424-0.566c0.946-0.135,1.865-0.405,2.731-0.803c0.253-0.114,0.548-0.005,0.663,0.246
	s0.005,0.548-0.246,0.663c-0.954,0.438-1.965,0.735-3.006,0.884C-78.947-69.597-78.971-69.595-78.995-69.595z M-87.372-72.045
	c-0.116,0-0.232-0.04-0.327-0.122c-0.795-0.688-1.487-1.483-2.056-2.363c-0.15-0.232-0.083-0.542,0.148-0.691
	c0.231-0.15,0.542-0.083,0.691,0.148c0.518,0.801,1.146,1.524,1.87,2.149c0.209,0.181,0.232,0.497,0.051,0.706
	C-87.093-72.104-87.232-72.045-87.372-72.045z M-73.612-72.059c-0.14,0-0.279-0.058-0.377-0.172
	c-0.181-0.208-0.159-0.524,0.049-0.706c0.722-0.627,1.35-1.352,1.866-2.154c0.149-0.232,0.459-0.298,0.691-0.15
	c0.232,0.149,0.299,0.459,0.15,0.691c-0.567,0.882-1.257,1.678-2.051,2.368C-73.378-72.1-73.495-72.059-73.612-72.059z
	 M-90.584-77.02c-0.216,0-0.416-0.141-0.479-0.358c-0.295-1.002-0.447-2.045-0.449-3.1c0-0.276,0.223-0.5,0.499-0.501
	c0,0,0,0,0.001,0c0.275,0,0.5,0.223,0.5,0.499c0.002,0.96,0.14,1.908,0.408,2.819c0.078,0.265-0.073,0.543-0.338,0.621
	C-90.49-77.026-90.538-77.02-90.584-77.02z M-70.41-77.04c-0.046,0-0.094-0.006-0.141-0.02c-0.265-0.078-0.417-0.355-0.339-0.621
	c0.267-0.912,0.402-1.86,0.402-2.819c0-0.276,0.224-0.521,0.5-0.521s0.5,0.202,0.5,0.479v0.042c0,1.054-0.149,2.098-0.442,3.101
	C-69.994-77.182-70.194-77.04-70.41-77.04z M-90.596-82.939c-0.046,0-0.093-0.006-0.14-0.02c-0.265-0.077-0.417-0.354-0.34-0.62
	c0.292-1.006,0.728-1.966,1.296-2.853c0.148-0.233,0.457-0.302,0.69-0.151c0.232,0.148,0.3,0.458,0.151,0.69
	c-0.516,0.806-0.912,1.678-1.178,2.593C-90.179-83.082-90.379-82.939-90.596-82.939z M-70.422-83.001
	c-0.216,0-0.415-0.14-0.479-0.357c-0.272-0.914-0.674-1.783-1.194-2.585c-0.15-0.231-0.084-0.541,0.147-0.691
	c0.231-0.15,0.542-0.085,0.691,0.147c0.572,0.882,1.014,1.839,1.313,2.844c0.079,0.265-0.072,0.543-0.336,0.622
	C-70.327-83.008-70.375-83.001-70.422-83.001z M-87.404-87.927c-0.139,0-0.278-0.058-0.377-0.171
	c-0.181-0.208-0.16-0.524,0.048-0.706c0.792-0.691,1.677-1.264,2.629-1.703c0.253-0.115,0.548-0.005,0.664,0.245
	c0.116,0.251,0.006,0.548-0.245,0.664c-0.866,0.399-1.67,0.92-2.391,1.548C-87.17-87.967-87.288-87.927-87.404-87.927z
	 M-73.645-87.969c-0.116,0-0.232-0.04-0.326-0.121c-0.726-0.625-1.533-1.14-2.4-1.533c-0.251-0.114-0.363-0.411-0.249-0.662
	c0.114-0.251,0.41-0.364,0.662-0.249c0.954,0.433,1.842,1,2.64,1.687c0.209,0.18,0.233,0.496,0.053,0.705
	C-73.364-88.028-73.504-87.969-73.645-87.969z M-82.028-90.402c-0.244,0-0.458-0.179-0.494-0.428
	c-0.04-0.273,0.149-0.527,0.422-0.567c0.527-0.077,1.051-0.126,1.6-0.115c0.511,0,1.026,0.036,1.532,0.106
	c0.273,0.038,0.464,0.291,0.426,0.564s-0.29,0.468-0.564,0.426c-0.46-0.064-0.929-0.096-1.395-0.096
	c-0.466-0.029-0.977,0.035-1.455,0.104C-81.979-90.403-82.004-90.402-82.028-90.402z M-75.846-79.514
	c-0.217-0.373-0.512-0.664-0.881-0.871c-0.256-0.148-0.627-0.285-1.11-0.407c0.45-0.153,0.813-0.347,1.088-0.582
	c0.274-0.235,0.484-0.504,0.631-0.81c0.145-0.307,0.219-0.631,0.219-0.971c0-0.469-0.138-0.899-0.413-1.292
	c-0.277-0.392-0.671-0.693-1.185-0.902c-0.199-0.083-0.437-0.144-0.692-0.192v-1.823h-1.749v1.7h-1.125v-1.7h-1.749v1.7h-2.668
	v1.429h0.408c0.271,0,0.455,0.025,0.551,0.075c0.097,0.048,0.165,0.116,0.204,0.2c0.041,0.083,0.059,0.279,0.059,0.584v5.76
	c0,0.302-0.019,0.496-0.059,0.583c-0.039,0.086-0.107,0.152-0.204,0.199c-0.096,0.047-0.279,0.071-0.551,0.071h-0.408v1.428h2.668
	v1.699h1.749v-1.699h0.996c0.044,0,0.085-0.001,0.129-0.001v1.701h1.749v-1.846c0.293-0.057,0.551-0.128,0.771-0.216
	c0.604-0.242,1.071-0.593,1.4-1.056c0.33-0.46,0.496-0.965,0.496-1.513C-75.521-78.726-75.629-79.142-75.846-79.514z
	 M-79.193-83.875c0.257,0.081,0.454,0.217,0.589,0.411c0.135,0.192,0.202,0.423,0.202,0.695c0,0.262-0.07,0.494-0.213,0.693
	c-0.145,0.199-0.356,0.348-0.641,0.447c-0.284,0.1-0.721,0.148-1.314,0.148h-1.132v-2.517h1.132
	C-79.909-83.999-79.45-83.958-79.193-83.875z M-80.329-76.986h-0.753c-0.252,0-0.405-0.015-0.462-0.04
	c-0.057-0.028-0.098-0.077-0.122-0.145c-0.02-0.055-0.031-0.239-0.037-0.555v-2.237h1.336c0.586,0,1.022,0.055,1.309,0.163
	c0.286,0.11,0.499,0.271,0.643,0.481c0.142,0.214,0.214,0.472,0.214,0.778c0,0.36-0.102,0.668-0.303,0.925
	c-0.202,0.258-0.447,0.427-0.736,0.508C-79.527-77.026-79.891-76.986-80.329-76.986z"/>
</svg>
