<?xml version="1.0" encoding="utf-8"?>
<!-- Generator: Adobe Illustrator 16.0.0, SVG Export Plug-In . SVG Version: 6.00 Build 0)  -->
<!DOCTYPE svg PUBLIC "-//W3C//DTD SVG 1.1//EN" "http://www.w3.org/Graphics/SVG/1.1/DTD/svg11.dtd">
<svg version="1.1" id="Layer_1" xmlns="http://www.w3.org/2000/svg" xmlns:xlink="http://www.w3.org/1999/xlink" x="0px" y="0px"
	 width="50px" height="50px" viewBox="-35.5 -105.5 50 50" enable-background="new -35.5 -105.5 50 50" xml:space="preserve">
<path d="M-1.937-90.646c0.076-0.699,1.75-1.633,1.594-2.318c-0.157-0.685-2.137-0.762-2.442-1.396s0.869-2.23,0.431-2.78
	c-0.438-0.55-2.256,0.241-2.806-0.197s-0.185-2.387-0.818-2.692c-0.634-0.305-1.928,1.195-2.614,1.039s-1.202-2.07-1.905-2.07
	c-0.704,0-1.219,1.914-1.905,2.07s-1.98-1.344-2.614-1.039c-0.634,0.306-0.818,2.692-0.818,2.692s-2.368-0.352-2.806,0.197
	c-0.438,0.55,0.736,2.146,0.431,2.78s-2.226,0.727-2.441,1.396c-0.217,0.67,1.594,1.615,1.594,2.318s-1.751,1.632-1.594,2.317
	c0.156,0.686,2.136,0.763,2.441,1.396c0.305,0.634-0.869,2.23-0.431,2.78s2.256-0.24,2.806,0.198s0.184,2.387,0.818,2.691
	c0.633,0.305,1.928-1.195,2.614-1.039c0.389,0.088,0.723,0.738,1.067,1.288v9h-8.928v4.288h1.882l3.485,7.787h8.788l3.485-7.787
	h1.882v-4.288h-8.595v-2.154c0.873-0.002,2.708-0.155,3.866-1.313c1.563-1.562,1.297-4.36,1.297-4.36s-2.798-0.266-4.361,1.297
	c-0.354,0.354-0.611,0.773-0.802,1.208v-4.202c0.236-0.375,0.476-0.702,0.742-0.762c0.686-0.156,1.98,1.344,2.614,1.039
	c0.633-0.305,0.319-2.196,0.818-2.691c0.499-0.496,2.368,0.352,2.806-0.198c0.438-0.55-0.431-2.78-0.431-2.78
	s2.285-0.71,2.442-1.396C-0.187-89.014-2.014-89.946-1.937-90.646z M-10.458-83.688c-3.884,0-7.031-3.147-7.031-7.031
	s3.147-7.031,7.031-7.031s7.031,3.147,7.031,7.031S-6.574-83.688-10.458-83.688z M-10.479-84.307c-0.275,0-0.499-0.223-0.5-0.499
	c-0.001-0.276,0.223-0.5,0.499-0.501c0.937-0.002,1.858-0.251,2.663-0.719c0.236-0.139,0.544-0.059,0.683,0.181
	c0.139,0.239,0.058,0.544-0.181,0.683c-0.957,0.556-2.05,0.852-3.162,0.854C-10.479-84.307-10.479-84.307-10.479-84.307z
	 M-13.397-85.077c-0.084,0-0.17-0.021-0.248-0.066c-0.962-0.551-1.767-1.349-2.326-2.306c-0.139-0.238-0.059-0.545,0.179-0.684
	s0.544-0.06,0.684,0.179c0.472,0.807,1.149,1.479,1.96,1.943c0.24,0.137,0.323,0.443,0.185,0.682
	C-13.056-85.167-13.224-85.077-13.397-85.077z M-5.436-87.231c-0.085,0-0.171-0.021-0.25-0.067
	c-0.239-0.138-0.321-0.444-0.183-0.683c0.466-0.806,0.712-1.727,0.712-2.665c0-0.274,0.221-0.531,0.495-0.534
	c0.271-0.027,0.5,0.181,0.505,0.455c0,0.007,0,0.083,0,0.09c0,1.102-0.292,2.197-0.846,3.154
	C-5.095-87.32-5.263-87.231-5.436-87.231z M-16.336-90.129c-0.276,0-0.5-0.207-0.5-0.483v-0.034c0-1.1,0.286-2.183,0.827-3.134
	c0.136-0.24,0.441-0.324,0.682-0.187c0.24,0.137,0.324,0.442,0.187,0.682c-0.456,0.8-0.696,1.712-0.696,2.639
	C-15.836-90.369-16.06-90.129-16.336-90.129z M-5.47-93.12c-0.171,0-0.337-0.087-0.431-0.245c-0.477-0.804-1.158-1.472-1.972-1.932
	c-0.24-0.136-0.325-0.441-0.189-0.681c0.136-0.241,0.442-0.325,0.681-0.189c0.965,0.546,1.774,1.338,2.34,2.292
	c0.141,0.237,0.063,0.544-0.175,0.685C-5.295-93.143-5.383-93.12-5.47-93.12z M-13.455-95.181c-0.171,0-0.338-0.088-0.431-0.246
	c-0.14-0.238-0.061-0.544,0.177-0.685c0.954-0.562,2.045-0.864,3.157-0.874c0.001,0,0.003,0,0.004,0c0.274,0,0.498,0.221,0.5,0.496
	c0.002,0.276-0.22,0.502-0.496,0.504c-0.937,0.008-1.856,0.262-2.658,0.735C-13.282-95.203-13.369-95.181-13.455-95.181z
	 M-7.911-90.098c-0.121-0.208-0.284-0.369-0.489-0.484c-0.143-0.082-0.349-0.158-0.617-0.226c0.25-0.086,0.452-0.193,0.605-0.323
	c0.152-0.131,0.269-0.28,0.351-0.45c0.081-0.17,0.122-0.351,0.122-0.539c0-0.261-0.077-0.5-0.229-0.718
	c-0.154-0.218-0.373-0.386-0.658-0.501c-0.11-0.046-0.242-0.08-0.385-0.107v-1.013h-0.971v0.944h-0.625v-0.944h-0.972v0.944h-1.482
	v0.794h0.227c0.15,0,0.252,0.014,0.306,0.041c0.054,0.027,0.091,0.064,0.113,0.111c0.022,0.047,0.033,0.155,0.033,0.324v3.2
	c0,0.168-0.01,0.275-0.033,0.324c-0.022,0.047-0.06,0.084-0.113,0.11c-0.053,0.026-0.155,0.039-0.306,0.039h-0.227v0.794h1.482
	v0.943h0.972v-0.943h0.553c0.024,0,0.047-0.001,0.072-0.001v0.944h0.971v-1.025c0.163-0.031,0.306-0.071,0.429-0.12
	c0.336-0.134,0.595-0.329,0.778-0.586c0.184-0.256,0.276-0.536,0.276-0.841C-7.73-89.66-7.791-89.892-7.911-90.098z M-9.771-92.521
	c0.143,0.045,0.252,0.12,0.328,0.228c0.075,0.107,0.112,0.235,0.112,0.387c0,0.146-0.039,0.274-0.118,0.385
	c-0.08,0.11-0.198,0.193-0.356,0.248c-0.158,0.056-0.401,0.082-0.73,0.082h-0.629v-1.397h0.629
	C-10.168-92.589-9.913-92.566-9.771-92.521z M-10.401-88.694h-0.418c-0.14,0-0.225-0.008-0.257-0.021
	c-0.032-0.016-0.054-0.043-0.068-0.081c-0.011-0.03-0.017-0.133-0.02-0.308v-1.243h0.742c0.326,0,0.568,0.03,0.727,0.091
	c0.159,0.061,0.277,0.15,0.357,0.267c0.079,0.119,0.119,0.263,0.119,0.433c0,0.2-0.056,0.371-0.168,0.514
	c-0.112,0.144-0.249,0.237-0.409,0.282C-9.956-88.716-10.158-88.694-10.401-88.694z"/>
</svg>
