<?xml version="1.0" encoding="utf-8"?>
<!-- Generator: Adobe Illustrator 16.0.0, SVG Export Plug-In . SVG Version: 6.00 Build 0)  -->
<!DOCTYPE svg PUBLIC "-//W3C//DTD SVG 1.1//EN" "http://www.w3.org/Graphics/SVG/1.1/DTD/svg11.dtd">
<svg version="1.1" id="Layer_1" xmlns="http://www.w3.org/2000/svg" xmlns:xlink="http://www.w3.org/1999/xlink" x="0px" y="0px"
	 width="50px" height="50px" viewBox="34.5 -105.5 50 50" enable-background="new 34.5 -105.5 50 50" xml:space="preserve">
<path d="M49.772-74.864c0.139,0.239,0.058,0.545-0.182,0.684c-0.079,0.046-0.165,0.068-0.251,0.068c-0.172,0-0.34-0.089-0.433-0.249
	c-0.538-0.926-0.951-1.918-1.229-2.949c-0.072-0.267,0.086-0.541,0.353-0.613c0.265-0.071,0.541,0.087,0.612,0.353
	C48.898-76.624,49.278-75.714,49.772-74.864z M51.53-89.135c-0.195-0.194-0.512-0.194-0.707,0.002
	c-0.755,0.759-1.407,1.612-1.939,2.537c-0.138,0.239-0.055,0.545,0.185,0.683c0.078,0.045,0.164,0.066,0.249,0.066
	c0.173,0,0.341-0.09,0.434-0.251c0.488-0.849,1.088-1.633,1.781-2.33C51.727-88.624,51.727-88.94,51.53-89.135z M53.893-70.756
	c-0.85-0.49-1.634-1.09-2.33-1.784c-0.193-0.194-0.512-0.195-0.707,0.001c-0.194,0.196-0.194,0.512,0.002,0.707
	c0.757,0.755,1.61,1.409,2.535,1.942c0.079,0.045,0.165,0.067,0.25,0.067c0.173,0,0.341-0.09,0.434-0.25
	C54.214-70.313,54.132-70.619,53.893-70.756z M48.26-80.5c0-0.979,0.126-1.95,0.374-2.886c0.07-0.267-0.089-0.541-0.355-0.611
	c-0.271-0.07-0.54,0.089-0.611,0.355c-0.271,1.02-0.407,2.077-0.407,3.142v0.024c0,0.276,0.224,0.488,0.5,0.488
	S48.26-80.224,48.26-80.5z M59.5-69.26c-0.981,0-1.956-0.126-2.898-0.376c-0.271-0.07-0.541,0.089-0.611,0.355
	s0.088,0.541,0.355,0.611c1.025,0.272,2.087,0.41,3.154,0.41h0.012c0.276,0,0.494-0.224,0.494-0.5S59.776-69.26,59.5-69.26z
	 M59.5-91.74c0.975,0,1.942,0.125,2.874,0.371c0.043,0.011,0.086,0.017,0.128,0.017c0.222,0,0.424-0.148,0.483-0.373
	c0.07-0.267-0.089-0.541-0.355-0.611c-1.016-0.268-2.069-0.404-3.13-0.404h-0.035c-0.276,0-0.482,0.224-0.482,0.5
	S59.224-91.74,59.5-91.74z M53.602-90.153c0.086,0,0.173-0.022,0.252-0.068c0.849-0.495,1.759-0.875,2.704-1.13
	c0.267-0.072,0.425-0.347,0.353-0.613c-0.071-0.266-0.347-0.424-0.612-0.353c-1.031,0.278-2.023,0.693-2.948,1.231
	c-0.238,0.139-0.319,0.445-0.18,0.684C53.263-90.242,53.43-90.153,53.602-90.153z M69.921-75.065
	c-0.238-0.137-0.544-0.057-0.683,0.183c-0.49,0.848-1.092,1.63-1.787,2.326c-0.195,0.195-0.195,0.512,0,0.707
	c0.098,0.098,0.226,0.146,0.354,0.146s0.256-0.049,0.354-0.146c0.758-0.757,1.412-1.609,1.945-2.533
	C70.242-74.621,70.16-74.927,69.921-75.065z M70.832-83.083c0.043,0,0.088-0.005,0.132-0.018c0.266-0.073,0.423-0.347,0.351-0.614
	c-0.28-1.03-0.696-2.021-1.235-2.945c-0.14-0.239-0.447-0.318-0.684-0.18c-0.238,0.139-0.319,0.445-0.18,0.684
	c0.495,0.849,0.876,1.759,1.134,2.704C70.41-83.229,70.611-83.083,70.832-83.083z M71.24-81.024c-0.276,0-0.5,0.248-0.5,0.524
	c0,0.987-0.128,1.965-0.38,2.908c-0.071,0.267,0.088,0.541,0.354,0.612c0.043,0.012,0.087,0.017,0.129,0.017
	c0.222,0,0.423-0.147,0.483-0.371c0.274-1.027,0.413-2.092,0.412-3.195l-0.5-0.019h0.5C71.739-80.824,71.516-81.024,71.24-81.024z
	 M67.773-88.331c0.129,0,0.257-0.049,0.355-0.148c0.194-0.196,0.192-0.513-0.003-0.707c-0.761-0.754-1.615-1.406-2.54-1.937
	c-0.241-0.137-0.545-0.056-0.683,0.185c-0.138,0.24-0.055,0.545,0.185,0.683c0.85,0.487,1.635,1.086,2.333,1.779
	C67.519-88.379,67.646-88.331,67.773-88.331z M65.127-70.768c-0.85,0.493-1.761,0.871-2.707,1.125
	c-0.268,0.071-0.426,0.346-0.354,0.612c0.061,0.223,0.263,0.371,0.483,0.371c0.043,0,0.086-0.005,0.129-0.017
	c1.032-0.276,2.025-0.688,2.951-1.225c0.238-0.139,0.32-0.444,0.182-0.684C65.671-70.826,65.363-70.906,65.127-70.768z
	 M62.081-72.834h-1.953v-1.9c-0.049,0-0.095,0.001-0.144,0.001h-1.112v1.898h-1.953v-1.898h-2.98v-1.595h0.456
	c0.303,0,0.507-0.026,0.615-0.079s0.184-0.126,0.227-0.223c0.046-0.098,0.066-0.314,0.066-0.651v-6.434
	c0-0.34-0.021-0.559-0.066-0.652c-0.043-0.094-0.118-0.169-0.227-0.223c-0.108-0.055-0.313-0.083-0.615-0.083h-0.456v-1.595h2.98
	v-1.899h1.953v1.899h1.256v-1.899h1.953v2.036c0.286,0.055,0.551,0.123,0.773,0.215c0.574,0.233,1.014,0.569,1.324,1.007
	c0.307,0.439,0.46,0.919,0.46,1.443c0,0.38-0.081,0.742-0.244,1.084c-0.163,0.341-0.398,0.642-0.705,0.904
	c-0.307,0.263-0.713,0.479-1.215,0.65c0.539,0.137,0.954,0.289,1.24,0.455c0.412,0.231,0.741,0.555,0.983,0.972
	c0.242,0.417,0.363,0.881,0.363,1.394c0,0.611-0.186,1.176-0.554,1.689c-0.368,0.517-0.89,0.909-1.564,1.179
	c-0.246,0.099-0.534,0.178-0.862,0.242V-72.834z M58.157-81.596h1.264c0.663,0,1.151-0.054,1.468-0.165
	c0.319-0.111,0.555-0.277,0.717-0.5c0.16-0.222,0.237-0.481,0.237-0.774c0-0.304-0.074-0.562-0.226-0.776
	c-0.15-0.216-0.371-0.369-0.658-0.459c-0.285-0.092-0.799-0.137-1.538-0.137h-1.264V-81.596z M62.069-78.313
	c0-0.342-0.081-0.631-0.239-0.87c-0.162-0.234-0.399-0.414-0.72-0.537c-0.318-0.121-0.805-0.182-1.461-0.182h-1.492v2.499
	c0.006,0.353,0.019,0.559,0.041,0.62c0.026,0.076,0.072,0.13,0.137,0.162c0.063,0.028,0.233,0.045,0.515,0.045h0.842
	c0.489,0,0.896-0.045,1.216-0.137c0.323-0.09,0.598-0.279,0.823-0.567C61.955-77.566,62.069-77.91,62.069-78.313z M75.336-81.487
	c0.021,0.303-0.045,0.912,0.152,1.171c0.367,0.521,0.846,0.976,1.191,1.473c0.369,0.478,0.52,1.041,1.063,1.388
	c0.303,0.195-0.672,0.021-0.889-0.109c-0.455-0.26-0.889-0.585-1.172-1.063c-0.129-0.195-0.193-0.41-0.238-0.649
	c-0.021-0.109-0.021-0.196-0.043-0.305c-0.021-0.043,0-0.194-0.043-0.151c-0.088,0.065-0.021,0.803-0.043,0.955
	c-0.045,0.173,0.238,0.52,0.346,0.671c0.391,0.608,0.781,1.106,1.041,1.756c0.086,0.239,0.174,0.478,0.369,0.673
	c0.086,0.065,0.367,0.26,0.389,0.346c0.021,0.087-0.15-0.021-0.238-0.042c-0.758-0.152-1.365-0.606-1.732-1.302
	c-0.152-0.281-0.262-0.562-0.305-0.91c0-0.087,0-0.173,0-0.282c0-0.065,0.043-0.261,0.021-0.195
	c-0.043,0.217-0.26,0.825-0.195,1.041c0.066,0.26,0.26,0.542,0.391,0.781c0.326,0.606,0.586,1.148,0.803,1.821
	c0.107,0.324,0.26,0.606,0.52,0.866c0.131,0.131-0.563-0.129-0.758-0.238c-0.629-0.368-1.172-1.235-1.15-1.95
	c0-0.109,0.088-0.499,0.021-0.586c-0.064-0.108-0.043,0.217-0.086,0.326c-0.043,0.173-0.086,0.325-0.152,0.477
	c-0.107,0.369,0.238,0.933,0.391,1.257c0.348,0.846,0.434,1.756,0.953,2.536c0.023,0.022-0.563-0.194-0.736-0.324
	c-0.564-0.392-1.018-1.236-1.018-1.931c0-0.215,0.129-0.477,0.086-0.671c0-0.087-0.043,0.13-0.066,0.216
	c-0.043,0.109-0.107,0.239-0.15,0.347c-0.195,0.391-0.043,0.715,0.064,1.149c0.195,0.716,0.195,1.756,0.477,2.47
	c0.066,0.196,0.412,0.63,0.152,0.499c-1.041-0.52-1.539-1.734-1.236-2.883c0.195-0.65-0.434,0.542-0.389,0.868
	c0.086,0.629,0.238,1.192,0.281,1.82c0.021,0.607-0.043,1.149,0.195,1.67c0.172,0.368-0.174,0.021-0.283-0.088
	c-0.543-0.433-0.822-1.018-0.867-1.733c-0.02-0.346,0-0.629,0.109-0.911c0.043-0.151,0.26-0.5,0.131-0.369
	c-0.217,0.217-0.391,0.499-0.564,0.738c0,0,0,0,0.021,0c-0.086,0.086-0.021,0.434-0.021,0.562c0.043,0.846-0.043,1.757,0,2.58
	c0,0.196,0.021,0.412,0.088,0.607c0.02,0.066,0.129,0.218,0.064,0.195c-0.65-0.064-0.998-1.452-1.02-1.929
	c-0.021-0.498,0.434-1.431,0.283-1.28c-0.867,0.803-0.479,2.147-0.803,3.208c-0.107,0.304-0.154,0.585-0.107,0.932
	c0,0.129,0.107,0.499,0.021,0.391c-0.068-0.088-0.152-0.153-0.217-0.24c-0.652-0.692-0.652-1.972-0.219-2.774
	c0.043-0.087,0.088-0.173,0.152-0.238c0.066-0.065,0.215-0.239,0.152-0.195c-0.324,0.174-0.738,0.607-0.824,1.084
	c-0.131,0.605-0.195,1.235-0.369,1.799c-0.107,0.368-0.303,0.715-0.324,1.105c0,0.13,0.107,0.543,0.043,0.629
	c-0.043,0.087-0.107-0.152-0.174-0.216c-0.064-0.109-0.129-0.196-0.172-0.283c-0.305-0.542-0.305-1.235-0.152-1.886
	c0.086-0.369,0.26-0.606,0.498-0.888c0.086-0.087,0.324-0.26,0.217-0.238c-0.541,0.021-0.953,0.823-1.061,1.258
	c-0.154,0.52-0.283,1.04-0.479,1.561c-0.174,0.455-0.412,0.8-0.434,1.365c0,0.499-0.412-0.52-0.455-0.824
	c-0.064-0.585,0.086-1.148,0.324-1.625c0.109-0.218,0.803-0.824,0.5-0.673c-0.479,0.26-0.693,0.369-0.912,0.825
	c-0.367,0.844-0.865,1.668-1.213,2.514c-0.043,0.129-0.109,0.261-0.131,0.391c-0.021,0.108-0.021,0.412-0.063,0.369
	c-0.738-0.694-0.066-2.319,0.346-2.861c0.131-0.174,0.348-0.326,0.52-0.434c0.01-0.01,0.027-0.022,0.049-0.035
	c-0.477,0.198-0.83,0.291-1.111,0.75c-0.434,0.737-0.779,1.409-1.277,2.103c-0.152,0.217-0.283,0.456-0.369,0.715
	c-0.021,0.087,0,0.327-0.043,0.283c-0.219-0.195-0.24-0.846-0.219-1.15c0.066-0.585,0.369-1.3,0.824-1.667
	c0.174-0.131,0.52-0.239,0.65-0.413c0-0.022-0.064,0.021-0.107,0.043c-0.088,0-0.195,0.064-0.283,0.087
	c-0.477,0.174-0.605,0.195-0.91,0.628c-0.236,0.347-0.498,0.651-0.779,0.976c-0.305,0.37-0.607,0.736-0.889,1.105
	c-0.131,0.174-0.348,0.694-0.348,0.65c-0.26-1.127,0.195-2.21,1.193-2.797c0,0,0.021-0.02,0.043-0.02
	c0.107-0.066,0.193-0.11,0.303-0.152c0.033-0.011,0.092-0.027,0.137-0.038c-0.158,0.021-0.301,0.041-0.439,0.081
	c-0.781,0.217-1.02,0.759-1.713,1.431c-0.541,0.542-1.084,0.932-1.408,1.583c-0.023,0.021-0.045,0.064-0.066,0.087
	c-0.086-0.413-0.064-0.803,0.066-1.151c0.129-0.455,0.41-0.844,0.758-1.168c0.174-0.152,0.346-0.283,0.541-0.369
	c0.217-0.087,0.695-0.218,0.457-0.173c-0.348,0.021-0.738-0.023-0.998,0.151c-0.281,0.173-0.52,0.435-0.758,0.693
	c-0.131,0.131-0.262,0.262-0.412,0.37c-0.391,0.325-0.848,0.564-1.213,0.91c-0.045,0.021-0.066,0.043-0.109,0.087
	c-0.174,0.217-0.391,0.564-0.391,0.433c0-0.216,0-0.412,0.043-0.607c0.064-0.282,0.195-0.563,0.348-0.801
	c0.367-0.543,0.932-0.933,1.604-1.084c0.043-0.022,0.086-0.022,0.131-0.043c0.107-0.021,0.086-0.043,0-0.043
	c-0.24-0.021-0.934,0.043-1.084,0.151c-0.219,0.151-0.434,0.327-0.65,0.477c-0.283,0.217-0.543,0.434-0.846,0.608
	c-0.109,0.085-0.238,0.151-0.348,0.216c-0.369,0.194-0.736,0.391-1.018,0.758c-0.26,0.347-0.088-0.173-0.066-0.368
	c0.066-0.651,0.521-1.127,1.084-1.453c0.369-0.217,0.803-0.368,1.193-0.433c0.043,0,0.064-0.021,0.109-0.021
	c-0.045,0-0.066,0-0.109,0c-0.457-0.065-0.846,0.021-1.193,0.151c-0.65,0.239-1.17,0.672-1.908,0.955
	c-0.303,0.108-0.605,0.215-0.844,0.411c-0.088,0.065-0.348,0.347-0.369,0.325c-0.043-0.087,0.064-0.26,0.064-0.325
	c0.391-1.214,1.41-1.756,2.732-1.756c-0.412-0.108-0.846-0.303-1.236-0.15c-0.693,0.303-1.365,0.693-2.123,0.889
	c-0.305,0.064-0.607,0.129-0.869,0.324c-0.086,0.064-0.367,0.325-0.389,0.282c-0.021-0.066,0.064-0.239,0.086-0.326
	c0.434-1.149,1.648-1.583,2.861-1.475c-0.391-0.152-0.801-0.411-1.193-0.28c-0.736,0.238-1.408,0.542-2.188,0.672
	c-0.326,0.064-0.607,0.107-0.891,0.259c-0.107,0.044-0.434,0.26-0.434,0.238c0-0.086,0.088-0.238,0.131-0.304
	c0.564-1.126,1.777-1.43,2.971-1.213c-0.262-0.128-0.607-0.368-0.889-0.434c-0.521-0.085-1.303,0.283-1.82,0.37
	c-0.607,0.108-1.26,0.022-1.779,0.237c-0.389,0.175-0.389,0.13-0.129-0.194c0.715-0.954,2.102-1.258,3.188-0.717
	c-0.219-0.129-0.717-0.563-0.955-0.563c-0.867,0-1.691,0.304-2.602,0.151c-0.498-0.063-1.518,0.347-1.191-0.021
	c0.865-1.019,2.102-1.041,3.271-0.542c-0.238-0.173-0.477-0.346-0.715-0.541c-0.129-0.087-0.129-0.238-0.281-0.238
	c-0.672-0.088-1.43,0.043-2.104-0.066c-0.586-0.085-1.148-0.259-1.734-0.085c-0.281,0.064-0.129-0.022,0-0.174
	c0.91-1.041,2.516-0.694,3.492,0c-0.197-0.195-0.412-0.368-0.586-0.563c-0.088-0.086-0.217-0.325-0.217-0.196
	c0-0.173-0.348-0.152-0.5-0.173c-0.324-0.044-0.65-0.065-0.996-0.108c-0.693-0.065-1.301-0.39-2.018-0.39
	c-0.15-0.022-0.541,0.042-0.541,0.021c0.131-0.369,1.02-0.628,1.344-0.672c0.998-0.109,1.584,0.281,2.254,0.802
	c-0.217-0.26-0.434-0.693-0.693-0.867c-0.346-0.238-1.018-0.282-1.451-0.389c-0.674-0.152-1.258-0.543-1.951-0.651
	c-0.088-0.022-0.195-0.042-0.305-0.022c-0.064,0-0.26,0.065-0.215-0.021c0.15-0.326,1.039-0.499,1.408-0.478
	c1.063,0.021,1.627,0.52,2.299,1.257c-0.238-0.347-0.479-0.867-0.717-1.127c-0.41-0.39-1.322-0.456-1.863-0.672
	c-0.674-0.304-1.127-0.759-1.973-0.759c1.277-0.78,2.666-0.216,3.512,0.91c-0.152-0.302-0.283-0.758-0.5-1.018
	c-0.369-0.434-1.279-0.564-1.777-0.868c-0.65-0.368-1.039-0.779-1.842-0.888c1.279-0.563,2.752-0.086,3.381,1.171
	c-0.086-0.239-0.215-0.759-0.369-0.998c-0.195-0.283-0.779-0.542-1.084-0.715c-0.801-0.456-1.408-1.28-2.34-1.496
	c1.451-0.478,2.73,0.369,3.252,1.647c-0.088-0.325-0.131-0.802-0.303-1.128c-0.262-0.499-1.107-0.802-1.52-1.214
	c-0.541-0.521-0.91-0.997-1.582-1.257c1.105-0.281,2.104,0.239,2.711,1.128c0.15,0.215,0.172,0.498,0.303,0.736
	c-0.045-0.347-0.109-0.694-0.152-1.04c-0.064-0.412-1.018-0.997-1.279-1.301c-0.541-0.607-0.867-1.214-1.582-1.605
	c1.539-0.151,2.602,0.911,2.818,2.342c-0.021-0.368-0.043-0.715-0.043-1.105c-0.021-0.477-0.846-1.063-1.127-1.452
	c-0.455-0.629-0.715-1.279-1.41-1.735c1.15,0,2.039,0.673,2.428,1.692c0.109,0.239,0.066,0.542,0.152,0.801
	c0-0.346,0.15-0.932-0.021-1.213c-0.26-0.499-0.607-0.932-0.889-1.388c-0.391-0.671-0.541-1.366-1.193-1.908
	c1.498,0.174,2.254,1.366,2.254,2.906c0.045-0.369,0.262-0.998,0.133-1.322c-0.176-0.499-0.5-0.954-0.738-1.454
	c-0.346-0.693-0.391-1.43-1.02-1.994c1.041,0.239,1.91,1.063,2.037,2.168c0.023,0.281-0.041,0.563-0.041,0.801
	c0.086-0.324,0.172-0.65,0.281-0.953c0.021-0.542-0.391-1.215-0.586-1.733c-0.281-0.76-0.281-1.476-0.758-2.147
	c1.344,0.499,1.973,1.864,1.537,3.317c0.176-0.435,0.521-0.934,0.414-1.388c-0.26-1.019-0.369-2.666-0.912-3.62
	c1.105,0.542,1.801,1.843,1.322,3.143c-0.15,0.455,0.131-0.196,0.217-0.346c0.262-0.435,0.219-0.738,0.131-1.28
	c-0.174-0.975-0.064-2.232-0.455-3.099c1.193,0.758,1.432,2.037,0.955,3.36c0.193-0.261,0.389-0.521,0.563-0.758c0,0,0,0-0.021,0
	c0.152-0.087,0.043-0.781,0.043-0.976c-0.043-1.041,0.238-2.189-0.088-3.1c1.086,0.911,1.281,2.341,0.479,3.555
	c0.217-0.239,0.586-0.521,0.736-0.824c0.262-0.477,0.086-1.409,0.152-1.973c0.086-0.714,0.346-1.279,0.174-2.038
	c0.996,0.868,1.061,2.624,0.107,3.556c0.262-0.217,0.629-0.455,0.824-0.738c0.303-0.455,0.195-1.366,0.348-1.908
	c0.193-0.693,0.477-1.213,0.367-2.016c0.846,1.02,0.846,2.623-0.195,3.534c0.174-0.151,0.781-0.456,0.846-0.651
	c0.195-0.52,0.305-1.105,0.521-1.647c0.281-0.715,0.693-1.3,0.693-2.167c0.867,1.192,0.346,2.688-0.738,3.555
	c0.283-0.172,0.912-0.411,1.063-0.714c0.26-0.477,0.412-1.02,0.629-1.519c0.348-0.715,0.781-1.214,0.889-2.059
	c0.629,1.258,0.174,2.688-0.975,3.404c0.303-0.131,0.605-0.282,0.932-0.391c0,0,0,0-0.021,0c0.281,0,0.779-1.386,0.889-1.56
	c0.391-0.694,0.953-1.127,1.082-1.951c0.586,1.301-0.129,2.537-1.213,3.23c0.391-0.13,0.846-0.174,1.105-0.52
	c0.369-0.478,0.65-1.02,1.063-1.475c0.021-0.043,0.066-0.087,0.109-0.129c0.432-0.477,0.801-0.803,0.975-1.41
	c0.064,0.152,0.086,0.326,0.109,0.476c0.021,0.174,0.021,0.348,0,0.499c-0.088,0.739-0.586,1.366-1.193,1.801
	c-0.174,0.108-0.369,0.216-0.563,0.302c0.174-0.043,0.367-0.108,0.563-0.129c0.152-0.022,0.305-0.044,0.434-0.044
	c0.174,0,0.607-0.65,0.76-0.867c0.021-0.021,0.043-0.044,0.043-0.065c0.52-0.651,1.301-1.084,1.691-1.799
	c0.043-0.086,0.086-0.174,0.129-0.283c0.109,0.521,0.043,0.998-0.129,1.41c-0.326,0.693-0.977,1.193-1.691,1.475
	c0.889,0,1.234-0.282,1.691-0.737c0.15-0.152,0.324-0.325,0.518-0.52c0.586-0.521,1.26-0.759,1.672-1.475
	c0,1.475-0.846,2.32-2.189,2.645c0.172,0,0.367,0,0.563,0.021c0.064,0,0.131,0,0.174,0c0.113,0.009,0.176,0.014,0.207,0.017
	c0.217-0.032,0.537-0.369,0.682-0.493c0.477-0.346,0.998-0.649,1.496-0.975c0.391-0.239,0.736-0.521,1.018-0.889
	c-0.107,0.823-0.455,1.474-1.018,1.886c-0.369,0.281-0.846,0.454-1.41,0.542c0.283,0.044,0.672,0.173,0.934,0.13
	c0.15-0.022,0.324-0.086,0.477-0.174c0.434-0.217,0.867-0.607,1.236-0.802c0.648-0.325,1.234-0.433,1.754-0.998
	c-0.152,1.388-1.365,2.061-2.752,2.104c0.324,0.086,0.65,0.173,0.953,0.238c0.369,0.087,1.258-0.563,1.604-0.715
	c0.717-0.347,1.432-0.347,2.061-0.911c-0.326,0.933-0.91,1.583-1.93,1.844c-0.281,0.086-0.563-0.022-0.867,0.021
	c-0.324,0.021,0.281,0.129,0.412,0.195c0.434,0.151,0.607,0.065,1.041-0.087c0.953-0.282,2.318-0.391,3.164-0.954
	c-0.434,0.867-1.063,1.474-2.125,1.582c-0.346,0.022-0.605-0.108-0.932-0.108c-0.367-0.021,0.283,0.173,0.412,0.239
	c0.412,0.195,0.586,0.151,1.041,0.065c0.955-0.196,2.361-0.196,3.23-0.651c-0.35,0.694-0.953,1.127-1.713,1.279
	c-0.391,0.087-0.803,0.087-1.172-0.021c-0.107-0.044-0.172-0.087-0.279-0.087c-0.045-0.021-0.154-0.107-0.133-0.043
	c0.023,0.13,0.197,0.109,0.305,0.173c0.76,0.477,1.322,0.261,2.275,0.196c0.824-0.066,1.518,0.107,2.213-0.218
	c-0.412,0.673-1.063,1.042-1.846,1.127c-0.52,0.065-1.689-0.455-1.299-0.151c0.217,0.151,0.434,0.412,0.695,0.455
	c0.52,0.066,1.105,0,1.646,0.044c0.803,0.065,1.475,0.304,2.232,0.087c-0.801,0.931-2.232,1.148-3.295,0.477
	c-0.043-0.022-0.129-0.13-0.195-0.152c-0.109-0.022,0.109,0.108,0.131,0.13c0.152,0.152,0.303,0.304,0.455,0.455
	c0.281,0.303,0.932,0.261,1.344,0.303c0.953,0.108,1.799,0.564,2.752,0.347c-0.736,0.758-2.08,1.019-3.012,0.39
	c-0.217-0.151-0.586-0.455-0.391-0.26c0.086,0.087,0.564,0.78,0.564,0.673c0,0.086,0.691,0.194,0.801,0.216
	c1.02,0.216,1.951,0.781,3.057,0.694c-0.584,0.498-1.301,0.65-2.104,0.477c-0.389-0.087-0.715-0.217-1.018-0.477
	c-0.068-0.068-0.201-0.186-0.268-0.243c0.352,0.381,0.34,0.701,0.854,0.915c0.584,0.239,1.256,0.368,1.799,0.694
	c0.498,0.281,0.932,0.542,1.584,0.542c-0.826,0.499-1.801,0.455-2.646-0.022c-0.26-0.151-0.412-0.412-0.65-0.606
	c-0.281-0.217,0.086,0.282,0.15,0.411c0.195,0.391,0.391,0.478,0.781,0.673c0.934,0.434,1.908,1.256,2.969,1.409
	c-0.865,0.434-1.842,0.282-2.6-0.282c-0.26-0.174-0.369-0.456-0.586-0.651c-0.238-0.195,0.064,0.304,0.109,0.435
	c0.15,0.433,0.367,0.541,0.736,0.758c0.846,0.542,1.777,1.517,2.775,1.799c-0.998,0.216-1.822,0.086-2.559-0.607
	c-0.26-0.26-0.348-0.541-0.543-0.802c-0.236-0.282,0.045,0.326,0.088,0.478c0.107,0.454,0.26,0.563,0.629,0.823
	c0.803,0.629,1.625,1.67,2.58,2.038c-0.998,0.216-1.865-0.087-2.494-0.823c-0.217-0.261-0.26-0.543-0.434-0.803
	c-0.195-0.281,0,0.303,0.021,0.455c0.088,0.455,0.24,0.629,0.541,0.933c0.76,0.737,1.432,1.821,2.344,2.319
	c-1.107,0.108-2.146-0.476-2.58-1.453c-0.064-0.13-0.109-0.281-0.131-0.412C75.379-81.291,75.336-81.617,75.336-81.487z
	 M75.205-81.205c0-0.086,0-0.173,0-0.238c-0.043-0.369-0.043-0.195-0.086-0.022c-0.283,1.128-1.193,1.865-2.406,1.713
	c0.758-0.347,1.17-1.128,1.82-1.669c0.195-0.152,0.498-0.369,0.629-0.586c0.107-0.217-0.086-0.65-0.131-0.911
	c0-0.086-0.021-0.174-0.043-0.26c-0.064-0.456-0.043-0.174-0.064,0.043c-0.174,1.171-0.975,1.972-2.211,1.972
	c0.801-0.434,1.387-1.539,1.973-2.254c0.303-0.369-0.088-2.104-0.131-1.257c-0.086,0.976-0.781,1.973-1.799,2.037
	c-0.174,0.022,0.369-0.585,0.541-0.932c0.369-0.758,1.301-1.431,1-2.276c-0.133-0.369-0.348-1.063-0.305-0.672
	c0.064,1.019-0.262,2.017-1.217,2.384c-0.15,0.065-0.627,0.282-0.389,0.044c0.412-0.434,0.498-0.975,0.738-1.496
	c0.238-0.477,0.801-1.063,0.627-1.561c-0.107-0.282-0.303-0.65-0.455-0.911c-0.107-0.195,0.066,0.585,0.021,0.867
	c-0.086,0.65-0.412,1.235-0.975,1.582c-0.086,0.044-0.693,0.369-0.498,0.152c0.389-0.433,0.434-0.955,0.605-1.495
	c0.152-0.391,0.369-0.759,0.521-1.171c0.021-0.065,0.131-0.259,0.107-0.303c-0.043-0.217-0.305-0.499-0.432-0.694
	c-0.023-0.064-0.066-0.108-0.109-0.173c-0.348-0.542-0.064,0.13-0.043,0.413c0.043,0.347-0.021,0.693-0.131,0.975
	c-0.131,0.368-0.369,0.737-0.715,0.954c-0.152,0.087-0.563,0.391-0.391,0.108c0.391-0.542,0.369-1.431,0.607-2.082
	c0.043-0.151,0.324-0.715,0.281-0.91c-0.086-0.281-0.605-0.911-0.889-1.105c-0.064-0.044,0.043,0.108,0.064,0.194
	c0.066,0.109,0.131,0.216,0.174,0.325c0.195,0.651,0.023,1.453-0.348,1.952c-0.129,0.173-0.736,0.651-0.648,0.499
	c0.084-0.131,0.152-0.282,0.174-0.456c0.15-0.65,0.129-1.409,0.26-2.038c0.064-0.347,0.215-0.606-0.045-0.867
	c-0.236-0.261-1.084-1.171-0.629-0.434c0.262,0.391,0.283,0.976,0.176,1.475c-0.066,0.303-0.176,0.563-0.371,0.802
	c-0.084,0.108-0.477,0.477-0.477,0.389c0.088-0.584,0.088-1.257,0.131-1.907c0.043-0.368,0.262-1.214-0.021-1.453
	c-0.303-0.26-0.607-0.52-0.932-0.737c-0.064-0.021,0.064,0.086,0.107,0.152c0.043,0.064,0.086,0.129,0.152,0.217
	c0.152,0.238,0.217,0.455,0.26,0.758c0.109,0.737-0.107,1.409-0.627,1.886c-0.131,0.109,0.02-0.368,0.02-0.629
	c-0.02-0.324-0.129-0.585-0.15-0.91c-0.045-0.499,0.041-1.063-0.045-1.562c-0.021-0.259-0.434-0.411-0.584-0.52
	c-0.195-0.13-0.412-0.282-0.629-0.368c-0.088-0.044,0.109,0.129,0.174,0.216c0.193,0.217,0.367,0.413,0.477,0.672
	c0.215,0.521,0.238,1.323-0.021,1.822c-0.043,0.064-0.412,0.649-0.369,0.368c0.15-0.888-0.281-1.756-0.41-2.644
	c-0.023-0.109-0.023-0.499-0.109-0.585c-0.066-0.065-0.607-0.282-0.76-0.369c-0.758-0.347,0.326,0.499,0.477,1.3
	c0.045,0.348,0.021,0.715-0.086,1.019c-0.043,0.109-0.305,0.564-0.324,0.499c-0.066-0.239,0-0.52-0.088-0.759
	c-0.238-0.716-0.455-1.431-0.672-2.19c-0.141-0.484-0.922-0.387-1.309-0.651c0.762,0.621,1.318,1.425,1.006,2.494
	c-0.021,0.087-0.24,0.65-0.24,0.39c0-0.759-0.52-1.278-0.736-1.929c-0.152-0.434-0.195-0.976-0.629-1.148
	c-0.15-0.066-0.803-0.283-1.018-0.303c-0.064,0-0.088,0.021,0,0.107c0.043,0.021,0.107,0.065,0.215,0.129
	c0.479,0.305,0.783,0.695,0.977,1.215c0.109,0.304,0.174,0.651,0.088,0.997c-0.021,0.13-0.131,0.542-0.195,0.456
	c-0.066-0.13-0.043-0.326-0.086-0.456c-0.174-0.433-0.564-0.801-0.76-1.192c-0.109-0.173-0.174-0.346-0.238-0.477
	c-0.217-0.476-0.391-0.779-1.063-0.889c-0.26-0.042-0.52-0.238-0.715-0.086c-0.045,0.044,0.086,0.044,0.15,0.065
	c0.131,0.065,0.262,0.131,0.391,0.195c0.326,0.195,0.586,0.455,0.76,0.78c0.193,0.325,0.303,0.715,0.281,1.148
	c0,0.152-0.088,0.585-0.131,0.521c-0.15-0.195-0.15-0.477-0.324-0.693c-0.477-0.628-0.889-1.215-1.322-1.844
	c-0.197-0.259-0.717-0.259-1.148-0.237c-0.152,0-0.305,0.021-0.412,0.021c0.129,0.044,0.26,0.088,0.412,0.153
	c0.693,0.281,1.234,0.715,1.451,1.539c0.021,0.108,0.152,0.825,0,0.91c-0.086,0.043-0.064-0.172-0.107-0.259
	c-0.109-0.196-0.26-0.391-0.434-0.564c-0.348-0.326-0.629-0.65-0.91-0.976c-0.174-0.194-0.348-0.412-0.543-0.606
	c-0.217-0.26-0.76-0.196-1.191-0.108c-0.109,0.021-0.24,0.042-0.326,0.042c0.107,0.022,0.217,0.065,0.326,0.086
	c0.52,0.152,0.932,0.348,1.322,0.825c0.193,0.281,0.367,0.584,0.389,0.954c0,0.044,0,0.129,0.023,0.217v0.173
	c-0.023,0.087-0.045,0.131-0.109,0c-0.195-0.476-0.693-0.693-1.063-1.018c-0.174-0.153-0.346-0.391-0.563-0.607
	c-0.283-0.303-0.607-0.585-0.955-0.542c-0.086,0.023-0.152,0.043-0.238,0.043c-0.281,0.044-0.563,0.108-0.846,0.196
	c0.305,0.021,0.586,0.065,0.846,0.129c0.348,0.109,0.672,0.283,0.953,0.587c0.088,0.108,0.174,0.216,0.24,0.324
	c0.109,0.173,0.195,0.369,0.238,0.564c0.043,0.151,0.15,0.671-0.021,0.39c-0.066-0.087-0.131-0.152-0.217-0.239
	c-0.326-0.303-0.76-0.477-1.127-0.759c-0.023,0-0.045-0.021-0.066-0.043c-0.389-0.325-0.91-0.954-1.365-0.825
	c-0.369,0.109-0.715,0.24-1.063,0.369c0.91-0.129,1.734,0.283,2.189,1.019c0.043,0.044,0.152,0.282,0.238,0.499
	c0.066,0.151,0.109,0.325,0.066,0.369c-0.023,0.021-0.045,0.021-0.066-0.022c-0.02-0.021-0.064-0.13-0.086-0.151
	c-0.088-0.087-0.195-0.174-0.283-0.238c-0.346-0.239-0.758-0.369-1.127-0.585c-0.348-0.196-0.953-0.802-1.344-0.759
	c-0.412,0.043-0.822,0.368-1.191,0.542c0.91-0.173,1.799,0.022,2.363,0.737c0.086,0.109,0.475,0.694,0.367,0.846
	c-0.043,0.065-0.107-0.109-0.152-0.152c-0.107-0.086-0.193-0.151-0.303-0.216c-0.346-0.196-0.801-0.283-1.17-0.434
	c-0.391-0.174-0.998-0.65-1.432-0.628c-0.367,0.043-0.822,0.455-1.127,0.651c0.867-0.196,1.756-0.152,2.385,0.52
	c0.086,0.108,0.52,0.671,0.455,0.801c-0.043,0.066-0.107-0.087-0.195-0.13c-0.086-0.065-0.193-0.13-0.303-0.195
	c-0.369-0.151-0.846-0.173-1.215-0.303c-0.455-0.13-0.975-0.478-1.432-0.499c-0.279-0.022-0.889,0.651-1.125,0.824
	c1.041-0.369,2.361-0.369,2.926,0.758c0.064,0.108-0.824-0.109-1.365-0.174c-0.846-0.086-1.539-0.629-2.213-0.021
	c-0.193,0.195-0.41,0.368-0.627,0.563c0.779-0.39,1.689-0.542,2.492-0.021c0.174,0.107,0.738,0.716,0.477,0.585
	c-0.455-0.217-0.953-0.109-1.475-0.152c-0.758-0.043-1.494-0.412-2.014,0.152c-0.197,0.216-0.414,0.456-0.586,0.671
	c0.736-0.412,1.582-0.694,2.428-0.26c0.193,0.108,0.824,0.672,0.52,0.563c-0.541-0.173-1.084,0-1.67,0.023
	c-1.322,0.021-1.604-0.109-2.297,1.104c0.65-0.52,1.518-0.997,2.428-0.606c0.109,0.043,0.758,0.369,0.758,0.521
	c0,0.064-0.15-0.045-0.215-0.045c-0.131-0.021-0.262-0.042-0.369-0.021c-0.455,0-0.824,0.174-1.236,0.239
	c-0.477,0.086-1.322-0.044-1.604,0.303c-0.26,0.304-0.412,0.715-0.584,1.063c0.605-0.607,1.365-1.106,2.318-0.824
	c0.152,0.043,0.779,0.26,0.801,0.455c0.021,0.066-0.129-0.043-0.215-0.043c-0.109-0.021-0.238,0-0.369,0.022
	c-0.434,0.065-0.781,0.26-1.213,0.368c-0.391,0.109-1.281,0.086-1.52,0.434c-0.217,0.303-0.324,0.738-0.455,1.106
	c0.607-0.608,1.148-1.171,2.168-0.998c0.152,0.022,0.824,0.173,0.846,0.347c0,0.065-0.15,0-0.217,0
	c-0.131,0-0.238,0.021-0.348,0.043c-0.432,0.109-0.779,0.37-1.17,0.521c-0.391,0.129-1.215,0.174-1.432,0.521
	c-0.217,0.347-0.26,0.845-0.367,1.236c0.672-1.062,1.691-1.604,2.949-1.062c-0.695,0.065-1.086,0.456-1.67,0.758
	c-0.348,0.195-1.193,0.347-1.389,0.694c-0.193,0.304-0.15,0.89-0.215,1.258c0.498-1.128,1.582-1.734,2.818-1.323
	c-0.674,0.13-1.041,0.563-1.584,0.91c-0.326,0.217-1.127,0.455-1.301,0.802c-0.174,0.326-0.066,0.998-0.086,1.366
	c0.432-1.192,1.279-1.995,2.666-1.713c-0.629,0.217-0.932,0.673-1.473,1.084c-0.35,0.282-0.998,0.563-1.217,0.954
	c-0.15,0.239,0.043,1.019,0.066,1.323c0.303-1.258,1.084-1.995,2.471-1.909c-0.607,0.282-0.865,0.759-1.365,1.236
	c-0.326,0.347-0.824,0.63-1.084,1.02c-0.064,0.085,0.021,0.216,0.043,0.325c0.045,0.347,0.109,0.694,0.152,1.062
	c0.131-1.279,0.889-2.232,2.232-2.232c-0.715,0.433-1.02,1.256-1.604,1.885c-0.305,0.304-0.564,0.499-0.498,0.911
	c0.041,0.347,0.172,0.715,0.26,1.063c0.15-1.345,0.65-2.212,2.037-2.406c-0.781,0.628-1.215,1.646-1.756,2.449
	c-0.305,0.477,0.088,1.105,0.324,1.604c-0.107-1.343,0.393-2.407,1.715-2.666c-0.717,0.628-1.02,1.799-1.453,2.623
	c-0.262,0.499,0.172,1.041,0.455,1.496c-0.174-1.301,0.217-2.319,1.473-2.753c-0.605,0.758-0.846,1.886-1.17,2.753
	c-0.193,0.52,0.305,1.019,0.629,1.453c-0.324-1.28-0.109-2.32,1.105-2.949c-0.369,0.542-0.348,1.127-0.498,1.778
	c-0.086,0.433-0.521,1.171-0.305,1.561c0.174,0.325,0.477,0.629,0.738,0.91c-0.412-1.213-0.326-2.254,0.822-2.969
	c-0.41,0.759-0.434,2.059-0.541,2.926c-0.064,0.542,0.52,0.89,0.889,1.237c-0.455-1.15-0.563-2.19,0.541-3.014
	c-0.281,0.78-0.172,1.972-0.238,2.861c-0.043,0.672,0.607,0.91,1.064,1.257c-0.717-0.997-0.867-2.211,0.107-3.121
	c-0.152,0.65,0.021,1.17,0.107,1.82c0.045,0.434-0.107,1.171,0.088,1.519c0.174,0.303,0.824,0.52,1.127,0.693
	c-0.803-0.954-1.063-2.059-0.217-3.099c-0.109,0.692,0.131,1.192,0.281,1.798c0.109,0.477,0.088,1.019,0.24,1.496
	c0.02,0.087,0.15,0.065,0.238,0.109c0.324,0.152,0.65,0.325,0.953,0.477c-0.867-0.889-1.258-1.951-0.479-3.079
	c-0.086,0.997,0.479,2.016,0.717,2.904c0.174,0.629,0.932,0.542,1.43,0.802c-1.039-0.737-1.561-1.799-0.932-3.034
	c0,0.736,0.455,1.17,0.693,1.8c0.131,0.324,0.238,0.671,0.391,0.996c0.217,0.521,0.91,0.543,1.453,0.65
	c-1.063-0.672-1.67-1.604-1.193-2.904c0.152,0.889,0.867,1.755,1.301,2.535c0.021,0.044,0.043,0.087,0.066,0.13
	c0.195,0.369,0.67,0.412,1.127,0.434c0.129,0,0.26,0.022,0.367,0.022c-0.129-0.045-0.238-0.11-0.367-0.174
	c-0.889-0.521-1.389-1.409-1.063-2.58c0.217,0.649,0.672,1.148,1.063,1.69c0.109,0.129,0.195,0.26,0.281,0.412
	c0.15,0.282,0.281,0.606,0.629,0.671c0.258,0.045,0.541,0.023,0.801,0.045h0.023c0.107,0,0.238,0,0.367-0.021
	c-0.129-0.043-0.26-0.088-0.367-0.153c-0.998-0.412-1.605-1.148-1.432-2.406c0.281,0.607,0.695,0.888,1.17,1.387
	c0.088,0.108,0.174,0.218,0.262,0.305c0.455,0.564,0.563,0.889,1.604,0.802c0.152,0,0.281-0.044,0.412-0.065
	c-1.215-0.194-2.039-1.062-1.951-2.363c0.238,0.542,0.693,0.759,1.127,1.149c0.412,0.391,0.91,1.214,1.496,1.128
	c0.15-0.022,0.303-0.044,0.434-0.086c0.215-0.043,0.412-0.087,0.605-0.153c-0.215-0.021-0.412-0.043-0.605-0.109
	c-0.953-0.237-1.627-0.845-1.691-1.994c0.391,0.542,0.932,0.759,1.453,1.105c0.064,0.065,0.15,0.13,0.238,0.217
	c0.324,0.282,0.736,0.716,1.041,0.694c0.389-0.043,0.801-0.259,1.148-0.391c-0.998,0-1.799-0.367-2.189-1.126
	c-0.107-0.216-0.195-0.477-0.217-0.759c0.064,0.088,0.152,0.152,0.217,0.238c0.563,0.478,1.236,0.674,1.842,1.106
	c0.217,0.152,0.541,0.412,0.803,0.39c0.281-0.042,0.584-0.237,0.846-0.368c0.043-0.022,0.107-0.043,0.15-0.065
	c0.262-0.13,0.109-0.065-0.043-0.065c-1.215,0.152-2.189-0.477-2.492-1.625c0.607,0.627,1.518,0.714,2.232,1.083
	c0.217,0.108,0.586,0.369,0.824,0.347c0.238-0.043,0.52-0.304,0.736-0.434c0.066-0.022,0.107-0.065,0.174-0.087
	c0.238-0.151,0.195-0.131,0.043-0.087c-1.17,0.282-2.254-0.259-2.645-1.343c0.672,0.499,1.582,0.521,2.32,0.845
	c0.215,0.087,0.563,0.281,0.803,0.26c0.215-0.021,0.498-0.368,0.715-0.52c0.064-0.042,0.129-0.086,0.193-0.151
	c0.348-0.26,0.152-0.131-0.021-0.065c-1.127,0.434-2.254,0.021-2.795-1.041c0.563,0.39,1.213,0.305,1.887,0.434
	c0.365,0.087,0.691,0.195,1.039,0.282c0.477,0.086,1.713-1.105,1.039-0.737c-1.018,0.563-2.123,0.065-2.752-0.781
	c0.758,0.346,1.994,0.283,2.84,0.37c0.348,0.043,0.369,0.064,0.607-0.152c0.238-0.194,0.455-0.477,0.672-0.716
	c0.066-0.084,0.109-0.129,0-0.065c-1.084,0.629-2.189,0.587-3.035-0.411c0.846,0.283,1.93,0.087,2.883,0.087
	c0.586,0.021,0.977-0.586,1.193-1.063c0.064-0.129-0.043,0.021-0.088,0.044c-0.975,0.78-2.102,0.866-3.055,0.021
	c0.865,0.129,1.58-0.195,2.471-0.26c0.346-0.022,0.736,0,0.932-0.239c0.043-0.043,0.91-1.365,0.434-0.91
	c-0.846,0.845-1.994,0.954-2.947,0.238c0.844,0.13,1.625-0.347,2.428-0.499c0.303-0.042,0.715-0.064,0.865-0.303
	c0.088-0.087,0.652-1.366,0.369-0.976c-0.715,0.913-1.93,1.15-2.926,0.542c0.91,0,1.539-0.542,2.363-0.759
	c0.281-0.065,0.693-0.129,0.822-0.346c0.109-0.152,0.65-1.669,0.238-1.041c-0.629,0.953-1.713,1.409-2.816,0.888
	c0.867-0.13,1.494-0.694,2.254-1.019c0.238-0.107,0.693-0.238,0.801-0.455c0.131-0.238,0.131-0.629,0.174-0.89
	c0-0.063,0.021-0.129,0.021-0.194c0.045-0.304,0-0.131-0.043,0c-0.541,1.083-1.561,1.495-2.754,1.17
	c0.826-0.217,1.41-0.867,2.148-1.236c0.215-0.108,0.627-0.282,0.736-0.499c0.129-0.238,0.064-0.627,0.086-0.91
	c0-0.065,0-0.152,0-0.216c0.021-0.348-0.021-0.152-0.086,0.021c-0.434,1.083-1.322,1.711-2.58,1.453
	c0.803-0.282,1.322-0.976,1.994-1.474c0.195-0.131,0.586-0.348,0.693-0.564C75.357-80.554,75.227-80.967,75.205-81.205z"/>
</svg>
