<?xml version="1.0" encoding="utf-8"?>
<!-- Generator: Adobe Illustrator 16.0.0, SVG Export Plug-In . SVG Version: 6.00 Build 0)  -->
<!DOCTYPE svg PUBLIC "-//W3C//DTD SVG 1.1//EN" "http://www.w3.org/Graphics/SVG/1.1/DTD/svg11.dtd">
<svg version="1.1" id="Layer_1" xmlns="http://www.w3.org/2000/svg" xmlns:xlink="http://www.w3.org/1999/xlink" x="0px" y="0px"
	 width="50px" height="50px" viewBox="104.5 -105.5 50 50" enable-background="new 104.5 -105.5 50 50" xml:space="preserve">
<path d="M142.677-89.728c-0.351-0.067-0.724-0.058-1.093-0.095c-0.514-0.062-0.913-0.311-1.188-0.645
	c-0.11-0.138-0.203-0.281-0.271-0.443c0.086,0.01,0.176,0.021,0.267,0.033c0.682,0.077,1.479,0.159,2.028,0.152
	c-0.003-0.266,0.023-0.531,0.068-0.809c0.04-0.207,0.099-0.399,0.163-0.586c0.099-0.286,0.199-0.558,0.22-0.859l0.018-0.043
	c0.159,0.306,0.188,0.685,0.354,1.016c0.313,0.804,0.484,1.719-0.002,2.478C143.064-89.629,142.876-89.688,142.677-89.728z
	 M141.914-91.099c0.658-1.534-0.151-2.754-0.686-4.143l-0.013,0.055c-0.255,0.913-0.401,1.819-0.245,2.771l-0.6-0.174l-0.563-0.169
	l-0.835-0.243c0.005,0.476,0.373,0.99,0.721,1.318c0.036,0.03,0.079,0.059,0.127,0.083c0.171,0.106,0.358,0.183,0.564,0.241
	C140.868-91.228,141.418-91.191,141.914-91.099z M140.368-92.91c0.091,0.029,0.175,0.064,0.266,0.1
	c0.002-0.386-0.111-0.819-0.278-1.221c-0.148-0.354-0.346-0.69-0.542-0.942c-0.013-0.011-0.024-0.017-0.03-0.029
	c-0.462-0.375-0.842-0.756-1.392-0.901c-0.084-0.023-0.175-0.035-0.271-0.045c0.099,0.227,0.191,0.48,0.279,0.738
	c0.155,0.439,0.316,0.896,0.538,1.255c0.209,0.378,0.514,0.615,0.865,0.792C139.98-93.068,140.174-92.986,140.368-92.91z
	 M144.679-87.174c0.308-0.426,0.439-1.121,0.384-1.711c-0.096-0.488-0.258-0.926-0.419-1.34c-0.099-0.246-0.193-0.479-0.28-0.72
	l-0.035,0.043c-0.09,0.665-0.558,1.32-0.441,2.03c-0.295-0.038-0.738-0.19-1.203-0.305c-0.29-0.076-0.593-0.132-0.87-0.136
	c0.108,0.542,0.451,0.972,0.883,1.281c0.025,0.018,0.048,0.036,0.073,0.048c0.558,0.379,1.313,0.449,1.735,0.999
	C144.565-87.036,144.624-87.102,144.679-87.174z M145.619-79.629c0.578-0.592,0.833-1.504,0.849-2.277l-1.62,1.755
	c-0.032-0.042-0.063-0.083-0.093-0.131c-0.447-0.604-1.063-1.184-1.391-1.944h-0.03c-0.353,1.434,0.47,2.618,1.115,3.671
	c0.119-0.08,0.228-0.165,0.323-0.25C145.07-79.074,145.277-79.36,145.619-79.629z M146.397-84.288
	c-0.066-0.108-0.025-0.162-0.068-0.24c-0.373,0.612-1.02,0.97-1.368,1.661c-0.067-0.163-0.148-0.317-0.239-0.468
	c-0.332-0.539-0.821-1.04-1.219-1.531c0-0.066-0.037-0.095-0.037-0.095l-0.011,0.03c-0.135,1.498,0.538,2.804,1.292,3.863
	c0.043,0.065,0.091,0.138,0.141,0.203C145.835-81.779,146.511-82.86,146.397-84.288z M145.945-86.031
	c-0.086-0.554-0.145-1.036-0.258-1.535l-0.87,1.548c-0.043-0.054-0.086-0.107-0.128-0.155c-0.489-0.52-1.204-0.855-1.985-1.136
	c-0.011,0.001-0.023-0.005-0.037-0.012c0.014,0.048,0.026,0.097,0.039,0.145c0.256,0.889,0.775,1.433,1.458,2.119
	c0.207,0.202,0.391,0.405,0.545,0.627c0.109,0.168,0.202,0.347,0.265,0.546C145.607-84.387,146.046-85.103,145.945-86.031z
	 M120.557-95.509c0.039-0.043,0.074-0.085,0.108-0.122l-0.066-0.03c-0.012,0.006-0.024,0.007-0.043,0.014
	c-0.582,0.163-1.092,0.434-1.503,0.812c-0.263,0.239-0.482,0.519-0.66,0.847c-0.205,0.532-0.23,1.058-0.225,1.564
	c0.319-0.016,0.612-0.249,0.905-0.516c0.107-0.104,0.209-0.208,0.322-0.306c0.196-0.268,0.296-0.588,0.454-0.855
	C120.055-94.635,120.226-95.103,120.557-95.509z M114.251-85.223l-1.024-1.635l-0.066-0.011l-0.03,0.012
	c-0.431,1.368,0.194,2.779,0.903,3.754c0.096-0.165,0.207-0.317,0.326-0.468c0.649-0.792,1.583-1.406,1.813-2.421
	c0.029-0.121,0.045-0.241,0.05-0.368c-0.018,0-0.037,0-0.054,0.006c-0.265,0.045-0.667,0.292-0.96,0.439
	c-0.336,0.197-0.581,0.405-0.868,0.619C114.311-85.271,114.28-85.248,114.251-85.223z M114.175-82.4l-1.643-1.23
	c0.028,1.394,0.823,2.416,1.719,3.346c0.042-0.14,0.09-0.266,0.141-0.394c0.284-0.655,0.724-1.136,1.012-1.802
	c0.247-0.509,0.375-1.096,0.267-1.625l-0.085,0.019c-0.218,0.479-0.853,0.866-1.216,1.347
	C114.291-82.636,114.221-82.521,114.175-82.4z M116.28-89.823c0.019-0.429-0.012-0.965-0.166-1.434
	c-0.101-0.294-0.249-0.559-0.469-0.754c-0.613,1.146-0.558,2.454-0.188,3.645c0.217-0.117,0.451-0.21,0.685-0.297
	c0.493-0.174,1.016-0.324,1.472-0.584c0.358-0.203,0.675-0.471,0.911-0.878c-0.282-0.015-0.603-0.024-0.921-0.002
	C117.141-90.098,116.671-90.013,116.28-89.823z M117.86-91.902c0.014-0.634-0.046-1.394-0.299-2.018
	c-0.082-0.205-0.187-0.397-0.314-0.563l-0.03,0.001c-0.565,1.254-0.671,2.51-0.457,3.846c-0.04,0.133-0.022,0.187-0.038,0.284
	c0.245-0.142,0.551-0.218,0.876-0.287c0.146-0.032,0.297-0.057,0.445-0.09c0.409-0.095,0.752-0.267,1.05-0.506
	c0.317-0.246,0.573-0.561,0.805-0.908c0.01-0.116,0.053-0.116,0.088-0.194l-0.904,0.185L117.86-91.902z M116.147-88.163
	l-1.052,0.343c-0.062-0.795-0.49-1.424-0.808-2.12c0-0.005,0-0.005,0-0.005l-0.022,0.042c-0.522,1.332-0.693,2.806,0.067,3.991
	c0.014,0.024,0.025,0.042,0.044,0.061c0.342-0.191,0.719-0.485,1.091-0.688c0.275-0.208,0.47-0.44,0.691-0.641
	c0.065-0.055,0.132-0.11,0.197-0.165c0.328-0.359,0.522-0.694,0.729-1.118L116.147-88.163z M114.043-75.299
	c0.111,0.238,0.252,0.441,0.416,0.622c0.478,0.514,1.15,0.831,1.853,1.119c0.067,0.03,0.134,0.053,0.199,0.083
	c0.402,0.073,0.744,0.136,1.014,0.386c-0.568-1.217,0.776-2.757-0.159-3.852c-0.055-0.089-0.123-0.154-0.177-0.196l-0.013,0.042
	l-0.792,2.343c-0.03-0.019-0.055-0.036-0.085-0.048c-0.522-0.289-1.169-0.415-1.847-0.462c-0.071-0.004-0.137-0.009-0.21-0.009
	C114.162-75.313,114.121-75.313,114.043-75.299z M119.832-68.437c0.22,0.371,0.596,0.597,1.037,0.725
	c0.104,0.022,0.207,0.045,0.31,0.069c0.699,0.083,1.397-0.185,2.083-0.367c0.299-0.083,0.608-0.146,0.908-0.162
	c-0.325-0.624-0.588-1.314-0.931-1.924c-0.371-0.666-0.843-1.24-1.586-1.557l-0.019,0.012c0.657,0.681,0.25,1.879,0.825,2.589
	c0.03,0.054,0.03,0.09,0.03,0.09c-0.542,0.054-1.089,0.206-1.631,0.386c-0.052,0.02-0.112,0.038-0.167,0.063
	C120.374-68.484,120.097-68.415,119.832-68.437z M145.082-76.988c0.518-0.585,0.725-1.438,0.884-2.301
	c-0.355,0.475-0.763,0.744-1.188,1.015c-0.204,0.128-0.406,0.264-0.61,0.41c-0.24-0.462-0.527-0.856-0.799-1.288
	c-0.147-0.227-0.173-0.486-0.298-0.726l-0.035,0.023c-0.438,1.212-0.124,2.469,0.367,3.616c0.481-0.066,0.997-0.241,1.393-0.511
	C144.896-76.823,144.992-76.902,145.082-76.988z M116.321-72.757c-0.157-0.017-0.315-0.033-0.459-0.049
	c0.123,0.241,0.282,0.45,0.466,0.628c0.396,0.387,0.911,0.642,1.486,0.833c0.308,0.1,0.641,0.18,0.98,0.256
	c0.18,0.003,0.356,0.019,0.524,0.042c0.164,0.021,0.32,0.044,0.484,0.078c-0.271-0.504-0.383-1.111-0.502-1.708
	c-0.173-0.824-0.381-1.618-1.068-2.129l-0.011,0.031c0.049,0.79-0.315,1.56-0.042,2.353c-0.121-0.042-0.246-0.077-0.379-0.112
	C117.337-72.642,116.815-72.702,116.321-72.757z M112.664-81.062c-0.07,0.706,0.257,1.497,0.716,1.958
	c0.365,0.297,0.706,0.637,1.04,0.947c0.178,0.167,0.355,0.322,0.537,0.464c0.075-1.37,1.546-2.417,0.787-3.958l-0.047,0.001
	l-1.269,2.003c-0.007-0.01-0.012-0.018-0.026-0.029c-0.444-0.422-0.841-0.919-1.483-1.189
	C112.815-80.944,112.76-81.022,112.664-81.062z M114.427-77.627c-0.313-0.153-0.655-0.276-0.999-0.422
	c0.084,0.638,0.356,1.322,0.868,1.768c0.051,0.037,0.099,0.066,0.146,0.102c0.542,0.344,1.163,0.505,1.64,0.952
	c0.077-0.163,0.143-0.326,0.206-0.497c0.392-1.042,0.59-2.243,0.113-3.299c-0.073-0.083-0.115-0.131-0.153-0.209
	c0-0.006-0.006-0.018-0.013-0.023l-0.053-0.03l-0.023,0.031c-0.017,0.832-0.502,1.555-0.797,2.288
	C115.088-77.266,114.767-77.467,114.427-77.627z M117.784-70.337c-0.006,0.054,0.013,0.108,0.043,0.162
	c0.116,0.204,0.426,0.37,0.597,0.495c0.298,0.164,0.601,0.253,0.914,0.291c0.501,0.061,1.014-0.006,1.513-0.053
	c0.356-0.035,0.706-0.063,1.037-0.042c-0.438-0.833-0.542-1.983-1.069-2.78c-0.177-0.275-0.403-0.502-0.706-0.668
	c-0.175-0.028-0.242-0.13-0.399-0.127c0.46,0.659,0.129,1.716,0.624,2.43c0.013,0.053,0.013,0.089,0.002,0.144
	c-0.345-0.093-0.683-0.076-1.014-0.031c-0.5,0.078-0.993,0.223-1.499,0.186C117.809-70.337,117.796-70.337,117.784-70.337z
	 M142.853-74.11c0.731-0.305,1.446-0.606,1.958-1.174c0.154-0.171,0.287-0.364,0.398-0.59c0.094-0.109,0.118-0.122,0.161-0.212
	c-0.169,0.02-0.361,0.04-0.567,0.072c-0.553,0.085-1.203,0.225-1.683,0.484l-0.293-0.902l-0.421-1.303h-0.029
	c-0.831,1.083-0.406,2.507-0.091,3.758c0.02,0.054,0.02,0.091,0.02,0.091C142.485-73.961,142.674-74.036,142.853-74.11z
	 M123.27-67.287c-0.276,0.154-0.557,0.302-0.907,0.383c0.255,0.185,0.577,0.314,0.917,0.382c0.47,0.098,0.982,0.086,1.41-0.021
	c0.685-0.183,1.022-0.783,1.728-0.779c0.798,0.219,1.645,0.313,2.364,0.649c-0.58,0.393-1.611,0.368-2.137,0.873l0.352,0.661
	c0.012,0.036,0.098,0.053,0.188,0.087c0.989-0.366,1.987-1.252,3.079-1.318c0.813,0.431,1.756,0.752,2.57,1.166
	c0.304-0.149,0.366-0.523,0.467-0.814c0-0.054-0.002-0.12-0.002-0.12l-2.165-0.652c0.568-0.35,1.438-0.612,2.229-0.621
	c0.942,0.537,2.108,0.838,3.124,0.52c0.265-0.083,0.522-0.205,0.763-0.377c0.118-0.122,0.196-0.178,0.305-0.203
	c-0.374,0.041-0.724-0.01-1.075-0.097c-0.604-0.15-1.186-0.415-1.809-0.559c0.337-0.576,0.883-1.36,0.994-2.32
	c0.065-0.049,0.094-0.116,0.094-0.201c-0.02,0-0.03,0-0.043-0.011c-1.375,0.456-1.716,1.877-2.803,2.776
	c-2.136,1.055-4.587,0.871-6.612-0.193c-0.674-0.933-1.343-1.998-2.487-2.354c0.12,0.446,0.345,1.071,0.398,1.625
	c0.215,0.316,0.351,0.659,0.62,0.836c0,0.043,0,0.085-0.024,0.109C124.18-67.846,123.742-67.551,123.27-67.287z M142.308-72.061
	c0.222-0.159,0.401-0.365,0.561-0.573c0.257-0.329,0.481-0.663,0.805-0.871l-0.813,0.154l-1.197,0.225l-0.293-2.463l-0.065,0.001
	c-0.364,0.293-0.583,0.711-0.729,1.177c-0.244,0.781-0.295,1.723-0.532,2.516c-0.018,0.048-0.028,0.096-0.046,0.146
	c0.011,0,0.03,0,0.048,0c0.169,0.016,0.361,0.032,0.561,0.042C141.203-71.686,141.866-71.724,142.308-72.061z M138.686-69.8
	c0.459,0.002,0.927-0.064,1.378-0.196c0.193-0.057,0.38-0.119,0.56-0.193c0.486-0.206,0.924-0.482,1.264-0.805
	c-0.398,0.004-0.834-0.117-1.275-0.208c-0.188-0.046-0.376-0.08-0.563-0.097c-0.192-0.022-0.379-0.024-0.565,0
	c-0.021-0.663,0.048-1.586,0.306-2.216c-0.516,0.241-0.866,0.631-1.134,1.092c-0.426,0.74-0.632,1.671-0.961,2.496
	C138.01-69.841,138.348-69.796,138.686-69.8z M136.472-68.147c0.764,0.215,1.543,0.338,2.231-0.104
	c0.048-0.03,0.096-0.061,0.139-0.097c0.316-0.203,0.578-0.394,0.843-0.631c-0.295,0.105-0.64,0.109-0.99,0.059
	c-0.513-0.072-1.045-0.26-1.517-0.406c0.237-0.81,0.083-1.683,0.525-2.441l-0.03,0.001c-0.558,0.204-0.932,0.588-1.229,1.057
	c-0.426,0.675-0.683,1.521-1.047,2.242C135.745-68.372,136.11-68.251,136.472-68.147z M130.73-82.883
	c0.26-0.09,0.452-0.227,0.585-0.408c0.13-0.181,0.193-0.393,0.193-0.632c0-0.248-0.061-0.458-0.185-0.634
	c-0.122-0.176-0.303-0.301-0.537-0.375c-0.232-0.075-0.651-0.112-1.255-0.112h-1.031v2.294h1.031
	C130.073-82.749,130.472-82.792,130.73-82.883z M131.417-79.226c0.184-0.234,0.276-0.515,0.276-0.843
	c0-0.279-0.065-0.515-0.195-0.709c-0.132-0.191-0.326-0.338-0.587-0.438c-0.26-0.099-0.657-0.148-1.192-0.148h-1.218v2.04
	c0.005,0.288,0.015,0.456,0.033,0.506c0.021,0.063,0.059,0.106,0.111,0.132c0.051,0.023,0.19,0.037,0.42,0.037h0.688
	c0.399,0,0.73-0.037,0.992-0.112C131.009-78.836,131.233-78.991,131.417-79.226z M140.892-82c0,6.29-5.102,11.392-11.394,11.392
	c-6.29,0-11.39-5.102-11.39-11.392c0-6.292,5.1-11.392,11.39-11.392C135.79-93.392,140.892-88.292,140.892-82z M137.526-86.471
	c0.404,0.693,0.715,1.436,0.926,2.207c0.049,0.182,0.213,0.301,0.394,0.301c0.035,0,0.071-0.004,0.107-0.015
	c0.217-0.059,0.345-0.283,0.286-0.501c-0.229-0.84-0.568-1.649-1.009-2.404c-0.113-0.195-0.363-0.26-0.558-0.147
	C137.479-86.915,137.412-86.666,137.526-86.471z M134.157-89.815c0.693,0.397,1.334,0.886,1.904,1.452
	c0.079,0.079,0.184,0.118,0.288,0.118s0.209-0.04,0.29-0.121c0.158-0.16,0.156-0.418-0.003-0.577
	c-0.621-0.616-1.318-1.147-2.073-1.581c-0.196-0.112-0.444-0.046-0.557,0.15C133.895-90.177,133.962-89.928,134.157-89.815z
	 M129.174-91.436c0,0.226,0.197,0.408,0.423,0.408c0.795,0,1.585,0.102,2.346,0.302c0.035,0.009,0.07,0.014,0.104,0.014
	c0.181,0,0.346-0.121,0.395-0.304c0.058-0.218-0.072-0.441-0.29-0.499c-0.829-0.219-1.689-0.33-2.555-0.33h-0.028
	C129.343-91.844,129.174-91.661,129.174-91.436z M124.43-89.935c0.076,0.13,0.213,0.203,0.353,0.203c0.07,0,0.142-0.018,0.206-0.055
	c0.692-0.404,1.436-0.714,2.207-0.922c0.218-0.059,0.347-0.283,0.287-0.5c-0.058-0.218-0.283-0.347-0.499-0.288
	c-0.842,0.227-1.651,0.565-2.406,1.005C124.383-90.379,124.316-90.13,124.43-89.935z M121.083-86.272
	c0.063,0.037,0.134,0.054,0.203,0.054c0.141,0,0.278-0.073,0.354-0.205c0.398-0.693,0.888-1.333,1.454-1.902
	c0.158-0.16,0.158-0.418-0.002-0.577c-0.159-0.159-0.418-0.159-0.577,0.001c-0.616,0.62-1.148,1.316-1.583,2.071
	C120.819-86.634,120.888-86.385,121.083-86.272z M120.015-81.437c0.226,0,0.408-0.192,0.408-0.417c0-0.799,0.103-1.591,0.305-2.355
	c0.058-0.218-0.072-0.441-0.29-0.499c-0.219-0.058-0.44,0.072-0.499,0.29c-0.221,0.833-0.332,1.695-0.332,2.564v0.02
	C119.606-81.609,119.789-81.437,120.015-81.437z M121.657-77.254c-0.403-0.694-0.713-1.437-0.921-2.208
	c-0.059-0.218-0.284-0.347-0.5-0.288c-0.218,0.059-0.347,0.282-0.288,0.5c0.227,0.841,0.563,1.65,1.003,2.407
	c0.075,0.13,0.213,0.203,0.353,0.203c0.07,0,0.141-0.018,0.205-0.055C121.704-76.809,121.771-77.059,121.657-77.254z M125.02-73.901
	c-0.693-0.4-1.333-0.89-1.901-1.456c-0.158-0.159-0.418-0.159-0.577,0.001c-0.158,0.16-0.158,0.418,0.002,0.577
	c0.617,0.616,1.314,1.149,2.069,1.585c0.064,0.037,0.134,0.054,0.204,0.054c0.141,0,0.277-0.073,0.354-0.204
	C125.282-73.539,125.215-73.789,125.02-73.901z M130.01-72.272c0-0.226-0.188-0.408-0.413-0.408c-0.801,0-1.597-0.103-2.366-0.307
	c-0.221-0.058-0.44,0.073-0.498,0.29c-0.058,0.218,0.071,0.441,0.29,0.499c0.837,0.222,1.703,0.334,2.574,0.334h0.01
	C129.832-71.864,130.01-72.047,130.01-72.272z M130.109-77.148v1.551h1.594v-1.683c0.268-0.052,0.503-0.117,0.704-0.197
	c0.551-0.22,0.977-0.54,1.276-0.962c0.301-0.419,0.452-0.88,0.452-1.379c0-0.418-0.099-0.797-0.297-1.137
	c-0.197-0.34-0.466-0.605-0.802-0.793c-0.234-0.135-0.572-0.26-1.013-0.371c0.409-0.14,0.741-0.316,0.991-0.53
	c0.251-0.214,0.442-0.46,0.576-0.738c0.133-0.279,0.199-0.575,0.199-0.885c0-0.427-0.126-0.819-0.376-1.178
	c-0.253-0.358-0.612-0.632-1.081-0.822c-0.182-0.076-0.397-0.131-0.631-0.176v-1.662h-1.594v1.55h-1.025v-1.55h-1.594v1.55h-2.433
	v1.302h0.372c0.247,0,0.414,0.023,0.502,0.068c0.089,0.044,0.15,0.106,0.186,0.182c0.037,0.076,0.054,0.255,0.054,0.532v5.251
	c0,0.274-0.017,0.451-0.054,0.531c-0.035,0.078-0.097,0.139-0.186,0.182c-0.088,0.043-0.255,0.064-0.502,0.064h-0.372v1.302h2.433
	v1.549h1.594v-1.549h0.908C130.032-77.146,130.069-77.148,130.109-77.148z M134.747-73.762c-0.114-0.196-0.364-0.262-0.558-0.148
	c-0.693,0.402-1.438,0.711-2.21,0.918c-0.218,0.058-0.348,0.282-0.289,0.5c0.05,0.182,0.215,0.303,0.395,0.303
	c0.035,0,0.07-0.004,0.105-0.014c0.842-0.226,1.652-0.562,2.408-1C134.793-73.318,134.86-73.567,134.747-73.762z M138.102-77.418
	c-0.195-0.112-0.443-0.046-0.557,0.149c-0.4,0.692-0.892,1.331-1.459,1.898c-0.159,0.16-0.159,0.418,0,0.577
	c0.08,0.08,0.185,0.12,0.289,0.12s0.209-0.04,0.288-0.12c0.618-0.618,1.152-1.313,1.588-2.067
	C138.364-77.056,138.297-77.306,138.102-77.418z M139.586-81.877l-0.408-0.016h0.408c0-0.226-0.183-0.389-0.407-0.389
	c-0.226,0-0.408,0.202-0.408,0.428c0,0.805-0.104,1.604-0.31,2.374c-0.059,0.218,0.071,0.441,0.289,0.5
	c0.035,0.009,0.07,0.014,0.105,0.014c0.181,0,0.345-0.12,0.395-0.303C139.474-80.108,139.587-80.977,139.586-81.877z"/>
</svg>
