<?xml version="1.0" encoding="utf-8"?>
<!-- Generator: Adobe Illustrator 16.0.0, SVG Export Plug-In . SVG Version: 6.00 Build 0)  -->
<!DOCTYPE svg PUBLIC "-//W3C//DTD SVG 1.1//EN" "http://www.w3.org/Graphics/SVG/1.1/DTD/svg11.dtd">
<svg version="1.1" id="Layer_1" xmlns="http://www.w3.org/2000/svg" xmlns:xlink="http://www.w3.org/1999/xlink" x="0px" y="0px"
	 width="50px" height="50px" viewBox="174.5 -105.5 50 50" enable-background="new 174.5 -105.5 50 50" xml:space="preserve">
<path d="M218.242-71.822c-0.553,0-1-0.448-1-1v-15.953h-34.889c-0.553,0-1-0.448-1-1s0.447-1,1-1h35.889c0.553,0,1,0.448,1,1v16.953
	C219.242-72.27,218.795-71.822,218.242-71.822z M215.646-87.178v16.953h-35.889v-16.953H215.646z M204.342-78.519
	c0-3.623-2.937-6.558-6.559-6.558c-3.621,0-6.557,2.936-6.557,6.558c0,3.621,2.936,6.558,6.557,6.558
	C201.405-71.961,204.342-74.898,204.342-78.519z M201.995-80.542c0.07,0.146,0.216,0.229,0.368,0.229
	c0.063,0,0.125-0.014,0.183-0.043c0.204-0.101,0.287-0.348,0.188-0.552c-0.366-0.736-0.902-1.394-1.549-1.9
	c-0.181-0.141-0.438-0.109-0.58,0.07c-0.139,0.179-0.107,0.438,0.071,0.578C201.229-81.728,201.684-81.168,201.995-80.542z
	 M192.987-80.272c0.058,0.027,0.118,0.04,0.177,0.04c0.153,0,0.301-0.086,0.372-0.235c0.299-0.631,0.746-1.199,1.292-1.642
	c0.175-0.143,0.204-0.402,0.061-0.579c-0.146-0.178-0.405-0.204-0.58-0.061c-0.64,0.52-1.164,1.187-1.517,1.928
	C192.694-80.615,192.781-80.37,192.987-80.272z M196.605-83.019c0.029,0,0.063-0.003,0.094-0.011
	c0.684-0.161,1.409-0.167,2.089-0.018c0.221,0.049,0.44-0.092,0.49-0.314c0.048-0.222-0.093-0.442-0.315-0.49
	c-0.799-0.174-1.65-0.167-2.453,0.021c-0.22,0.052-0.357,0.274-0.306,0.496C196.248-83.147,196.419-83.019,196.605-83.019z
	 M193.087-78.43c0-0.227-0.186-0.41-0.412-0.41h-0.002c-0.227,0.001-0.411,0.186-0.409,0.414c0.004,0.837,0.191,1.641,0.557,2.389
	c0.071,0.146,0.219,0.23,0.37,0.23c0.061,0,0.123-0.013,0.181-0.042c0.204-0.1,0.289-0.346,0.189-0.551
	C193.251-77.034,193.091-77.717,193.087-78.43z M200.719-74.789c-0.549,0.439-1.197,0.754-1.877,0.91
	c-0.222,0.051-0.359,0.272-0.31,0.493c0.044,0.191,0.214,0.32,0.401,0.32c0.029,0,0.061-0.003,0.094-0.011
	c0.798-0.183,1.563-0.554,2.207-1.07c0.177-0.142,0.206-0.401,0.064-0.579C201.155-74.903,200.896-74.93,200.719-74.789z
	 M202.894-78.899c-0.227,0-0.412,0.214-0.412,0.442c0,0.713-0.155,1.397-0.463,2.035c-0.099,0.205-0.013,0.451,0.192,0.55
	c0.057,0.028,0.119,0.041,0.18,0.041c0.151,0,0.299-0.085,0.369-0.233c0.362-0.75,0.545-1.555,0.545-2.392v-0.06
	C203.305-78.745,203.122-78.899,202.894-78.899z M196.753-73.873c-0.682-0.153-1.332-0.464-1.881-0.899
	c-0.179-0.142-0.438-0.112-0.58,0.066c-0.141,0.178-0.11,0.437,0.066,0.579c0.646,0.512,1.412,0.878,2.216,1.058
	c0.029,0.007,0.061,0.01,0.09,0.01c0.188,0,0.357-0.13,0.401-0.321C197.115-73.603,196.976-73.823,196.753-73.873z M198.057-75.122
	v-0.826c-0.021,0-0.04,0-0.063,0h-0.484v0.826h-0.848v-0.826h-1.3v-0.694h0.198c0.133,0,0.222-0.013,0.27-0.035
	c0.046-0.022,0.079-0.055,0.1-0.097c0.02-0.043,0.027-0.137,0.027-0.284v-2.8c0-0.148-0.008-0.243-0.027-0.284
	c-0.021-0.041-0.054-0.073-0.1-0.097c-0.048-0.023-0.137-0.036-0.27-0.036h-0.198v-0.694h1.3v-0.827h0.848v0.827h0.547v-0.827h0.852
	v0.886c0.125,0.023,0.239,0.053,0.335,0.093c0.25,0.102,0.442,0.248,0.578,0.438c0.133,0.192,0.199,0.401,0.199,0.628
	c0,0.166-0.035,0.323-0.105,0.472c-0.071,0.149-0.175,0.28-0.308,0.395c-0.134,0.114-0.311,0.208-0.528,0.283
	c0.235,0.06,0.414,0.126,0.54,0.198c0.179,0.101,0.32,0.242,0.427,0.423c0.107,0.181,0.16,0.383,0.16,0.606
	c0,0.266-0.081,0.511-0.241,0.736s-0.387,0.395-0.682,0.513c-0.106,0.042-0.231,0.078-0.375,0.105v0.896H198.057z M197.2-78.935
	h0.551c0.287,0,0.499-0.023,0.638-0.072c0.138-0.048,0.241-0.121,0.313-0.218c0.068-0.097,0.102-0.209,0.102-0.337
	c0-0.132-0.031-0.245-0.098-0.337c-0.066-0.094-0.16-0.16-0.287-0.2c-0.122-0.041-0.347-0.06-0.667-0.06H197.2V-78.935z
	 M198.397-76.81c0.139-0.04,0.26-0.122,0.357-0.247s0.147-0.274,0.147-0.45c0-0.148-0.035-0.274-0.104-0.378
	c-0.071-0.102-0.175-0.181-0.314-0.234c-0.137-0.052-0.351-0.079-0.634-0.079h-0.65v1.087c0.002,0.153,0.008,0.244,0.017,0.271
	c0.013,0.033,0.031,0.056,0.061,0.07c0.026,0.012,0.102,0.02,0.225,0.02h0.365C198.079-76.75,198.256-76.769,198.397-76.81z"/>
</svg>
