<?xml version="1.0" encoding="utf-8"?>
<!-- Generator: Adobe Illustrator 16.0.0, SVG Export Plug-In . SVG Version: 6.00 Build 0)  -->
<!DOCTYPE svg PUBLIC "-//W3C//DTD SVG 1.1//EN" "http://www.w3.org/Graphics/SVG/1.1/DTD/svg11.dtd">
<svg version="1.1" id="Layer_1" xmlns="http://www.w3.org/2000/svg" xmlns:xlink="http://www.w3.org/1999/xlink" x="0px" y="0px"
	 width="50px" height="50px" viewBox="244.5 -105.5 50 50" enable-background="new 244.5 -105.5 50 50" xml:space="preserve">
<path d="M253.631-87.541v-2.707c0-0.428,0.347-0.775,0.774-0.775h15.283c0.428,0,0.771,0.348,0.771,0.775v2.707
	c0,0.429-0.344,0.775-0.771,0.775h-15.283C253.978-86.766,253.631-87.112,253.631-87.541z M254.405-92.162h15.283
	c0.428,0,0.771-0.347,0.771-0.775v-2.707c0-0.428-0.344-0.775-0.771-0.775h-15.283c-0.428,0-0.774,0.348-0.774,0.775v2.707
	C253.631-92.509,253.978-92.162,254.405-92.162z M269.277-85.292c0.264-0.131,0.528-0.261,0.793-0.392
	c-0.114-0.066-0.24-0.115-0.382-0.115h-15.283c-0.428,0-0.774,0.347-0.774,0.774v1.513c1.664,1.104,3.417,1.658,5.313,1.658
	C262.344-81.854,265.868-83.602,269.277-85.292z M287.284-84.635v15.92c-2.222-1.913-4.597-2.847-7.229-2.847
	c-3.636,0-7.268,1.801-10.78,3.543c-3.407,1.69-6.932,3.438-10.333,3.438c-0.001,0-0.001,0-0.001,0c-2.634,0-5-1.048-7.226-3.2
	V-83.7c0.625,0.538,1.264,0.99,1.915,1.374c0.522,0.309,1.054,0.573,1.596,0.784c1.185,0.459,2.419,0.688,3.717,0.688
	c1.39,0,2.779-0.267,4.161-0.688c2.233-0.683,4.448-1.778,6.617-2.854c0.245-0.121,0.492-0.242,0.738-0.364
	c3.178-1.567,6.439-3.074,9.597-3.074C282.691-87.835,285.058-86.788,287.284-84.635z M276.33-79.123
	c0-3.495-2.555-5.516-5.87-4.332c-0.315,0.112-0.635,0.243-0.962,0.415c-0.789,0.415-1.544,0.924-2.25,1.498
	c-0.375,0.305-0.736,0.627-1.078,0.967c-1.261,1.256-2.271,2.729-2.878,4.256c-0.127,0.321-0.24,0.644-0.33,0.968
	c-0.19,0.688-0.295,1.38-0.295,2.061c0,0.822,0.148,1.557,0.408,2.194c0.946,2.329,3.46,3.278,6.423,1.723
	C273.27-71.356,276.33-75.403,276.33-79.123z M272.298-76.971c0.132,0.164,0.196,0.385,0.196,0.66c0,0.329-0.102,0.68-0.299,1.048
	c-0.199,0.371-0.478,0.714-0.842,1.033c-0.132,0.116-0.284,0.234-0.464,0.354c0,0.371,0,0.74,0,1.109
	c-0.144,0.07-0.286,0.142-0.43,0.212c-0.207,0.103-0.415,0.204-0.622,0.308c0-0.342,0-0.683,0-1.023
	c-0.026,0.013-0.051,0.025-0.078,0.04c-0.2,0.099-0.399,0.197-0.6,0.297c0,0.341,0,0.681,0,1.021
	c-0.35,0.174-0.701,0.348-1.051,0.518c0-0.341,0-0.682,0-1.022c-0.536,0.261-1.07,0.517-1.607,0.761c0-0.286,0-0.572,0-0.858
	c0.082-0.038,0.165-0.074,0.248-0.112c0.159-0.076,0.272-0.144,0.33-0.198s0.102-0.114,0.123-0.178
	c0.024-0.063,0.036-0.185,0.036-0.367c0-0.66,0-1.321,0-1.982c0-0.322,0-0.646,0-0.968c0-0.172,0-0.343,0-0.514
	c0-0.185-0.012-0.296-0.036-0.336c-0.021-0.039-0.065-0.06-0.123-0.063c-0.058-0.002-0.171,0.035-0.33,0.111
	c-0.083,0.037-0.166,0.074-0.248,0.111c0-0.285,0-0.571,0-0.858c0.537-0.244,1.071-0.5,1.607-0.761c0-0.341,0-0.682,0-1.022
	c0.35-0.171,0.701-0.345,1.051-0.518c0,0.341,0,0.682,0,1.022c0.225-0.111,0.449-0.224,0.678-0.335c0-0.341,0-0.682,0-1.022
	c0.02-0.01,0.04-0.02,0.06-0.03c0.33-0.164,0.66-0.327,0.992-0.489c0,0.366,0,0.732,0,1.097c0.155-0.046,0.296-0.078,0.414-0.086
	c0.31-0.023,0.548,0.046,0.714,0.203c0.165,0.161,0.25,0.382,0.25,0.662c0,0.205-0.044,0.421-0.131,0.646
	c-0.088,0.225-0.217,0.446-0.381,0.666c-0.167,0.219-0.386,0.44-0.654,0.664c0.29-0.067,0.512-0.092,0.669-0.075
	C271.991-77.228,272.167-77.134,272.298-76.971z M268.777-76.44c0.225-0.111,0.451-0.224,0.68-0.336
	c0.354-0.177,0.618-0.336,0.79-0.479c0.081-0.068,0.15-0.14,0.213-0.212c0.068-0.08,0.128-0.163,0.174-0.248
	c0.085-0.162,0.126-0.321,0.126-0.479c0-0.163-0.038-0.284-0.121-0.358c-0.047-0.044-0.108-0.065-0.179-0.075
	c-0.053-0.007-0.108-0.01-0.173,0.002c-0.155,0.026-0.432,0.138-0.83,0.336c-0.229,0.113-0.455,0.225-0.68,0.337
	C268.777-77.449,268.777-76.945,268.777-76.44z M270.883-75.712c0-0.185-0.044-0.318-0.13-0.405
	c-0.087-0.082-0.212-0.118-0.388-0.099c-0.17,0.02-0.433,0.116-0.786,0.291c-0.269,0.133-0.536,0.267-0.802,0.399
	c0,0.058,0,0.116,0,0.174c0,0.39,0,0.78,0,1.171c0,0.189,0.008,0.297,0.021,0.322c0.014,0.035,0.035,0.052,0.071,0.052
	c0.036-0.003,0.126-0.038,0.276-0.114c0.154-0.074,0.304-0.148,0.455-0.224c0.263-0.131,0.481-0.264,0.657-0.4
	c0.063-0.048,0.118-0.107,0.175-0.167c0.098-0.104,0.188-0.218,0.265-0.354C270.821-75.279,270.883-75.495,270.883-75.712z"/>
</svg>
