<?xml version="1.0" encoding="utf-8"?>
<!-- Generator: Adobe Illustrator 16.0.0, SVG Export Plug-In . SVG Version: 6.00 Build 0)  -->
<!DOCTYPE svg PUBLIC "-//W3C//DTD SVG 1.1//EN" "http://www.w3.org/Graphics/SVG/1.1/DTD/svg11.dtd">
<svg version="1.1" id="Layer_1" xmlns="http://www.w3.org/2000/svg" xmlns:xlink="http://www.w3.org/1999/xlink" x="0px" y="0px"
	 width="50px" height="50px" viewBox="314.5 -105.5 50 50" enable-background="new 314.5 -105.5 50 50" xml:space="preserve">
<path d="M354.702-89.271h-3.854v-2.393c0-2.456-1.998-4.455-4.454-4.455h-13.789c-2.456,0-4.454,1.999-4.454,4.455v2.393h-3.854
	c-1.476,0-2.673,1.197-2.673,2.673v19.044c0,1.476,1.197,2.673,2.673,2.673h30.404c1.476,0,2.673-1.197,2.673-2.673v-19.044
	C357.375-88.075,356.178-89.271,354.702-89.271z M331.151-91.664c0-0.802,0.652-1.455,1.454-1.455h13.789
	c0.802,0,1.454,0.652,1.454,1.455v2.393h-16.697V-91.664z M339.5-67.796c-4.944,0-8.955-4.01-8.955-8.956
	c0-4.946,4.011-8.955,8.955-8.955s8.955,4.009,8.955,8.955C348.455-71.806,344.444-67.796,339.5-67.796z M334.42-71.633
	c0.195,0.195,0.197,0.511,0.002,0.708c-0.098,0.098-0.226,0.147-0.354,0.147c-0.127,0-0.255-0.048-0.353-0.145
	c-0.771-0.766-1.372-1.658-1.789-2.653c-0.106-0.255,0.013-0.548,0.268-0.654c0.256-0.107,0.548,0.014,0.654,0.268
	C333.214-73.089,333.742-72.306,334.42-71.633z M331.788-76.233c-0.276,0-0.5-0.205-0.5-0.481v-0.038
	c0-1.073,0.204-2.117,0.606-3.102c0.104-0.257,0.395-0.378,0.652-0.274c0.255,0.104,0.378,0.396,0.273,0.652
	c-0.354,0.864-0.532,1.781-0.532,2.724C332.288-76.476,332.064-76.233,331.788-76.233z M338.973-84.464c0-0.276,0.195-0.5,0.472-0.5
	h0.056c1.066,0,2.104,0.202,3.084,0.599c0.256,0.104,0.38,0.396,0.275,0.651c-0.078,0.194-0.266,0.312-0.463,0.312
	c-0.063,0-0.126-0.012-0.188-0.037c-0.86-0.349-1.772-0.526-2.709-0.526C339.224-83.964,338.973-84.188,338.973-84.464z
	 M333.663-81.816c-0.196-0.194-0.198-0.511-0.004-0.708c0.761-0.771,1.652-1.375,2.648-1.796c0.252-0.106,0.547,0.01,0.655,0.266
	c0.107,0.254-0.012,0.548-0.267,0.655c-0.874,0.37-1.657,0.901-2.326,1.579c-0.098,0.099-0.227,0.148-0.355,0.148
	C333.888-81.672,333.761-81.72,333.663-81.816z M347.212-77.289c0.276,0,0.5,0.187,0.5,0.463v0.074c0,1.087-0.209,2.144-0.621,3.139
	c-0.08,0.192-0.266,0.309-0.462,0.309c-0.063,0-0.129-0.012-0.191-0.038c-0.255-0.105-0.376-0.398-0.271-0.653
	c0.361-0.874,0.545-1.801,0.545-2.756C346.712-77.028,346.936-77.289,347.212-77.289z M340.01-69.039c0,0.276-0.214,0.5-0.49,0.5
	h-0.02c-1.079,0-2.129-0.207-3.121-0.614c-0.255-0.105-0.377-0.397-0.272-0.652c0.106-0.256,0.397-0.375,0.653-0.272
	c0.87,0.358,1.792,0.539,2.74,0.539C339.776-69.539,340.01-69.315,340.01-69.039z M345.258-82.607
	c0.773,0.761,1.38,1.65,1.803,2.644c0.108,0.254-0.01,0.548-0.265,0.656c-0.063,0.027-0.13,0.04-0.195,0.04
	c-0.194,0-0.379-0.114-0.46-0.304c-0.371-0.873-0.904-1.654-1.584-2.322c-0.197-0.193-0.199-0.51-0.006-0.707
	C344.745-82.799,345.062-82.8,345.258-82.607z M345.313-71.659c0.196,0.195,0.196,0.511,0.002,0.707
	c-0.766,0.768-1.66,1.369-2.657,1.784c-0.063,0.026-0.128,0.039-0.192,0.039c-0.195,0-0.382-0.116-0.462-0.308
	c-0.105-0.255,0.015-0.548,0.27-0.654c0.876-0.365,1.661-0.892,2.333-1.567C344.801-71.854,345.117-71.853,345.313-71.659z
	 M342.792-74.003c0.24-0.339,0.364-0.709,0.364-1.11c0-0.336-0.08-0.642-0.241-0.916c-0.16-0.273-0.376-0.487-0.646-0.638
	c-0.189-0.109-0.461-0.209-0.815-0.299c0.33-0.113,0.597-0.255,0.799-0.427c0.201-0.172,0.356-0.37,0.464-0.595
	c0.106-0.225,0.16-0.462,0.16-0.712c0-0.343-0.103-0.659-0.302-0.948c-0.203-0.288-0.495-0.509-0.871-0.662
	c-0.146-0.061-0.318-0.105-0.507-0.141v-1.338h-1.284v1.248h-0.826v-1.248h-1.281v1.248h-1.959v1.047h0.299
	c0.198,0,0.335,0.02,0.405,0.055c0.07,0.036,0.121,0.085,0.15,0.147c0.029,0.062,0.041,0.205,0.041,0.428v4.226
	c0,0.222-0.012,0.364-0.041,0.429c-0.029,0.063-0.08,0.112-0.15,0.146c-0.07,0.034-0.207,0.052-0.405,0.052h-0.299v1.047h1.959
	v1.247h1.281v-1.247h0.731c0.033,0,0.063-0.001,0.095-0.001v1.248h1.284v-1.353c0.216-0.043,0.405-0.095,0.565-0.159
	C342.207-73.406,342.549-73.663,342.792-74.003z M338.619-79.319h0.83c0.485,0,0.822,0.031,1.01,0.091
	c0.189,0.06,0.332,0.159,0.432,0.301c0.1,0.141,0.148,0.311,0.148,0.51c0,0.193-0.051,0.363-0.155,0.509
	c-0.106,0.147-0.263,0.256-0.471,0.329c-0.209,0.073-0.529,0.108-0.964,0.108h-0.83V-79.319z M340.966-74.637
	c-0.147,0.189-0.33,0.313-0.538,0.373c-0.214,0.061-0.481,0.09-0.802,0.09h-0.554c-0.184,0-0.296-0.011-0.337-0.029
	c-0.044-0.021-0.073-0.056-0.09-0.105c-0.015-0.04-0.024-0.176-0.026-0.408v-1.641h0.98c0.43,0,0.75,0.04,0.959,0.119
	c0.211,0.08,0.366,0.199,0.473,0.354c0.104,0.156,0.158,0.346,0.158,0.57C341.189-75.05,341.114-74.825,340.966-74.637z"/>
</svg>
