<?xml version="1.0" encoding="utf-8"?>
<!-- Generator: Adobe Illustrator 16.0.0, SVG Export Plug-In . SVG Version: 6.00 Build 0)  -->
<!DOCTYPE svg PUBLIC "-//W3C//DTD SVG 1.1//EN" "http://www.w3.org/Graphics/SVG/1.1/DTD/svg11.dtd">
<svg version="1.1" id="Layer_1" xmlns="http://www.w3.org/2000/svg" xmlns:xlink="http://www.w3.org/1999/xlink" x="0px" y="0px"
	 width="50px" height="50px" viewBox="-315.5 -35.5 50 50" enable-background="new -315.5 -35.5 50 50" xml:space="preserve">
<path d="M-300.204-5.141c0.078,0.265-0.073,0.543-0.338,0.621c-0.047,0.014-0.095,0.021-0.142,0.021
	c-0.216,0-0.416-0.141-0.479-0.358c-0.295-1-0.445-2.04-0.447-3.091c0-0.277,0.254-0.484,0.5-0.501c0.276,0,0.5,0.223,0.5,0.499
	C-300.608-6.994-300.471-6.049-300.204-5.141z M-300.834-10.421c0.047,0.014,0.094,0.02,0.14,0.02c0.217,0,0.417-0.142,0.48-0.36
	c0.266-0.913,0.661-1.782,1.175-2.584c0.149-0.233,0.082-0.542-0.151-0.691c-0.234-0.15-0.542-0.083-0.691,0.151
	c-0.566,0.883-1.001,1.84-1.293,2.845C-301.252-10.776-301.1-10.499-300.834-10.421z M-299.019-2.562
	c-0.15-0.232-0.459-0.299-0.691-0.148c-0.232,0.15-0.298,0.459-0.148,0.691c0.567,0.878,1.257,1.67,2.05,2.356
	c0.095,0.082,0.211,0.122,0.327,0.122c0.14,0,0.279-0.059,0.378-0.173c0.18-0.209,0.158-0.525-0.051-0.706
	C-297.875-1.043-298.503-1.764-299.019-2.562z M-286.515-17.064c0.866,0.393,1.671,0.907,2.393,1.528
	c0.094,0.081,0.21,0.121,0.326,0.121c0.14,0,0.28-0.059,0.379-0.174c0.18-0.209,0.157-0.525-0.053-0.705
	c-0.793-0.684-1.679-1.25-2.632-1.682c-0.252-0.115-0.548-0.002-0.662,0.249C-286.877-17.475-286.766-17.178-286.515-17.064z
	 M-292.153-17.84c0.024,0,0.048-0.001,0.072-0.005c0.938-0.135,1.909-0.138,2.84-0.009c0.274,0.041,0.526-0.153,0.564-0.426
	s-0.153-0.526-0.426-0.564c-1.023-0.142-2.092-0.14-3.122,0.01c-0.273,0.04-0.463,0.293-0.423,0.566
	C-292.611-18.019-292.398-17.84-292.153-17.84z M-297.514-15.373c0.117,0,0.234-0.041,0.329-0.123
	c0.719-0.627,1.521-1.146,2.382-1.543c0.251-0.115,0.361-0.413,0.245-0.663c-0.115-0.251-0.413-0.36-0.663-0.245
	c-0.949,0.437-1.831,1.008-2.622,1.697c-0.208,0.182-0.229,0.498-0.048,0.706C-297.792-15.431-297.653-15.373-297.514-15.373z
	 M-286.479,1.106c-0.865,0.396-1.781,0.666-2.722,0.8c-0.273,0.04-0.463,0.292-0.424,0.566c0.036,0.25,0.25,0.429,0.495,0.429
	c0.023,0,0.047-0.001,0.071-0.005c1.036-0.148,2.044-0.445,2.997-0.881c0.251-0.115,0.361-0.412,0.246-0.663
	C-285.93,1.102-286.225,0.99-286.479,1.106z M-280.151-8.492c-0.276,0-0.5,0.245-0.5,0.521c0,0.957-0.135,1.902-0.401,2.81
	c-0.078,0.265,0.074,0.543,0.339,0.621c0.047,0.014,0.094,0.02,0.141,0.02c0.216,0,0.416-0.141,0.48-0.359
	c0.293-1,0.441-2.04,0.441-3.091v-0.042C-279.651-8.289-279.875-8.492-280.151-8.492z M-292.041,1.91
	c-0.941-0.133-1.858-0.4-2.725-0.794c-0.251-0.115-0.547-0.003-0.662,0.248c-0.114,0.251-0.003,0.548,0.248,0.662
	c0.954,0.434,1.962,0.729,2.999,0.875c0.024,0.003,0.047,0.005,0.07,0.005c0.245,0,0.459-0.181,0.495-0.43
	C-291.577,2.201-291.767,1.948-292.041,1.91z M-281.063-10.82c0.064,0.217,0.263,0.357,0.479,0.357c0.047,0,0.095-0.007,0.143-0.021
	c0.265-0.079,0.416-0.357,0.336-0.622c-0.298-1.003-0.739-1.958-1.31-2.836c-0.15-0.231-0.46-0.297-0.692-0.147
	c-0.231,0.15-0.297,0.46-0.147,0.692C-281.735-12.598-281.335-11.731-281.063-10.82z M-281.541-2.729
	c-0.231-0.149-0.542-0.082-0.691,0.15c-0.515,0.799-1.141,1.521-1.86,2.146c-0.208,0.181-0.231,0.497-0.05,0.705
	c0.099,0.114,0.238,0.172,0.377,0.172c0.116,0,0.233-0.041,0.328-0.123c0.792-0.687,1.479-1.481,2.045-2.36
	C-281.242-2.27-281.309-2.579-281.541-2.729z M-285.991-6.988c0.215,0.372,0.324,0.787,0.324,1.244c0,0.546-0.166,1.049-0.495,1.509
	c-0.328,0.46-0.793,0.811-1.396,1.052c-0.219,0.087-0.477,0.159-0.769,0.215v1.84h-1.745v-1.695c-0.044,0-0.084,0.001-0.128,0.001
	h-0.992v1.694h-1.745v-1.694h-2.66v-1.424h0.407c0.271,0,0.453-0.024,0.549-0.07c0.096-0.047,0.164-0.113,0.203-0.199
	c0.041-0.087,0.059-0.28,0.059-0.581v-5.742c0-0.304-0.019-0.499-0.059-0.583c-0.039-0.083-0.106-0.151-0.203-0.199
	c-0.096-0.049-0.279-0.075-0.549-0.075h-0.407v-1.424h2.66v-1.694h1.745v1.694h1.12v-1.694h1.745v1.817
	c0.255,0.048,0.491,0.11,0.69,0.192c0.511,0.208,0.904,0.508,1.181,0.898c0.274,0.392,0.411,0.821,0.411,1.289
	c0,0.339-0.072,0.662-0.218,0.968c-0.146,0.304-0.356,0.573-0.628,0.807c-0.275,0.234-0.636,0.427-1.085,0.58
	c0.481,0.123,0.851,0.258,1.106,0.407C-286.501-7.649-286.208-7.359-285.991-6.988z M-291.83-8.949h1.129
	c0.591,0,1.027-0.048,1.31-0.147c0.284-0.099,0.496-0.248,0.639-0.446c0.143-0.198,0.213-0.429,0.213-0.69
	c0-0.271-0.067-0.502-0.201-0.693c-0.135-0.193-0.333-0.329-0.587-0.41c-0.256-0.082-0.713-0.123-1.373-0.123h-1.129V-8.949z
	 M-288.339-6.019c0-0.305-0.072-0.562-0.213-0.775c-0.143-0.21-0.356-0.371-0.641-0.48c-0.285-0.107-0.719-0.162-1.304-0.162h-1.333
	v2.23c0.006,0.315,0.017,0.499,0.037,0.553c0.024,0.068,0.064,0.116,0.122,0.145c0.057,0.025,0.209,0.04,0.46,0.04h0.751
	c0.437,0,0.798-0.04,1.086-0.123c0.287-0.081,0.532-0.249,0.732-0.506C-288.439-5.352-288.339-5.659-288.339-6.019z M-275.514-8.069
	c0,8.264-6.723,14.986-14.986,14.986s-14.986-6.723-14.986-14.986c0-7.757,5.924-14.155,13.486-14.91v-1.938h-0.305
	c-0.829,0-1.5-0.671-1.5-1.5s0.671-1.5,1.5-1.5h3.609c0.829,0,1.5,0.671,1.5,1.5s-0.671,1.5-1.5,1.5H-289v1.938
	c2.614,0.261,5.027,1.203,7.073,2.636l1.313-1.312l-0.216-0.216c-0.586-0.585-0.586-1.536,0-2.121c0.586-0.586,1.535-0.586,2.121,0
	l2.553,2.553c0.586,0.585,0.586,1.536,0,2.121c-0.293,0.293-0.677,0.439-1.061,0.439s-0.768-0.146-1.061-0.439l-0.215-0.215
	l-1.157,1.157C-277.094-15.688-275.514-12.063-275.514-8.069z M-277.514-8.069c0-7.161-5.826-12.986-12.986-12.986
	s-12.986,5.826-12.986,12.986s5.826,12.986,12.986,12.986S-277.514-0.909-277.514-8.069z"/>
</svg>
