<?xml version="1.0" encoding="utf-8"?>
<!-- Generator: Adobe Illustrator 16.0.0, SVG Export Plug-In . SVG Version: 6.00 Build 0)  -->
<!DOCTYPE svg PUBLIC "-//W3C//DTD SVG 1.1//EN" "http://www.w3.org/Graphics/SVG/1.1/DTD/svg11.dtd">
<svg version="1.1" id="Layer_1" xmlns="http://www.w3.org/2000/svg" xmlns:xlink="http://www.w3.org/1999/xlink" x="0px" y="0px"
	 width="50px" height="50px" viewBox="-245.5 -35.5 50 50" enable-background="new -245.5 -35.5 50 50" xml:space="preserve">
<path d="M-216.352-6.083c-0.282-0.164-0.689-0.313-1.22-0.448c0.495-0.169,0.894-0.381,1.196-0.64
	c0.302-0.258,0.534-0.555,0.694-0.891c0.16-0.336,0.241-0.692,0.241-1.067c0-0.515-0.151-0.989-0.455-1.421
	c-0.305-0.431-0.738-0.762-1.302-0.992c-0.219-0.09-0.479-0.157-0.762-0.211v-2.004h-1.923v1.869h-1.236v-1.869h-1.923v1.869h-2.934
	v1.571h0.448c0.299,0,0.5,0.027,0.606,0.082c0.106,0.054,0.18,0.127,0.224,0.219c0.044,0.092,0.065,0.308,0.065,0.643v6.333
	c0,0.332-0.021,0.544-0.065,0.64c-0.043,0.095-0.118,0.168-0.224,0.22c-0.106,0.051-0.308,0.077-0.606,0.077h-0.448v1.571h2.934
	v1.869h1.923v-1.869h1.094c0.049,0,0.095-0.001,0.143-0.001v1.87h1.923v-2.03c0.323-0.062,0.607-0.14,0.849-0.238
	c0.664-0.265,1.177-0.652,1.54-1.16c0.363-0.506,0.545-1.062,0.545-1.664c0-0.504-0.119-0.961-0.358-1.371
	C-215.623-5.536-215.945-5.854-216.352-6.083z M-221.822-10.056h1.246c0.727,0,1.231,0.046,1.514,0.135
	c0.281,0.089,0.498,0.24,0.647,0.452c0.149,0.212,0.224,0.466,0.224,0.765c0,0.288-0.079,0.542-0.236,0.762
	c-0.158,0.219-0.392,0.383-0.705,0.492s-0.794,0.163-1.444,0.163h-1.246V-10.056z M-218.305-3.039
	c-0.223,0.283-0.492,0.469-0.809,0.558c-0.317,0.09-0.716,0.136-1.198,0.136h-0.829c-0.275,0-0.445-0.016-0.507-0.046
	c-0.063-0.029-0.107-0.083-0.134-0.159c-0.022-0.06-0.035-0.263-0.041-0.611v-2.458h1.47c0.644,0,1.124,0.061,1.438,0.18
	c0.313,0.119,0.549,0.296,0.707,0.528c0.157,0.235,0.235,0.519,0.235,0.855C-217.972-3.66-218.083-3.321-218.305-3.039z
	 M-214.318-21.18h-0.182v-5.189c0-1.654-1.393-3-3.105-3h-5.789c-1.712,0-3.105,1.346-3.105,3v5.189h-0.182
	c-1.83,0-3.318,1.531-3.318,3.413V4.956c0,1.882,1.488,3.413,3.318,3.413h12.364c1.83,0,3.318-1.531,3.318-3.413v-22.723
	C-211-19.648-212.488-21.18-214.318-21.18z M-224.5-26.369c0-0.551,0.496-1,1.105-1h5.789c0.609,0,1.105,0.449,1.105,1v5.189h-8
	V-26.369z M-213,4.956c0,0.779-0.591,1.413-1.318,1.413h-12.364c-0.727,0-1.318-0.634-1.318-1.413v-22.723
	c0-0.779,0.591-1.413,1.318-1.413h12.364c0.727,0,1.318,0.634,1.318,1.413V4.956z M-223.354-26.052h2.366v2.366h-2.366V-26.052z
	 M-220.012-26.052h2.366v2.366h-2.366V-26.052z"/>
</svg>
