<?xml version="1.0" encoding="utf-8"?>
<!-- Generator: Adobe Illustrator 16.0.0, SVG Export Plug-In . SVG Version: 6.00 Build 0)  -->
<!DOCTYPE svg PUBLIC "-//W3C//DTD SVG 1.1//EN" "http://www.w3.org/Graphics/SVG/1.1/DTD/svg11.dtd">
<svg version="1.1" id="Layer_1" xmlns="http://www.w3.org/2000/svg" xmlns:xlink="http://www.w3.org/1999/xlink" x="0px" y="0px"
	 width="50px" height="50px" viewBox="-175.5 -35.5 50 50" enable-background="new -175.5 -35.5 50 50" xml:space="preserve">
<path d="M-134.229-3.894h-2.455c0.117-0.154,0.199-0.336,0.199-0.544v-0.028c3.729-1.531,6.363-5.197,6.363-9.47
	c0-4.274-2.635-7.939-6.363-9.47v-2.774c0-0.506-0.411-0.917-0.916-0.917h-18.081c-0.506,0-0.916,0.411-0.916,0.917v3.204
	c0,0.505,0.41,0.915,0.916,0.915h8.923c-0.453,0.347-0.875,0.729-1.265,1.145h-7.658c-0.506,0-0.916,0.41-0.916,0.915v3.204
	c0,0.506,0.41,0.916,0.916,0.916h5.079c-0.073,0.375-0.12,0.757-0.15,1.144h-4.929c-0.506,0-0.916,0.411-0.916,0.916v3.205
	c0,0.504,0.41,0.915,0.916,0.915h5.816c0.181,0.396,0.387,0.777,0.615,1.145h-6.431c-0.506,0-0.916,0.41-0.916,0.917v3.204
	c0,0.208,0.082,0.39,0.199,0.544h-1.664l-5.568-16.76c-0.101-0.304-0.341-0.541-0.646-0.638l-5.5-1.75
	c-0.528-0.166-1.088,0.124-1.256,0.65c-0.167,0.526,0.124,1.089,0.65,1.256l5.015,1.595l5.635,16.962
	c0.136,0.409,0.519,0.685,0.949,0.685h24.354c0.552,0,1-0.448,1-1S-133.676-3.894-134.229-3.894z M-149.843-13.936
	c0-5.231,4.255-9.486,9.485-9.486c5.231,0,9.487,4.255,9.487,9.486c0,5.23-4.256,9.486-9.487,9.486
	C-145.588-4.45-149.843-8.705-149.843-13.936z M-151.716-1.781c-2.172,0-3.938,1.767-3.938,3.939s1.767,3.938,3.938,3.938
	s3.938-1.767,3.938-3.938S-149.544-1.781-151.716-1.781z M-151.716,4.096c-1.069,0-1.938-0.87-1.938-1.938
	c0-1.069,0.87-1.939,1.938-1.939s1.938,0.87,1.938,1.939C-149.777,3.227-150.647,4.096-151.716,4.096z M-140.763-1.781
	c-2.172,0-3.938,1.767-3.938,3.939s1.767,3.938,3.938,3.938s3.938-1.767,3.938-3.938S-138.591-1.781-140.763-1.781z M-140.763,4.096
	c-1.069,0-1.938-0.87-1.938-1.938c0-1.069,0.87-1.939,1.938-1.939s1.938,0.87,1.938,1.939
	C-138.824,3.227-139.694,4.096-140.763,4.096z M-147.578-10.45c0.085,0.176,0.012,0.389-0.164,0.474
	c-0.05,0.024-0.103,0.035-0.155,0.035c-0.131,0-0.258-0.073-0.319-0.2c-0.574-1.185-0.866-2.457-0.869-3.783
	c0-0.196,0.158-0.355,0.354-0.355c0,0,0,0,0.001,0c0.195,0,0.354,0.158,0.354,0.354C-148.374-12.707-148.105-11.538-147.578-10.45z
	 M-140.258-14.589h-0.733v-1.629h0.733c0.427,0,0.725,0.026,0.891,0.079c0.166,0.053,0.293,0.142,0.381,0.266
	c0.087,0.125,0.131,0.274,0.131,0.45c0,0.169-0.046,0.319-0.139,0.448c-0.093,0.129-0.231,0.226-0.415,0.29
	C-139.592-14.621-139.875-14.589-140.258-14.589z M-141.866-5.696c-0.038,0.165-0.184,0.276-0.346,0.276
	c-0.026,0-0.052-0.003-0.079-0.009c-1.268-0.287-2.478-0.868-3.499-1.681c-0.153-0.122-0.179-0.346-0.057-0.499
	c0.122-0.153,0.344-0.178,0.498-0.057c0.938,0.748,2.05,1.281,3.214,1.545C-141.942-6.077-141.823-5.887-141.866-5.696z
	 M-140.968-11.8c-0.013-0.035-0.021-0.154-0.024-0.359v-1.447h0.865c0.379,0,0.662,0.035,0.847,0.105
	c0.185,0.07,0.323,0.174,0.416,0.311c0.092,0.138,0.138,0.305,0.138,0.503c0,0.233-0.065,0.433-0.195,0.599
	c-0.131,0.166-0.29,0.276-0.477,0.328c-0.187,0.053-0.421,0.08-0.705,0.08h-0.488c-0.162,0-0.262-0.009-0.299-0.027
	C-140.926-11.724-140.952-11.755-140.968-11.8z M-140.358-7.151c3.75,0,6.791-3.041,6.791-6.79c0-3.75-3.041-6.792-6.791-6.792
	c-3.75,0-6.79,3.041-6.79,6.792C-147.147-10.192-144.107-7.151-140.358-7.151z M-143.436-11.536h0.264
	c0.176,0,0.294-0.016,0.357-0.045c0.063-0.031,0.106-0.074,0.132-0.129c0.025-0.056,0.039-0.182,0.039-0.376v-3.729
	c0-0.197-0.013-0.324-0.039-0.379c-0.026-0.054-0.069-0.097-0.132-0.129c-0.063-0.032-0.181-0.048-0.357-0.048h-0.264v-0.925h1.727
	v-1.1h1.132v1.1h0.728v-1.1h1.132v1.18c0.167,0.032,0.319,0.072,0.449,0.125c0.332,0.135,0.587,0.33,0.766,0.584
	c0.179,0.254,0.268,0.533,0.268,0.836c0,0.221-0.047,0.43-0.142,0.628c-0.095,0.198-0.231,0.373-0.409,0.524
	c-0.177,0.152-0.412,0.277-0.704,0.376c0.313,0.079,0.552,0.167,0.718,0.264c0.239,0.134,0.429,0.321,0.57,0.563
	c0.14,0.242,0.21,0.51,0.21,0.808c0,0.354-0.107,0.681-0.321,0.979c-0.213,0.299-0.516,0.527-0.907,0.683
	c-0.142,0.058-0.309,0.104-0.5,0.14v1.195h-1.132v-1.101c-0.028,0-0.055,0.001-0.084,0.001h-0.644v1.1h-1.132v-1.1h-1.727V-11.536z
	 M-134.856-7.619c0.122,0.153,0.097,0.376-0.056,0.498c-1.02,0.815-2.229,1.399-3.496,1.688c-0.027,0.006-0.053,0.009-0.08,0.009
	c-0.162,0-0.308-0.111-0.345-0.276c-0.043-0.191,0.076-0.381,0.267-0.425c1.165-0.266,2.274-0.802,3.211-1.55
	C-135.202-7.797-134.979-7.771-134.856-7.619z M-135.379-20.228c-0.153-0.122-0.18-0.345-0.058-0.498
	c0.122-0.153,0.345-0.18,0.498-0.058c1.022,0.81,1.863,1.856,2.433,3.024c0.085,0.176,0.012,0.389-0.164,0.475
	c-0.05,0.024-0.103,0.036-0.155,0.036c-0.132,0-0.258-0.073-0.319-0.199C-133.667-18.522-134.44-19.483-135.379-20.228z
	 M-142.59-22.021c-0.044-0.191,0.075-0.381,0.266-0.425c1.266-0.292,2.616-0.295,3.882-0.011c0.191,0.043,0.312,0.232,0.268,0.423
	c-0.042,0.191-0.231,0.313-0.423,0.268c-1.164-0.261-2.406-0.257-3.567,0.011c-0.027,0.006-0.054,0.009-0.08,0.009
	C-142.406-21.747-142.552-21.857-142.59-22.021z M-133.13-10.464c0.525-1.088,0.792-2.258,0.792-3.477
	c0-0.196,0.158-0.372,0.354-0.372c0.196,0,0.354,0.142,0.354,0.337v0.034c0,1.326-0.29,2.6-0.862,3.786
	c-0.061,0.126-0.188,0.2-0.319,0.2c-0.052,0-0.104-0.011-0.154-0.035C-133.141-10.076-133.215-10.288-133.13-10.464z
	 M-148.23-17.712c0.562-1.172,1.397-2.224,2.414-3.04c0.154-0.122,0.376-0.098,0.499,0.055c0.123,0.153,0.098,0.376-0.055,0.499
	c-0.935,0.75-1.702,1.716-2.219,2.794c-0.061,0.127-0.188,0.201-0.32,0.201c-0.051,0-0.104-0.011-0.153-0.035
	C-148.241-17.323-148.315-17.535-148.23-17.712z"/>
</svg>
