<?xml version="1.0" encoding="utf-8"?>
<!-- Generator: Adobe Illustrator 16.0.0, SVG Export Plug-In . SVG Version: 6.00 Build 0)  -->
<!DOCTYPE svg PUBLIC "-//W3C//DTD SVG 1.1//EN" "http://www.w3.org/Graphics/SVG/1.1/DTD/svg11.dtd">
<svg version="1.1" id="Layer_1" xmlns="http://www.w3.org/2000/svg" xmlns:xlink="http://www.w3.org/1999/xlink" x="0px" y="0px"
	 width="50px" height="50px" viewBox="-105.5 -35.5 50 50" enable-background="new -105.5 -35.5 50 50" xml:space="preserve">
<path d="M-67.159-22.422c-6.467-2.074-11.369-4.841-11.369-4.841h-0.008c0,0-4.83,2.805-11.368,4.841
	c0,0-2.294,14.589,11.334,21.186h0.075C-64.865-7.833-67.159-22.422-67.159-22.422z M-78.373-2.694l-0.159,0.084l-0.16-0.084
	C-88.754-7.992-88.945-18.236-88.764-21.25l0.014-0.231l0.22-0.073c4.734-1.568,8.462-3.461,9.845-4.203l0.16-0.086l0.161,0.084
	c1.396,0.734,5.15,2.611,9.84,4.199l0.216,0.073l0.016,0.227C-68.084-18.255-68.197-8.04-78.373-2.694z M-68.96-20.985
	c-4.466-1.53-8.063-3.303-9.561-4.083c-1.487,0.789-5.063,2.578-9.572,4.09c-0.147,3.152,0.257,12.592,9.561,17.593
	C-69.12-8.432-68.786-17.848-68.96-20.985z M-78.625-7.791c-3.824,0-6.922-3.099-6.922-6.922c0-3.824,3.099-6.923,6.922-6.923
	s6.923,3.099,6.923,6.923C-71.702-10.89-74.801-7.791-78.625-7.791z M-78.532-8.39c-0.362,0-0.726-0.031-1.08-0.093
	c-0.187-0.032-0.311-0.209-0.279-0.396c0.033-0.186,0.207-0.311,0.396-0.278c0.635,0.111,1.303,0.11,1.936-0.002
	c0.185-0.035,0.363,0.091,0.396,0.278c0.033,0.186-0.091,0.363-0.277,0.396C-77.797-8.421-78.165-8.39-78.532-8.39z M-81.485-9.178
	c-0.058,0-0.117-0.015-0.171-0.046c-0.633-0.365-1.194-0.834-1.666-1.395c-0.122-0.145-0.103-0.361,0.041-0.482
	c0.145-0.123,0.361-0.103,0.482,0.041c0.42,0.5,0.919,0.917,1.484,1.243c0.164,0.094,0.22,0.304,0.125,0.467
	C-81.251-9.239-81.367-9.178-81.485-9.178z M-75.569-9.183c-0.118,0-0.233-0.061-0.296-0.17c-0.095-0.164-0.039-0.373,0.125-0.468
	c0.563-0.327,1.062-0.746,1.482-1.246c0.122-0.145,0.338-0.164,0.482-0.042c0.145,0.122,0.164,0.337,0.042,0.482
	c-0.471,0.562-1.03,1.032-1.663,1.398C-75.452-9.198-75.511-9.183-75.569-9.183z M-84.09-12.272c-0.14,0-0.271-0.086-0.322-0.225
	c-0.25-0.685-0.378-1.404-0.379-2.139c0-0.189,0.153-0.343,0.341-0.343c0,0,0,0,0.001,0c0.188,0,0.342,0.152,0.342,0.341
	c0.001,0.655,0.115,1.296,0.338,1.905c0.065,0.177-0.026,0.374-0.204,0.439C-84.011-12.279-84.051-12.272-84.09-12.272z
	 M-72.969-12.283c-0.039,0-0.078-0.007-0.117-0.021c-0.177-0.065-0.269-0.261-0.205-0.438c0.222-0.61,0.334-1.252,0.334-1.907
	c0-0.189,0.153-0.354,0.342-0.354c0.189,0,0.342,0.141,0.342,0.331v0.024c0,0.735-0.126,1.456-0.376,2.141
	C-72.698-12.37-72.829-12.283-72.969-12.283z M-84.098-16.319c-0.039,0-0.078-0.006-0.116-0.021
	c-0.178-0.064-0.27-0.261-0.206-0.438c0.249-0.688,0.613-1.321,1.083-1.884c0.121-0.145,0.337-0.165,0.482-0.043
	c0.145,0.121,0.164,0.337,0.043,0.482c-0.419,0.501-0.744,1.065-0.965,1.677C-83.827-16.406-83.958-16.319-84.098-16.319z
	 M-72.977-16.353c-0.14,0-0.27-0.086-0.321-0.224c-0.225-0.609-0.552-1.172-0.975-1.671c-0.122-0.145-0.104-0.36,0.041-0.482
	s0.36-0.104,0.482,0.041c0.473,0.56,0.842,1.191,1.094,1.876c0.065,0.178-0.025,0.374-0.203,0.439
	C-72.898-16.359-72.938-16.353-72.977-16.353z M-81.503-19.424c-0.118,0-0.233-0.061-0.296-0.17
	c-0.095-0.163-0.04-0.373,0.124-0.468c0.633-0.369,1.32-0.621,2.04-0.749c0.19-0.034,0.364,0.091,0.397,0.277
	c0.033,0.186-0.091,0.364-0.276,0.397c-0.642,0.114-1.253,0.339-1.816,0.667C-81.386-19.439-81.445-19.424-81.503-19.424z
	 M-75.59-19.442c-0.058,0-0.116-0.015-0.17-0.045c-0.565-0.325-1.178-0.546-1.819-0.656c-0.187-0.032-0.312-0.209-0.28-0.395
	s0.21-0.309,0.395-0.28c0.722,0.124,1.41,0.372,2.045,0.737c0.164,0.094,0.221,0.303,0.126,0.467
	C-75.356-19.503-75.471-19.442-75.59-19.442z M-75.912-14.094c-0.123-0.21-0.288-0.374-0.496-0.49
	c-0.145-0.084-0.353-0.16-0.625-0.229c0.253-0.086,0.458-0.195,0.612-0.328c0.154-0.132,0.273-0.284,0.355-0.456
	c0.082-0.173,0.123-0.355,0.123-0.547c0-0.264-0.078-0.506-0.232-0.727c-0.156-0.221-0.378-0.391-0.667-0.508
	c-0.112-0.046-0.246-0.081-0.39-0.108v-1.026h-0.985v0.957h-0.633v-0.957h-0.985v0.957h-1.502v0.804h0.229
	c0.153,0,0.256,0.015,0.311,0.042c0.054,0.027,0.092,0.065,0.114,0.112c0.023,0.047,0.034,0.157,0.034,0.329v3.243
	c0,0.17-0.011,0.279-0.034,0.328c-0.022,0.048-0.06,0.085-0.114,0.112c-0.054,0.027-0.158,0.04-0.311,0.04h-0.229v0.804h1.502v0.957
	h0.985v-0.957h0.56c0.025,0,0.048-0.001,0.073-0.001v0.958h0.985v-1.039c0.165-0.032,0.31-0.072,0.434-0.122
	c0.34-0.136,0.603-0.334,0.788-0.594c0.186-0.26,0.279-0.543,0.279-0.852C-75.729-13.65-75.79-13.884-75.912-14.094z
	 M-77.796-16.549c0.144,0.046,0.255,0.123,0.332,0.231c0.076,0.108,0.114,0.238,0.114,0.391c0,0.148-0.04,0.278-0.12,0.391
	c-0.081,0.112-0.2,0.196-0.361,0.251c-0.16,0.056-0.406,0.083-0.739,0.083h-0.638v-1.417h0.638
	C-78.199-16.619-77.94-16.595-77.796-16.549z M-78.435-12.671h-0.424c-0.142,0-0.228-0.008-0.26-0.023
	c-0.032-0.016-0.055-0.043-0.069-0.082c-0.011-0.031-0.018-0.134-0.021-0.313v-1.259h0.752c0.331,0,0.576,0.03,0.737,0.091
	c0.161,0.062,0.281,0.152,0.362,0.271c0.08,0.121,0.121,0.266,0.121,0.438c0,0.203-0.057,0.376-0.17,0.521
	c-0.114,0.145-0.252,0.24-0.414,0.286C-77.984-12.694-78.188-12.671-78.435-12.671z M-66.327-0.136h-21.656l-5.098-15.344
	c-0.101-0.304-0.341-0.541-0.646-0.638l-5.054-1.608c-0.525-0.166-1.088,0.124-1.256,0.65c-0.167,0.526,0.124,1.089,0.65,1.256
	l4.568,1.453l5.165,15.546c0.136,0.409,0.519,0.685,0.949,0.685h5.726c-1.762,0.283-3.116,1.801-3.116,3.642
	c0,2.041,1.66,3.7,3.7,3.7c2.041,0,3.7-1.66,3.7-3.7c0-1.84-1.354-3.359-3.116-3.642h8.896c-1.762,0.283-3.116,1.801-3.116,3.642
	c0,2.041,1.66,3.7,3.7,3.7s3.7-1.66,3.7-3.7c0-1.84-1.354-3.359-3.116-3.642h5.419c0.552,0,1-0.448,1-1S-65.774-0.136-66.327-0.136z
	 M-80.695,5.505c0,0.938-0.763,1.7-1.7,1.7c-0.937,0-1.7-0.763-1.7-1.7c0-0.938,0.763-1.701,1.7-1.701
	C-81.458,3.805-80.695,4.567-80.695,5.505z M-70.63,5.505c0,0.938-0.763,1.7-1.7,1.7s-1.7-0.763-1.7-1.7
	c0-0.938,0.763-1.701,1.7-1.701S-70.63,4.567-70.63,5.505z"/>
</svg>
