<?xml version="1.0" encoding="utf-8"?>
<!-- Generator: Adobe Illustrator 16.0.0, SVG Export Plug-In . SVG Version: 6.00 Build 0)  -->
<!DOCTYPE svg PUBLIC "-//W3C//DTD SVG 1.1//EN" "http://www.w3.org/Graphics/SVG/1.1/DTD/svg11.dtd">
<svg version="1.1" id="Layer_1" xmlns="http://www.w3.org/2000/svg" xmlns:xlink="http://www.w3.org/1999/xlink" x="0px" y="0px"
	 width="50px" height="50px" viewBox="-35.5 -35.5 50 50" enable-background="new -35.5 -35.5 50 50" xml:space="preserve">
<path d="M-13.566-13.08c-1.271,0-2.445-0.371-3.561-1.111v-1.014c0-0.287,0.232-0.519,0.519-0.519h10.243
	c0.095,0,0.179,0.033,0.256,0.077c-0.178,0.087-0.355,0.175-0.532,0.262C-8.925-14.251-11.287-13.08-13.566-13.08z M-7.423-6.755
	C-7.782-6.58-8.14-6.409-8.5-6.245c0-0.191,0-0.383,0-0.575c0.055-0.025,0.11-0.05,0.166-0.075c0.107-0.051,0.183-0.096,0.221-0.133
	s0.068-0.077,0.083-0.119c0.017-0.042,0.024-0.124,0.024-0.246c0-0.442,0-0.886,0-1.329c0-0.216,0-0.433,0-0.649
	c0-0.115,0-0.229,0-0.344c0-0.124-0.008-0.198-0.024-0.225c-0.014-0.026-0.044-0.04-0.083-0.042
	c-0.039-0.001-0.114,0.024-0.221,0.075C-8.39-9.883-8.445-9.858-8.5-9.833c0-0.191,0-0.383,0-0.575
	c0.36-0.164,0.718-0.335,1.077-0.51c0-0.229,0-0.457,0-0.686c0.234-0.114,0.47-0.231,0.704-0.347c0,0.229,0,0.457,0,0.685
	c0.151-0.075,0.301-0.15,0.455-0.225c0-0.228,0-0.457,0-0.685c0.013-0.006,0.027-0.013,0.04-0.021
	c0.222-0.11,0.443-0.219,0.665-0.328c0,0.246,0,0.491,0,0.735c0.104-0.031,0.198-0.052,0.278-0.058
	c0.208-0.016,0.367,0.031,0.479,0.136c0.11,0.108,0.167,0.256,0.167,0.444c0,0.137-0.03,0.282-0.088,0.433
	c-0.059,0.15-0.145,0.299-0.255,0.446c-0.112,0.146-0.258,0.295-0.438,0.445c0.194-0.045,0.343-0.062,0.449-0.051
	c0.147,0.013,0.266,0.075,0.353,0.185c0.088,0.11,0.132,0.258,0.132,0.442c0,0.221-0.068,0.456-0.2,0.703
	c-0.134,0.249-0.32,0.479-0.564,0.692c-0.088,0.078-0.19,0.157-0.311,0.238c0,0.249,0,0.496,0,0.743
	c-0.096,0.047-0.191,0.095-0.288,0.142C-5.986-6.778-6.125-6.71-6.264-6.641c0-0.229,0-0.458,0-0.686
	C-6.282-7.318-6.298-7.31-6.316-7.3c-0.134,0.066-0.268,0.132-0.402,0.199c0,0.229,0,0.456,0,0.685
	C-6.953-6.3-7.188-6.184-7.423-6.069C-7.423-6.298-7.423-6.526-7.423-6.755z M-6.975-9.452c0.15-0.075,0.302-0.15,0.456-0.225
	c0.237-0.119,0.414-0.225,0.529-0.321c0.055-0.046,0.101-0.094,0.143-0.142c0.045-0.054,0.085-0.109,0.116-0.166
	c0.057-0.109,0.084-0.215,0.084-0.322c0-0.109-0.025-0.19-0.081-0.24c-0.031-0.03-0.073-0.044-0.12-0.051
	c-0.036-0.004-0.073-0.006-0.116,0.001c-0.104,0.018-0.289,0.092-0.556,0.225c-0.153,0.076-0.305,0.15-0.456,0.226
	C-6.975-10.128-6.975-9.791-6.975-9.452z M-6.975-7.938c0,0.127,0.005,0.199,0.014,0.216c0.009,0.024,0.024,0.035,0.048,0.035
	c0.024-0.002,0.084-0.025,0.186-0.076c0.104-0.05,0.204-0.1,0.305-0.15C-6.247-8.001-6.1-8.09-5.982-8.182
	c0.042-0.032,0.08-0.072,0.117-0.112C-5.8-8.363-5.739-8.439-5.688-8.531c0.083-0.143,0.124-0.287,0.124-0.433
	c0-0.124-0.029-0.213-0.087-0.271c-0.059-0.055-0.142-0.079-0.26-0.066c-0.114,0.013-0.29,0.078-0.527,0.195
	c-0.18,0.089-0.359,0.179-0.538,0.268c0,0.039,0,0.078,0,0.117C-6.975-8.461-6.975-8.199-6.975-7.938z M-16.607-19.989h10.243
	c0.287,0,0.517-0.232,0.517-0.52v-1.814c0-0.287-0.23-0.52-0.517-0.52h-10.243c-0.287,0-0.519,0.233-0.519,0.52v1.814
	C-17.126-20.222-16.895-19.989-16.607-19.989z M-16.607-16.372h10.243c0.287,0,0.517-0.232,0.517-0.52v-1.814
	c0-0.287-0.23-0.52-0.517-0.52h-10.243c-0.287,0-0.519,0.233-0.519,0.52v1.814C-17.126-16.604-16.895-16.372-16.607-16.372z
	 M7.135-2.204c0,0.552-0.448,1-1,1h-24.354c-0.431,0-0.813-0.276-0.949-0.685l-5.635-16.962l-5.015-1.595
	c-0.526-0.167-0.817-0.73-0.65-1.256c0.167-0.526,0.729-0.815,1.256-0.65l5.5,1.75c0.305,0.097,0.545,0.334,0.646,0.638L-18.41-5.95
	v-8.368c0.419,0.361,0.847,0.664,1.284,0.921c0.35,0.207,0.706,0.384,1.069,0.526c0.794,0.308,1.621,0.461,2.491,0.461
	c0.931,0,1.863-0.179,2.789-0.461c1.497-0.458,2.981-1.192,4.435-1.913c0.165-0.082,0.33-0.163,0.495-0.244
	c2.129-1.051,4.316-2.061,6.432-2.061c1.766,0,3.352,0.702,4.844,2.145v10.67C3.939-5.556,2.348-6.182,0.584-6.182
	c-2.437,0-4.871,1.207-7.225,2.375C-7.05-3.604-7.463-3.402-7.876-3.204H6.135C6.688-3.204,7.135-2.756,7.135-2.204z M-11.07-7.341
	c0,0.551,0.1,1.043,0.273,1.471c0.634,1.561,2.319,2.197,4.305,1.155c2.528-1.329,4.579-4.041,4.579-6.534
	c0-2.342-1.712-3.697-3.934-2.903c-0.211,0.075-0.426,0.163-0.645,0.278c-0.529,0.278-1.035,0.62-1.508,1.004
	c-0.251,0.204-0.494,0.42-0.723,0.648c-0.845,0.842-1.522,1.829-1.929,2.852c-0.085,0.215-0.161,0.432-0.221,0.649
	C-11-8.261-11.07-7.797-11.07-7.341z M-7.414,2.848c0,2.172-1.767,3.938-3.938,3.938s-3.938-1.767-3.938-3.938
	s1.767-3.939,3.938-3.939S-7.414,0.676-7.414,2.848z M-9.414,2.848c0-1.069-0.87-1.939-1.938-1.939s-1.938,0.87-1.938,1.939
	c0,1.069,0.87,1.938,1.938,1.938S-9.414,3.917-9.414,2.848z M3.54,2.848c0,2.172-1.767,3.938-3.938,3.938S-4.337,5.02-4.337,2.848
	s1.767-3.939,3.938-3.939S3.54,0.676,3.54,2.848z M1.54,2.848c0-1.069-0.87-1.939-1.938-1.939s-1.938,0.87-1.938,1.939
	c0,1.069,0.87,1.938,1.938,1.938S1.54,3.917,1.54,2.848z"/>
</svg>
