<?xml version="1.0" encoding="utf-8"?>
<!-- Generator: Adobe Illustrator 16.0.0, SVG Export Plug-In . SVG Version: 6.00 Build 0)  -->
<!DOCTYPE svg PUBLIC "-//W3C//DTD SVG 1.1//EN" "http://www.w3.org/Graphics/SVG/1.1/DTD/svg11.dtd">
<svg version="1.1" id="Layer_1" xmlns="http://www.w3.org/2000/svg" xmlns:xlink="http://www.w3.org/1999/xlink" x="0px" y="0px"
	 width="50px" height="50px" viewBox="34.5 -35.5 50 50" enable-background="new 34.5 -35.5 50 50" xml:space="preserve">
<path d="M59.5-13.1c-4.467,0-8.101,3.634-8.101,8.1s3.634,8.1,8.101,8.1s8.101-3.634,8.101-8.1S63.967-13.1,59.5-13.1z
	 M61.795-12.141c0.749,0.24,1.452,0.597,2.093,1.06c0.101,0.073,0.123,0.213,0.05,0.314c-0.043,0.062-0.111,0.093-0.182,0.093
	c-0.047,0-0.092-0.014-0.132-0.042c-0.603-0.435-1.264-0.77-1.967-0.995c-0.118-0.039-0.184-0.166-0.146-0.284
	C61.55-12.114,61.677-12.178,61.795-12.141z M57.164-12.126c0.744-0.244,1.522-0.369,2.313-0.372c0.125,0,0.226,0.101,0.226,0.225
	c0.001,0.124-0.101,0.226-0.224,0.226c-0.743,0.002-1.477,0.12-2.177,0.349c-0.022,0.007-0.047,0.011-0.07,0.011
	c-0.095,0-0.183-0.061-0.214-0.155C56.979-11.961,57.045-12.088,57.164-12.126z M53.423-9.393c0.462-0.638,1.018-1.198,1.653-1.662
	c0.102-0.075,0.242-0.052,0.315,0.048c0.073,0.101,0.051,0.241-0.05,0.315c-0.598,0.437-1.12,0.962-1.555,1.563
	c-0.043,0.061-0.112,0.093-0.183,0.093c-0.044,0-0.091-0.014-0.131-0.042C53.373-9.152,53.351-9.292,53.423-9.393z M52.002-4.986V-5
	c0-0.786,0.121-1.561,0.359-2.302c0.039-0.119,0.165-0.182,0.283-0.146c0.118,0.038,0.184,0.166,0.146,0.284
	C52.564-6.467,52.453-5.739,52.453-5c0,0.125-0.103,0.232-0.226,0.232C52.103-4.768,52.002-4.861,52.002-4.986z M53.755-0.534
	c-0.04,0.029-0.086,0.043-0.133,0.043c-0.07,0-0.137-0.032-0.182-0.093c-0.465-0.638-0.825-1.34-1.069-2.087
	c-0.038-0.119,0.025-0.246,0.144-0.284c0.12-0.039,0.246,0.026,0.285,0.144c0.229,0.703,0.567,1.362,1.003,1.962
	C53.877-0.748,53.855-0.607,53.755-0.534z M57.26,2.147c-0.022,0-0.047-0.004-0.069-0.011c-0.747-0.242-1.45-0.6-2.09-1.063
	C55,1,54.978,0.859,55.051,0.758c0.072-0.101,0.215-0.124,0.313-0.05c0.601,0.437,1.263,0.773,1.966,1
	c0.118,0.039,0.182,0.166,0.144,0.284C57.443,2.086,57.355,2.147,57.26,2.147z M61.823,2.131c-0.746,0.243-1.524,0.367-2.317,0.367
	c-0.123,0-0.224-0.101-0.224-0.225c0-0.124,0.1-0.225,0.224-0.226c0.745,0,1.477-0.117,2.177-0.344
	c0.118-0.038,0.246,0.025,0.284,0.144C62.006,1.966,61.941,2.093,61.823,2.131z M65.567-0.595c-0.463,0.637-1.02,1.195-1.657,1.659
	c-0.04,0.03-0.086,0.043-0.133,0.043c-0.068,0-0.137-0.032-0.18-0.092c-0.074-0.101-0.052-0.242,0.048-0.315
	c0.599-0.437,1.123-0.961,1.56-1.56c0.071-0.101,0.212-0.123,0.313-0.05C65.619-0.835,65.641-0.695,65.567-0.595z M59.5,1.496
	c-3.588,0-6.496-2.909-6.496-6.496s2.908-6.496,6.496-6.496S65.996-8.587,65.996-5S63.088,1.496,59.5,1.496z M66.998-5.029V-5
	c0,0.791-0.123,1.571-0.364,2.316c-0.03,0.095-0.118,0.156-0.215,0.156c-0.022,0-0.046-0.004-0.068-0.011
	c-0.12-0.039-0.184-0.166-0.146-0.284C66.432-3.523,66.547-4.256,66.547-5c0-0.125,0.103-0.239,0.226-0.239
	C66.897-5.239,66.998-5.153,66.998-5.029z M65.55-9.429c0.469,0.636,0.829,1.337,1.074,2.084c0.038,0.118-0.025,0.245-0.143,0.284
	c-0.023,0.007-0.048,0.011-0.07,0.011c-0.096,0-0.184-0.06-0.214-0.155c-0.231-0.702-0.57-1.361-1.01-1.959
	c-0.074-0.101-0.052-0.242,0.049-0.315C65.336-9.551,65.477-9.53,65.55-9.429z M66.516-19.931c0.781-0.052,1.401-0.695,1.401-1.49
	c0-0.829-0.672-1.5-1.5-1.5h-0.335l2.587-5.05H50.331l2.587,5.05h-0.335c-0.828,0-1.5,0.671-1.5,1.5c0,0.795,0.62,1.438,1.401,1.49
	c-2.966,2.167-4.9,5.662-4.9,9.617V6.971h23.832v-17.285C71.416-14.269,69.481-17.763,66.516-19.931z M59.5,4c-4.962,0-9-4.038-9-9
	s4.038-9,9-9s9,4.038,9,9S64.462,4,59.5,4z M61.484-4.939c-0.134-0.078-0.329-0.15-0.583-0.214c0.236-0.081,0.429-0.183,0.572-0.307
	c0.146-0.123,0.256-0.265,0.332-0.426c0.077-0.161,0.115-0.332,0.115-0.51c0-0.246-0.072-0.473-0.218-0.68
	c-0.145-0.206-0.353-0.364-0.623-0.475c-0.105-0.043-0.229-0.075-0.364-0.102v-0.958h-0.92v0.894h-0.592v-0.894h-0.92v0.894h-1.405
	v0.752h0.216c0.143,0,0.24,0.013,0.289,0.039c0.052,0.025,0.087,0.062,0.107,0.105s0.032,0.147,0.032,0.308v3.03
	c0,0.158-0.012,0.261-0.032,0.306s-0.056,0.08-0.107,0.105c-0.049,0.024-0.146,0.037-0.289,0.037h-0.216v0.751h1.405v0.894h0.92
	v-0.894h0.522c0.024,0,0.047,0,0.069,0v0.894h0.92V-2.36c0.153-0.031,0.291-0.067,0.406-0.114c0.317-0.127,0.563-0.312,0.736-0.555
	c0.175-0.243,0.263-0.508,0.263-0.797c0-0.241-0.058-0.46-0.173-0.656C61.835-4.678,61.68-4.831,61.484-4.939z M58.867-6.841h0.596
	c0.349,0,0.59,0.021,0.725,0.064c0.136,0.043,0.237,0.115,0.31,0.217c0.072,0.101,0.107,0.223,0.107,0.366
	c0,0.138-0.037,0.259-0.114,0.364c-0.074,0.105-0.187,0.183-0.337,0.235c-0.148,0.053-0.379,0.078-0.69,0.078h-0.596V-6.841z
	 M60.55-3.483c-0.105,0.135-0.235,0.225-0.387,0.267c-0.151,0.043-0.342,0.065-0.572,0.065h-0.397c-0.131,0-0.213-0.008-0.243-0.022
	c-0.028-0.014-0.051-0.04-0.063-0.077c-0.01-0.028-0.017-0.125-0.02-0.292v-1.177h0.703c0.309,0,0.538,0.029,0.688,0.086
	s0.263,0.142,0.337,0.252c0.075,0.113,0.114,0.249,0.114,0.409C60.71-3.78,60.657-3.618,60.55-3.483z"/>
</svg>
