<?xml version="1.0" encoding="utf-8"?>
<!-- Generator: Adobe Illustrator 16.0.0, SVG Export Plug-In . SVG Version: 6.00 Build 0)  -->
<!DOCTYPE svg PUBLIC "-//W3C//DTD SVG 1.1//EN" "http://www.w3.org/Graphics/SVG/1.1/DTD/svg11.dtd">
<svg version="1.1" id="Layer_1" xmlns="http://www.w3.org/2000/svg" xmlns:xlink="http://www.w3.org/1999/xlink" x="0px" y="0px"
	 width="50px" height="50px" viewBox="104.5 -35.5 50 50" enable-background="new 104.5 -35.5 50 50" xml:space="preserve">
<path d="M118.894-10.162c-0.183,0-0.328-0.136-0.328-0.318V-10.5c0-1.146,0.177-2.276,0.524-3.357
	c0.057-0.172,0.24-0.266,0.413-0.211c0.173,0.055,0.268,0.24,0.212,0.413c-0.328,1.016-0.493,2.078-0.493,3.156
	C119.222-10.319,119.074-10.162,118.894-10.162z M132.646-20.289c1.025,0.33,1.99,0.818,2.867,1.453
	c0.059,0.042,0.126,0.063,0.192,0.063c0.101,0,0.202-0.047,0.267-0.136c0.105-0.147,0.073-0.352-0.074-0.458
	c-0.933-0.674-1.96-1.195-3.052-1.544c-0.172-0.056-0.356,0.04-0.412,0.211C132.379-20.528,132.474-20.344,132.646-20.289z
	 M120.711-16.449c0.06,0.042,0.125,0.063,0.192,0.063c0.102,0,0.202-0.047,0.267-0.136c0.633-0.875,1.396-1.641,2.268-2.279
	c0.146-0.107,0.179-0.312,0.07-0.458c-0.106-0.146-0.312-0.178-0.458-0.071c-0.927,0.678-1.739,1.494-2.412,2.424
	C120.531-16.76,120.565-16.555,120.711-16.449z M126.194-20.252c0.033,0,0.068-0.005,0.102-0.017
	c1.021-0.334,2.089-0.506,3.173-0.509c0.182-0.001,0.329-0.147,0.327-0.33c0-0.181-0.147-0.327-0.328-0.327
	c-1.153,0.003-2.289,0.186-3.376,0.542c-0.172,0.056-0.267,0.242-0.21,0.414C125.928-20.341,126.056-20.252,126.194-20.252z
	 M119.728-7.306c-0.056-0.172-0.239-0.267-0.414-0.21c-0.171,0.056-0.266,0.242-0.209,0.414c0.355,1.089,0.88,2.114,1.559,3.044
	c0.064,0.087,0.165,0.135,0.266,0.135c0.067,0,0.135-0.021,0.192-0.063c0.147-0.107,0.18-0.313,0.072-0.458
	C120.555-5.319,120.063-6.282,119.728-7.306z M132.686-0.724c-1.022,0.333-2.091,0.502-3.176,0.503
	c-0.182,0-0.327,0.147-0.327,0.329c0,0.181,0.147,0.327,0.327,0.327c1.155-0.001,2.291-0.181,3.378-0.535
	c0.173-0.056,0.267-0.241,0.21-0.414C133.043-0.686,132.857-0.781,132.686-0.724z M130.605-9.963
	c-0.219-0.083-0.554-0.125-1.003-0.125h-1.025v1.716c0.004,0.242,0.013,0.384,0.028,0.425c0.02,0.053,0.05,0.09,0.094,0.111
	c0.044,0.02,0.161,0.031,0.354,0.031h0.579c0.336,0,0.614-0.031,0.836-0.093c0.221-0.063,0.409-0.192,0.563-0.39
	c0.155-0.197,0.232-0.434,0.232-0.71c0-0.235-0.054-0.433-0.164-0.597C130.989-9.757,130.826-9.88,130.605-9.963z M139.267-13.713
	c0.045,0.138,0.173,0.226,0.312,0.226c0.034,0,0.067-0.005,0.103-0.017c0.172-0.056,0.266-0.242,0.209-0.414
	c-0.357-1.089-0.885-2.112-1.564-3.041c-0.109-0.146-0.313-0.177-0.459-0.07c-0.146,0.107-0.179,0.312-0.07,0.459
	C138.435-15.699,138.93-14.737,139.267-13.713z M126.334-0.718c-1.024-0.332-1.987-0.821-2.864-1.458
	c-0.146-0.107-0.353-0.074-0.458,0.073c-0.106,0.146-0.074,0.352,0.073,0.458c0.932,0.676,1.957,1.197,3.048,1.55
	c0.034,0.011,0.067,0.016,0.102,0.016c0.139,0,0.267-0.088,0.312-0.228C126.603-0.477,126.507-0.662,126.334-0.718z M128.577-11.252
	h0.869c0.455,0,0.79-0.039,1.009-0.114c0.218-0.075,0.381-0.19,0.49-0.343c0.111-0.152,0.164-0.331,0.164-0.531
	c0-0.208-0.051-0.387-0.154-0.534c-0.104-0.147-0.256-0.253-0.452-0.315c-0.196-0.063-0.549-0.094-1.057-0.094h-0.869V-11.252z
	 M139.778-10.5c0,1.085-0.168,2.153-0.5,3.175c-0.056,0.173,0.039,0.357,0.212,0.414c0.033,0.011,0.067,0.016,0.101,0.016
	c0.139,0,0.267-0.088,0.312-0.227c0.354-1.087,0.532-2.225,0.532-3.378v-0.042c0-0.181-0.146-0.307-0.328-0.307
	C139.926-10.849,139.778-10.681,139.778-10.5z M129.5-19.974c5.232,0,9.473,4.241,9.473,9.474s-4.24,9.474-9.473,9.474
	s-9.473-4.241-9.473-9.474S124.268-19.974,129.5-19.974z M129.932-14.462h-0.862v-1.304h-1.344v1.304h-2.046v1.096h0.313
	c0.208,0,0.35,0.02,0.423,0.057c0.074,0.038,0.127,0.089,0.156,0.154c0.031,0.064,0.046,0.214,0.046,0.448v4.42
	c0,0.231-0.015,0.38-0.046,0.446c-0.029,0.067-0.082,0.118-0.156,0.154c-0.073,0.036-0.215,0.054-0.423,0.054h-0.313v1.096h2.046
	v1.304h1.344v-1.304h0.763c0.034,0,0.066-0.001,0.1-0.001v1.305h1.343v-1.417c0.225-0.042,0.423-0.097,0.591-0.165
	c0.464-0.186,0.82-0.455,1.075-0.809c0.254-0.354,0.38-0.742,0.38-1.162c0-0.352-0.083-0.671-0.25-0.957
	c-0.166-0.287-0.392-0.509-0.675-0.668c-0.197-0.114-0.48-0.218-0.853-0.313c0.347-0.118,0.624-0.266,0.836-0.446
	c0.21-0.181,0.371-0.388,0.484-0.622c0.111-0.235,0.167-0.483,0.167-0.745c0-0.36-0.105-0.69-0.316-0.992
	c-0.214-0.301-0.516-0.532-0.909-0.692c-0.152-0.063-0.334-0.109-0.53-0.147v-1.398h-1.343V-14.462z M137.818-4.461
	c-0.635,0.873-1.399,1.638-2.272,2.274c-0.146,0.107-0.179,0.312-0.072,0.458c0.064,0.089,0.165,0.136,0.266,0.136
	c0.067,0,0.135-0.021,0.194-0.063c0.928-0.676,1.74-1.49,2.416-2.419c0.107-0.146,0.074-0.352-0.072-0.458
	C138.13-4.641,137.925-4.607,137.818-4.461z M148.375-29.375v37.75h-37.75v-37.75H148.375z M142.813-10
	c0-0.214,0.05-0.416,0.134-0.598l-0.356-0.601c0.012,0.233,0.035,0.463,0.035,0.699c0,0.63-0.06,1.244-0.146,1.851l0.506-0.682
	C142.878-9.532,142.813-9.757,142.813-10z M143.375-2.563c0-0.339,0.137-0.641,0.348-0.874l-1.652-3.305
	c-1.31,4.369-4.84,7.776-9.272,8.93l2.64,1.567c0.217-0.371,0.602-0.631,1.063-0.631c0.139,0,0.267,0.037,0.392,0.079l6.525-5.559
	C143.405-2.425,143.375-2.489,143.375-2.563z M117.078-4.714l-1.756-1.756c-0.063,0.028-0.137,0.031-0.206,0.046l-2.041,2.281
	l1.129,2.987L117.078-4.714z M113.885,0.831l-0.565,0.7l0.973,0.377L113.885,0.831z M114.5-17.625c0,0.479-0.245,0.899-0.616,1.146
	l3.078,2.099c0.571-1.842,1.549-3.502,2.812-4.9l-2.441-2.678c-0.144,0.051-0.296,0.084-0.457,0.084
	c-0.055,0-0.107-0.01-0.161-0.016l-3.067,2.995C114.146-18.691,114.5-18.2,114.5-17.625z M139.893-21.022
	c-0.203-0.101-0.379-0.248-0.51-0.432l-2.118,0.397c0.866,0.638,1.658,1.369,2.344,2.196L139.893-21.022z M117.688-10.5
	c0,6.514,5.299,11.813,11.813,11.813s11.813-5.298,11.813-11.813s-5.299-11.813-11.813-11.813S117.688-17.014,117.688-10.5z
	 M135.433-22.192l-0.284-0.811c-0.008,0-0.016,0.002-0.023,0.002c-0.715,0-1.328-0.43-1.6-1.044l-1.691,0.64
	C133.107-23.175,134.315-22.762,135.433-22.192z M116.606-8.09l-0.63,0.704c-0.004,0.045-0.016,0.086-0.025,0.129l1.224,1.224
	C116.934-6.696,116.739-7.381,116.606-8.09z M116.375-10.5c0-0.796,0.083-1.572,0.22-2.33l-3.58,2.638l1.617,1.617
	c0.08-0.019,0.157-0.049,0.243-0.049c0.25,0,0.47,0.098,0.657,0.236l0.845-0.945l0.06,0.053
	C116.399-9.682,116.375-10.088,116.375-10.5z M114.613-0.071l0.931,2.465l2.821,1.094c0.16-0.353,0.483-0.599,0.871-0.685
	l2.199-2.97c-1.411-1.104-2.598-2.481-3.463-4.063L114.613-0.071z M126.361,2.229l1.219,0.674c0.237-0.199,0.539-0.32,0.869-0.332
	C127.735,2.515,127.039,2.397,126.361,2.229z M128.604,2.58c0.272,0.021,0.526,0.107,0.736,0.259l0.333-0.222
	c-0.059,0.001-0.115,0.009-0.174,0.009C129.198,2.625,128.902,2.6,128.604,2.58z M144.628-3.863c0.021-0.001,0.038-0.012,0.06-0.012
	c0.147,0,0.283,0.039,0.415,0.084l1.252-1.066l-2.206-3.715c-0.145-0.01-0.285-0.039-0.415-0.089l-0.898,1.213L144.628-3.863z
	 M142.619-15.122c-0.189-0.244-0.307-0.546-0.307-0.878c0-0.079,0.011-0.154,0.023-0.229l-1.43-0.739
	c0.541,0.951,0.961,1.975,1.253,3.055L142.619-15.122z M142.832-17.098c0.187-0.156,0.41-0.268,0.659-0.313l1.867-4.902
	c-0.052-0.076-0.108-0.147-0.142-0.234l-3.389,0.635c-0.119,0.468-0.477,0.837-0.937,0.974l-0.35,2.656L142.832-17.098z
	 M140.646-26.737l-3.86,1.459c0.054,0.167,0.09,0.342,0.09,0.527c0,0.604-0.306,1.136-0.771,1.45l0.476,1.354l2.563-0.48
	c0.076-0.587,0.516-1.059,1.09-1.172L140.646-26.737z M134.675-27.375l0.312,0.889c0.047-0.004,0.091-0.014,0.139-0.014
	c0.406,0,0.775,0.144,1.072,0.376l3.309-1.251H134.675z M123.541-27.375l5.995,3.752c0.015,0,0.028,0.002,0.043,0.002l3.828-1.448
	c0.079-0.428,0.316-0.798,0.646-1.056l-0.438-1.25H123.541z M120.76-25.84l-2.522,2.462c0.004,0.043,0.013,0.084,0.013,0.128
	c0,0.231-0.063,0.445-0.163,0.636L120.471-20c1.975-1.879,4.528-3.146,7.366-3.508l-4.649-2.909c-0.172,0.6-0.719,1.042-1.375,1.042
	C121.395-25.375,121.022-25.556,120.76-25.84z M113.746-27.375l2.604,2.855c0.162-0.067,0.339-0.105,0.525-0.105
	c0.335,0,0.638,0.125,0.876,0.324l2.63-2.567c0.007-0.179,0.042-0.351,0.108-0.507H113.746z M112.625-19.297l3.178-3.102
	c-0.187-0.235-0.303-0.528-0.303-0.851c0-0.206,0.049-0.4,0.13-0.575l-3.005-3.296V-19.297z M112.625-11.147l3.511-2.587
	l-3.511-2.394V-11.147z M112.625-5.14l1.431-1.599C113.87-6.94,113.75-7.205,113.75-7.5c0-0.16,0.035-0.31,0.095-0.448l-1.22-1.22
	V-5.14z M112.625,0.799l0.851-1.053l-0.851-2.25V0.799z M115.979,6.375l-1.213-3.209l-2.142-0.831v4.04H115.979z M116.894,5.966
	l1.137-1.535l-2.011-0.78L116.894,5.966z M123.045,6.375l-3.122-1.21C119.79,5.213,119.65,5.25,119.5,5.25
	c-0.251,0-0.472-0.093-0.668-0.22l-0.996,1.345H123.045z M124.688,5.94l2.415-1.61c-0.024-0.106-0.041-0.216-0.041-0.33
	c0-0.078,0.011-0.153,0.022-0.227l-5.193-2.874l-1.598,2.156c0.273,0.229,0.456,0.56,0.456,0.944c0,0.136-0.037,0.26-0.077,0.383
	L124.688,5.94z M131.789,6.375l-2.346-1.298c-0.253,0.222-0.581,0.36-0.943,0.36c-0.314,0-0.604-0.104-0.841-0.276l-1.82,1.213
	H131.789z M133.439,6.145l1.669-1.421l-3.593-2.133l-1.619,1.08c0.024,0.106,0.041,0.216,0.041,0.33c0,0.067-0.011,0.132-0.02,0.197
	L133.439,6.145z M137.89,6.375l-1.296-0.769c-0.032,0.002-0.061,0.019-0.094,0.019c-0.247,0-0.464-0.09-0.658-0.214l-1.131,0.964
	H137.89z M139.491,6.164l6.859-4.344l-1.547-3.093c-0.04,0.004-0.075,0.023-0.116,0.023c-0.276,0-0.519-0.105-0.73-0.251
	l-6.313,5.378c0.067,0.153,0.106,0.32,0.106,0.498c0,0.238-0.084,0.447-0.199,0.636L139.491,6.164z M146.375,2.988l-5.349,3.387
	h5.349V2.988z M146.375-3.561l-0.513,0.437C145.945-2.952,146-2.766,146-2.563c0,0.315-0.126,0.594-0.312,0.82l0.687,1.374V-3.561z
	 M146.375-12.229l-0.998,1.347c0.191,0.244,0.311,0.548,0.311,0.882c0,0.459-0.22,0.863-0.555,1.126l1.242,2.091V-12.229z
	 M146.375-14.14l-1.617-0.836c-0.26,0.255-0.615,0.414-1.008,0.414c-0.091,0-0.179-0.011-0.265-0.027l-0.683,1.792l0.878,1.479
	c0.175-0.075,0.367-0.118,0.569-0.118c0.094,0,0.186,0.01,0.274,0.027l1.851-2.498V-14.14z M146.375-21.75
	c-0.053,0-0.099-0.024-0.149-0.03l-1.735,4.554c0.416,0.252,0.697,0.705,0.697,1.227c0,0.039-0.009,0.076-0.012,0.114l1.199,0.62
	V-21.75z M146.375-27.375h-4.638l-0.52,3.957c0.203,0.125,0.369,0.302,0.483,0.512l3.583-0.672c0.21-0.395,0.612-0.672,1.091-0.672
	V-27.375z"/>
</svg>
