<?xml version="1.0" encoding="utf-8"?>
<!-- Generator: Adobe Illustrator 16.0.0, SVG Export Plug-In . SVG Version: 6.00 Build 0)  -->
<!DOCTYPE svg PUBLIC "-//W3C//DTD SVG 1.1//EN" "http://www.w3.org/Graphics/SVG/1.1/DTD/svg11.dtd">
<svg version="1.1" id="Layer_1" xmlns="http://www.w3.org/2000/svg" xmlns:xlink="http://www.w3.org/1999/xlink" x="0px" y="0px"
	 width="50px" height="50px" viewBox="174.5 -35.5 50 50" enable-background="new 174.5 -35.5 50 50" xml:space="preserve">
<path d="M204.858-15.385c0.087,0.13,0.131,0.287,0.131,0.475c0,0.221-0.062,0.41-0.186,0.566c-0.124,0.157-0.273,0.262-0.449,0.311
	c-0.178,0.05-0.399,0.074-0.668,0.074h-0.461c-0.153,0-0.248-0.008-0.282-0.024c-0.035-0.017-0.06-0.046-0.075-0.088
	c-0.012-0.033-0.019-0.146-0.021-0.34v-1.368h0.817c0.358,0,0.625,0.033,0.801,0.1C204.64-15.614,204.771-15.515,204.858-15.385z
	 M204.344-16.799c0.057-0.02,0.101-0.048,0.148-0.074c0.098-0.054,0.184-0.118,0.243-0.2c0.088-0.122,0.132-0.264,0.132-0.424
	c0-0.166-0.042-0.308-0.125-0.425c-0.012-0.017-0.03-0.028-0.044-0.044c-0.08-0.093-0.183-0.166-0.316-0.208
	c-0.156-0.051-0.438-0.075-0.842-0.075h-0.693v0.283v1.093v0.165h0.693C203.902-16.708,204.169-16.739,204.344-16.799z
	 M206.009-23.692c1.582,0.506,3,1.526,3.991,2.873c0.098,0.133,0.249,0.204,0.402,0.204c0.104,0,0.207-0.032,0.297-0.097
	c0.222-0.164,0.27-0.477,0.105-0.699c-0.936-1.272-2.221-2.261-3.66-2.891c-0.274-0.12-0.546-0.25-0.831-0.341
	c-0.264-0.085-0.545,0.061-0.629,0.324c-0.052,0.163-0.009,0.328,0.089,0.453C205.833-23.791,205.909-23.725,206.009-23.692z
	 M196.721-20.558c0.154,0,0.308-0.072,0.405-0.207c0.58-0.803,1.322-1.473,2.149-2.01c0.569-0.369,1.172-0.685,1.815-0.896
	c0.108-0.036,0.189-0.109,0.249-0.196c0.085-0.125,0.12-0.281,0.069-0.435c-0.087-0.263-0.37-0.405-0.631-0.319
	c-0.57,0.188-1.11,0.454-1.632,0.754c-0.54,0.311-1.043,0.678-1.51,1.093c-0.484,0.432-0.94,0.896-1.321,1.424
	c-0.162,0.224-0.111,0.537,0.112,0.698C196.517-20.589,196.619-20.558,196.721-20.558z M216.667-9.615v2.333
	c0,1.93-1.506,3.5-3.356,3.5h-0.229l-3.837,9.888c-0.349,0.896-1.335,1.57-2.295,1.57h-14.9c-0.96,0-1.946-0.675-2.294-1.57
	l-3.839-9.889h-0.228c-1.851,0-3.356-1.57-3.356-3.5v-2.333c0-1.93,1.506-3.5,3.356-3.5h2.576v-1.384l-4.467-2.822
	c-0.467-0.295-0.606-0.913-0.312-1.379c0.295-0.466,0.913-0.606,1.38-0.311l3.72,2.351c0.151-0.127,0.34-0.212,0.553-0.212h4.037
	c0.026-0.37,0.071-0.734,0.136-1.093h-4.173c-0.482,0-0.874-0.392-0.874-0.874v-3.061c0-0.482,0.392-0.874,0.874-0.874h6.41
	c0.326-0.392,0.687-0.752,1.065-1.093h-7.476c-0.482,0-0.874-0.392-0.874-0.874v-3.06c0-0.482,0.392-0.875,0.874-0.875h17.267
	c0.481,0,0.874,0.393,0.874,0.875v1.937c3.937,1.498,6.746,5.3,6.746,9.756c0,1.05-0.159,2.063-0.449,3.021
	C215.301-12.943,216.667-11.45,216.667-9.615z M207.381,5.382l3.557-9.164h-22.875l3.558,9.165c0.05,0.129,0.291,0.294,0.43,0.294
	h14.9C207.089,5.676,207.33,5.511,207.381,5.382z M213.311-5.782c0.222,0,0.429-0.065,0.614-0.17
	c0.438-0.249,0.742-0.749,0.742-1.33V-7.96v-0.722v-0.933c0-0.827-0.608-1.5-1.356-1.5h-0.559h-0.579h-0.589h-0.585h-1.063h-0.694
	h-11.319h-0.559l0.225,0.142l1.266,0.799c0.014-0.006,0.029-0.008,0.044-0.014c0.188-0.071,0.389-0.114,0.602-0.114
	c0.39,0,0.745,0.135,1.033,0.353c0.32,0.243,0.555,0.591,0.644,0.998c0.001,0,0.001,0.001,0.001,0.002
	c0.025,0.118,0.041,0.24,0.041,0.366c0,0.023-0.006,0.045-0.007,0.069c-0.008,0.199-0.048,0.39-0.117,0.565
	c-0.055,0.137-0.128,0.264-0.215,0.381c-0.106,0.145-0.233,0.272-0.379,0.377c-0.194,0.14-0.417,0.244-0.661,0.292
	c-0.109,0.022-0.224,0.034-0.34,0.034c-0.725,0-1.342-0.45-1.595-1.084c0,0,0,0,0-0.001c-0.065-0.165-0.103-0.344-0.113-0.53
	l-0.742-0.469l-0.9-0.569l-0.683-0.431l-0.562-0.354l-1.06-0.67l-0.225-0.142h-7.932c-0.748,0-1.356,0.673-1.356,1.5v0.933v0.724
	v0.677c0,0.581,0.304,1.081,0.742,1.33c0.185,0.105,0.392,0.17,0.614,0.17h0.524h1.072H202.1h2.965h6.649h1.072H213.311z
	 M194.177-16.874c-0.021,0.253-0.039,0.507-0.039,0.766c0,1.047,0.179,2.051,0.494,2.993h0.517
	c-0.335-0.945-0.522-1.941-0.525-2.968c-0.001-0.276,0.223-0.501,0.499-0.501h0.001c0.275,0,0.499,0.223,0.5,0.499
	c0.003,1.036,0.225,2.034,0.606,2.971h0.417c-0.397-0.918-0.619-1.929-0.619-2.993c0-0.258,0.014-0.514,0.039-0.766
	c0.037-0.374,0.11-0.737,0.2-1.093c0.527-2.081,1.91-3.82,3.761-4.809c1.06-0.566,2.269-0.89,3.555-0.89
	c4.173,0,7.556,3.383,7.556,7.557c0,1.063-0.222,2.075-0.619,2.993h0.416c0.386-0.944,0.607-1.949,0.607-2.993
	c0-0.276,0.224-0.525,0.499-0.525c0.276,0,0.5,0.199,0.5,0.476h-0.5l0.5,0.021c0.001,1.052-0.189,2.064-0.528,3.021h0.52
	c0.315-0.942,0.494-1.946,0.494-2.993c0-3.896-2.371-7.248-5.746-8.689c-1.137-0.486-2.386-0.756-3.698-0.756
	c-1.995,0-3.845,0.625-5.371,1.686c-0.469,0.326-0.91,0.689-1.312,1.093c-1.288,1.292-2.204,2.953-2.576,4.809
	C194.252-17.609,194.206-17.244,194.177-16.874z M200.534-13.115h4.737c0.064-0.019,0.141-0.033,0.197-0.055
	c0.37-0.148,0.655-0.363,0.857-0.646c0.202-0.281,0.304-0.59,0.304-0.926c0-0.281-0.067-0.535-0.199-0.764
	c-0.133-0.228-0.314-0.404-0.539-0.531c-0.157-0.092-0.385-0.174-0.68-0.25c0.275-0.094,0.498-0.212,0.666-0.355
	c0.084-0.071,0.157-0.148,0.222-0.23c0.064-0.083,0.119-0.171,0.164-0.266c0.089-0.188,0.134-0.385,0.134-0.594
	c0-0.081-0.022-0.156-0.035-0.233c-0.034-0.196-0.097-0.385-0.217-0.558c-0.17-0.24-0.411-0.424-0.726-0.553
	c-0.121-0.049-0.267-0.087-0.423-0.117v-1.115h-1.07v1.041h-0.688v-1.041h-1.071v1.041h-1.633v0.873h0.25
	c0.166,0,0.278,0.016,0.338,0.046c0.059,0.029,0.1,0.071,0.124,0.122c0.02,0.04,0.028,0.135,0.032,0.261
	c0.001,0.034,0.004,0.058,0.004,0.098v0.995v2.529c0,0.186-0.012,0.303-0.036,0.355c-0.024,0.054-0.065,0.094-0.124,0.123
	c-0.06,0.028-0.172,0.043-0.338,0.043h-0.25V-13.115z"/>
</svg>
