<?xml version="1.0" encoding="utf-8"?>
<!-- Generator: Adobe Illustrator 16.0.0, SVG Export Plug-In . SVG Version: 6.00 Build 0)  -->
<!DOCTYPE svg PUBLIC "-//W3C//DTD SVG 1.1//EN" "http://www.w3.org/Graphics/SVG/1.1/DTD/svg11.dtd">
<svg version="1.1" id="Layer_1" xmlns="http://www.w3.org/2000/svg" xmlns:xlink="http://www.w3.org/1999/xlink" x="0px" y="0px"
	 width="50px" height="50px" viewBox="244.5 -35.5 50 50" enable-background="new 244.5 -35.5 50 50" xml:space="preserve">
<path d="M282.374-23.375c-3.438-3.439-8.011-5.333-12.874-5.333s-9.436,1.894-12.874,5.333c-3.439,3.439-5.334,8.011-5.334,12.875
	s1.895,9.436,5.334,12.874c3.438,3.439,8.011,5.333,12.874,5.333s9.436-1.894,12.874-5.333c3.439-3.438,5.334-8.011,5.334-12.874
	S285.813-19.936,282.374-23.375z M253.292-10.5c0-4.329,1.687-8.399,4.748-11.46c3.062-3.061,7.131-4.747,11.46-4.747
	c3.993,0,7.755,1.45,10.719,4.075l-0.766,0.765c-2.758-2.422-6.249-3.758-9.953-3.758c-4.04,0-7.838,1.573-10.694,4.43
	c-2.857,2.857-4.432,6.655-4.432,10.695c0,3.704,1.337,7.195,3.759,9.954l-0.766,0.765C254.742-2.745,253.292-6.507,253.292-10.5z
	 M271.775-9.396c0.452,0.174,0.788,0.428,1.017,0.759c0.224,0.337,0.338,0.746,0.338,1.227c0,0.568-0.162,1.056-0.479,1.461
	s-0.705,0.673-1.161,0.8c-0.454,0.13-1.027,0.193-1.718,0.193h-1.19c-0.397,0-0.639-0.021-0.727-0.063
	c-0.092-0.045-0.155-0.121-0.193-0.229c-0.032-0.086-0.05-0.377-0.059-0.876v-1.065l2.456-2.456
	C270.806-9.625,271.385-9.545,271.775-9.396z M269.389-12.047h-1.786v-3.973h1.786c1.044,0,1.771,0.063,2.172,0.195
	c0.407,0.127,0.719,0.343,0.93,0.649c0.04,0.056,0.057,0.124,0.088,0.184l-2.939,2.94C269.554-12.052,269.478-12.047,269.389-12.047
	z M275.205-17.62c-0.286-0.204-0.604-0.384-0.965-0.531c-0.315-0.131-0.688-0.226-1.094-0.304v-2.877h-2.759v2.683h-1.775v-2.683
	h-2.759v2.683h-4.211v2.254h0.645c0.428,0,0.716,0.041,0.868,0.119c0.154,0.074,0.26,0.182,0.321,0.315
	c0.064,0.132,0.093,0.441,0.093,0.921v9.056l-1.379,1.379h-0.548v0.548l-2.803,2.803c-2.234-2.568-3.466-5.81-3.466-9.247
	c0-3.773,1.47-7.32,4.139-9.988c2.668-2.668,6.215-4.137,9.987-4.137c3.438,0,6.678,1.231,9.246,3.465L275.205-17.62z
	 M262.766-2.352h3.088v2.683h2.759v-2.683h1.573c0.067,0,0.133-0.002,0.202-0.002v2.685h2.759v-2.915
	c0.463-0.088,0.871-0.201,1.219-0.339c0.954-0.381,1.689-0.935,2.21-1.667c0.521-0.726,0.782-1.523,0.782-2.386
	c0-0.724-0.172-1.381-0.514-1.969c-0.342-0.59-0.806-1.047-1.389-1.373c-0.404-0.235-0.99-0.45-1.753-0.643
	c0.71-0.243,1.283-0.546,1.717-0.919c0.433-0.37,0.767-0.795,0.997-1.278c0.229-0.483,0.344-0.995,0.344-1.531
	c0-0.484-0.103-0.938-0.287-1.371l3.688-3.688c2.234,2.568,3.466,5.81,3.466,9.247c0,3.773-1.47,7.32-4.139,9.988
	c-2.668,2.668-6.215,4.137-9.987,4.137c-3.437,0-6.678-1.231-9.246-3.465L262.766-2.352z M280.96,0.96
	c-3.062,3.061-7.131,4.747-11.46,4.747c-3.993,0-7.754-1.45-10.718-4.074l0.765-0.765c2.758,2.422,6.249,3.758,9.953,3.758
	c4.04,0,7.838-1.573,10.694-4.43c2.857-2.857,4.432-6.655,4.432-10.695c0-3.704-1.337-7.195-3.759-9.954l0.766-0.765
	c2.625,2.964,4.075,6.726,4.075,10.719C285.708-6.171,284.021-2.101,280.96,0.96z"/>
</svg>
