<?xml version="1.0" encoding="utf-8"?>
<!-- Generator: Adobe Illustrator 16.0.0, SVG Export Plug-In . SVG Version: 6.00 Build 0)  -->
<!DOCTYPE svg PUBLIC "-//W3C//DTD SVG 1.1//EN" "http://www.w3.org/Graphics/SVG/1.1/DTD/svg11.dtd">
<svg version="1.1" id="Layer_1" xmlns="http://www.w3.org/2000/svg" xmlns:xlink="http://www.w3.org/1999/xlink" x="0px" y="0px"
	 width="50px" height="50px" viewBox="314.5 -35.5 50 50" enable-background="new 314.5 -35.5 50 50" xml:space="preserve">
<path d="M330.285-19.076c-0.215-0.172-0.251-0.487-0.078-0.703c1.105-1.384,2.534-2.523,4.134-3.294
	c0.245-0.118,0.547-0.017,0.667,0.233c0.12,0.249,0.016,0.548-0.233,0.667c-1.464,0.707-2.773,1.75-3.786,3.018
	c-0.099,0.124-0.244,0.188-0.391,0.188C330.488-18.966,330.378-19.002,330.285-19.076z M328.515-15.391
	c-0.279-0.064-0.538,0.108-0.599,0.376c-0.199,0.873-0.3,1.765-0.3,2.654c0.001,0.885,0.102,1.771,0.298,2.632
	c0.053,0.232,0.259,0.389,0.487,0.389c0.036,0,0.074-0.004,0.111-0.013c0.27-0.061,0.438-0.329,0.376-0.599
	c-0.18-0.789-0.271-1.6-0.272-2.41c0-0.814,0.093-1.632,0.274-2.432C328.952-15.062,328.783-15.33,328.515-15.391z M340.524-13.3
	c0.234-0.081,0.409-0.204,0.527-0.368s0.177-0.355,0.177-0.57c0-0.224-0.056-0.415-0.167-0.573
	c-0.112-0.159-0.273-0.271-0.485-0.338c-0.211-0.067-0.59-0.101-1.134-0.101h-0.933v2.073h0.933
	C339.93-13.178,340.29-13.219,340.524-13.3z M350.107-14.808c0.054,0.231,0.259,0.388,0.487,0.388c0.037,0,0.074-0.004,0.112-0.013
	c0.27-0.062,0.437-0.331,0.375-0.6c-0.398-1.725-1.194-3.37-2.302-4.757c-0.172-0.215-0.486-0.251-0.702-0.079
	s-0.252,0.487-0.079,0.703C349.014-17.895,349.743-16.388,350.107-14.808z M329.903,0.891c-0.315,0-0.606,0.238-0.683,0.576
	c-0.017,0.069-0.024,0.139-0.024,0.215v0.553c0,0.077,0.008,0.146,0.024,0.208c0.076,0.314,0.345,0.553,0.683,0.553
	c0.499,0,0.807-0.384,0.807-1.06C330.71,1.351,330.449,0.891,329.903,0.891z M339.491-23.254c0.821,0,1.645,0.094,2.449,0.28
	c0.788,0.181,1.552,0.448,2.272,0.793c0.069,0.034,0.143,0.049,0.216,0.049c0.186,0,0.365-0.104,0.451-0.284
	c0.119-0.249,0.014-0.548-0.235-0.667c-0.786-0.377-1.62-0.669-2.479-0.867c-0.877-0.203-1.777-0.306-2.674-0.306
	c-0.276,0-0.5,0.224-0.5,0.5S339.215-23.254,339.491-23.254z M350.705-10.325c-0.267-0.061-0.54,0.126-0.602,0.395
	c-0.371,1.612-1.079,3.079-2.105,4.359c-0.172,0.215-0.138,0.53,0.078,0.703c0.092,0.074,0.202,0.11,0.313,0.11
	c0.146,0,0.291-0.064,0.391-0.188c1.12-1.398,1.894-3,2.3-4.763l0.009-0.04C351.147-10.017,350.975-10.264,350.705-10.325z
	 M341.144-9.997c0.167-0.21,0.25-0.465,0.25-0.762c0-0.252-0.059-0.464-0.177-0.641c-0.118-0.173-0.294-0.306-0.529-0.395
	c-0.235-0.089-0.595-0.134-1.078-0.134h-1.1v1.841c0.004,0.261,0.014,0.412,0.03,0.457c0.021,0.057,0.054,0.097,0.102,0.119
	c0.045,0.021,0.173,0.034,0.38,0.034h0.62c0.36,0,0.658-0.034,0.896-0.101C340.775-9.645,340.978-9.785,341.144-9.997z
	 M354.524,1.132l1.755,4.118h-33.559l2.632-4.007l-2.632-4.108h6.692c-2.345-2.486-3.793-5.826-3.793-9.505
	c0-7.653,6.227-13.879,13.88-13.879s13.88,6.226,13.88,13.879c0,3.679-1.448,7.019-3.793,9.505h6.692L354.524,1.132z M331.901,1.889
	c0.008-1.152-0.653-1.896-1.553-1.896c-0.521,0-0.913,0.207-1.137,0.529h-0.016v-2.143h-1.167v4.333
	c0,0.422-0.016,0.875-0.031,1.122h0.991l0.046-0.523h0.017c0.268,0.446,0.69,0.607,1.128,0.607
	C331.04,3.917,331.901,3.241,331.901,1.889z M333.793,0.076h-1.168v3.757h1.168V0.076z M333.832-0.969
	c-0.008-0.338-0.247-0.592-0.622-0.592c-0.377,0-0.623,0.253-0.615,0.592c-0.008,0.322,0.238,0.583,0.606,0.583
	C333.585-0.385,333.832-0.646,333.832-0.969z M334.233-2.865h1.69c-3.847-1.449-6.589-5.151-6.589-9.505
	c0-5.614,4.552-10.165,10.165-10.165c5.614,0,10.166,4.551,10.166,10.165c0,4.354-2.742,8.057-6.589,9.505h5.083
	c2.585-2.357,4.22-5.74,4.22-9.505c0-7.102-5.778-12.879-12.88-12.879s-12.88,5.778-12.88,12.879c0,3.766,1.635,7.148,4.22,9.505
	h1.555c-0.812-0.608-1.557-1.308-2.188-2.102c-0.172-0.216-0.136-0.531,0.08-0.703c0.215-0.171,0.531-0.137,0.703,0.08
	C331.875-4.476,332.993-3.553,334.233-2.865z M339.964-8.119v1.4h1.44V-8.24c0.241-0.046,0.453-0.105,0.635-0.177
	c0.496-0.2,0.881-0.488,1.152-0.869c0.272-0.379,0.408-0.795,0.408-1.246c0-0.378-0.089-0.721-0.268-1.027
	c-0.179-0.308-0.421-0.546-0.726-0.716c-0.211-0.123-0.516-0.235-0.913-0.336c0.37-0.126,0.669-0.285,0.896-0.479
	c0.225-0.193,0.398-0.415,0.519-0.667s0.181-0.519,0.181-0.799c0-0.386-0.114-0.74-0.342-1.063c-0.227-0.323-0.552-0.57-0.975-0.743
	c-0.164-0.068-0.359-0.118-0.568-0.159v-1.5h-1.44v1.399h-0.926v-1.399h-1.441v1.399h-2.195v1.176h0.335
	c0.224,0,0.375,0.021,0.454,0.062c0.079,0.041,0.136,0.095,0.167,0.165c0.033,0.068,0.05,0.23,0.05,0.481v4.742
	c0,0.249-0.017,0.408-0.05,0.479c-0.031,0.071-0.088,0.126-0.167,0.165s-0.23,0.058-0.454,0.058h-0.335v1.177h2.195v1.399h1.441
	v-1.399h0.818C339.894-8.118,339.928-8.119,339.964-8.119z M336.876,0.076h-0.839V-1l-1.145,0.261v0.814h-0.499v0.86h0.499v1.537
	c0,0.529,0.107,0.891,0.322,1.114c0.186,0.192,0.5,0.323,0.876,0.323c0.33,0,0.606-0.039,0.761-0.101l-0.008-0.883
	c-0.085,0.016-0.2,0.031-0.345,0.031c-0.354,0-0.462-0.207-0.462-0.66V0.936h0.839V0.076z M338.497,1.943
	c-0.008-0.614,0.392-1.052,1.007-1.052c0.307,0,0.514,0.053,0.653,0.115l0.184-0.868c-0.245-0.093-0.585-0.146-0.891-0.146
	c-1.399,0-2.152,0.898-2.152,1.997c0,1.183,0.777,1.921,1.99,1.921c0.446,0,0.837-0.077,1.045-0.17l-0.139-0.86
	c-0.177,0.068-0.392,0.115-0.668,0.115C338.959,2.995,338.497,2.634,338.497,1.943z M344.606,1.912c0-1.129-0.768-1.92-1.92-1.92
	c-1.206,0-2.006,0.775-2.006,1.989c0,1.213,0.845,1.936,1.943,1.936C343.632,3.917,344.606,3.287,344.606,1.912z M346.498,0.076
	h-1.167v3.757h1.167V0.076z M346.537-0.969c-0.007-0.338-0.246-0.592-0.621-0.592c-0.377,0-0.623,0.253-0.616,0.592
	c-0.007,0.322,0.239,0.583,0.607,0.583C346.291-0.385,346.537-0.646,346.537-0.969z M351.002,1.605c0-1.107-0.576-1.613-1.345-1.613
	c-0.622,0-1.006,0.36-1.159,0.599h-0.024l-0.054-0.515h-1.014c0.016,0.331,0.03,0.73,0.03,1.199v2.559h1.169V1.666
	c0-0.107,0.015-0.223,0.046-0.292c0.076-0.215,0.269-0.438,0.59-0.438c0.424,0,0.593,0.331,0.593,0.815v2.082h1.168V1.605z
	 M342.654,0.821c-0.56,0-0.768,0.576-0.768,1.129c0,0.645,0.27,1.129,0.768,1.129c0.453,0,0.747-0.453,0.747-1.129
	C343.401,1.389,343.186,0.821,342.654,0.821z"/>
</svg>
