<?xml version="1.0" encoding="utf-8"?>
<!-- Generator: Adobe Illustrator 16.0.0, SVG Export Plug-In . SVG Version: 6.00 Build 0)  -->
<!DOCTYPE svg PUBLIC "-//W3C//DTD SVG 1.1//EN" "http://www.w3.org/Graphics/SVG/1.1/DTD/svg11.dtd">
<svg version="1.1" id="Layer_1" xmlns="http://www.w3.org/2000/svg" xmlns:xlink="http://www.w3.org/1999/xlink" x="0px" y="0px"
	 width="50px" height="50px" viewBox="-315.5 34.5 50 50" enable-background="new -315.5 34.5 50 50" xml:space="preserve">
<path d="M-287.938,60.602c-0.12-0.206-0.281-0.366-0.485-0.479c-0.142-0.082-0.345-0.157-0.611-0.224
	c0.248-0.086,0.448-0.191,0.599-0.32c0.151-0.129,0.268-0.277,0.348-0.446c0.08-0.168,0.12-0.347,0.12-0.534
	c0-0.258-0.076-0.495-0.228-0.712c-0.152-0.216-0.37-0.381-0.651-0.496c-0.11-0.046-0.24-0.078-0.381-0.106v-1.002h-0.962v0.935
	h-0.62v-0.935h-0.962v0.935h-1.469v0.787h0.225c0.149,0,0.25,0.013,0.303,0.04s0.09,0.065,0.112,0.109
	c0.022,0.047,0.032,0.155,0.032,0.323v3.17c0,0.167-0.01,0.272-0.032,0.32c-0.022,0.049-0.059,0.085-0.112,0.109
	c-0.053,0.026-0.154,0.04-0.303,0.04h-0.225v0.786h1.469v0.936h0.962v-0.936h0.548c0.024,0,0.047-0.001,0.072-0.001v0.937h0.962
	V62.82c0.162-0.03,0.304-0.069,0.425-0.119c0.332-0.133,0.589-0.326,0.771-0.581c0.182-0.253,0.273-0.531,0.273-0.832
	C-287.759,61.035-287.818,60.806-287.938,60.602z M-291.162,58.133h0.624c0.364,0,0.617,0.022,0.758,0.067
	c0.141,0.045,0.25,0.121,0.325,0.226c0.074,0.106,0.112,0.234,0.112,0.384c0,0.144-0.04,0.271-0.119,0.381s-0.196,0.192-0.353,0.247
	c-0.156,0.054-0.397,0.082-0.723,0.082h-0.624V58.133z M-289.401,61.646c-0.112,0.143-0.246,0.235-0.405,0.28
	c-0.158,0.045-0.358,0.067-0.6,0.067h-0.415c-0.138,0-0.223-0.008-0.254-0.022s-0.054-0.041-0.067-0.08
	c-0.011-0.03-0.018-0.131-0.021-0.305v-1.231h0.736c0.322,0,0.562,0.03,0.72,0.09c0.158,0.061,0.275,0.147,0.354,0.265
	c0.079,0.117,0.118,0.26,0.118,0.429C-289.234,61.335-289.29,61.504-289.401,61.646z M-279.516,64.512
	c-0.052-1.098-0.559-2.36-1.506-3.702c-0.177-0.251-0.369-0.502-0.571-0.753c1.898-2.345,2.61-4.659,1.66-6.262
	c-0.686-1.156-2.101-1.768-4.094-1.768c-0.629,0-1.3,0.066-1.997,0.184c-0.714-1.851-1.682-3.229-2.801-3.926
	c0.012-0.08,0.024-0.16,0.024-0.244c0-0.939-0.761-1.701-1.7-1.701s-1.7,0.762-1.7,1.701c0,0.084,0.013,0.164,0.024,0.244
	c-1.119,0.697-2.087,2.075-2.801,3.926c-0.697-0.117-1.368-0.184-1.997-0.184c-1.993,0-3.408,0.611-4.094,1.768
	c-0.95,1.603-0.238,3.917,1.66,6.262c-0.203,0.251-0.394,0.502-0.571,0.753c-0.947,1.342-1.454,2.604-1.506,3.702
	c-0.511,0.293-0.859,0.837-0.859,1.469c0,0.939,0.761,1.7,1.701,1.7c0.292,0,0.563-0.08,0.804-0.21
	c0.74,0.404,1.701,0.619,2.866,0.619c0.628,0,1.3-0.066,1.996-0.184c1.051,2.726,2.652,4.437,4.477,4.437s3.425-1.711,4.477-4.437
	c0.696,0.117,1.368,0.184,1.996,0.184c1.165,0,2.126-0.215,2.866-0.619c0.24,0.13,0.511,0.21,0.804,0.21
	c0.939,0,1.701-0.761,1.701-1.7C-278.657,65.349-279.005,64.805-279.516,64.512z M-284.026,53.027c1.13,0,2.607,0.222,3.233,1.277
	c0.707,1.191,0.072,3.04-1.469,4.979c-0.764-0.83-1.663-1.638-2.656-2.404c-0.163-1.34-0.421-2.59-0.77-3.702
	C-285.106,53.085-284.545,53.027-284.026,53.027z M-288.063,64.168c-0.802,0.476-1.621,0.898-2.437,1.268
	c-0.816-0.369-1.634-0.792-2.437-1.268c-0.779-0.463-1.51-0.958-2.196-1.47c-0.09-0.852-0.144-1.732-0.144-2.64
	c0-0.908,0.054-1.791,0.144-2.645c0.69-0.512,1.421-1.005,2.196-1.464c0.802-0.476,1.62-0.898,2.436-1.268
	c0.816,0.369,1.634,0.792,2.436,1.268c0.775,0.459,1.506,0.952,2.196,1.464c0.09,0.854,0.144,1.736,0.144,2.645
	c0,0.907-0.053,1.788-0.144,2.64C-286.553,63.21-287.284,63.705-288.063,64.168z M-286.052,64.062
	c-0.161,0.963-0.376,1.863-0.637,2.684c-0.83-0.19-1.694-0.453-2.577-0.794c0.572-0.285,1.145-0.587,1.712-0.924
	C-287.03,64.717-286.534,64.392-286.052,64.062z M-291.734,65.951c-0.883,0.341-1.748,0.604-2.577,0.794
	c-0.261-0.82-0.477-1.721-0.637-2.684c0.482,0.33,0.978,0.655,1.502,0.966C-292.878,65.364-292.306,65.666-291.734,65.951z
	 M-296.211,61.844c-0.697-0.588-1.325-1.188-1.871-1.79c0.552-0.609,1.181-1.208,1.872-1.787c-0.039,0.585-0.065,1.18-0.065,1.792
	C-296.276,60.668-296.25,61.261-296.211,61.844z M-294.948,56.057c0.16-0.963,0.376-1.863,0.637-2.685
	c0.83,0.191,1.694,0.454,2.577,0.795c-0.572,0.285-1.144,0.587-1.712,0.924C-293.965,55.398-294.463,55.724-294.948,56.057z
	 M-289.266,54.167c0.883-0.341,1.748-0.604,2.577-0.795c0.261,0.821,0.477,1.722,0.637,2.685c-0.485-0.333-0.983-0.658-1.502-0.966
	C-288.122,54.754-288.694,54.452-289.266,54.167z M-284.789,58.267c0.69,0.579,1.32,1.178,1.872,1.787
	c-0.546,0.602-1.174,1.202-1.871,1.79c0.039-0.583,0.065-1.176,0.065-1.785C-284.724,59.446-284.75,58.852-284.789,58.267z
	 M-291.743,49.192c0.311,0.335,0.75,0.548,1.243,0.548s0.933-0.213,1.243-0.548c0.86,0.57,1.629,1.707,2.229,3.226
	c-1.117,0.263-2.286,0.659-3.473,1.173c-1.187-0.514-2.356-0.91-3.473-1.173C-293.372,50.899-292.603,49.763-291.743,49.192z
	 M-300.207,54.305c0.626-1.056,2.104-1.277,3.233-1.277c0.519,0,1.08,0.058,1.662,0.149c-0.348,1.112-0.606,2.362-0.77,3.702
	c-0.994,0.767-1.893,1.574-2.656,2.404C-300.279,57.345-300.914,55.496-300.207,54.305z M-296.973,67.09
	c-0.676,0-1.475-0.084-2.143-0.374c0.108-0.224,0.173-0.471,0.173-0.735c0-0.874-0.662-1.586-1.51-1.681
	c0.107-0.851,0.539-1.849,1.291-2.913c0.131-0.186,0.277-0.371,0.423-0.557c0.752,0.818,1.646,1.629,2.657,2.408
	c0.163,1.341,0.422,2.591,0.77,3.702C-295.893,67.032-296.454,67.09-296.973,67.09z M-290.5,71.343
	c-1.354,0-2.594-1.421-3.473-3.643c1.117-0.264,2.286-0.659,3.473-1.174c1.187,0.515,2.356,0.91,3.473,1.174
	C-287.906,69.922-289.146,71.343-290.5,71.343z M-285.688,66.94c0.348-1.111,0.606-2.361,0.77-3.702
	c1.011-0.779,1.905-1.59,2.657-2.408c0.146,0.186,0.292,0.371,0.423,0.557c0.752,1.064,1.184,2.063,1.291,2.913
	c-0.848,0.095-1.51,0.807-1.51,1.681c0,0.265,0.065,0.512,0.173,0.735c-0.668,0.29-1.467,0.374-2.143,0.374
	C-284.546,67.09-285.107,67.032-285.688,66.94z M-290.5,43.558c-8.791,0-15.942,7.151-15.942,15.942s7.152,15.942,15.942,15.942
	s15.942-7.151,15.942-15.942S-281.709,43.558-290.5,43.558z M-290.5,74.442c-8.239,0-14.942-6.703-14.942-14.942
	s6.703-14.942,14.942-14.942s14.942,6.703,14.942,14.942S-282.261,74.442-290.5,74.442z M-290.5,40.25
	c-10.614,0-19.25,8.636-19.25,19.25s8.636,19.25,19.25,19.25s19.25-8.636,19.25-19.25S-279.886,40.25-290.5,40.25z M-290.5,76.75
	c-9.512,0-17.25-7.738-17.25-17.25s7.738-17.25,17.25-17.25s17.25,7.738,17.25,17.25S-280.988,76.75-290.5,76.75z"/>
</svg>
