<?xml version="1.0" encoding="utf-8"?>
<!-- Generator: Adobe Illustrator 16.0.0, SVG Export Plug-In . SVG Version: 6.00 Build 0)  -->
<!DOCTYPE svg PUBLIC "-//W3C//DTD SVG 1.1//EN" "http://www.w3.org/Graphics/SVG/1.1/DTD/svg11.dtd">
<svg version="1.1" id="Layer_1" xmlns="http://www.w3.org/2000/svg" xmlns:xlink="http://www.w3.org/1999/xlink" x="0px" y="0px"
	 width="50px" height="50px" viewBox="-175.5 34.5 50 50" enable-background="new -175.5 34.5 50 50" xml:space="preserve">
<path d="M-156.504,73.627v2.527c0,0.398-0.31,0.722-0.694,0.722h-9.307c-0.382,0-0.694-0.323-0.694-0.722v-2.527
	c0-0.399,0.312-0.722,0.694-0.722h9.307C-156.814,72.905-156.504,73.228-156.504,73.627z M-157.198,68.031h-9.307
	c-0.382,0-0.694,0.323-0.694,0.722v2.527c0,0.397,0.312,0.722,0.694,0.722h9.307c0.384,0,0.694-0.324,0.694-0.722v-2.527
	C-156.504,68.354-156.814,68.031-157.198,68.031z M-145.594,72.905h-9.307c-0.382,0-0.694,0.322-0.694,0.722v2.527
	c0,0.398,0.312,0.722,0.694,0.722h9.307c0.383,0,0.694-0.323,0.694-0.722v-2.527C-144.9,73.228-145.211,72.905-145.594,72.905z
	 M-134.085,72.905h-9.307c-0.383,0-0.694,0.322-0.694,0.722v2.527c0,0.398,0.311,0.722,0.694,0.722h9.307
	c0.383,0,0.694-0.323,0.694-0.722v-2.527C-133.391,73.228-133.702,72.905-134.085,72.905z M-145.594,68.031h-9.307
	c-0.382,0-0.694,0.323-0.694,0.722v2.527c0,0.397,0.312,0.722,0.694,0.722h9.307c0.383,0,0.694-0.324,0.694-0.722v-2.527
	C-144.9,68.354-145.211,68.031-145.594,68.031z M-156.504,64.283v2.123c0,0.399-0.31,0.721-0.694,0.721h-9.307
	c-0.382,0-0.694-0.321-0.694-0.721v-2.527c0-0.397,0.312-0.722,0.694-0.722h9.07c-0.21-0.291-0.406-0.592-0.587-0.903h-8.482
	c-0.382,0-0.694-0.322-0.694-0.722v-2.527c0-0.398,0.312-0.722,0.694-0.722h7.106c-0.072-0.507-0.122-1.021-0.122-1.547
	c0-6.069,4.937-11.007,11.006-11.007c6.069,0,11.007,4.938,11.007,11.007c0,6.068-4.938,11.006-11.007,11.006
	C-151.662,67.742-154.497,66.407-156.504,64.283z M-158.521,56.736c0,5.518,4.489,10.006,10.006,10.006
	c5.518,0,10.007-4.488,10.007-10.006s-4.489-10.007-10.007-10.007C-154.032,46.729-158.521,51.219-158.521,56.736z M-144.321,49.413
	c1.283,0.736,2.354,1.8,3.099,3.077c0.093,0.159,0.261,0.248,0.433,0.248c0.085,0,0.172-0.021,0.251-0.068
	c0.238-0.139,0.319-0.445,0.18-0.684c-0.833-1.428-2.031-2.618-3.465-3.44c-0.241-0.139-0.546-0.056-0.683,0.185
	C-144.643,48.97-144.56,49.275-144.321,49.413z M-153.004,49.507c0.085,0,0.172-0.021,0.251-0.067
	c1.274-0.742,2.73-1.136,4.213-1.141c0.276-0.001,0.5-0.226,0.499-0.502c-0.001-0.275-0.225-0.498-0.5-0.498c0,0-0.001,0-0.001,0
	c-1.658,0.005-3.288,0.446-4.713,1.276c-0.239,0.139-0.319,0.444-0.181,0.684C-153.344,49.418-153.177,49.507-153.004,49.507z
	 M-141.022,61.635c0.079,0.046,0.165,0.067,0.25,0.067c0.173,0,0.341-0.09,0.433-0.25c0.826-1.427,1.262-3.058,1.262-4.716v-0.037
	c0-0.276-0.224-0.481-0.5-0.481s-0.5,0.242-0.5,0.519c0,1.483-0.39,2.94-1.127,4.216C-141.343,61.19-141.261,61.497-141.022,61.635z
	 M-144.29,64.042c-1.276,0.739-2.733,1.13-4.215,1.131c-0.276,0-0.5,0.225-0.5,0.5c0,0.276,0.224,0.5,0.5,0.5c0,0,0,0,0,0
	c1.657-0.001,3.287-0.438,4.715-1.266c0.239-0.139,0.321-0.444,0.182-0.684C-143.745,63.985-144.051,63.904-144.29,64.042z
	 M-156.017,51.853c-0.24-0.139-0.545-0.056-0.683,0.185c-0.819,1.423-1.251,3.048-1.251,4.699v0.019c0,0.276,0.224,0.491,0.5,0.491
	s0.5-0.233,0.5-0.51c0-1.477,0.387-2.929,1.119-4.201C-155.695,52.296-155.777,51.99-156.017,51.853z M-153.223,64.918
	c0.079,0.045,0.165,0.066,0.25,0.066c0.173,0,0.341-0.09,0.434-0.25c0.138-0.239,0.056-0.545-0.183-0.684
	c-1.28-0.737-2.35-1.804-3.092-3.082c-0.139-0.239-0.445-0.321-0.683-0.182c-0.239,0.139-0.32,0.445-0.181,0.684
	C-155.849,62.9-154.654,64.092-153.223,64.918z M-149.189,58.98c0.037,0.018,0.136,0.026,0.298,0.026h0.488
	c0.283,0,0.518-0.026,0.705-0.078c0.186-0.052,0.344-0.163,0.475-0.328c0.131-0.166,0.196-0.366,0.196-0.599
	c0-0.197-0.045-0.364-0.138-0.502c-0.092-0.137-0.23-0.242-0.415-0.313c-0.186-0.069-0.467-0.104-0.847-0.104h-0.864v1.445
	c0.003,0.205,0.011,0.325,0.023,0.359C-149.253,58.932-149.226,58.964-149.189,58.98z M-147.709,56.006
	c0.183-0.064,0.321-0.16,0.413-0.29c0.092-0.128,0.14-0.278,0.14-0.447c0-0.176-0.044-0.325-0.132-0.449
	c-0.087-0.125-0.215-0.213-0.381-0.266c-0.166-0.054-0.462-0.079-0.89-0.079h-0.732v1.627h0.732
	C-148.176,56.102-147.894,56.07-147.709,56.006z M-156.121,56.736c0-4.202,3.405-7.607,7.606-7.607s7.608,3.405,7.608,7.607
	c0,4.201-3.407,7.606-7.608,7.606S-156.121,60.938-156.121,56.736z M-151.734,60.074h1.725v1.099h1.132v-1.099h0.642
	c0.029,0,0.056-0.001,0.084-0.001v1.1h1.131v-1.193c0.189-0.037,0.356-0.083,0.499-0.14c0.39-0.156,0.692-0.384,0.905-0.683
	c0.214-0.298,0.321-0.623,0.321-0.979c0-0.296-0.071-0.565-0.21-0.806c-0.141-0.241-0.331-0.429-0.569-0.563
	c-0.167-0.097-0.406-0.184-0.718-0.264c0.292-0.099,0.526-0.224,0.704-0.376c0.178-0.151,0.313-0.326,0.407-0.523
	c0.095-0.198,0.142-0.407,0.142-0.627c0-0.304-0.089-0.582-0.267-0.837c-0.179-0.252-0.434-0.446-0.766-0.583
	c-0.128-0.053-0.281-0.092-0.447-0.124v-1.178h-1.131v1.099h-0.727v-1.099h-1.132v1.099h-1.725v0.923h0.264
	c0.176,0,0.294,0.017,0.356,0.049c0.063,0.03,0.106,0.075,0.132,0.129c0.026,0.054,0.039,0.181,0.039,0.379v3.724
	c0,0.195-0.012,0.319-0.039,0.375c-0.025,0.057-0.069,0.1-0.132,0.13c-0.062,0.03-0.18,0.046-0.356,0.046h-0.264V60.074z"/>
</svg>
