<?xml version="1.0" encoding="utf-8"?>
<!-- Generator: Adobe Illustrator 16.0.0, SVG Export Plug-In . SVG Version: 6.00 Build 0)  -->
<!DOCTYPE svg PUBLIC "-//W3C//DTD SVG 1.1//EN" "http://www.w3.org/Graphics/SVG/1.1/DTD/svg11.dtd">
<svg version="1.1" id="Layer_1" xmlns="http://www.w3.org/2000/svg" xmlns:xlink="http://www.w3.org/1999/xlink" x="0px" y="0px"
	 width="50px" height="50px" viewBox="-105.5 34.5 50 50" enable-background="new -105.5 34.5 50 50" xml:space="preserve">
<path d="M-95.082,60.098c0.039,0.091,0.046,0.193,0.026,0.31c-0.026,0.138-0.086,0.247-0.181,0.33
	c-0.096,0.083-0.2,0.13-0.315,0.141c-0.116,0.01-0.257,0-0.423-0.031l-0.287-0.055c-0.095-0.017-0.152-0.033-0.173-0.048
	c-0.02-0.013-0.031-0.034-0.036-0.063c-0.002-0.021,0.006-0.094,0.026-0.213l0.159-0.85l0.509,0.094
	c0.223,0.043,0.385,0.093,0.485,0.155C-95.191,59.93-95.122,60.008-95.082,60.098z M-95.055,58.31
	c-0.09-0.049-0.262-0.097-0.514-0.144l-0.43-0.081l-0.18,0.957l0.431,0.081c0.225,0.041,0.395,0.054,0.51,0.036
	c0.115-0.019,0.205-0.059,0.275-0.125c0.067-0.064,0.112-0.148,0.13-0.248c0.02-0.104,0.01-0.195-0.028-0.279
	C-94.897,58.426-94.961,58.36-95.055,58.31z M-91.241,59.5c0,2.513-2.037,4.549-4.55,4.549c-2.512,0-4.548-2.036-4.548-4.549
	s2.036-4.549,4.548-4.549C-93.278,54.951-91.241,56.987-91.241,59.5z M-93.918,58.298c-0.077-0.168-0.207-0.31-0.386-0.427
	c-0.068-0.046-0.155-0.086-0.25-0.123l0.129-0.692l-0.664-0.124l-0.122,0.646l-0.427-0.08l0.122-0.646l-0.665-0.125l-0.122,0.647
	l-1.015-0.19l-0.101,0.542l0.155,0.03c0.104,0.018,0.172,0.041,0.204,0.067c0.034,0.024,0.054,0.055,0.063,0.09
	c0.009,0.035,0.003,0.11-0.019,0.227l-0.41,2.189c-0.021,0.114-0.041,0.186-0.063,0.216c-0.022,0.029-0.052,0.051-0.092,0.062
	c-0.04,0.012-0.111,0.007-0.214-0.013l-0.156-0.028l-0.101,0.542l1.014,0.189l-0.12,0.647l0.665,0.124l0.12-0.646l0.378,0.07
	c0.017,0.003,0.032,0.004,0.049,0.008l-0.12,0.647l0.664,0.123l0.132-0.7c0.115-0.002,0.218-0.011,0.309-0.027
	c0.247-0.049,0.449-0.15,0.608-0.303c0.158-0.15,0.257-0.33,0.295-0.539c0.033-0.175,0.021-0.341-0.035-0.496
	c-0.057-0.158-0.148-0.289-0.274-0.395c-0.086-0.074-0.218-0.152-0.392-0.232c0.182-0.027,0.333-0.074,0.454-0.145
	c0.122-0.069,0.221-0.158,0.297-0.263c0.077-0.107,0.129-0.225,0.152-0.354C-93.82,58.642-93.841,58.467-93.918,58.298z
	 M-85.513,60.521c0,1.645-1.076,3.527-3.352,3.527c-1.2,0-1.8-0.518-1.8-1.417c0-0.311,0.051-0.621,0.113-0.92l1.025-5.122h1.499
	l-0.599,2.887h0.021c0.372-0.445,0.941-0.715,1.562-0.715C-85.988,58.762-85.513,59.621-85.513,60.521z M-87.076,60.831
	c0-0.486-0.207-0.869-0.661-0.869c-0.539,0-1.065,0.549-1.242,1.429l-0.093,0.413c-0.021,0.166-0.062,0.342-0.052,0.559
	c0.01,0.361,0.227,0.558,0.569,0.558C-87.695,62.92-87.076,61.721-87.076,60.831z M-85.106,63.935h1.49l0.962-5.059h-1.49
	L-85.106,63.935z M-83.078,56.674c-0.456,0-0.85,0.341-0.859,0.847c0,0.445,0.31,0.725,0.723,0.725c0.477,0,0.879-0.31,0.879-0.838
	C-82.334,56.962-82.645,56.674-83.078,56.674z M-79.498,57.459l-1.521,0.353l-0.207,1.064h-0.652l-0.207,1.128h0.642l-0.394,2.018
	c-0.072,0.382-0.103,0.661-0.103,0.941c0,0.631,0.425,1.086,1.314,1.086c0.32,0,0.692-0.042,0.879-0.114l0.176-1.169
	c-0.134,0.021-0.279,0.021-0.413,0.021c-0.322,0-0.425-0.177-0.425-0.425c0-0.176,0.041-0.435,0.083-0.642l0.342-1.717h1.075
	l0.217-1.128h-1.075L-79.498,57.459z M-78.647,61.97c0,1.313,0.879,2.068,2.13,2.068c0.601,0,1.118-0.104,1.438-0.258l-0.01-1.139
	c-0.258,0.104-0.569,0.206-1.003,0.206c-0.559,0-0.993-0.351-0.993-1.044c0-0.952,0.652-1.852,1.717-1.852
	c0.3,0,0.506,0.052,0.683,0.124l0.362-1.138c-0.217-0.093-0.59-0.177-1.024-0.177C-77.272,58.762-78.647,60.17-78.647,61.97z
	 M-69.077,60.842c0,1.851-1.261,3.207-3.021,3.207c-1.282,0-2.141-0.838-2.141-2.091c0-1.758,1.22-3.196,3.021-3.196
	C-69.863,58.762-69.077,59.693-69.077,60.842z M-70.618,60.852c0-0.465-0.196-0.962-0.796-0.962c-0.859,0-1.292,1.253-1.282,2.038
	c0,0.59,0.29,0.983,0.807,0.983C-71.072,62.911-70.618,61.721-70.618,60.852z M-66.602,56.674c-0.454,0-0.848,0.341-0.858,0.847
	c0,0.445,0.311,0.725,0.724,0.725c0.477,0,0.879-0.31,0.879-0.838C-65.856,56.962-66.167,56.674-66.602,56.674z M-68.628,63.935
	h1.49l0.962-5.059h-1.49L-68.628,63.935z M-61.955,58.762c-0.673,0-1.303,0.29-1.779,0.952h-0.021l0.103-0.838h-1.323
	c-0.063,0.446-0.146,1.004-0.27,1.646l-0.642,3.413h1.49l0.425-2.245c0.207-1.116,0.776-1.728,1.262-1.728
	c0.373,0,0.497,0.249,0.497,0.601c0,0.186-0.021,0.393-0.052,0.569l-0.528,2.803h1.49l0.559-2.938
	c0.041-0.248,0.083-0.63,0.083-0.857C-60.661,59.269-61.127,58.762-61.955,58.762z"/>
</svg>
