<?xml version="1.0" encoding="utf-8"?>
<!-- Generator: Adobe Illustrator 16.0.0, SVG Export Plug-In . SVG Version: 6.00 Build 0)  -->
<!DOCTYPE svg PUBLIC "-//W3C//DTD SVG 1.1//EN" "http://www.w3.org/Graphics/SVG/1.1/DTD/svg11.dtd">
<svg version="1.1" id="Layer_1" xmlns="http://www.w3.org/2000/svg" xmlns:xlink="http://www.w3.org/1999/xlink" x="0px" y="0px"
	 width="50px" height="50px" viewBox="-35.5 34.5 50 50" enable-background="new -35.5 34.5 50 50" xml:space="preserve">
<path d="M-5.078,64.635c0.139,0.239,0.057,0.545-0.182,0.684c-1.578,0.915-3.382,1.399-5.217,1.401h0c-0.276,0-0.5-0.224-0.5-0.499
	c0-0.276,0.223-0.501,0.5-0.501c1.659-0.002,3.291-0.439,4.717-1.267C-5.522,64.315-5.216,64.396-5.078,64.635z M-15.198,64.463
	c-1.432-0.825-2.629-2.019-3.46-3.449c-0.139-0.24-0.446-0.32-0.683-0.182c-0.239,0.139-0.32,0.445-0.181,0.684
	c0.919,1.582,2.242,2.901,3.825,3.814c0.079,0.045,0.165,0.066,0.25,0.066c0.173,0,0.341-0.09,0.434-0.25
	C-14.876,64.907-14.959,64.602-15.198,64.463z M-18.861,50.894c-0.239-0.137-0.544-0.055-0.683,0.185
	c-0.906,1.574-1.385,3.373-1.385,5.2v0.02c0,0.276,0.224,0.49,0.5,0.49s0.5-0.233,0.5-0.51c0-1.652,0.433-3.278,1.252-4.702
	C-18.539,51.337-18.622,51.031-18.861,50.894z M-5.794,48.083c1.435,0.823,2.633,2.014,3.468,3.442
	c0.093,0.159,0.26,0.248,0.432,0.248c0.085,0,0.172-0.021,0.251-0.068c0.239-0.139,0.319-0.445,0.18-0.684
	c-0.922-1.58-2.248-2.896-3.833-3.806c-0.241-0.138-0.546-0.056-0.683,0.185C-6.117,47.64-6.034,47.945-5.794,48.083z
	 M-15.482,48.18c0.085,0,0.172-0.021,0.251-0.068c1.425-0.829,3.055-1.27,4.714-1.275c0.276-0.001,0.5-0.226,0.499-0.502
	c-0.001-0.275-0.225-0.498-0.5-0.498c0,0-0.001,0-0.001,0c-1.835,0.006-3.638,0.494-5.214,1.412
	c-0.239,0.139-0.319,0.444-0.181,0.684C-15.822,48.091-15.654,48.18-15.482,48.18z M-0.046,56.237c0-0.276-0.224-0.479-0.5-0.479
	c-0.276,0-0.5,0.244-0.5,0.521c0,1.659-0.437,3.291-1.262,4.719c-0.138,0.239-0.056,0.545,0.183,0.683
	c0.079,0.046,0.165,0.067,0.25,0.067c0.173,0,0.341-0.09,0.434-0.25c0.913-1.58,1.396-3.385,1.396-5.236l-0.5-0.023H-0.046z
	 M-9.45,56.78c-0.207-0.077-0.52-0.116-0.942-0.116h-0.961v1.607c0.004,0.229,0.012,0.362,0.026,0.399
	c0.017,0.049,0.047,0.084,0.088,0.104s0.151,0.029,0.331,0.029h0.543c0.314,0,0.576-0.029,0.784-0.087
	c0.207-0.058,0.383-0.182,0.528-0.365s0.217-0.408,0.217-0.666c0-0.219-0.05-0.404-0.153-0.559
	C-9.091,56.976-9.245,56.857-9.45,56.78z M-9.592,55.466c0.204-0.072,0.357-0.179,0.46-0.323c0.102-0.142,0.155-0.309,0.155-0.497
	c0-0.195-0.049-0.361-0.147-0.499c-0.097-0.14-0.239-0.237-0.424-0.296c-0.184-0.06-0.515-0.089-0.989-0.089h-0.815v1.81h0.815
	C-10.111,55.571-9.797,55.537-9.592,55.466z M-2.025,56.278c0,4.673-3.79,8.461-8.463,8.461s-8.461-3.788-8.461-8.461
	c0-4.675,3.788-8.463,8.461-8.463S-2.025,51.604-2.025,56.278z M-6.906,57.883c0-0.33-0.079-0.63-0.234-0.896
	c-0.156-0.269-0.368-0.477-0.633-0.625c-0.185-0.108-0.452-0.205-0.798-0.294c0.324-0.11,0.585-0.248,0.783-0.418
	c0.198-0.169,0.348-0.363,0.453-0.582c0.105-0.221,0.158-0.453,0.158-0.698c0-0.337-0.099-0.646-0.297-0.93
	c-0.199-0.282-0.483-0.498-0.852-0.649c-0.143-0.059-0.312-0.102-0.498-0.138v-1.31h-1.258v1.221h-0.808v-1.221h-1.259v1.221h-1.919
	v1.027h0.294c0.195,0,0.327,0.019,0.396,0.054c0.071,0.034,0.119,0.084,0.146,0.145c0.029,0.06,0.043,0.2,0.043,0.42v4.143
	c0,0.218-0.014,0.355-0.043,0.418c-0.028,0.063-0.076,0.109-0.146,0.144c-0.068,0.033-0.2,0.052-0.396,0.052h-0.294v1.025h1.919
	v1.223h1.259V59.99h0.714c0.032,0,0.063-0.001,0.094-0.001v1.224h1.258v-1.327c0.211-0.041,0.396-0.092,0.555-0.155
	c0.434-0.174,0.77-0.427,1.007-0.76C-7.025,58.64-6.906,58.278-6.906,57.883z M-17.666,67.66h-0.026l-3.561,7.828l3.831-0.139
	l2.414,2.982l3.605-7.926l-4.023,2.881L-17.666,67.66z M-3.334,67.66l-2.242,5.627l-3.964-2.839l3.586,7.884l2.412-2.982
	l3.833,0.139l-3.564-7.826L-3.334,67.66z M0.425,61.501l1.051,5.388l-5.483-0.275l-2.03,5.1l-4.461-3.192l-4.467,3.192l-2.027-5.1
	l-5.481,0.275l1.052-5.388l-4.76-2.734l3.792-3.964l-2.523-4.874l5.336-1.281l0.512-5.464l5.182,1.804l3.385-4.319l3.384,4.319
	l5.179-1.804l0.511,5.464l5.335,1.281l-2.524,4.874l3.795,3.964L0.425,61.501z M0.786,56.189c0-6.229-5.053-11.283-11.284-11.283
	c-6.235,0-11.288,5.055-11.288,11.283c0,6.233,5.053,11.286,11.288,11.286C-4.268,67.476,0.786,62.423,0.786,56.189z"/>
</svg>
