<?xml version="1.0" encoding="utf-8"?>
<!-- Generator: Adobe Illustrator 16.0.0, SVG Export Plug-In . SVG Version: 6.00 Build 0)  -->
<!DOCTYPE svg PUBLIC "-//W3C//DTD SVG 1.1//EN" "http://www.w3.org/Graphics/SVG/1.1/DTD/svg11.dtd">
<svg version="1.1" id="Layer_1" xmlns="http://www.w3.org/2000/svg" xmlns:xlink="http://www.w3.org/1999/xlink" x="0px" y="0px"
	 width="50px" height="50px" viewBox="34.5 34.5 50 50" enable-background="new 34.5 34.5 50 50" xml:space="preserve">
<path d="M64.287,60.907c-0.157-0.271-0.375-0.482-0.644-0.631c-0.184-0.109-0.457-0.208-0.813-0.299
	c0.331-0.113,0.598-0.253,0.799-0.427c0.205-0.17,0.355-0.37,0.458-0.595c0.106-0.223,0.162-0.458,0.162-0.705
	c0-0.348-0.102-0.661-0.302-0.95c-0.198-0.282-0.487-0.508-0.863-0.656c-0.146-0.063-0.321-0.104-0.508-0.143v-1.335h-1.279v1.245
	h-0.825v-1.245h-1.28v1.245H57.24v1.044h0.303c0.191,0,0.333,0.021,0.396,0.056c0.076,0.032,0.123,0.085,0.153,0.146
	c0.032,0.062,0.043,0.205,0.043,0.429v4.212c0,0.223-0.011,0.361-0.043,0.424c-0.03,0.066-0.077,0.115-0.153,0.15
	c-0.063,0.032-0.204,0.05-0.396,0.05H57.24v1.045h1.951v1.244h1.28v-1.244h0.728c0.035,0,0.066,0,0.098,0v1.244h1.279v-1.354
	c0.212-0.043,0.405-0.089,0.561-0.156c0.441-0.173,0.786-0.437,1.028-0.774c0.24-0.329,0.362-0.698,0.362-1.104
	C64.527,61.489,64.449,61.18,64.287,60.907z M61.837,57.719c0.19,0.061,0.334,0.163,0.437,0.301c0.098,0.14,0.145,0.31,0.145,0.51
	c0,0.191-0.053,0.36-0.155,0.505c-0.103,0.146-0.261,0.256-0.467,0.327c-0.21,0.073-0.526,0.109-0.96,0.109h-0.834v-1.845h0.834
	C61.313,57.626,61.65,57.657,61.837,57.719z M61.01,62.757h-0.554c-0.181,0-0.292-0.005-0.334-0.03
	c-0.043-0.017-0.071-0.052-0.09-0.103c-0.02-0.036-0.023-0.174-0.03-0.403v-1.638h0.979c0.43,0,0.748,0.042,0.959,0.12
	c0.208,0.08,0.365,0.193,0.472,0.35c0.105,0.158,0.153,0.347,0.153,0.569c0,0.261-0.075,0.487-0.219,0.676
	c-0.15,0.188-0.33,0.314-0.539,0.377C61.598,62.727,61.332,62.757,61.01,62.757z M77.102,60.191
	c-0.023-0.346-0.065-0.682-0.112-1.065c-0.082-0.71-0.168-1.532-0.229-2.808l-0.052-0.925l-0.932,0.112
	c-0.015,0.004-0.08,0.009-0.185,0.009c-0.519,0-1.817-0.154-2.822-1.611c-0.22-0.327-0.418-0.646-0.619-0.968
	c-0.423-0.668-0.853-1.354-1.399-1.985c0.421-0.893,1.005-1.742,1.121-1.92c0.657-0.762,0.65-1.397,0.517-1.789
	c-0.287-0.874-1.245-1.126-1.441-1.164l-0.079-0.019c-0.371-0.047-0.767-0.07-1.161-0.07c-2.072,0-3.943,0.636-5.018,1.104
	c-1.474-0.473-3.011-0.711-4.574-0.711c-3.992,0-7.594,1.57-10.14,4.056c-0.304-0.173-0.626-0.327-0.986-0.458
	c-0.205-0.07-0.432-0.121-0.668-0.173l-0.367-0.052l-0.322-0.022c-0.483-0.005-0.89,0.074-1.311,0.182
	c-0.051-0.084-0.098-0.159-0.158-0.233c-0.099-0.126-0.22-0.225-0.344-0.327c-0.063-0.052-0.145-0.089-0.217-0.131
	c-0.075-0.047-0.126-0.056-0.183-0.079c-0.299-0.104-0.581-0.107-0.836-0.084c-0.51,0.061-0.923,0.229-1.267,0.401
	c-0.343,0.173-0.611,0.351-0.826,0.51c-0.206,0.153-0.362,0.294-0.458,0.373c-0.101,0.103-0.147,0.154-0.147,0.154
	s0.059-0.042,0.171-0.121c0.103-0.065,0.269-0.178,0.497-0.295c0.222-0.116,0.507-0.252,0.848-0.369
	c0.342-0.126,0.743-0.233,1.173-0.233c0.208,0,0.43,0.037,0.603,0.107l0.178,0.089c0.028,0.037,0.065,0.057,0.096,0.079
	c0.028,0.023,0.068,0.075,0.105,0.117c0.032,0.042,0.077,0.079,0.101,0.136c0.03,0.032,0.044,0.074,0.067,0.103
	c-0.205,0.079-0.406,0.173-0.593,0.29c-0.327,0.173-0.631,0.448-0.864,0.766l-0.015,0.023l-0.014,0.019
	c-0.099,0.196-0.173,0.411-0.22,0.636c-0.042,0.229-0.07,0.472,0.005,0.752c0.042,0.136,0.116,0.285,0.222,0.406
	c0.114,0.127,0.255,0.229,0.399,0.276c0.145,0.056,0.275,0.074,0.409,0.084h0.203c0.07-0.005,0.093-0.01,0.14-0.015l0.063-0.014
	l0.089-0.01l0.037-0.014l0.171-0.056c0.103-0.038,0.21-0.089,0.308-0.159c0.196-0.107,0.367-0.29,0.483-0.467
	c0.246-0.369,0.307-0.771,0.293-1.131c-0.008-0.233-0.045-0.448-0.107-0.668c0.326-0.07,0.648-0.122,0.943-0.112
	c0.233,0.005,0.364,0.019,0.547,0.056c0.182,0.028,0.359,0.08,0.537,0.131c0.189,0.065,0.369,0.141,0.558,0.225
	c-1.937,2.2-3.108,5.004-3.108,8.055c0,4.228,2.686,8.399,5.382,10.399c0.065,0.215,0.107,0.752,0.094,1.238
	c0,1.205,0.967,2.191,2.158,2.191h3.732c0.775,0,1.463-0.416,1.853-1.052c0.46,0.019,0.909,0.019,1.381,0
	c0.378,0.636,1.069,1.052,1.846,1.052h3.728c1.198,0,2.168-0.986,2.168-2.191l-0.019-0.188c-0.099-0.434-0.154-0.995-0.133-1.229
	l0.2-0.201c1.521-1.485,3.093-3.022,4.254-4.896c0.458-0.738,1.273-1.5,2.056-1.528c0.304-0.019,1.107-0.056,1.678-0.687
	C76.989,61.645,77.162,60.995,77.102,60.191z M45.865,52.155c-0.023,0.052-0.065,0.089-0.107,0.122
	c-0.033,0.047-0.082,0.065-0.129,0.098l-0.072,0.038c-0.028,0.014-0.052,0.019-0.084,0.022l-0.089,0.028l-0.019,0.005l0,0
	l-0.04,0.005l-0.138,0.014c-0.019-0.009-0.037-0.009-0.061-0.009c-0.042-0.005-0.096-0.01-0.112-0.028
	c-0.047-0.023-0.042-0.015-0.065-0.079c-0.035-0.141,0.03-0.449,0.163-0.711c0.122-0.173,0.484-0.42,0.944-0.611
	c0.023,0.135,0.027,0.271,0.023,0.411C46.075,51.722,45.996,51.979,45.865,52.155z M52.742,53.021l-0.028,0.004
	c-0.086,0-0.173-0.037-0.238-0.103c-0.061-0.065-0.098-0.154-0.091-0.243c0-0.089,0.035-0.173,0.104-0.233
	c0.026-0.032,3.238-2.985,7.724-2.985c1.485,0,2.95,0.327,4.368,0.953c0.079,0.042,0.146,0.112,0.177,0.201
	c0.028,0.079,0.023,0.168-0.016,0.252c-0.052,0.112-0.181,0.187-0.307,0.187c-0.051,0-0.098-0.009-0.143-0.027
	c-1.319-0.594-2.695-0.897-4.08-0.897c-4.196,0-7.228,2.771-7.256,2.799C52.898,52.987,52.821,53.021,52.742,53.021z M60.782,66.891
	c-3.882,0-7.028-3.093-7.028-6.904c0-3.813,3.146-6.9,7.028-6.9c3.888,0,7.031,3.088,7.031,6.9
	C67.813,63.798,64.67,66.891,60.782,66.891z"/>
</svg>
