<?xml version="1.0" encoding="utf-8"?>
<!-- Generator: Adobe Illustrator 16.0.0, SVG Export Plug-In . SVG Version: 6.00 Build 0)  -->
<!DOCTYPE svg PUBLIC "-//W3C//DTD SVG 1.1//EN" "http://www.w3.org/Graphics/SVG/1.1/DTD/svg11.dtd">
<svg version="1.1" id="Layer_1" xmlns="http://www.w3.org/2000/svg" xmlns:xlink="http://www.w3.org/1999/xlink" x="0px" y="0px"
	 width="50px" height="50px" viewBox="314.5 34.5 50 50" enable-background="new 314.5 34.5 50 50" xml:space="preserve">
<path d="M350.334,52.666h-1.167v-6.895c0-1.804-1.468-3.271-3.271-3.271h-12.791c-1.804,0-3.271,1.468-3.271,3.271v6.895h-1.167
	c-1.656,0-3,1.344-3,3V73.5c0,1.656,1.344,3,3,3h21.668c1.656,0,3-1.344,3-3V55.666C353.334,54.01,351.99,52.666,350.334,52.666z
	 M332.833,45.771c0-0.149,0.122-0.271,0.271-0.271h12.791c0.149,0,0.271,0.122,0.271,0.271v6.895h-13.334V45.771z M339.5,73.098
	c-4.944,0-8.955-4.011-8.955-8.957c0-4.945,4.011-8.955,8.955-8.955s8.955,4.01,8.955,8.955
	C348.455,69.087,344.444,73.098,339.5,73.098z M331.788,64.66c-0.276,0-0.5-0.205-0.5-0.481v-0.038c0-1.073,0.204-2.116,0.606-3.102
	c0.104-0.256,0.396-0.379,0.652-0.273c0.255,0.104,0.378,0.396,0.273,0.652c-0.354,0.863-0.532,1.78-0.532,2.723
	C332.288,64.417,332.064,64.66,331.788,64.66z M338.973,56.429c0-0.276,0.195-0.5,0.472-0.5h0.056c1.066,0,2.104,0.201,3.084,0.598
	c0.256,0.104,0.38,0.396,0.276,0.651c-0.079,0.194-0.267,0.313-0.464,0.313c-0.063,0-0.126-0.012-0.188-0.036
	c-0.86-0.349-1.771-0.525-2.709-0.525C339.224,56.929,338.973,56.705,338.973,56.429z M334.419,69.261
	c0.195,0.194,0.197,0.511,0.002,0.707c-0.098,0.099-0.226,0.147-0.354,0.147c-0.127,0-0.255-0.049-0.353-0.146
	c-0.771-0.765-1.372-1.657-1.789-2.652c-0.106-0.255,0.013-0.548,0.268-0.654c0.257-0.106,0.548,0.014,0.654,0.268
	C333.213,67.804,333.741,68.588,334.419,69.261z M333.662,59.077c-0.196-0.193-0.198-0.511-0.004-0.707
	c0.763-0.772,1.653-1.376,2.647-1.796c0.252-0.105,0.547,0.011,0.655,0.267c0.107,0.255-0.012,0.548-0.267,0.655
	c-0.873,0.368-1.655,0.898-2.325,1.577c-0.098,0.099-0.227,0.148-0.355,0.148C333.887,59.222,333.76,59.174,333.662,59.077z
	 M345.258,58.285c0.774,0.762,1.381,1.651,1.803,2.645c0.108,0.254-0.01,0.548-0.265,0.655c-0.063,0.027-0.13,0.04-0.195,0.04
	c-0.194,0-0.379-0.114-0.46-0.305c-0.371-0.871-0.903-1.653-1.584-2.322c-0.197-0.193-0.199-0.51-0.006-0.707
	C344.745,58.094,345.062,58.092,345.258,58.285z M347.212,63.604c0.276,0,0.5,0.188,0.5,0.464v0.073
	c0,1.088-0.209,2.145-0.621,3.139c-0.08,0.192-0.266,0.309-0.462,0.309c-0.064,0-0.129-0.012-0.191-0.038
	c-0.255-0.105-0.376-0.398-0.271-0.653c0.361-0.872,0.545-1.8,0.545-2.756C346.712,63.864,346.936,63.604,347.212,63.604z
	 M345.314,69.233c0.195,0.195,0.195,0.512,0.001,0.708c-0.767,0.768-1.66,1.368-2.657,1.784c-0.063,0.025-0.128,0.038-0.192,0.038
	c-0.195,0-0.382-0.115-0.462-0.308c-0.105-0.255,0.015-0.548,0.27-0.654c0.875-0.364,1.66-0.892,2.333-1.567
	C344.802,69.039,345.119,69.04,345.314,69.233z M340.01,71.854c0,0.276-0.213,0.5-0.489,0.5H339.5c-1.078,0-2.128-0.206-3.12-0.613
	c-0.256-0.105-0.378-0.397-0.273-0.652c0.106-0.256,0.402-0.377,0.652-0.273c0.871,0.357,1.794,0.539,2.741,0.539
	C339.776,71.354,340.01,71.578,340.01,71.854z M342.792,66.891c0.24-0.34,0.364-0.709,0.364-1.111c0-0.336-0.08-0.642-0.241-0.915
	c-0.16-0.272-0.376-0.487-0.646-0.638c-0.189-0.109-0.461-0.209-0.815-0.299c0.33-0.113,0.597-0.256,0.799-0.428
	c0.201-0.172,0.356-0.37,0.464-0.595c0.106-0.225,0.16-0.462,0.16-0.712c0-0.344-0.103-0.66-0.302-0.948
	c-0.203-0.288-0.495-0.509-0.871-0.661c-0.146-0.061-0.318-0.105-0.507-0.141v-1.338h-1.284v1.248h-0.826v-1.248h-1.281v1.248
	h-1.959V61.4h0.299c0.198,0,0.335,0.02,0.405,0.055c0.07,0.036,0.121,0.085,0.15,0.146c0.029,0.063,0.041,0.205,0.041,0.429v4.226
	c0,0.223-0.012,0.365-0.041,0.43c-0.029,0.063-0.08,0.111-0.15,0.145c-0.07,0.035-0.207,0.053-0.405,0.053h-0.299v1.047h1.959v1.247
	h1.281V67.93h0.731c0.033,0,0.063,0,0.095,0v1.247h1.284v-1.353c0.216-0.043,0.405-0.096,0.565-0.16
	C342.207,67.487,342.549,67.23,342.792,66.891z M338.619,61.574h0.83c0.485,0,0.822,0.03,1.01,0.091
	c0.189,0.06,0.332,0.159,0.432,0.301s0.148,0.312,0.148,0.51c0,0.193-0.051,0.363-0.155,0.509c-0.106,0.146-0.263,0.256-0.471,0.328
	c-0.209,0.074-0.529,0.109-0.964,0.109h-0.83V61.574z M340.966,66.256c-0.147,0.189-0.33,0.314-0.538,0.373
	c-0.214,0.061-0.481,0.09-0.802,0.09h-0.554c-0.184,0-0.296-0.011-0.337-0.029c-0.044-0.02-0.073-0.055-0.09-0.105
	c-0.015-0.039-0.024-0.176-0.026-0.408v-1.641h0.98c0.43,0,0.75,0.041,0.959,0.119c0.211,0.08,0.366,0.199,0.473,0.354
	c0.104,0.156,0.158,0.346,0.158,0.57C341.189,65.843,341.114,66.068,340.966,66.256z"/>
</svg>
