<?xml version="1.0" encoding="utf-8"?>
<!-- Generator: Adobe Illustrator 16.0.0, SVG Export Plug-In . SVG Version: 6.00 Build 0)  -->
<!DOCTYPE svg PUBLIC "-//W3C//DTD SVG 1.1//EN" "http://www.w3.org/Graphics/SVG/1.1/DTD/svg11.dtd">
<svg version="1.1" id="Layer_1" xmlns="http://www.w3.org/2000/svg" xmlns:xlink="http://www.w3.org/1999/xlink" x="0px" y="0px"
	 width="50px" height="50px" viewBox="-315.5 104.5 50 50" enable-background="new -315.5 104.5 50 50" xml:space="preserve">
<path d="M-291.827,130.064c0.014,0,0.027-0.004,0.041-0.004c0.019,0,0.036,0.004,0.055,0.004H-291.827z M-291.991,113.791
	c0.107-0.001,0.212,0.006,0.318,0.009c0.035,0,0.069-0.009,0.105-0.009H-291.991z M-297.679,124.076
	c0.015-0.002,0.025-0.018,0.041-0.022c0.941,3.405,3.377,5.953,5.852,6.007c2.255-0.102,5.022-2.605,5.944-5.992
	c0.424,0.026,0.849-0.474,0.966-1.17c0.123-0.726-0.133-1.373-0.572-1.449c-0.028-0.004-0.056,0.014-0.084,0.014
	c-0.127-5.603-2.788-7.578-6.141-7.663c-3.456,0.016-6.551,2.419-6.355,7.665c-0.033-0.001-0.064-0.021-0.096-0.016
	c-0.439,0.076-0.695,0.724-0.572,1.449C-298.575,123.622-298.12,124.15-297.679,124.076z M-272.687,136.786
	c0,5.472-4.452,9.923-9.924,9.923c-4.423,0-8.178-2.911-9.454-6.918h-13.749c0-5.686,3.916-8.023,9.372-8.758l3.137,6.145
	l0.497-3.998l-0.776-0.635h1.717h0.3c1.594-3.353,5.004-5.682,8.957-5.682C-277.138,126.863-272.687,131.314-272.687,136.786z
	 M-273.687,136.786c0-4.92-4.003-8.923-8.924-8.923c-4.919,0-8.922,4.003-8.922,8.923s4.002,8.923,8.922,8.923
	C-277.69,145.709-273.687,141.706-273.687,136.786z M-280.33,129.622c1.495,0.476,2.834,1.436,3.771,2.704
	c0.098,0.133,0.25,0.203,0.403,0.203c0.103,0,0.207-0.032,0.296-0.098c0.222-0.164,0.27-0.478,0.105-0.699
	c-1.061-1.437-2.578-2.524-4.272-3.063c-0.262-0.081-0.544,0.063-0.628,0.325C-280.739,129.257-280.593,129.538-280.33,129.622z
	 M-289.117,132.604c0.155,0,0.309-0.072,0.406-0.208c0.922-1.278,2.25-2.255,3.74-2.748c0.262-0.087,0.404-0.369,0.317-0.632
	c-0.086-0.262-0.369-0.407-0.632-0.317c-1.688,0.559-3.193,1.664-4.237,3.113c-0.161,0.224-0.11,0.536,0.113,0.697
	C-289.321,132.574-289.218,132.604-289.117,132.604z M-290.125,136.816c-0.001-0.275-0.225-0.498-0.5-0.498c0,0-0.001,0-0.002,0
	c-0.276,0.001-0.499,0.226-0.498,0.502c0.007,1.811,0.575,3.537,1.641,4.993c0.098,0.134,0.25,0.205,0.404,0.205
	c0.103,0,0.206-0.031,0.295-0.097c0.223-0.163,0.271-0.476,0.108-0.698C-289.618,139.938-290.118,138.414-290.125,136.816z
	 M-274.595,136.255c-0.276,0-0.5,0.255-0.5,0.531c0,1.599-0.495,3.125-1.431,4.412c-0.163,0.224-0.113,0.536,0.11,0.698
	c0.089,0.064,0.191,0.096,0.293,0.096c0.155,0,0.307-0.071,0.405-0.206c1.061-1.459,1.622-3.188,1.622-5v-0.062
	C-274.095,136.448-274.318,136.255-274.595,136.255z M-280.276,143.933c-1.494,0.489-3.146,0.49-4.641,0.011
	c-0.262-0.084-0.544,0.06-0.629,0.322c-0.084,0.264,0.06,0.545,0.323,0.629c0.842,0.271,1.721,0.408,2.612,0.408
	c0.903,0,1.793-0.141,2.645-0.419c0.262-0.086,0.406-0.368,0.32-0.631C-279.731,143.991-280.009,143.848-280.276,143.933z
	 M-281.773,137.191c-0.166-0.063-0.419-0.094-0.759-0.094h-0.775v1.296c0.004,0.185,0.01,0.292,0.021,0.322
	c0.014,0.04,0.038,0.068,0.071,0.083c0.033,0.017,0.122,0.024,0.267,0.024h0.438c0.254,0,0.465-0.024,0.632-0.07
	c0.167-0.047,0.309-0.146,0.427-0.294c0.117-0.149,0.175-0.329,0.175-0.537c0-0.177-0.04-0.327-0.124-0.45
	C-281.483,137.349-281.607,137.254-281.773,137.191z M-275.787,136.786c0,3.769-3.055,6.822-6.823,6.822
	c-3.768,0-6.821-3.054-6.821-6.822s3.054-6.822,6.821-6.822C-278.842,129.964-275.787,133.018-275.787,136.786z M-279.723,138.08
	c0-0.266-0.063-0.507-0.188-0.723c-0.126-0.216-0.297-0.385-0.511-0.504c-0.149-0.087-0.364-0.165-0.644-0.237
	c0.262-0.088,0.472-0.2,0.631-0.337c0.159-0.136,0.281-0.292,0.365-0.47c0.085-0.178,0.127-0.365,0.127-0.562
	c0-0.272-0.079-0.522-0.239-0.751c-0.16-0.226-0.39-0.4-0.687-0.522c-0.115-0.048-0.252-0.083-0.401-0.111v-1.057h-1.015v0.985
	h-0.651v-0.985h-1.015v0.985h-1.548v0.828h0.237c0.157,0,0.264,0.015,0.319,0.043c0.057,0.027,0.096,0.067,0.118,0.116
	c0.023,0.048,0.034,0.162,0.034,0.34v3.34c0,0.175-0.011,0.286-0.034,0.336c-0.022,0.051-0.062,0.089-0.118,0.116
	c-0.056,0.027-0.162,0.041-0.319,0.041h-0.237v0.828h1.548v0.985h1.015v-0.985h0.576c0.025,0,0.05-0.001,0.075-0.001v0.986h1.015
	v-1.07c0.17-0.033,0.319-0.074,0.447-0.125c0.351-0.141,0.621-0.345,0.813-0.612S-279.723,138.399-279.723,138.08z
	 M-281.888,136.132c0.164-0.059,0.287-0.145,0.37-0.261c0.083-0.114,0.125-0.249,0.125-0.401c0-0.157-0.039-0.291-0.118-0.402
	c-0.078-0.112-0.192-0.191-0.342-0.238c-0.148-0.048-0.415-0.071-0.798-0.071h-0.657v1.459h0.657
	C-282.306,136.217-282.053,136.189-281.888,136.132z"/>
</svg>
