<?xml version="1.0" encoding="utf-8"?>
<!-- Generator: Adobe Illustrator 16.0.0, SVG Export Plug-In . SVG Version: 6.00 Build 0)  -->
<!DOCTYPE svg PUBLIC "-//W3C//DTD SVG 1.1//EN" "http://www.w3.org/Graphics/SVG/1.1/DTD/svg11.dtd">
<svg version="1.1" id="Layer_1" xmlns="http://www.w3.org/2000/svg" xmlns:xlink="http://www.w3.org/1999/xlink" x="0px" y="0px"
	 width="50px" height="50px" viewBox="-245.5 104.5 50 50" enable-background="new -245.5 104.5 50 50" xml:space="preserve">
<path d="M-220.321,112.478c-0.036,0-0.07,0.009-0.105,0.009c-0.106-0.003-0.211-0.01-0.318-0.009H-220.321z M-226.432,122.763
	c0.015-0.002,0.025-0.018,0.041-0.022c0.941,3.405,3.377,5.953,5.852,6.007c2.255-0.102,5.022-2.605,5.944-5.992
	c0.424,0.026,0.849-0.474,0.966-1.17c0.123-0.726-0.133-1.373-0.572-1.449c-0.028-0.004-0.056,0.014-0.084,0.014
	c-0.127-5.603-2.788-7.578-6.141-7.663c-3.456,0.016-6.551,2.419-6.355,7.665c-0.033-0.001-0.064-0.021-0.096-0.016
	c-0.439,0.076-0.695,0.724-0.572,1.449C-227.329,122.309-226.874,122.837-226.432,122.763z M-220.485,128.751
	c-0.019,0-0.036-0.004-0.055-0.004c-0.014,0-0.027,0.004-0.041,0.004H-220.485z M-213.521,147.107h-0.058
	c-4.534-2.195-6.776-5.54-7.863-8.63h-13.125c0-5.686,3.916-8.023,9.372-8.758l3.032,5.939c-0.464-2.775-0.139-4.859-0.139-4.859
	c5.031-1.568,8.75-3.727,8.75-3.727h0.006c0,0,3.772,2.13,8.75,3.727C-204.795,130.8-203.03,142.029-213.521,147.107z
	 M-205.639,131.827l-0.023-0.333l-0.316-0.106c-3.497-1.183-6.292-2.582-7.332-3.128l-0.235-0.124l-0.234,0.126
	c-1.03,0.552-3.806,1.962-7.332,3.13l-0.322,0.106l-0.02,0.338c-0.138,2.293,0.01,10.089,7.67,14.122l0.232,0.123l0.233-0.123
	C-205.569,141.888-205.481,134.113-205.639,131.827z M-213.549,144.948c-6.573-3.609-7.004-10.262-6.921-12.717
	c3.122-1.059,5.595-2.261,6.93-2.964c1.169,0.604,3.741,1.857,6.921,2.958C-206.514,134.667-206.896,141.306-213.549,144.948z
	 M-208.892,136.783c0-2.572-2.085-4.657-4.657-4.657c-2.572,0-4.657,2.085-4.657,4.657s2.085,4.656,4.657,4.656
	C-210.977,141.439-208.892,139.355-208.892,136.783z M-211.391,137.75c0,0.238-0.072,0.457-0.214,0.656
	c-0.144,0.2-0.346,0.353-0.607,0.457c-0.096,0.039-0.208,0.069-0.335,0.094v0.8h-0.758v-0.736c-0.019,0-0.037,0-0.056,0h-0.431
	v0.736h-0.757v-0.736h-1.157v-0.618h0.177c0.118,0,0.197-0.012,0.238-0.031c0.042-0.02,0.071-0.049,0.088-0.086
	c0.018-0.038,0.026-0.122,0.026-0.253v-2.495c0-0.133-0.008-0.217-0.026-0.253c-0.017-0.037-0.046-0.066-0.088-0.087
	c-0.042-0.021-0.121-0.033-0.238-0.033h-0.177v-0.619h1.157v-0.735h0.757v0.735h0.487v-0.735h0.758v0.789
	c0.111,0.021,0.214,0.049,0.3,0.084c0.222,0.09,0.393,0.221,0.513,0.39c0.119,0.171,0.179,0.357,0.179,0.562
	c0,0.146-0.032,0.286-0.095,0.42c-0.063,0.132-0.155,0.249-0.273,0.351c-0.119,0.102-0.277,0.186-0.471,0.252
	c0.209,0.053,0.37,0.112,0.481,0.176c0.16,0.09,0.287,0.217,0.382,0.379C-211.438,137.371-211.391,137.552-211.391,137.75z
	 M-213.579,135.269h-0.491v1.09h0.491c0.257,0,0.446-0.021,0.569-0.064s0.215-0.107,0.277-0.193c0.063-0.087,0.093-0.188,0.093-0.3
	c0-0.119-0.029-0.219-0.087-0.303c-0.059-0.084-0.144-0.142-0.255-0.177C-213.094,135.285-213.293,135.269-213.579,135.269z
	 M-213.002,138.252c0.125-0.034,0.231-0.107,0.319-0.22c0.087-0.111,0.131-0.244,0.131-0.4c0-0.133-0.031-0.245-0.093-0.337
	c-0.063-0.091-0.155-0.161-0.279-0.208c-0.124-0.048-0.313-0.07-0.567-0.07h-0.579v0.968c0.002,0.138,0.007,0.217,0.016,0.24
	c0.011,0.03,0.028,0.052,0.053,0.064c0.024,0.011,0.091,0.016,0.2,0.016h0.326C-213.285,138.305-213.128,138.289-213.002,138.252z"
	/>
</svg>
