<?xml version="1.0" encoding="utf-8"?>
<!-- Generator: Adobe Illustrator 16.0.0, SVG Export Plug-In . SVG Version: 6.00 Build 0)  -->
<!DOCTYPE svg PUBLIC "-//W3C//DTD SVG 1.1//EN" "http://www.w3.org/Graphics/SVG/1.1/DTD/svg11.dtd">
<svg version="1.1" id="Layer_1" xmlns="http://www.w3.org/2000/svg" xmlns:xlink="http://www.w3.org/1999/xlink" x="0px" y="0px"
	 width="50px" height="50px" viewBox="-175.5 104.5 50 50" enable-background="new -175.5 104.5 50 50" xml:space="preserve">
<path d="M-149.523,143.24h-0.387v-0.859h0.387c0.226,0,0.381,0.015,0.469,0.042c0.087,0.027,0.156,0.074,0.2,0.141
	c0.046,0.065,0.07,0.144,0.07,0.237c0,0.087-0.024,0.169-0.074,0.236c-0.047,0.067-0.12,0.119-0.218,0.153
	C-149.172,143.225-149.321,143.24-149.523,143.24z M-149.007,143.815c-0.098-0.038-0.247-0.057-0.446-0.057h-0.457v0.764
	c0.001,0.108,0.005,0.171,0.012,0.19c0.009,0.023,0.022,0.039,0.041,0.048c0.021,0.01,0.072,0.016,0.157,0.016h0.259
	c0.149,0,0.272-0.016,0.372-0.043c0.1-0.028,0.182-0.086,0.25-0.173c0.07-0.088,0.104-0.194,0.104-0.317
	c0-0.104-0.024-0.191-0.074-0.266C-148.837,143.905-148.909,143.852-149.007,143.815z M-162.007,143.19
	c0.098-0.034,0.17-0.086,0.217-0.153c0.05-0.067,0.074-0.149,0.074-0.236c0-0.094-0.023-0.172-0.07-0.237
	c-0.044-0.066-0.113-0.113-0.2-0.141s-0.244-0.042-0.469-0.042h-0.387v0.859h0.387C-162.253,143.24-162.104,143.225-162.007,143.19z
	 M-161.94,143.815c-0.098-0.038-0.247-0.057-0.445-0.057h-0.457v0.764c0.002,0.108,0.005,0.171,0.012,0.19
	c0.009,0.023,0.022,0.039,0.042,0.048c0.02,0.01,0.072,0.016,0.157,0.016h0.258c0.149,0,0.273-0.016,0.372-0.043
	c0.1-0.028,0.182-0.086,0.25-0.173c0.07-0.088,0.104-0.194,0.104-0.317c0-0.104-0.024-0.191-0.074-0.266
	C-161.769,143.905-161.841,143.852-161.94,143.815z M-136.142,143.19c0.097-0.034,0.169-0.086,0.217-0.153
	c0.049-0.067,0.074-0.149,0.074-0.236c0-0.094-0.024-0.172-0.071-0.237c-0.044-0.066-0.113-0.113-0.2-0.141
	c-0.088-0.027-0.244-0.042-0.469-0.042h-0.388v0.859h0.388C-136.389,143.24-136.24,143.225-136.142,143.19z M-136.075,143.815
	c-0.098-0.038-0.247-0.057-0.446-0.057h-0.457v0.764c0.002,0.108,0.005,0.171,0.012,0.19c0.009,0.023,0.022,0.039,0.041,0.048
	c0.021,0.01,0.072,0.016,0.158,0.016h0.258c0.149,0,0.273-0.016,0.372-0.043c0.1-0.028,0.182-0.086,0.25-0.173
	c0.07-0.088,0.104-0.194,0.104-0.317c0-0.104-0.024-0.191-0.074-0.266C-135.904,143.905-135.976,143.852-136.075,143.815z
	 M-132.804,143.575c0,2.079-1.685,3.764-3.762,3.764c-2.079,0-3.764-1.685-3.764-3.764c0-1.855,1.346-3.389,3.114-3.697v-5.37
	h-11.634v5.37c1.767,0.309,3.113,1.842,3.113,3.697c0,2.079-1.685,3.764-3.762,3.764c-2.079,0-3.764-1.685-3.764-3.764
	c0-1.855,1.346-3.388,3.113-3.697v-5.37h-11.634v5.37c1.767,0.309,3.115,1.841,3.115,3.697c0,2.079-1.686,3.764-3.763,3.764
	c-2.079,0-3.764-1.685-3.764-3.764c0-1.854,1.345-3.388,3.112-3.697v-6.021c0-0.359,0.291-0.65,0.65-0.65h12.284v-1.678h-9.529
	c0-4.126,2.842-5.823,6.801-6.355l2.276,4.459l0.361-2.901l-0.563-0.461h1.246h1.364l-0.563,0.461l0.361,2.901l2.277-4.459
	c3.958,0.532,6.8,2.229,6.8,6.355h-9.529v1.678h12.284c0.359,0,0.65,0.291,0.65,0.65v6.021
	C-134.15,140.188-132.804,141.72-132.804,143.575z M-161.644,141.854v-0.623h-0.596v0.58h-0.383v-0.58h-0.598v0.58h-0.911v0.487
	h0.139c0.094,0,0.156,0.011,0.188,0.026c0.033,0.018,0.055,0.04,0.068,0.068c0.014,0.029,0.021,0.096,0.021,0.199v1.968
	c0,0.102-0.008,0.169-0.021,0.198c-0.013,0.029-0.036,0.052-0.068,0.068c-0.033,0.016-0.094,0.023-0.188,0.023h-0.139v0.488h0.911
	v0.58h0.598v-0.58h0.338c0.016,0,0.029-0.001,0.045-0.001v0.581h0.596v-0.629c0.101-0.021,0.189-0.045,0.265-0.075
	c0.205-0.083,0.365-0.203,0.476-0.36c0.113-0.157,0.172-0.331,0.172-0.517c0-0.155-0.038-0.299-0.111-0.426
	c-0.075-0.127-0.175-0.226-0.302-0.297c-0.087-0.051-0.214-0.098-0.38-0.141c0.156-0.052,0.279-0.117,0.373-0.197
	s0.167-0.173,0.214-0.277c0.049-0.104,0.075-0.215,0.075-0.33c0-0.161-0.048-0.308-0.14-0.442c-0.094-0.133-0.229-0.235-0.405-0.308
	C-161.474,141.893-161.555,141.872-161.644,141.854z M-148.711,141.854v-0.623h-0.596v0.58h-0.383v-0.58h-0.598v0.58h-0.911v0.487
	h0.139c0.094,0,0.156,0.011,0.188,0.026c0.032,0.018,0.055,0.04,0.068,0.068c0.014,0.029,0.021,0.096,0.021,0.199v1.968
	c0,0.102-0.007,0.169-0.021,0.198s-0.036,0.052-0.068,0.068c-0.033,0.016-0.094,0.023-0.188,0.023h-0.139v0.488h0.911v0.58h0.598
	v-0.58h0.338c0.016,0,0.029-0.001,0.045-0.001v0.581h0.596v-0.629c0.101-0.021,0.19-0.045,0.265-0.075
	c0.206-0.083,0.365-0.203,0.477-0.36c0.113-0.157,0.171-0.331,0.171-0.517c0-0.155-0.038-0.299-0.112-0.426
	c-0.075-0.127-0.175-0.226-0.301-0.297c-0.087-0.051-0.213-0.098-0.38-0.141c0.155-0.052,0.279-0.117,0.373-0.197
	s0.166-0.173,0.214-0.277c0.049-0.104,0.075-0.215,0.075-0.33c0-0.161-0.048-0.308-0.141-0.442
	c-0.094-0.133-0.229-0.235-0.404-0.308C-148.542,141.893-148.622,141.872-148.711,141.854z M-134.866,144.338
	c0-0.155-0.038-0.299-0.111-0.426c-0.076-0.127-0.175-0.226-0.302-0.297c-0.087-0.051-0.213-0.098-0.379-0.141
	c0.155-0.052,0.279-0.117,0.373-0.197s0.166-0.173,0.214-0.277c0.049-0.104,0.075-0.215,0.075-0.33c0-0.161-0.048-0.308-0.14-0.442
	c-0.094-0.133-0.229-0.235-0.404-0.308c-0.069-0.027-0.149-0.048-0.238-0.065v-0.623h-0.596v0.58h-0.384v-0.58h-0.598v0.58h-0.911
	v0.487h0.138c0.095,0,0.156,0.011,0.189,0.026c0.032,0.018,0.055,0.04,0.068,0.068c0.014,0.029,0.021,0.096,0.021,0.199v1.968
	c0,0.102-0.007,0.169-0.021,0.198s-0.036,0.052-0.068,0.068c-0.033,0.016-0.094,0.023-0.189,0.023h-0.138v0.488h0.911v0.58h0.598
	v-0.58h0.338c0.016,0,0.029-0.001,0.045-0.001v0.581h0.596v-0.629c0.101-0.021,0.19-0.045,0.265-0.075
	c0.206-0.083,0.365-0.203,0.477-0.36C-134.924,144.697-134.866,144.523-134.866,144.338z M-149.649,112.661
	c0.078-0.001,0.154,0.005,0.231,0.006c0.026,0,0.051-0.006,0.077-0.006H-149.649z M-149.46,124.471c-0.014,0-0.026-0.003-0.04-0.003
	c-0.01,0-0.02,0.003-0.03,0.003H-149.46z M-153.776,120.125c0.01-0.002,0.018-0.013,0.029-0.017c0.683,2.471,2.451,4.32,4.247,4.359
	c1.636-0.073,3.645-1.891,4.314-4.349c0.307,0.02,0.616-0.344,0.701-0.849c0.089-0.527-0.096-0.996-0.416-1.052
	c-0.02-0.003-0.041,0.01-0.061,0.01c-0.092-4.065-2.023-5.499-4.457-5.562c-2.508,0.012-4.753,1.756-4.612,5.563
	c-0.024-0.001-0.047-0.017-0.069-0.012c-0.319,0.056-0.505,0.524-0.416,1.052C-154.427,119.795-154.097,120.179-153.776,120.125z"/>
</svg>
