<?xml version="1.0" encoding="utf-8"?>
<!-- Generator: Adobe Illustrator 16.0.0, SVG Export Plug-In . SVG Version: 6.00 Build 0)  -->
<!DOCTYPE svg PUBLIC "-//W3C//DTD SVG 1.1//EN" "http://www.w3.org/Graphics/SVG/1.1/DTD/svg11.dtd">
<svg version="1.1" id="Layer_1" xmlns="http://www.w3.org/2000/svg" xmlns:xlink="http://www.w3.org/1999/xlink" x="0px" y="0px"
	 width="50px" height="50px" viewBox="-35.5 104.5 50 50" enable-background="new -35.5 104.5 50 50" xml:space="preserve">
<path d="M1.376,136.264c0-5.063-3.121-9.405-7.538-11.218v-3.285c0-0.6-0.487-1.086-1.085-1.086h-21.417
	c-0.6,0-1.084,0.486-1.084,1.086v3.795c0,0.598,0.485,1.083,1.084,1.083h10.569c-0.537,0.411-1.037,0.864-1.498,1.356h-9.071
	c-0.6,0-1.084,0.485-1.084,1.083v3.796c0,0.6,0.485,1.085,1.084,1.085h6.016c-0.086,0.443-0.142,0.896-0.178,1.355h-5.838
	c-0.6,0-1.084,0.486-1.084,1.085v3.796c0,0.598,0.485,1.083,1.084,1.083h6.889c0.214,0.47,0.458,0.921,0.729,1.356h-7.618
	c-0.6,0-1.084,0.485-1.084,1.085v3.795c0,0.599,0.485,1.084,1.084,1.084h21.417c0.598,0,1.085-0.485,1.085-1.084v-0.034
	C-1.745,145.667,1.376,141.325,1.376,136.264z M-10.75,147.5c-6.195,0-11.235-5.04-11.235-11.236s5.04-11.237,11.235-11.237
	c6.196,0,11.237,5.041,11.237,11.237S-4.554,147.5-10.75,147.5z M-19.302,140.393c0.101,0.208,0.014,0.46-0.195,0.562
	c-0.059,0.028-0.122,0.042-0.183,0.042c-0.156,0-0.306-0.087-0.378-0.237c-0.679-1.402-1.026-2.91-1.03-4.481
	c0-0.231,0.187-0.42,0.419-0.421c0,0,0,0,0.001,0c0.231,0,0.419,0.188,0.42,0.42C-20.245,137.719-19.927,139.104-19.302,140.393z
	 M-20.075,131.791c0.666-1.389,1.655-2.635,2.859-3.602c0.182-0.144,0.445-0.116,0.591,0.064c0.146,0.182,0.116,0.446-0.065,0.591
	c-1.107,0.889-2.017,2.033-2.628,3.31c-0.072,0.15-0.222,0.238-0.379,0.238c-0.061,0-0.123-0.013-0.181-0.041
	C-20.087,132.251-20.176,132-20.075,131.791z M-4.852,128.81c-0.182-0.145-0.213-0.408-0.068-0.589
	c0.144-0.182,0.409-0.214,0.59-0.069c1.21,0.96,2.207,2.199,2.881,3.583c0.102,0.21,0.015,0.46-0.193,0.562
	c-0.06,0.03-0.122,0.043-0.184,0.043c-0.156,0-0.306-0.086-0.378-0.235C-2.824,130.831-3.74,129.692-4.852,128.81z M-13.394,126.686
	c-0.052-0.226,0.089-0.452,0.315-0.504c1.499-0.345,3.099-0.35,4.598-0.013c0.227,0.051,0.369,0.275,0.318,0.501
	c-0.05,0.227-0.274,0.371-0.502,0.318c-1.378-0.311-2.85-0.305-4.226,0.013c-0.032,0.007-0.063,0.011-0.095,0.011
	C-13.176,127.012-13.349,126.88-13.394,126.686z M-0.411,136.217v0.04c0,1.57-0.343,3.079-1.021,4.484
	c-0.072,0.149-0.222,0.237-0.378,0.237c-0.061,0-0.123-0.013-0.182-0.043c-0.209-0.1-0.296-0.351-0.196-0.561
	c0.622-1.289,0.937-2.674,0.937-4.118c0-0.232,0.188-0.439,0.42-0.439C-0.599,135.817-0.411,135.984-0.411,136.217z
	 M-12.536,146.023c-0.044,0.195-0.217,0.327-0.41,0.327c-0.03,0-0.062-0.003-0.093-0.01c-1.501-0.341-2.935-1.028-4.145-1.992
	c-0.181-0.145-0.211-0.408-0.067-0.591c0.144-0.181,0.408-0.21,0.59-0.065c1.111,0.885,2.428,1.517,3.807,1.829
	C-12.627,145.572-12.485,145.798-12.536,146.023z M-4.233,143.746c0.145,0.182,0.115,0.446-0.066,0.59
	c-1.208,0.966-2.64,1.657-4.141,1.999c-0.032,0.008-0.063,0.012-0.094,0.012c-0.191,0-0.364-0.132-0.409-0.327
	c-0.052-0.226,0.09-0.451,0.315-0.502c1.379-0.315,2.694-0.951,3.804-1.838C-4.642,143.535-4.378,143.565-4.233,143.746z
	 M-10.632,135.49h-0.869v-1.931h0.869c0.506,0,0.859,0.031,1.056,0.094c0.196,0.063,0.347,0.169,0.452,0.316
	c0.104,0.147,0.156,0.324,0.156,0.532c0,0.201-0.055,0.379-0.165,0.531c-0.11,0.152-0.273,0.268-0.491,0.344
	C-9.843,135.452-10.179,135.49-10.632,135.49z M-8.98,137.147c0.109,0.163,0.164,0.36,0.164,0.596c0,0.277-0.078,0.513-0.231,0.709
	c-0.155,0.198-0.343,0.328-0.564,0.389c-0.222,0.063-0.5,0.096-0.835,0.096h-0.578c-0.192,0-0.31-0.012-0.354-0.033
	c-0.043-0.02-0.075-0.057-0.093-0.11c-0.016-0.04-0.024-0.183-0.028-0.426v-1.714h1.025c0.449,0,0.784,0.043,1.003,0.126
	C-9.254,136.861-9.09,136.985-8.98,137.147z M-10.75,128.213c-4.442,0-8.043,3.601-8.043,8.044c0,4.441,3.601,8.043,8.043,8.043
	s8.044-3.602,8.044-8.043C-2.706,131.813-6.308,128.213-10.75,128.213z M-7.142,139.113c-0.253,0.354-0.611,0.625-1.074,0.81
	c-0.168,0.068-0.366,0.123-0.592,0.166v1.416h-1.341V140.2c-0.033,0-0.065,0.002-0.099,0.002h-0.763v1.303h-1.34v-1.303h-2.046
	v-1.097h0.312c0.208,0,0.349-0.018,0.423-0.054c0.074-0.035,0.126-0.087,0.156-0.153s0.045-0.214,0.045-0.446v-4.415
	c0-0.234-0.015-0.385-0.045-0.449c-0.03-0.063-0.082-0.115-0.156-0.153c-0.074-0.037-0.214-0.057-0.423-0.057h-0.312v-1.096h2.046
	v-1.303h1.34v1.303h0.862v-1.303h1.341v1.397c0.197,0.037,0.378,0.085,0.532,0.147c0.393,0.16,0.695,0.392,0.908,0.691
	c0.211,0.302,0.316,0.632,0.316,0.991c0,0.262-0.056,0.51-0.168,0.744c-0.112,0.234-0.273,0.441-0.484,0.621
	c-0.21,0.181-0.489,0.328-0.833,0.446c0.37,0.094,0.654,0.197,0.851,0.312c0.283,0.159,0.508,0.382,0.675,0.668
	c0.166,0.285,0.25,0.604,0.25,0.956C-6.761,138.374-6.888,138.762-7.142,139.113z M4.955,119.944c0.391,0.391,0.391,1.023,0,1.414
	c-0.195,0.195-0.451,0.293-0.707,0.293s-0.512-0.098-0.707-0.293l-2.167-2.168l-2.167,2.168c-0.195,0.195-0.451,0.293-0.707,0.293
	s-0.512-0.098-0.707-0.293c-0.391-0.391-0.391-1.023,0-1.414l2.167-2.168l-2.167-2.168c-0.391-0.391-0.391-1.023,0-1.414
	s1.023-0.391,1.414,0l2.167,2.168l2.167-2.168c0.391-0.391,1.023-0.391,1.414,0s0.391,1.023,0,1.414l-2.167,2.168L4.955,119.944z
	 M1.373,110.401c-4.066,0-7.375,3.309-7.375,7.375s3.309,7.375,7.375,7.375s7.375-3.309,7.375-7.375S5.439,110.401,1.373,110.401z
	 M1.373,123.151c-2.964,0-5.375-2.411-5.375-5.375s2.411-5.375,5.375-5.375s5.375,2.411,5.375,5.375S4.337,123.151,1.373,123.151z"
	/>
</svg>
