<?xml version="1.0" encoding="utf-8"?>
<!-- Generator: Adobe Illustrator 16.0.0, SVG Export Plug-In . SVG Version: 6.00 Build 0)  -->
<!DOCTYPE svg PUBLIC "-//W3C//DTD SVG 1.1//EN" "http://www.w3.org/Graphics/SVG/1.1/DTD/svg11.dtd">
<svg version="1.1" id="Layer_1" xmlns="http://www.w3.org/2000/svg" xmlns:xlink="http://www.w3.org/1999/xlink" x="0px" y="0px"
	 width="50px" height="50px" viewBox="34.5 104.5 50 50" enable-background="new 34.5 104.5 50 50" xml:space="preserve">
<path d="M71.24,136.264c0-5.063-3.121-9.405-7.537-11.218v-3.285c0-0.6-0.487-1.086-1.086-1.086H41.201
	c-0.6,0-1.085,0.486-1.085,1.086v3.795c0,0.598,0.485,1.083,1.085,1.083H51.77c-0.536,0.411-1.037,0.864-1.498,1.356h-9.07
	c-0.6,0-1.085,0.485-1.085,1.083v3.796c0,0.6,0.485,1.085,1.085,1.085h6.016c-0.086,0.443-0.143,0.896-0.178,1.355h-5.838
	c-0.6,0-1.085,0.486-1.085,1.085v3.796c0,0.598,0.485,1.083,1.085,1.083h6.889c0.215,0.47,0.459,0.921,0.729,1.356h-7.617
	c-0.6,0-1.085,0.485-1.085,1.085v3.795c0,0.599,0.485,1.084,1.085,1.084h21.416c0.599,0,1.086-0.485,1.086-1.084v-0.034
	C68.119,145.667,71.24,141.325,71.24,136.264z M59.115,147.5c-6.195,0-11.236-5.04-11.236-11.236s5.041-11.237,11.236-11.237
	s11.236,5.041,11.236,11.237S65.311,147.5,59.115,147.5z M50.563,140.393c0.101,0.208,0.014,0.46-0.195,0.562
	c-0.059,0.028-0.121,0.042-0.183,0.042c-0.155,0-0.306-0.087-0.378-0.237c-0.68-1.402-1.026-2.91-1.03-4.481
	c0-0.231,0.187-0.42,0.419-0.421c0.001,0,0.001,0,0.002,0c0.23,0,0.419,0.188,0.42,0.42
	C49.619,137.719,49.938,139.104,50.563,140.393z M49.789,131.791c0.666-1.389,1.654-2.635,2.859-3.602
	c0.182-0.144,0.445-0.116,0.591,0.064c0.146,0.182,0.116,0.446-0.065,0.591c-1.107,0.889-2.016,2.033-2.628,3.31
	c-0.071,0.15-0.222,0.238-0.379,0.238c-0.061,0-0.122-0.013-0.181-0.041C49.777,132.251,49.688,132,49.789,131.791z M65.012,128.81
	c-0.182-0.145-0.213-0.408-0.068-0.589c0.145-0.182,0.409-0.214,0.59-0.069c1.211,0.96,2.207,2.199,2.882,3.583
	c0.102,0.21,0.015,0.46-0.193,0.562c-0.06,0.03-0.122,0.043-0.184,0.043c-0.155,0-0.306-0.086-0.378-0.235
	C67.04,130.831,66.124,129.692,65.012,128.81z M56.471,126.686c-0.053-0.226,0.089-0.452,0.314-0.504
	c1.5-0.345,3.1-0.35,4.599-0.013c0.227,0.051,0.368,0.275,0.317,0.501c-0.05,0.227-0.273,0.371-0.502,0.318
	c-1.377-0.311-2.85-0.305-4.225,0.013c-0.033,0.007-0.064,0.011-0.096,0.011C56.688,127.012,56.516,126.88,56.471,126.686z
	 M69.453,136.217v0.04c0,1.57-0.344,3.079-1.021,4.484c-0.072,0.149-0.222,0.237-0.378,0.237c-0.062,0-0.123-0.013-0.183-0.043
	c-0.209-0.1-0.296-0.351-0.195-0.561c0.621-1.289,0.938-2.674,0.938-4.118c0-0.232,0.188-0.439,0.42-0.439
	S69.453,135.984,69.453,136.217z M57.328,146.023c-0.044,0.195-0.217,0.327-0.41,0.327c-0.029,0-0.061-0.003-0.092-0.01
	c-1.502-0.341-2.936-1.028-4.146-1.992c-0.181-0.145-0.212-0.408-0.067-0.591c0.145-0.181,0.408-0.21,0.591-0.065
	c1.111,0.885,2.428,1.517,3.808,1.829C57.237,145.572,57.379,145.798,57.328,146.023z M65.631,143.746
	c0.145,0.182,0.115,0.446-0.066,0.59c-1.207,0.966-2.64,1.657-4.141,1.999c-0.031,0.008-0.063,0.012-0.094,0.012
	c-0.191,0-0.365-0.132-0.409-0.327c-0.052-0.226,0.09-0.451,0.315-0.502c1.379-0.315,2.694-0.951,3.805-1.838
	C65.223,143.535,65.486,143.565,65.631,143.746z M59.232,135.49h-0.869v-1.931h0.869c0.506,0,0.858,0.031,1.055,0.094
	s0.348,0.169,0.452,0.316c0.104,0.147,0.155,0.324,0.155,0.532c0,0.201-0.055,0.379-0.164,0.531
	c-0.11,0.152-0.273,0.268-0.491,0.344C60.021,135.452,59.686,135.49,59.232,135.49z M60.884,137.147
	c0.109,0.163,0.164,0.36,0.164,0.596c0,0.277-0.077,0.513-0.231,0.709c-0.155,0.198-0.343,0.328-0.564,0.389
	c-0.221,0.063-0.499,0.096-0.835,0.096h-0.578c-0.192,0-0.31-0.012-0.354-0.033c-0.043-0.02-0.074-0.057-0.093-0.11
	c-0.016-0.04-0.024-0.183-0.028-0.426v-1.714h1.025c0.449,0,0.783,0.043,1.003,0.126C60.609,136.861,60.774,136.985,60.884,137.147z
	 M59.115,128.213c-4.442,0-8.043,3.601-8.043,8.044c0,4.441,3.601,8.043,8.043,8.043c4.441,0,8.043-3.602,8.043-8.043
	C67.158,131.813,63.557,128.213,59.115,128.213z M62.723,139.113c-0.253,0.354-0.611,0.625-1.074,0.81
	c-0.168,0.068-0.365,0.123-0.592,0.166v1.416h-1.34V140.2c-0.033,0-0.065,0.002-0.1,0.002h-0.763v1.303h-1.341v-1.303h-2.045v-1.097
	h0.312c0.208,0,0.349-0.018,0.423-0.054c0.074-0.035,0.126-0.087,0.156-0.153s0.045-0.214,0.045-0.446v-4.415
	c0-0.234-0.015-0.385-0.045-0.449c-0.03-0.063-0.082-0.115-0.156-0.153c-0.074-0.037-0.215-0.057-0.423-0.057h-0.312v-1.096h2.045
	v-1.303h1.341v1.303h0.862v-1.303h1.34v1.397c0.197,0.037,0.379,0.085,0.532,0.147c0.393,0.16,0.694,0.392,0.907,0.691
	c0.211,0.302,0.316,0.632,0.316,0.991c0,0.262-0.055,0.51-0.168,0.744c-0.111,0.234-0.272,0.441-0.483,0.621
	c-0.21,0.181-0.489,0.328-0.833,0.446c0.369,0.094,0.653,0.197,0.85,0.312c0.283,0.159,0.509,0.382,0.676,0.668
	c0.166,0.285,0.25,0.604,0.25,0.956C63.104,138.374,62.977,138.762,62.723,139.113z M75.39,116.277l-3.233,5.007
	c-0.147,0.229-0.382,0.387-0.649,0.438c-0.063,0.013-0.127,0.019-0.19,0.019c-0.205,0-0.407-0.063-0.577-0.183l-2.833-2
	c-0.451-0.319-0.559-0.943-0.24-1.395c0.318-0.45,0.94-0.558,1.395-0.24l1.981,1.399l2.668-4.132c0.3-0.463,0.917-0.598,1.383-0.297
	C75.557,115.194,75.689,115.813,75.39,116.277z M71.509,110.401c-4.066,0-7.375,3.309-7.375,7.375s3.309,7.375,7.375,7.375
	s7.375-3.309,7.375-7.375S75.575,110.401,71.509,110.401z M71.509,123.151c-2.964,0-5.375-2.411-5.375-5.375
	s2.411-5.375,5.375-5.375s5.375,2.411,5.375,5.375S74.473,123.151,71.509,123.151z"/>
</svg>
