<?xml version="1.0" encoding="utf-8"?>
<!-- Generator: Adobe Illustrator 16.0.0, SVG Export Plug-In . SVG Version: 6.00 Build 0)  -->
<!DOCTYPE svg PUBLIC "-//W3C//DTD SVG 1.1//EN" "http://www.w3.org/Graphics/SVG/1.1/DTD/svg11.dtd">
<svg version="1.1" id="Layer_1" xmlns="http://www.w3.org/2000/svg" xmlns:xlink="http://www.w3.org/1999/xlink" x="0px" y="0px"
	 width="50px" height="50px" viewBox="104.5 104.5 50 50" enable-background="new 104.5 104.5 50 50" xml:space="preserve">
<path d="M128.205,128.1c-0.035-0.022-0.056-0.061-0.063-0.11c-0.006-0.036,0.01-0.166,0.045-0.377l0.279-1.503l0.903,0.166
	c0.394,0.076,0.681,0.164,0.856,0.274c0.18,0.107,0.302,0.248,0.374,0.405c0.067,0.161,0.082,0.343,0.044,0.549
	c-0.044,0.243-0.151,0.437-0.318,0.583c-0.169,0.147-0.354,0.23-0.56,0.249c-0.204,0.018-0.453,0-0.748-0.054l-0.506-0.098
	C128.343,128.155,128.242,128.126,128.205,128.1z M130.326,125.296c0.202-0.032,0.363-0.104,0.486-0.221
	c0.119-0.116,0.198-0.264,0.229-0.438c0.035-0.185,0.019-0.347-0.048-0.496c-0.067-0.144-0.182-0.258-0.346-0.348
	c-0.161-0.087-0.464-0.172-0.909-0.256l-0.761-0.142l-0.317,1.692l0.762,0.144C129.821,125.305,130.123,125.327,130.326,125.296z
	 M147.699,144.395c0,0.021-0.011,0.038-0.012,0.059c-0.004,0.066-0.021,0.13-0.04,0.196c-0.018,0.065-0.033,0.129-0.063,0.188
	c-0.01,0.019-0.009,0.038-0.02,0.057c-0.042,0.072-0.093,0.134-0.148,0.191c-0.005,0.006-0.009,0.013-0.014,0.019
	c-0.082,0.081-0.178,0.14-0.279,0.188c-0.027,0.013-0.054,0.022-0.081,0.033c-0.11,0.041-0.225,0.068-0.342,0.069
	c-0.001,0-0.001,0-0.002,0h-34.398c-0.349,0-0.64-0.188-0.819-0.459c-0.031-0.039-0.066-0.075-0.093-0.121
	c-0.141-0.246-0.162-0.525-0.088-0.777v-19.502c0-0.026,0.008-0.052,0.011-0.078c0.002-0.03,0.007-0.06,0.012-0.091
	c0.021-0.116,0.053-0.229,0.111-0.33v-0.001l0,0c0.059-0.102,0.141-0.188,0.232-0.264c0.023-0.019,0.046-0.037,0.07-0.054
	c0.022-0.016,0.04-0.035,0.063-0.049l17.199-9.93c0.309-0.178,0.691-0.178,1,0l17.199,9.93c0.172,0.099,0.302,0.247,0.388,0.419
	c0.007,0.011,0.019,0.017,0.024,0.027c0.027,0.049,0.031,0.102,0.051,0.152c0.001,0.003,0.002,0.006,0.003,0.01
	c0.073,0.203,0.093,0.416,0.034,0.615V144.395z M113.301,142.57l14.191-8.109l-14.191-8.193V142.57z M127.181,123.492l-0.725,3.873
	c-0.038,0.203-0.072,0.329-0.112,0.382s-0.092,0.089-0.162,0.109c-0.07,0.02-0.195,0.012-0.379-0.023l-0.276-0.049l-0.18,0.959
	l1.795,0.335l-0.212,1.145l1.175,0.22l0.213-1.142l0.668,0.123c0.031,0.008,0.06,0.009,0.089,0.016l-0.213,1.146l1.176,0.218
	l0.23-1.239c0.205-0.003,0.387-0.019,0.546-0.048c0.438-0.087,0.796-0.268,1.076-0.536c0.279-0.267,0.455-0.584,0.523-0.955
	c0.058-0.307,0.037-0.602-0.062-0.877c-0.1-0.279-0.263-0.511-0.484-0.698c-0.153-0.131-0.386-0.27-0.694-0.41
	c0.323-0.05,0.59-0.132,0.803-0.255c0.217-0.124,0.393-0.281,0.528-0.467c0.135-0.189,0.227-0.397,0.27-0.626
	c0.059-0.312,0.02-0.62-0.115-0.919c-0.138-0.299-0.365-0.55-0.684-0.755c-0.12-0.082-0.274-0.153-0.442-0.219l0.23-1.225
	l-1.174-0.22l-0.216,1.143l-0.755-0.143l0.215-1.143l-1.178-0.221l-0.216,1.146l-1.794-0.339l-0.179,0.959l0.274,0.056
	c0.183,0.03,0.305,0.07,0.361,0.117c0.059,0.045,0.097,0.098,0.109,0.16C127.23,123.152,127.221,123.285,127.181,123.492z
	 M115.889,143.395h27.078l-13.47-7.776L115.889,143.395z M145.699,142.662v-16.303l-14.191,8.109L145.699,142.662z M114.301,124.535
	l7.586,4.379c-0.377-0.932-0.59-1.948-0.59-3.016c0-4.445,3.604-8.049,8.049-8.049c4.445,0,8.05,3.604,8.05,8.049
	c0,1.183-0.262,2.303-0.72,3.314l8.104-4.631l-15.28-8.822L114.301,124.535z"/>
</svg>
