<?xml version="1.0" encoding="utf-8"?>
<!-- Generator: Adobe Illustrator 16.0.0, SVG Export Plug-In . SVG Version: 6.00 Build 0)  -->
<!DOCTYPE svg PUBLIC "-//W3C//DTD SVG 1.1//EN" "http://www.w3.org/Graphics/SVG/1.1/DTD/svg11.dtd">
<svg version="1.1" id="Layer_1" xmlns="http://www.w3.org/2000/svg" xmlns:xlink="http://www.w3.org/1999/xlink" x="0px" y="0px"
	 width="50px" height="50px" viewBox="174.5 104.5 50 50" enable-background="new 174.5 104.5 50 50" xml:space="preserve">
<path d="M201.758,129.715h1.689v-1.645h0.961c0.044,0,0.086,0,0.127,0v1.645h1.688v-1.784c0.285-0.054,0.534-0.125,0.746-0.21
	c0.584-0.232,1.036-0.572,1.354-1.018c0.321-0.449,0.479-0.937,0.479-1.466c0-0.443-0.105-0.845-0.315-1.206
	c-0.208-0.358-0.491-0.64-0.851-0.839c-0.247-0.143-0.606-0.274-1.074-0.395c0.436-0.147,0.788-0.334,1.053-0.561
	c0.268-0.229,0.47-0.491,0.608-0.785c0.144-0.296,0.217-0.608,0.217-0.938c0-0.453-0.134-0.87-0.401-1.25
	c-0.27-0.38-0.649-0.67-1.146-0.872c-0.191-0.077-0.419-0.138-0.67-0.187v-1.761h-1.688v1.645h-1.088v-1.645h-1.689v1.645h-2.579
	v1.378h0.391c0.263,0,0.443,0.024,0.534,0.073c0.092,0.047,0.159,0.113,0.198,0.195c0.039,0.079,0.058,0.269,0.058,0.565v5.567
	c0,0.291-0.019,0.477-0.058,0.561c-0.039,0.083-0.106,0.147-0.198,0.195c-0.091,0.044-0.271,0.066-0.534,0.066h-0.391v1.379h2.579
	V129.715z M202.829,119.696h1.094c0.639,0,1.084,0.041,1.332,0.12c0.247,0.078,0.438,0.211,0.567,0.396
	c0.132,0.188,0.196,0.414,0.196,0.676c0,0.251-0.069,0.474-0.207,0.667c-0.139,0.194-0.344,0.339-0.618,0.432
	c-0.274,0.098-0.698,0.146-1.271,0.146h-1.094V119.696z M202.829,123.599h1.29c0.57,0,0.988,0.053,1.266,0.157
	c0.274,0.106,0.485,0.26,0.62,0.467c0.14,0.204,0.211,0.452,0.211,0.751c0,0.348-0.1,0.645-0.296,0.896
	c-0.196,0.247-0.432,0.411-0.712,0.489c-0.277,0.078-0.628,0.119-1.052,0.119h-0.729c-0.242,0-0.392-0.015-0.447-0.041
	c-0.057-0.024-0.094-0.071-0.118-0.138c-0.018-0.054-0.03-0.231-0.033-0.539V123.599z M218.625,124.861
	c0,1.796-1.457,3.252-3.253,3.252c-0.601,0-1.157-0.174-1.64-0.459l-7.768,7.769c0.052,0.23,0.084,0.469,0.084,0.715
	c0,1.796-1.457,3.252-3.253,3.252s-3.252-1.456-3.252-3.252c0-0.279,0.046-0.546,0.112-0.805l-3.621-3.195
	c-0.586,0.567-1.381,0.92-2.26,0.92c-0.592,0-1.139-0.17-1.616-0.446l-5.492,5.563c0.131,0.353,0.213,0.729,0.213,1.128
	c0,1.796-1.456,3.252-3.252,3.252s-3.253-1.456-3.253-3.252s1.457-3.253,3.253-3.253c0.663,0,1.278,0.201,1.792,0.542l5.392-5.462
	c-0.182-0.405-0.288-0.853-0.288-1.325c0-1.796,1.456-3.252,3.252-3.252s3.253,1.456,3.253,3.252c0,0.17-0.024,0.334-0.05,0.497
	l3.77,3.328c0.561-0.459,1.268-0.745,2.048-0.745c0.803,0,1.527,0.302,2.095,0.783l7.505-7.505
	c-0.175-0.398-0.275-0.838-0.275-1.302c0-1.796,1.456-3.253,3.252-3.253S218.625,123.065,218.625,124.861z"/>
</svg>
