<?xml version="1.0" encoding="utf-8"?>
<!-- Generator: Adobe Illustrator 16.0.0, SVG Export Plug-In . SVG Version: 6.00 Build 0)  -->
<!DOCTYPE svg PUBLIC "-//W3C//DTD SVG 1.1//EN" "http://www.w3.org/Graphics/SVG/1.1/DTD/svg11.dtd">
<svg version="1.1" id="Layer_1" xmlns="http://www.w3.org/2000/svg" xmlns:xlink="http://www.w3.org/1999/xlink" x="0px" y="0px"
	 width="50px" height="50px" viewBox="244.5 104.5 50 50" enable-background="new 244.5 104.5 50 50" xml:space="preserve">
<path d="M269.378,118.123l-0.671-0.128l0.28-1.49l0.67,0.124c0.392,0.074,0.658,0.15,0.801,0.226
	c0.146,0.079,0.245,0.181,0.306,0.307c0.059,0.133,0.072,0.274,0.041,0.437c-0.027,0.155-0.097,0.284-0.201,0.388
	c-0.108,0.101-0.252,0.165-0.429,0.194C269.996,118.207,269.729,118.187,269.378,118.123z M268.576,120.725l0.446,0.086
	c0.259,0.047,0.479,0.063,0.658,0.047c0.181-0.016,0.345-0.09,0.494-0.219c0.146-0.129,0.24-0.3,0.28-0.515
	c0.032-0.181,0.021-0.341-0.04-0.483c-0.063-0.138-0.17-0.262-0.328-0.356c-0.155-0.098-0.408-0.176-0.755-0.243l-0.796-0.146
	l-0.246,1.324c-0.03,0.187-0.044,0.301-0.039,0.333c0.005,0.043,0.024,0.077,0.055,0.097
	C268.338,120.673,268.426,120.699,268.576,120.725z M282.368,124.944v19.141c0,1.818-1.479,3.297-3.297,3.297h-19.143
	c-1.818,0-3.297-1.479-3.297-3.297v-19.141c0-0.553,0.447-1,1-1h2.607c0.874-0.719,1.912-1.244,3.063-1.479
	c-0.683-1.09-1.083-2.374-1.083-3.755c0-3.917,3.176-7.092,7.092-7.092s7.092,3.175,7.092,7.092c0,1.358-0.389,2.624-1.051,3.702
	c1.285,0.197,2.451,0.743,3.411,1.532h2.605C281.921,123.944,282.368,124.392,282.368,124.944z M265.787,121.217l1.581,0.294
	l-0.187,1.009l1.035,0.194l0.188-1.007l0.589,0.108c0.026,0.007,0.053,0.009,0.078,0.014l-0.188,1.01l1.036,0.191l0.203-1.091
	c0.181-0.003,0.34-0.018,0.48-0.043c0.385-0.076,0.702-0.236,0.947-0.472c0.246-0.235,0.401-0.515,0.462-0.842
	c0.051-0.27,0.032-0.529-0.054-0.771c-0.088-0.247-0.232-0.451-0.427-0.616c-0.136-0.115-0.341-0.237-0.613-0.362
	c0.286-0.043,0.521-0.115,0.708-0.224c0.19-0.11,0.346-0.247,0.466-0.411c0.119-0.166,0.2-0.351,0.237-0.552
	c0.053-0.274,0.019-0.546-0.102-0.809c-0.121-0.264-0.32-0.485-0.602-0.667c-0.107-0.072-0.242-0.134-0.391-0.192l0.203-1.079
	l-1.034-0.192l-0.189,1.007l-0.666-0.126l0.189-1.007l-1.037-0.194l-0.189,1.011l-1.582-0.3l-0.156,0.845l0.24,0.05
	c0.162,0.026,0.269,0.062,0.319,0.104c0.051,0.04,0.086,0.086,0.096,0.142c0.017,0.053,0.009,0.17-0.027,0.353l-0.639,3.412
	c-0.032,0.179-0.063,0.29-0.098,0.337c-0.036,0.047-0.081,0.078-0.143,0.097c-0.063,0.017-0.173,0.011-0.334-0.021l-0.245-0.043
	L265.787,121.217z M280.368,125.944h-21.736v18.141c0,0.715,0.582,1.297,1.297,1.297h19.143c0.715,0,1.297-0.582,1.297-1.297
	V125.944z M277.545,127.542h1v1c0,0.276,0.224,0.5,0.5,0.5s0.5-0.224,0.5-0.5v-1.5c0-0.276-0.224-0.5-0.5-0.5h-1.5
	c-0.276,0-0.5,0.224-0.5,0.5S277.269,127.542,277.545,127.542z M279.045,136.686c-0.276,0-0.5,0.224-0.5,0.5v2.881
	c0,0.276,0.224,0.5,0.5,0.5s0.5-0.224,0.5-0.5v-2.881C279.545,136.909,279.321,136.686,279.045,136.686z M279.045,130.923
	c-0.276,0-0.5,0.224-0.5,0.5v2.881c0,0.276,0.224,0.5,0.5,0.5s0.5-0.224,0.5-0.5v-2.881
	C279.545,131.146,279.321,130.923,279.045,130.923z M268.065,143.784h-2.881c-0.276,0-0.5,0.224-0.5,0.5s0.224,0.5,0.5,0.5h2.881
	c0.276,0,0.5-0.224,0.5-0.5S268.342,143.784,268.065,143.784z M273.828,143.784h-2.882c-0.276,0-0.5,0.224-0.5,0.5
	s0.224,0.5,0.5,0.5h2.882c0.276,0,0.5-0.224,0.5-0.5S274.104,143.784,273.828,143.784z M259.955,140.578c0.276,0,0.5-0.224,0.5-0.5
	v-2.882c0-0.276-0.224-0.5-0.5-0.5s-0.5,0.224-0.5,0.5v2.882C259.455,140.354,259.679,140.578,259.955,140.578z M260.509,142.813
	c-0.077-0.267-0.357-0.422-0.619-0.342c-0.266,0.077-0.418,0.354-0.342,0.619c0.289,0.997,1.217,1.693,2.256,1.693h0.499
	c0.276,0,0.5-0.224,0.5-0.5s-0.224-0.5-0.5-0.5h-0.499C261.207,143.784,260.674,143.385,260.509,142.813z M276.709,144.784h0.489
	c1.044,0,1.973-0.701,2.258-1.706c0.075-0.266-0.079-0.542-0.345-0.618c-0.27-0.075-0.543,0.079-0.618,0.345
	c-0.163,0.577-0.696,0.979-1.295,0.979h-0.489c-0.276,0-0.5,0.224-0.5,0.5S276.433,144.784,276.709,144.784z M259.955,134.815
	c0.276,0,0.5-0.224,0.5-0.5v-2.881c0-0.276-0.224-0.5-0.5-0.5s-0.5,0.224-0.5,0.5v2.881
	C259.455,134.592,259.679,134.815,259.955,134.815z M259.955,129.042c0.276,0,0.5-0.224,0.5-0.5v-1h1c0.276,0,0.5-0.224,0.5-0.5
	s-0.224-0.5-0.5-0.5h-1.5c-0.276,0-0.5,0.224-0.5,0.5v1.5C259.455,128.818,259.679,129.042,259.955,129.042z M271.108,127.542h3.219
	c0.276,0,0.5-0.224,0.5-0.5s-0.224-0.5-0.5-0.5h-3.219c-0.276,0-0.5,0.224-0.5,0.5S270.832,127.542,271.108,127.542z
	 M264.673,127.542h3.218c0.276,0,0.5-0.224,0.5-0.5s-0.224-0.5-0.5-0.5h-3.218c-0.276,0-0.5,0.224-0.5,0.5
	S264.396,127.542,264.673,127.542z M267.443,132.726c0,1.136,0.92,2.057,2.057,2.057s2.057-0.921,2.057-2.057
	c0-1.134-0.92-2.055-2.057-2.055S267.443,131.592,267.443,132.726z"/>
</svg>
