<?xml version="1.0" encoding="utf-8"?>
<!-- Generator: Adobe Illustrator 16.0.0, SVG Export Plug-In . SVG Version: 6.00 Build 0)  -->
<!DOCTYPE svg PUBLIC "-//W3C//DTD SVG 1.1//EN" "http://www.w3.org/Graphics/SVG/1.1/DTD/svg11.dtd">
<svg version="1.1" id="Layer_1" xmlns="http://www.w3.org/2000/svg" xmlns:xlink="http://www.w3.org/1999/xlink" x="0px" y="0px"
	 width="50px" height="50px" viewBox="314.5 104.5 50 50" enable-background="new 314.5 104.5 50 50" xml:space="preserve">
<path d="M341.187,129.778l2.219,2.218l-2.219,2.219v-1.126h-5.592v-2.183h5.592V129.778z M337.813,125.981l-2.219,2.219l2.219,2.218
	v-1.127h5.592v-2.182h-5.592V125.981z M328.524,129.544c-0.144-0.091-0.378-0.163-0.698-0.226l-0.738-0.135l-0.228,1.228
	c-0.027,0.173-0.04,0.279-0.037,0.309c0.005,0.04,0.024,0.071,0.051,0.089c0.03,0.022,0.112,0.047,0.252,0.07l0.413,0.08
	c0.239,0.043,0.444,0.058,0.609,0.043c0.169-0.015,0.32-0.083,0.457-0.202c0.136-0.12,0.224-0.278,0.262-0.478
	c0.028-0.168,0.018-0.316-0.038-0.447C328.771,129.747,328.671,129.631,328.524,129.544z M328.868,127.292
	c-0.132-0.069-0.377-0.14-0.742-0.209l-0.62-0.115l-0.259,1.381l0.62,0.119c0.326,0.06,0.574,0.078,0.738,0.053
	c0.166-0.027,0.297-0.087,0.398-0.18c0.096-0.096,0.161-0.216,0.187-0.359c0.029-0.15,0.017-0.282-0.038-0.404
	C329.097,127.46,329.004,127.365,328.868,127.292z M334.378,129.012c0,3.63-2.942,6.571-6.571,6.571s-6.572-2.941-6.572-6.571
	c0-3.629,2.943-6.571,6.572-6.571S334.378,125.383,334.378,129.012z M330.511,127.276c-0.113-0.244-0.298-0.449-0.558-0.617
	c-0.1-0.067-0.225-0.124-0.362-0.179l0.188-1l-0.96-0.178l-0.175,0.933l-0.617-0.116l0.175-0.934l-0.961-0.181l-0.176,0.937
	l-1.466-0.276l-0.145,0.782l0.223,0.046c0.15,0.025,0.25,0.058,0.298,0.096c0.046,0.038,0.079,0.08,0.088,0.132
	c0.014,0.048,0.007,0.156-0.025,0.326l-0.592,3.162c-0.03,0.166-0.06,0.27-0.091,0.313c-0.034,0.043-0.075,0.072-0.133,0.09
	c-0.057,0.015-0.16,0.009-0.309-0.02l-0.229-0.04l-0.145,0.783l1.465,0.272l-0.172,0.935l0.959,0.18l0.174-0.933l0.544,0.101
	c0.025,0.007,0.049,0.008,0.073,0.013l-0.174,0.936l0.961,0.177l0.188-1.01c0.166-0.003,0.314-0.017,0.444-0.04
	c0.357-0.07,0.65-0.22,0.879-0.438c0.228-0.218,0.371-0.478,0.427-0.779c0.047-0.251,0.03-0.491-0.049-0.716
	c-0.082-0.229-0.216-0.418-0.397-0.57c-0.124-0.106-0.314-0.221-0.567-0.336c0.266-0.04,0.483-0.106,0.657-0.207
	c0.175-0.104,0.32-0.229,0.43-0.381c0.111-0.154,0.187-0.325,0.222-0.512C330.652,127.771,330.621,127.52,330.511,127.276z
	 M357.766,129.012c0,3.63-2.943,6.571-6.571,6.571c-3.63,0-6.572-2.941-6.572-6.571c0-3.629,2.942-6.571,6.572-6.571
	C354.822,122.44,357.766,125.383,357.766,129.012z M353.642,130.467c0-1.001-0.534-1.612-1.857-2.079
	c-0.945-0.354-1.334-0.589-1.334-0.955c0-0.311,0.232-0.623,0.955-0.623c0.802,0,1.312,0.256,1.602,0.379l0.322-1.256
	c-0.367-0.179-0.867-0.333-1.612-0.367v-0.979h-1.088v1.057c-1.189,0.233-1.878,1-1.878,1.979c0,1.078,0.81,1.633,1.999,2.033
	c0.824,0.277,1.178,0.545,1.178,0.967c0,0.445-0.432,0.689-1.064,0.689c-0.725,0-1.38-0.233-1.847-0.489l-0.333,1.301
	c0.421,0.244,1.144,0.444,1.89,0.478v1.055h1.09v-1.132C352.94,132.301,353.642,131.456,353.642,130.467z"/>
</svg>
