<?xml version="1.0" encoding="utf-8"?>
<!-- Generator: Adobe Illustrator 16.0.0, SVG Export Plug-In . SVG Version: 6.00 Build 0)  -->
<!DOCTYPE svg PUBLIC "-//W3C//DTD SVG 1.1//EN" "http://www.w3.org/Graphics/SVG/1.1/DTD/svg11.dtd">
<svg version="1.1" id="Layer_1" xmlns="http://www.w3.org/2000/svg" xmlns:xlink="http://www.w3.org/1999/xlink" x="0px" y="0px"
	 width="50px" height="50px" viewBox="-315.5 174.5 50 50" enable-background="new -315.5 174.5 50 50" xml:space="preserve">
<path d="M-273.929,195.25c-0.012,0-0.023,0.003-0.034,0.003c-0.035-0.001-0.069-0.003-0.104-0.003H-273.929z M-273.982,200.57
	c-0.006,0-0.012-0.001-0.018-0.001c-0.004,0-0.009,0.001-0.013,0.001H-273.982z M-275.926,198.612
	c0.004-0.001,0.008-0.006,0.013-0.007c0.308,1.113,1.104,1.946,1.913,1.964c0.737-0.033,1.642-0.853,1.943-1.959
	c0.139,0.008,0.277-0.155,0.316-0.383c0.04-0.237-0.043-0.449-0.188-0.474c-0.009-0.002-0.018,0.004-0.027,0.004
	c-0.042-1.831-0.911-2.478-2.007-2.505c-1.13,0.005-2.142,0.791-2.078,2.506c-0.011,0-0.021-0.007-0.031-0.005
	c-0.144,0.024-0.228,0.236-0.188,0.474C-276.22,198.464-276.071,198.637-275.926,198.612z M-272.478,200.887l-1.026,2.009
	l-0.163-1.307l0.254-0.208h-0.614h-0.562l0.254,0.208l-0.163,1.307l-1.025-2.009c-1.784,0.24-3.064,1.005-3.064,2.863h9.172
	C-269.414,201.892-270.694,201.127-272.478,200.887z M-307.067,195.25c0.035,0,0.069,0.002,0.104,0.003
	c0.011,0,0.022-0.003,0.034-0.003H-307.067z M-306.982,200.57c-0.006,0-0.012-0.001-0.018-0.001c-0.004,0-0.009,0.001-0.013,0.001
	H-306.982z M-308.926,198.612c0.004-0.001,0.008-0.006,0.013-0.007c0.308,1.113,1.104,1.946,1.913,1.964
	c0.737-0.033,1.642-0.853,1.943-1.959c0.139,0.008,0.277-0.155,0.316-0.383c0.04-0.237-0.043-0.449-0.188-0.474
	c-0.009-0.002-0.018,0.004-0.027,0.004c-0.042-1.831-0.911-2.478-2.007-2.505c-1.13,0.005-2.142,0.791-2.078,2.506
	c-0.011,0-0.021-0.007-0.031-0.005c-0.144,0.024-0.228,0.236-0.188,0.474C-309.22,198.464-309.071,198.637-308.926,198.612z
	 M-305.478,200.887l-1.026,2.009l-0.163-1.307l0.254-0.208h-0.614h-0.562l0.254,0.208l-0.163,1.307l-1.025-2.009
	c-1.784,0.24-3.064,1.005-3.064,2.863h9.172C-302.414,201.892-303.694,201.127-305.478,200.887z M-290.567,177.938
	c0.035,0,0.069,0.002,0.104,0.003c0.011,0,0.022-0.003,0.034-0.003H-290.567z M-290.482,183.258c-0.006,0-0.012-0.001-0.018-0.001
	c-0.004,0-0.009,0.001-0.013,0.001H-290.482z M-292.426,181.3c0.004-0.001,0.008-0.006,0.013-0.007
	c0.308,1.113,1.104,1.946,1.913,1.964c0.737-0.033,1.642-0.853,1.943-1.959c0.139,0.008,0.277-0.155,0.316-0.383
	c0.04-0.237-0.043-0.449-0.188-0.474c-0.009-0.002-0.018,0.004-0.027,0.004c-0.042-1.831-0.911-2.478-2.007-2.505
	c-1.13,0.005-2.142,0.791-2.078,2.506c-0.011,0-0.021-0.007-0.031-0.005c-0.144,0.024-0.228,0.236-0.188,0.474
	C-292.72,181.151-292.571,181.324-292.426,181.3z M-288.978,183.574l-1.026,2.009l-0.163-1.307l0.254-0.208h-0.614h-0.562
	l0.254,0.208l-0.163,1.307l-1.025-2.009c-1.784,0.24-3.064,1.005-3.064,2.863h9.172
	C-285.914,184.579-287.194,183.814-288.978,183.574z M-290.567,212.563c0.035,0,0.069,0.002,0.104,0.003
	c0.011,0,0.022-0.003,0.034-0.003H-290.567z M-290.482,217.883c-0.006,0-0.012-0.001-0.018-0.001c-0.004,0-0.009,0.001-0.013,0.001
	H-290.482z M-292.541,215.071c-0.011,0-0.021-0.007-0.031-0.005c-0.144,0.024-0.228,0.236-0.188,0.474
	c0.04,0.236,0.188,0.409,0.333,0.385c0.004-0.001,0.008-0.006,0.013-0.007c0.308,1.113,1.104,1.946,1.913,1.964
	c0.737-0.033,1.642-0.853,1.943-1.959c0.139,0.008,0.277-0.155,0.316-0.383c0.04-0.237-0.043-0.449-0.188-0.474
	c-0.009-0.002-0.018,0.004-0.027,0.004c-0.042-1.831-0.911-2.478-2.007-2.505C-291.593,212.57-292.604,213.356-292.541,215.071z
	 M-288.978,218.199l-1.026,2.009l-0.163-1.307l0.254-0.208h-0.614h-0.562l0.254,0.208l-0.163,1.307l-1.025-2.009
	c-1.784,0.24-3.064,1.005-3.064,2.863h9.172C-285.914,219.204-287.194,218.439-288.978,218.199z M-289.777,198.807
	c0.164-0.059,0.287-0.145,0.37-0.26s0.125-0.25,0.125-0.402c0-0.156-0.039-0.291-0.118-0.402c-0.078-0.111-0.192-0.191-0.342-0.238
	c-0.148-0.047-0.415-0.07-0.798-0.07h-0.657v1.459h0.657C-290.195,198.893-289.942,198.865-289.777,198.807z M-283.678,199.461
	c0,3.77-3.055,6.822-6.823,6.822c-3.768,0-6.821-3.053-6.821-6.822c0-3.768,3.054-6.822,6.821-6.822
	C-286.732,192.639-283.678,195.693-283.678,199.461z M-287.612,200.756c0-0.266-0.063-0.508-0.188-0.723
	c-0.126-0.217-0.297-0.385-0.511-0.504c-0.149-0.088-0.364-0.166-0.644-0.238c0.262-0.088,0.472-0.199,0.631-0.336
	s0.281-0.293,0.365-0.471c0.085-0.178,0.127-0.365,0.127-0.561c0-0.273-0.079-0.523-0.239-0.752c-0.16-0.225-0.39-0.4-0.687-0.521
	c-0.115-0.049-0.252-0.084-0.401-0.111v-1.057h-1.015v0.984h-0.651v-0.984h-1.015v0.984h-1.548v0.828h0.237
	c0.157,0,0.264,0.016,0.319,0.043c0.057,0.027,0.096,0.068,0.118,0.117c0.023,0.047,0.034,0.162,0.034,0.34v3.34
	c0,0.174-0.011,0.285-0.034,0.336c-0.022,0.051-0.062,0.088-0.118,0.115c-0.056,0.027-0.162,0.041-0.319,0.041h-0.237v0.828h1.548
	v0.986h1.015v-0.986h0.576c0.025,0,0.05,0,0.075,0v0.986h1.015v-1.07c0.17-0.033,0.319-0.074,0.447-0.125
	c0.351-0.141,0.621-0.346,0.813-0.613S-287.612,201.074-287.612,200.756z M-289.663,199.867c-0.166-0.063-0.419-0.094-0.759-0.094
	h-0.775v1.295c0.004,0.186,0.01,0.293,0.021,0.322c0.014,0.041,0.038,0.068,0.071,0.084s0.122,0.023,0.267,0.023h0.438
	c0.254,0,0.465-0.023,0.632-0.07s0.309-0.146,0.427-0.293c0.117-0.15,0.175-0.33,0.175-0.537c0-0.178-0.04-0.328-0.124-0.451
	C-289.373,200.023-289.497,199.93-289.663,199.867z M-278.836,200h-3.018c-0.27,4.365-3.776,7.857-8.146,8.109v3.055
	c0,0.276-0.224,0.5-0.5,0.5s-0.5-0.224-0.5-0.5v-3.055c-4.37-0.25-7.875-3.743-8.146-8.109h-3.018c-0.276,0-0.5-0.224-0.5-0.5
	s0.224-0.5,0.5-0.5h3.014c0.233-4.4,3.754-7.934,8.149-8.186v-2.979c0-0.276,0.224-0.5,0.5-0.5s0.5,0.224,0.5,0.5v2.979
	c4.396,0.253,7.917,3.786,8.149,8.186h3.014c0.276,0,0.5,0.224,0.5,0.5S-278.56,200-278.836,200z M-282.827,199.461
	c0-4.23-3.442-7.672-7.674-7.672c-4.23,0-7.672,3.441-7.672,7.672c0,4.231,3.441,7.674,7.672,7.674
	C-286.27,207.135-282.827,203.692-282.827,199.461z"/>
</svg>
