<?xml version="1.0" encoding="utf-8"?>
<!-- Generator: Adobe Illustrator 16.0.0, SVG Export Plug-In . SVG Version: 6.00 Build 0)  -->
<!DOCTYPE svg PUBLIC "-//W3C//DTD SVG 1.1//EN" "http://www.w3.org/Graphics/SVG/1.1/DTD/svg11.dtd">
<svg version="1.1" id="Layer_1" xmlns="http://www.w3.org/2000/svg" xmlns:xlink="http://www.w3.org/1999/xlink" x="0px" y="0px"
	 width="50px" height="50px" viewBox="-245.5 174.5 50 50" enable-background="new -245.5 174.5 50 50" xml:space="preserve">
<path d="M-233.524,200.281c0.051,0.119,0.061,0.253,0.035,0.404c-0.035,0.18-0.113,0.323-0.236,0.432
	c-0.125,0.109-0.262,0.17-0.413,0.184c-0.151,0.013-0.335,0-0.554-0.04l-0.374-0.072c-0.125-0.021-0.199-0.044-0.226-0.063
	c-0.025-0.016-0.041-0.045-0.047-0.082c-0.003-0.026,0.009-0.123,0.034-0.278l0.207-1.11l0.665,0.123
	c0.292,0.055,0.502,0.122,0.634,0.202C-233.667,200.063-233.576,200.163-233.524,200.281z M-233.489,197.944
	c-0.119-0.064-0.342-0.127-0.672-0.188l-0.562-0.106l-0.234,1.25l0.563,0.107c0.293,0.053,0.516,0.069,0.667,0.046
	c0.15-0.022,0.268-0.076,0.359-0.162c0.087-0.085,0.146-0.194,0.17-0.325c0.026-0.135,0.014-0.256-0.037-0.364
	C-233.283,198.096-233.367,198.011-233.489,197.944z M-228.504,199.5c0,3.283-2.663,5.945-5.946,5.945
	c-3.283,0-5.945-2.662-5.945-5.945c0-3.284,2.662-5.945,5.945-5.945C-231.167,193.555-228.504,196.216-228.504,199.5z
	 M-232.003,197.929c-0.102-0.219-0.271-0.404-0.504-0.558c-0.089-0.06-0.203-0.112-0.327-0.161l0.169-0.904l-0.868-0.162
	l-0.159,0.844l-0.558-0.105l0.159-0.843l-0.869-0.164l-0.16,0.847l-1.326-0.25l-0.132,0.709l0.203,0.04
	c0.135,0.021,0.225,0.053,0.267,0.088c0.044,0.032,0.071,0.071,0.083,0.117s0.004,0.145-0.025,0.296l-0.535,2.861
	c-0.027,0.149-0.054,0.243-0.083,0.282c-0.028,0.039-0.067,0.066-0.12,0.08c-0.053,0.017-0.145,0.01-0.28-0.016l-0.204-0.038
	l-0.132,0.709l1.325,0.248l-0.157,0.846l0.869,0.162l0.157-0.844l0.495,0.092c0.022,0.005,0.042,0.005,0.064,0.011l-0.158,0.846
	l0.868,0.161l0.173-0.915c0.149-0.002,0.284-0.015,0.403-0.036c0.322-0.063,0.587-0.196,0.794-0.396
	c0.206-0.196,0.336-0.431,0.387-0.704c0.042-0.229,0.027-0.445-0.046-0.649c-0.074-0.207-0.194-0.377-0.358-0.515
	c-0.113-0.097-0.285-0.2-0.512-0.304c0.237-0.036,0.435-0.098,0.593-0.188c0.159-0.091,0.289-0.207,0.389-0.344
	c0.101-0.141,0.168-0.294,0.199-0.463C-231.875,198.378-231.902,198.15-232.003,197.929z M-226.134,193.98l-0.896,4.479
	c-0.054,0.262-0.099,0.533-0.099,0.804c0,0.787,0.525,1.24,1.574,1.24c1.991,0,2.931-1.646,2.931-3.084
	c0-0.788-0.415-1.54-1.338-1.54c-0.542,0-1.04,0.235-1.365,0.625h-0.019l0.524-2.523H-226.134z M-225.655,198.178
	c0.155-0.77,0.615-1.249,1.086-1.249c0.397,0,0.577,0.335,0.577,0.76c0,0.777-0.541,1.826-1.292,1.826
	c-0.3,0-0.489-0.171-0.498-0.487c-0.009-0.189,0.027-0.343,0.045-0.487L-225.655,198.178z M-220.966,200.402l0.841-4.424h-1.302
	l-0.841,4.424H-220.966z M-220.614,195.428c0.417,0,0.769-0.271,0.769-0.733c0-0.389-0.271-0.641-0.649-0.641
	c-0.399,0-0.743,0.298-0.751,0.74C-221.246,195.183-220.975,195.428-220.614,195.428z M-218.694,195.049l-0.181,0.93h-0.57
	l-0.18,0.987h0.561l-0.345,1.764c-0.063,0.335-0.09,0.578-0.09,0.823c0,0.552,0.372,0.95,1.149,0.95
	c0.279,0,0.604-0.037,0.768-0.101l0.154-1.021c-0.118,0.018-0.245,0.018-0.361,0.018c-0.282,0-0.372-0.153-0.372-0.371
	c0-0.153,0.037-0.38,0.072-0.562l0.3-1.5h0.94l0.189-0.987h-0.94l0.235-1.238L-218.694,195.049z M-213.509,199.272
	c-0.226,0.091-0.498,0.18-0.877,0.18c-0.489,0-0.868-0.307-0.868-0.912c0-0.833,0.569-1.619,1.501-1.619
	c0.262,0,0.442,0.045,0.597,0.107l0.317-0.994c-0.19-0.082-0.517-0.155-0.896-0.155c-1.684,0-2.886,1.231-2.886,2.806
	c0,1.148,0.769,1.809,1.863,1.809c0.525,0,0.978-0.091,1.258-0.225L-213.509,199.272z M-210.124,195.879
	c-1.575,0-2.641,1.258-2.641,2.796c0,1.096,0.75,1.828,1.872,1.828c1.539,0,2.641-1.187,2.641-2.805
	C-208.252,196.694-208.939,195.879-210.124,195.879z M-210.296,196.865c0.525,0,0.697,0.435,0.697,0.842
	c0,0.759-0.397,1.801-1.112,1.801c-0.453,0-0.706-0.345-0.706-0.86C-211.426,197.961-211.047,196.865-210.296,196.865z
	 M-206.557,200.402l0.841-4.424h-1.303l-0.841,4.424H-206.557z M-206.205,195.428c0.417,0,0.77-0.271,0.77-0.733
	c0-0.389-0.272-0.641-0.652-0.641c-0.397,0-0.742,0.298-0.75,0.74C-206.837,195.183-206.566,195.428-206.205,195.428z
	 M-204.159,200.402l0.372-1.963c0.18-0.976,0.679-1.511,1.104-1.511c0.326,0,0.435,0.218,0.435,0.525
	c0,0.162-0.019,0.343-0.045,0.498l-0.461,2.45h1.303l0.489-2.569c0.036-0.217,0.072-0.552,0.072-0.75
	c0-0.761-0.408-1.204-1.131-1.204c-0.588,0-1.139,0.254-1.556,0.832h-0.018l0.09-0.732h-1.157c-0.056,0.392-0.128,0.879-0.237,1.44
	l-0.561,2.983H-204.159z M-225.479,204.162c-0.021-0.117-0.03-0.313-0.03-0.517v-0.737c0-0.499-0.226-0.915-0.933-0.915
	c-0.386,0-0.677,0.104-0.824,0.187l0.121,0.425c0.139-0.087,0.369-0.16,0.585-0.16c0.326,0,0.386,0.16,0.386,0.273v0.031
	c-0.75-0.006-1.244,0.26-1.244,0.811c0,0.338,0.255,0.649,0.685,0.649c0.251,0,0.468-0.091,0.607-0.26h0.013l0.039,0.213H-225.479z
	 M-226.151,203.391c0,0.039-0.004,0.078-0.013,0.112c-0.043,0.135-0.178,0.241-0.343,0.241c-0.147,0-0.26-0.081-0.26-0.25
	c0-0.257,0.269-0.339,0.615-0.334V203.391z M-223.473,203.624c-0.1,0.039-0.221,0.064-0.377,0.064c-0.321,0-0.581-0.203-0.581-0.594
	c-0.005-0.346,0.221-0.594,0.567-0.594c0.174,0,0.291,0.03,0.369,0.064l0.104-0.489c-0.138-0.053-0.329-0.083-0.502-0.083
	c-0.79,0-1.214,0.508-1.214,1.128c0,0.667,0.438,1.085,1.123,1.085c0.252,0,0.473-0.044,0.59-0.096L-223.473,203.624z
	 M-221.563,203.624c-0.1,0.039-0.221,0.064-0.378,0.064c-0.32,0-0.581-0.203-0.581-0.594c-0.005-0.346,0.221-0.594,0.568-0.594
	c0.173,0,0.291,0.03,0.369,0.064l0.104-0.489c-0.139-0.053-0.329-0.083-0.503-0.083c-0.79,0-1.214,0.508-1.214,1.128
	c0,0.667,0.438,1.085,1.124,1.085c0.251,0,0.473-0.044,0.59-0.096L-221.563,203.624z M-219.292,203.313
	c0.009-0.049,0.022-0.147,0.022-0.262c0-0.522-0.261-1.058-0.945-1.058c-0.738,0-1.071,0.595-1.071,1.132
	c0,0.663,0.412,1.081,1.131,1.081c0.287,0,0.551-0.044,0.768-0.132l-0.086-0.446c-0.178,0.057-0.36,0.087-0.585,0.087
	c-0.308,0-0.577-0.129-0.598-0.402H-219.292z M-220.663,202.861c0.017-0.179,0.13-0.43,0.408-0.43c0.303,0,0.373,0.269,0.373,0.43
	H-220.663z M-218.874,205.02h0.659v-1.053h0.009c0.096,0.139,0.294,0.242,0.55,0.242c0.473,0,0.963-0.364,0.963-1.136
	c0-0.677-0.417-1.08-0.88-1.08c-0.308,0-0.551,0.117-0.707,0.343h-0.009l-0.03-0.295h-0.573c0.008,0.194,0.018,0.434,0.018,0.712
	V205.02z M-218.215,202.96c0-0.038,0.004-0.081,0.013-0.117c0.043-0.194,0.208-0.333,0.395-0.333c0.295,0,0.446,0.256,0.446,0.594
	c0,0.359-0.169,0.599-0.455,0.599c-0.191,0-0.343-0.135-0.386-0.312c-0.009-0.041-0.013-0.087-0.013-0.14V202.96z M-216.187,201.581
	v0.46h-0.282v0.487h0.282v0.865c0,0.301,0.061,0.504,0.182,0.631c0.104,0.106,0.282,0.182,0.495,0.182
	c0.187,0,0.343-0.023,0.429-0.057l-0.004-0.499c-0.047,0.008-0.113,0.017-0.195,0.017c-0.2,0-0.26-0.117-0.26-0.373v-0.766h0.473
	v-0.487h-0.473v-0.606L-216.187,201.581z M-212.833,203.313c0.008-0.049,0.021-0.147,0.021-0.262c0-0.522-0.26-1.058-0.945-1.058
	c-0.737,0-1.071,0.595-1.071,1.132c0,0.663,0.412,1.081,1.131,1.081c0.287,0,0.551-0.044,0.768-0.132l-0.087-0.446
	c-0.178,0.057-0.36,0.087-0.585,0.087c-0.308,0-0.577-0.129-0.598-0.402H-212.833z M-214.204,202.861
	c0.018-0.179,0.13-0.43,0.408-0.43c0.304,0,0.374,0.269,0.374,0.43H-214.204z M-211.018,201.084v1.148h-0.008
	c-0.096-0.147-0.299-0.239-0.56-0.239c-0.508,0-0.954,0.412-0.95,1.128c0,0.659,0.404,1.088,0.907,1.088
	c0.273,0,0.529-0.121,0.664-0.359h0.008l0.03,0.313h0.585c-0.009-0.144-0.017-0.395-0.017-0.633v-2.445H-211.018z M-211.018,203.217
	c0,0.057-0.004,0.104-0.017,0.151c-0.039,0.187-0.191,0.316-0.382,0.316c-0.273,0-0.451-0.226-0.451-0.585
	c0-0.334,0.156-0.603,0.456-0.603c0.204,0,0.347,0.146,0.386,0.325c0.004,0.033,0.008,0.082,0.008,0.116V203.217z M-208.95,204.162
	h0.659v-1.258c0-0.049,0.005-0.105,0.022-0.147c0.048-0.116,0.156-0.229,0.33-0.229c0.247,0,0.342,0.189,0.342,0.467v1.167h0.66
	v-1.24c0-0.638-0.321-0.929-0.742-0.929c-0.121,0-0.247,0.03-0.343,0.083c-0.104,0.056-0.191,0.126-0.26,0.216h-0.009v-1.208h-0.659
	V204.162z M-204.533,203.313c0.008-0.049,0.021-0.147,0.021-0.262c0-0.522-0.26-1.058-0.945-1.058c-0.738,0-1.072,0.595-1.072,1.132
	c0,0.663,0.412,1.081,1.132,1.081c0.287,0,0.551-0.044,0.768-0.132l-0.087-0.446c-0.177,0.057-0.36,0.087-0.585,0.087
	c-0.308,0-0.577-0.129-0.599-0.402H-204.533z M-205.903,202.861c0.017-0.179,0.13-0.43,0.407-0.43c0.304,0,0.374,0.269,0.374,0.43
	H-205.903z M-204.115,204.162h0.659v-1.075c0-0.052,0.005-0.104,0.014-0.148c0.043-0.204,0.208-0.334,0.451-0.334
	c0.074,0,0.13,0.01,0.178,0.018v-0.62c-0.047-0.009-0.078-0.009-0.139-0.009c-0.204,0-0.463,0.13-0.572,0.438h-0.018l-0.021-0.391
	h-0.568c0.008,0.182,0.017,0.387,0.017,0.698V204.162z M-200.626,203.313c0.009-0.049,0.022-0.147,0.022-0.262
	c0-0.522-0.26-1.058-0.946-1.058c-0.737,0-1.071,0.595-1.071,1.132c0,0.663,0.412,1.081,1.132,1.081
	c0.286,0,0.551-0.044,0.768-0.132l-0.087-0.446c-0.178,0.057-0.36,0.087-0.585,0.087c-0.308,0-0.577-0.129-0.599-0.402H-200.626z
	 M-201.997,202.861c0.017-0.179,0.129-0.43,0.407-0.43c0.304,0,0.373,0.269,0.373,0.43H-201.997z"/>
</svg>
