<?xml version="1.0" encoding="utf-8"?>
<!-- Generator: Adobe Illustrator 16.0.0, SVG Export Plug-In . SVG Version: 6.00 Build 0)  -->
<!DOCTYPE svg PUBLIC "-//W3C//DTD SVG 1.1//EN" "http://www.w3.org/Graphics/SVG/1.1/DTD/svg11.dtd">
<svg version="1.1" id="Layer_1" xmlns="http://www.w3.org/2000/svg" xmlns:xlink="http://www.w3.org/1999/xlink" x="0px" y="0px"
	 width="50px" height="50px" viewBox="-175.5 174.5 50 50" enable-background="new -175.5 174.5 50 50" xml:space="preserve">
<path d="M-163.479,200.281c0.051,0.119,0.061,0.253,0.034,0.404c-0.034,0.18-0.113,0.323-0.236,0.432
	c-0.125,0.109-0.262,0.17-0.412,0.184c-0.151,0.013-0.336,0-0.554-0.04l-0.374-0.072c-0.125-0.021-0.199-0.044-0.227-0.063
	c-0.025-0.016-0.041-0.045-0.047-0.082c-0.003-0.026,0.009-0.123,0.034-0.278l0.207-1.11l0.665,0.123
	c0.292,0.055,0.502,0.122,0.634,0.202C-163.623,200.063-163.531,200.163-163.479,200.281z M-163.444,197.944
	c-0.118-0.064-0.342-0.127-0.672-0.188l-0.562-0.106l-0.234,1.25l0.563,0.107c0.293,0.053,0.517,0.069,0.667,0.046
	c0.15-0.022,0.268-0.076,0.359-0.162c0.088-0.085,0.146-0.194,0.17-0.325c0.026-0.135,0.014-0.256-0.037-0.364
	C-163.238,198.096-163.322,198.011-163.444,197.944z M-158.46,199.5c0,3.283-2.662,5.945-5.946,5.945
	c-3.283,0-5.944-2.662-5.944-5.945c0-3.284,2.661-5.945,5.944-5.945C-161.122,193.555-158.46,196.216-158.46,199.5z
	 M-161.959,197.929c-0.102-0.219-0.271-0.404-0.504-0.558c-0.09-0.06-0.203-0.112-0.327-0.161l0.17-0.904l-0.868-0.162l-0.158,0.844
	l-0.559-0.105l0.159-0.843l-0.869-0.164l-0.159,0.847l-1.326-0.25l-0.132,0.709l0.203,0.04c0.135,0.021,0.225,0.053,0.267,0.088
	c0.044,0.032,0.07,0.071,0.082,0.117s0.004,0.145-0.024,0.296l-0.535,2.861c-0.027,0.149-0.055,0.243-0.083,0.282
	s-0.067,0.066-0.12,0.08c-0.053,0.017-0.145,0.01-0.279-0.016l-0.204-0.038l-0.132,0.709l1.324,0.248l-0.156,0.846l0.868,0.162
	l0.157-0.844l0.494,0.092c0.022,0.005,0.042,0.005,0.064,0.011l-0.157,0.846l0.867,0.161l0.173-0.915
	c0.149-0.002,0.284-0.015,0.403-0.036c0.321-0.063,0.587-0.196,0.794-0.396c0.206-0.196,0.336-0.431,0.387-0.704
	c0.043-0.229,0.027-0.445-0.046-0.649c-0.073-0.207-0.193-0.377-0.357-0.515c-0.113-0.097-0.285-0.2-0.513-0.304
	c0.237-0.036,0.436-0.098,0.594-0.188s0.289-0.207,0.389-0.344c0.101-0.141,0.168-0.294,0.199-0.463
	C-161.831,198.378-161.857,198.15-161.959,197.929z M-156.697,194.826l-0.896,4.479c-0.054,0.262-0.099,0.533-0.099,0.805
	c0,0.787,0.525,1.24,1.574,1.24c1.99,0,2.931-1.646,2.931-3.084c0-0.789-0.415-1.541-1.339-1.541c-0.542,0-1.039,0.236-1.365,0.625
	h-0.019l0.524-2.523H-156.697z M-156.218,199.023c0.154-0.77,0.615-1.248,1.086-1.248c0.397,0,0.577,0.334,0.577,0.76
	c0,0.777-0.541,1.826-1.292,1.826c-0.3,0-0.489-0.172-0.498-0.488c-0.009-0.189,0.027-0.342,0.046-0.486L-156.218,199.023z
	 M-151.529,201.248l0.841-4.424h-1.302l-0.842,4.424H-151.529z M-151.177,196.273c0.417,0,0.769-0.271,0.769-0.732
	c0-0.389-0.271-0.641-0.649-0.641c-0.399,0-0.743,0.297-0.752,0.74C-151.81,196.029-151.538,196.273-151.177,196.273z
	 M-149.258,195.895l-0.181,0.93h-0.57l-0.18,0.988h0.561l-0.345,1.764c-0.063,0.334-0.09,0.578-0.09,0.822
	c0,0.553,0.372,0.951,1.149,0.951c0.279,0,0.604-0.037,0.769-0.102l0.154-1.021c-0.118,0.018-0.245,0.018-0.361,0.018
	c-0.282,0-0.372-0.152-0.372-0.371c0-0.152,0.036-0.379,0.072-0.561l0.3-1.5h0.94l0.188-0.988h-0.939l0.234-1.238L-149.258,195.895z
	 M-144.072,200.119c-0.226,0.09-0.497,0.18-0.877,0.18c-0.489,0-0.868-0.307-0.868-0.912c0-0.834,0.569-1.619,1.502-1.619
	c0.262,0,0.441,0.045,0.597,0.107l0.316-0.994c-0.19-0.082-0.517-0.156-0.896-0.156c-1.684,0-2.886,1.232-2.886,2.807
	c0,1.148,0.769,1.809,1.862,1.809c0.525,0,0.978-0.092,1.258-0.225L-144.072,200.119z M-140.687,196.725
	c-1.575,0-2.642,1.258-2.642,2.797c0,1.096,0.75,1.828,1.872,1.828c1.539,0,2.641-1.188,2.641-2.805
	C-138.815,197.541-139.502,196.725-140.687,196.725z M-140.859,197.711c0.525,0,0.697,0.436,0.697,0.842
	c0,0.76-0.397,1.801-1.112,1.801c-0.452,0-0.706-0.344-0.706-0.859C-141.989,198.807-141.61,197.711-140.859,197.711z
	 M-137.12,201.248l0.842-4.424h-1.304l-0.841,4.424H-137.12z M-136.768,196.273c0.416,0,0.77-0.271,0.77-0.732
	c0-0.389-0.272-0.641-0.652-0.641c-0.396,0-0.741,0.297-0.75,0.74C-137.4,196.029-137.129,196.273-136.768,196.273z
	 M-134.722,201.248l0.371-1.963c0.181-0.975,0.68-1.51,1.104-1.51c0.326,0,0.435,0.217,0.435,0.525c0,0.162-0.019,0.342-0.045,0.498
	l-0.462,2.449h1.303l0.489-2.568c0.035-0.217,0.072-0.553,0.072-0.75c0-0.762-0.408-1.205-1.132-1.205
	c-0.588,0-1.139,0.254-1.556,0.832h-0.018l0.09-0.732h-1.157c-0.056,0.393-0.128,0.879-0.236,1.441l-0.562,2.982H-134.722z
	 M-157.692,204.131c0.119,0.014,0.295,0.029,0.543,0.029c0.414,0,0.753-0.088,0.976-0.271c0.204-0.174,0.352-0.453,0.352-0.857
	c0-0.373-0.138-0.635-0.357-0.797c-0.204-0.154-0.465-0.227-0.866-0.227c-0.241,0-0.471,0.016-0.646,0.043V204.131z
	 M-157.213,202.395c0.041-0.01,0.11-0.02,0.217-0.02c0.411,0,0.669,0.232,0.665,0.672c0,0.504-0.282,0.744-0.715,0.74
	c-0.061,0-0.126,0-0.167-0.01V202.395z M-155.507,202.023v2.115h0.48v-2.115H-155.507z M-152.845,202.928h-0.788v0.373h0.327v0.443
	c-0.038,0.018-0.126,0.031-0.236,0.031c-0.392,0-0.665-0.26-0.665-0.693c0-0.459,0.301-0.686,0.7-0.686
	c0.231,0,0.376,0.041,0.492,0.092l0.101-0.383c-0.104-0.051-0.313-0.104-0.587-0.104c-0.693,0-1.205,0.402-1.208,1.105
	c-0.003,0.309,0.104,0.586,0.298,0.768c0.194,0.188,0.474,0.285,0.86,0.285c0.279,0,0.558-0.068,0.706-0.119V202.928z
	 M-152.47,202.023v2.115h0.479v-2.115H-152.47z M-151.168,204.139h0.48v-1.713h0.578v-0.402h-1.626v0.402h0.567V204.139z
	 M-148.982,203.596l0.164,0.543h0.515l-0.656-2.115h-0.628l-0.646,2.115h0.496l0.15-0.543H-148.982z M-149.519,203.238l0.125-0.449
	c0.035-0.123,0.066-0.281,0.098-0.408h0.006c0.032,0.127,0.069,0.283,0.107,0.408l0.132,0.449H-149.519z M-148.021,204.139h1.322
	v-0.402h-0.842v-1.713h-0.48V204.139z M-144.3,203.705c-0.094,0.039-0.255,0.07-0.399,0.07c-0.427,0-0.677-0.268-0.677-0.691
	c0-0.471,0.295-0.699,0.675-0.699c0.169,0,0.304,0.037,0.401,0.078l0.098-0.379c-0.085-0.045-0.273-0.096-0.521-0.096
	c-0.641,0-1.155,0.402-1.155,1.123c0,0.604,0.377,1.059,1.108,1.059c0.258,0,0.454-0.047,0.543-0.092L-144.3,203.705z
	 M-143.916,202.023v1.18c0,0.676,0.314,0.971,0.848,0.971c0.553,0,0.882-0.311,0.882-0.965v-1.186h-0.478v1.219
	c0,0.373-0.138,0.549-0.389,0.549c-0.245,0-0.383-0.186-0.383-0.549v-1.219H-143.916z M-141.771,204.139h0.475v-0.832h0.144
	c0.195,0.004,0.286,0.074,0.343,0.34c0.063,0.26,0.112,0.432,0.147,0.492h0.489c-0.041-0.082-0.106-0.357-0.173-0.596
	c-0.053-0.195-0.135-0.336-0.282-0.396v-0.01c0.183-0.064,0.374-0.25,0.374-0.52c0-0.195-0.069-0.344-0.195-0.443
	c-0.15-0.119-0.37-0.166-0.684-0.166c-0.255,0-0.483,0.02-0.638,0.043V204.139z M-141.297,202.379
	c0.034-0.006,0.101-0.018,0.216-0.018c0.221,0.004,0.352,0.102,0.352,0.297c0,0.184-0.141,0.305-0.379,0.305h-0.188V202.379z
	 M-139.909,204.139h0.474v-0.832h0.145c0.195,0.004,0.286,0.074,0.342,0.34c0.063,0.26,0.113,0.432,0.148,0.492h0.489
	c-0.04-0.082-0.106-0.357-0.173-0.596c-0.053-0.195-0.135-0.336-0.282-0.396v-0.01c0.182-0.064,0.373-0.25,0.373-0.52
	c0-0.195-0.068-0.344-0.194-0.443c-0.15-0.119-0.37-0.166-0.685-0.166c-0.254,0-0.482,0.02-0.637,0.043V204.139z M-139.436,202.379
	c0.035-0.006,0.102-0.018,0.217-0.018c0.22,0.004,0.352,0.102,0.352,0.297c0,0.184-0.142,0.305-0.38,0.305h-0.188V202.379z
	 M-136.788,202.855h-0.778v-0.439h0.825v-0.393h-1.306v2.115h1.35v-0.393h-0.869v-0.502h0.778V202.855z M-135.931,204.139v-0.637
	c0-0.346-0.006-0.645-0.019-0.924l0.01-0.002c0.104,0.248,0.241,0.521,0.367,0.748l0.451,0.814h0.503v-2.115h-0.439v0.619
	c0,0.316,0.009,0.602,0.041,0.881h-0.01c-0.095-0.238-0.22-0.502-0.346-0.725l-0.439-0.775h-0.559v2.115H-135.931z
	 M-132.722,203.705c-0.094,0.039-0.254,0.07-0.398,0.07c-0.427,0-0.678-0.268-0.678-0.691c0-0.471,0.295-0.699,0.675-0.699
	c0.169,0,0.304,0.037,0.401,0.078l0.098-0.379c-0.085-0.045-0.273-0.096-0.521-0.096c-0.641,0-1.154,0.402-1.154,1.123
	c0,0.604,0.376,1.059,1.107,1.059c0.258,0,0.455-0.047,0.543-0.092L-132.722,203.705z M-131.346,204.139v-0.881l0.696-1.234h-0.536
	l-0.214,0.508c-0.063,0.15-0.112,0.273-0.16,0.404h-0.006c-0.054-0.137-0.098-0.25-0.163-0.404l-0.217-0.508h-0.546l0.668,1.248
	v0.867H-131.346z"/>
</svg>
