<?xml version="1.0" encoding="utf-8"?>
<!-- Generator: Adobe Illustrator 16.0.0, SVG Export Plug-In . SVG Version: 6.00 Build 0)  -->
<!DOCTYPE svg PUBLIC "-//W3C//DTD SVG 1.1//EN" "http://www.w3.org/Graphics/SVG/1.1/DTD/svg11.dtd">
<svg version="1.1" id="Layer_1" xmlns="http://www.w3.org/2000/svg" xmlns:xlink="http://www.w3.org/1999/xlink" x="0px" y="0px"
	 width="50px" height="50px" viewBox="-105.5 174.5 50 50" enable-background="new -105.5 174.5 50 50" xml:space="preserve">
<path d="M-78.149,202.424c-0.109-0.072-0.246-0.137-0.396-0.195l0.206-1.095l-1.051-0.196l-0.191,1.021l-0.676-0.128l0.193-1.02
	l-1.052-0.199l-0.193,1.025l-1.605-0.303l-0.159,0.857l0.246,0.05c0.163,0.025,0.271,0.063,0.323,0.105
	c0.053,0.039,0.085,0.086,0.099,0.142s0.004,0.175-0.03,0.358l-0.648,3.463c-0.033,0.182-0.066,0.295-0.1,0.342
	s-0.082,0.08-0.146,0.097c-0.063,0.021-0.175,0.012-0.337-0.019l-0.248-0.047l-0.16,0.858l1.603,0.301l-0.189,1.023l1.051,0.196
	l0.19-1.021l0.598,0.11c0.027,0.007,0.051,0.007,0.078,0.014l-0.19,1.023l1.049,0.195l0.209-1.107
	c0.181-0.003,0.344-0.019,0.488-0.044c0.389-0.077,0.71-0.237,0.961-0.479c0.25-0.237,0.407-0.521,0.468-0.853
	c0.052-0.277,0.033-0.539-0.056-0.786c-0.088-0.25-0.233-0.456-0.432-0.622c-0.137-0.117-0.345-0.243-0.621-0.368
	c0.287-0.044,0.527-0.118,0.719-0.228c0.191-0.11,0.35-0.251,0.471-0.416c0.121-0.171,0.203-0.356,0.241-0.561
	c0.052-0.279,0.02-0.555-0.103-0.822C-77.663,202.833-77.867,202.608-78.149,202.424z M-79.338,206.435
	c-0.041,0.218-0.137,0.392-0.286,0.522c-0.151,0.133-0.317,0.206-0.499,0.223c-0.183,0.016-0.407,0-0.67-0.049l-0.453-0.088
	c-0.151-0.025-0.241-0.053-0.274-0.075c-0.031-0.019-0.05-0.054-0.057-0.1c-0.003-0.031,0.01-0.148,0.042-0.337l0.25-1.344
	l0.805,0.149c0.354,0.066,0.607,0.147,0.767,0.244c0.16,0.1,0.271,0.222,0.333,0.364C-79.318,206.09-79.307,206.252-79.338,206.435z
	 M-78.984,203.87c-0.028,0.158-0.099,0.29-0.206,0.394c-0.111,0.104-0.253,0.169-0.435,0.196c-0.182,0.028-0.453,0.009-0.808-0.056
	l-0.682-0.13l0.284-1.513l0.679,0.128c0.4,0.074,0.67,0.149,0.813,0.228c0.147,0.08,0.249,0.184,0.308,0.313
	C-78.967,203.561-78.952,203.707-78.984,203.87z M-80.5,182.75c0,0-11,13-11,22.5c0,6.075,4.925,11,11,11s11-4.925,11-11
	C-69.5,195.5-80.5,182.75-80.5,182.75z M-80.501,212.195c-3.973,0-7.194-3.222-7.194-7.195c0-3.975,3.221-7.195,7.194-7.195
	c3.975,0,7.197,3.221,7.197,7.195C-73.305,208.974-76.526,212.195-80.501,212.195z"/>
</svg>
