<?xml version="1.0" encoding="utf-8"?>
<!-- Generator: Adobe Illustrator 16.0.0, SVG Export Plug-In . SVG Version: 6.00 Build 0)  -->
<!DOCTYPE svg PUBLIC "-//W3C//DTD SVG 1.1//EN" "http://www.w3.org/Graphics/SVG/1.1/DTD/svg11.dtd">
<svg version="1.1" id="Layer_1" xmlns="http://www.w3.org/2000/svg" xmlns:xlink="http://www.w3.org/1999/xlink" x="0px" y="0px"
	 width="50px" height="50px" viewBox="-35.5 174.5 50 50" enable-background="new -35.5 174.5 50 50" xml:space="preserve">
<path d="M-7.369,203.139c-0.407-0.697-0.955-1.238-1.645-1.627c-0.479-0.277-1.17-0.529-2.072-0.758
	c0.841-0.289,1.519-0.646,2.031-1.088c0.514-0.439,0.907-0.943,1.18-1.514c0.272-0.57,0.409-1.174,0.409-1.811
	c0-0.877-0.257-1.684-0.772-2.416c-0.518-0.73-1.254-1.293-2.211-1.686c-0.373-0.152-0.814-0.266-1.294-0.359v-3.402h-3.266v3.174
	h-2.1v-3.174h-3.266v3.174h-4.983v2.668h0.761c0.507,0,0.85,0.047,1.03,0.139c0.18,0.094,0.306,0.217,0.38,0.373
	c0.074,0.158,0.111,0.523,0.111,1.094v10.756c0,0.564-0.037,0.926-0.111,1.088c-0.074,0.16-0.2,0.287-0.38,0.373
	c-0.18,0.088-0.522,0.131-1.03,0.131h-0.761v2.668h4.983v3.176h3.266v-3.176h1.857c0.083,0,0.161,0,0.243,0v3.176h3.266v-3.447
	c0.549-0.107,1.031-0.238,1.441-0.404c1.128-0.451,2-1.109,2.616-1.971c0.617-0.859,0.926-1.805,0.926-2.826
	C-6.761,204.611-6.963,203.836-7.369,203.139z M-13.619,194.994c0.478,0.148,0.846,0.408,1.1,0.766
	c0.252,0.359,0.379,0.793,0.379,1.301c0,0.488-0.133,0.92-0.4,1.295c-0.269,0.371-0.666,0.65-1.197,0.832
	c-0.531,0.186-1.349,0.279-2.454,0.279h-2.116v-4.705h2.116C-14.956,194.762-14.099,194.842-13.619,194.994z M-15.74,207.859h-1.408
	c-0.468,0-0.756-0.027-0.862-0.076c-0.106-0.049-0.181-0.139-0.227-0.268c-0.038-0.104-0.06-0.449-0.069-1.039v-4.178h2.497
	c1.094,0,1.909,0.104,2.443,0.305c0.533,0.203,0.933,0.506,1.2,0.9c0.267,0.398,0.4,0.879,0.4,1.453c0,0.67-0.189,1.246-0.565,1.725
	c-0.378,0.48-0.835,0.801-1.375,0.949C-14.244,207.783-14.922,207.859-15.74,207.859z M1.14,191.227v15.984h-6.239v-15.984h-3.225
	l6.34-6.344l6.342,6.344H1.14z"/>
</svg>
