<?xml version="1.0" encoding="utf-8"?>
<!-- Generator: Adobe Illustrator 16.0.0, SVG Export Plug-In . SVG Version: 6.00 Build 0)  -->
<!DOCTYPE svg PUBLIC "-//W3C//DTD SVG 1.1//EN" "http://www.w3.org/Graphics/SVG/1.1/DTD/svg11.dtd">
<svg version="1.1" id="Layer_1" xmlns="http://www.w3.org/2000/svg" xmlns:xlink="http://www.w3.org/1999/xlink" x="0px" y="0px"
	 width="50px" height="50px" viewBox="34.5 174.5 50 50" enable-background="new 34.5 174.5 50 50" xml:space="preserve">
<path d="M62.881,198.793c-0.406-0.695-0.953-1.236-1.645-1.625c-0.479-0.277-1.17-0.531-2.072-0.76
	c0.842-0.289,1.52-0.646,2.031-1.088c0.514-0.438,0.906-0.941,1.18-1.514c0.271-0.57,0.408-1.174,0.408-1.811
	c0-0.875-0.256-1.682-0.771-2.416c-0.518-0.729-1.254-1.293-2.211-1.686c-0.373-0.152-0.814-0.264-1.295-0.357v-3.404H55.24v3.176
	h-2.1v-3.176h-3.266v3.176h-4.984v2.668h0.762c0.506,0,0.85,0.045,1.029,0.139c0.18,0.092,0.307,0.215,0.381,0.371
	c0.074,0.16,0.109,0.525,0.109,1.096v10.756c0,0.563-0.035,0.926-0.109,1.088c-0.074,0.158-0.201,0.285-0.381,0.371
	c-0.18,0.09-0.523,0.133-1.029,0.133h-0.762v2.668h4.984v3.174h3.266v-3.174h1.857c0.082,0,0.16,0,0.242,0v3.174h3.266v-3.447
	c0.549-0.105,1.031-0.238,1.441-0.404c1.129-0.451,2-1.107,2.617-1.971c0.617-0.859,0.926-1.805,0.926-2.826
	C63.49,200.268,63.287,199.49,62.881,198.793z M56.631,190.648c0.479,0.15,0.846,0.408,1.1,0.768
	c0.254,0.357,0.381,0.793,0.381,1.301c0,0.486-0.135,0.918-0.4,1.293c-0.27,0.371-0.666,0.65-1.197,0.832
	c-0.531,0.186-1.35,0.279-2.453,0.279h-2.117v-4.703h2.117C55.295,190.418,56.152,190.496,56.631,190.648z M54.51,203.514h-1.408
	c-0.467,0-0.756-0.025-0.861-0.076c-0.105-0.049-0.182-0.139-0.227-0.268c-0.039-0.104-0.061-0.447-0.07-1.039v-4.176h2.498
	c1.094,0,1.908,0.102,2.443,0.305c0.531,0.203,0.932,0.504,1.199,0.898c0.268,0.398,0.4,0.881,0.4,1.453
	c0,0.67-0.189,1.248-0.564,1.727c-0.379,0.48-0.836,0.799-1.375,0.947C56.006,203.438,55.328,203.514,54.51,203.514z
	 M64.645,208.523v-15.984h6.24v15.984h3.225l-6.342,6.344l-6.342-6.344H64.645z"/>
</svg>
