<?xml version="1.0" encoding="utf-8"?>
<!-- Generator: Adobe Illustrator 16.0.0, SVG Export Plug-In . SVG Version: 6.00 Build 0)  -->
<!DOCTYPE svg PUBLIC "-//W3C//DTD SVG 1.1//EN" "http://www.w3.org/Graphics/SVG/1.1/DTD/svg11.dtd">
<svg version="1.1" id="Layer_1" xmlns="http://www.w3.org/2000/svg" xmlns:xlink="http://www.w3.org/1999/xlink" x="0px" y="0px"
	 width="50px" height="50px" viewBox="104.5 174.5 50 50" enable-background="new 104.5 174.5 50 50" xml:space="preserve">
<path d="M121.256,203.589c-0.036,0.074-0.093,0.135-0.181,0.17c-0.082,0.045-0.24,0.062-0.473,0.057l-0.356-0.005l-0.017,1.237
	l2.31,0.033l-0.017,1.475l1.514,0.02l0.021-1.472l0.861,0.009c0.039,0.005,0.072-0.002,0.111,0l-0.018,1.477l1.511,0.021
	l0.026-1.598c0.253-0.049,0.475-0.109,0.669-0.18c0.525-0.202,0.937-0.502,1.229-0.898c0.29-0.395,0.44-0.827,0.447-1.304
	c0.005-0.4-0.083-0.762-0.269-1.085c-0.183-0.327-0.437-0.581-0.753-0.765c-0.222-0.129-0.54-0.255-0.956-0.364
	c0.391-0.131,0.707-0.292,0.948-0.491s0.429-0.434,0.557-0.694c0.13-0.268,0.199-0.548,0.203-0.841
	c0.004-0.402-0.108-0.778-0.343-1.124c-0.236-0.341-0.576-0.604-1.013-0.796c-0.171-0.074-0.378-0.129-0.602-0.176l0.022-1.578
	l-1.514-0.02l-0.022,1.472l-0.973-0.015l0.022-1.471l-1.515-0.024l-0.024,1.479l-2.313-0.035l-0.015,1.234l0.354,0.011
	c0.232-0.005,0.395,0.023,0.478,0.07c0.08,0.041,0.138,0.098,0.172,0.175c0.032,0.071,0.047,0.241,0.043,0.507l-0.067,4.991
	C121.313,203.35,121.293,203.518,121.256,203.589z M123.604,197.591l0.981,0.014c0.575,0.008,0.969,0.048,1.188,0.122
	c0.228,0.075,0.392,0.196,0.506,0.362c0.121,0.166,0.176,0.367,0.17,0.604c-0.002,0.229-0.066,0.429-0.193,0.6
	c-0.129,0.173-0.313,0.296-0.56,0.378c-0.246,0.085-0.628,0.122-1.14,0.117l-0.983-0.017L123.604,197.591z M123.556,201.087
	l1.159,0.014c0.51,0.008,0.883,0.061,1.13,0.157c0.248,0.101,0.431,0.243,0.554,0.428c0.12,0.187,0.178,0.41,0.175,0.674
	c-0.003,0.313-0.098,0.579-0.272,0.799c-0.178,0.219-0.392,0.362-0.643,0.431c-0.253,0.065-0.567,0.098-0.948,0.094l-0.653-0.015
	c-0.217,0.002-0.348-0.016-0.4-0.039c-0.046-0.018-0.083-0.063-0.104-0.124c-0.011-0.045-0.021-0.212-0.023-0.48L123.556,201.087z
	 M147.288,194.212c0,1.085-0.176,2.124-0.496,3.1c-1.727,7.753-17.288,17.529-17.288,17.529s-2.573-1.616-5.744-4.055
	c0.844,0.069,1.707,0.047,2.579-0.104c5.551-0.96,9.272-6.234,8.313-11.782c-0.959-5.551-6.236-9.27-11.784-8.311
	c-5.385,0.931-9.033,5.927-8.367,11.293c-1.131-1.543-1.964-3.094-2.293-4.571c-0.32-0.976-0.496-2.015-0.496-3.1
	c0-3.789,2.099-7.087,5.196-8.804c1.442-0.794,3.093-1.249,4.851-1.249c3.114,0,5.897,1.417,7.745,3.639
	c1.84-2.222,4.625-3.639,7.735-3.639c1.76,0,3.413,0.455,4.853,1.249C145.189,187.125,147.288,190.423,147.288,194.212z"/>
</svg>
