<?xml version="1.0" encoding="utf-8"?>
<!-- Generator: Adobe Illustrator 16.0.0, SVG Export Plug-In . SVG Version: 6.00 Build 0)  -->
<!DOCTYPE svg PUBLIC "-//W3C//DTD SVG 1.1//EN" "http://www.w3.org/Graphics/SVG/1.1/DTD/svg11.dtd">
<svg version="1.1" id="Layer_1" xmlns="http://www.w3.org/2000/svg" xmlns:xlink="http://www.w3.org/1999/xlink" x="0px" y="0px"
	 width="50px" height="50px" viewBox="174.5 174.5 50 50" enable-background="new 174.5 174.5 50 50" xml:space="preserve">
<path d="M203.032,193.479c-0.207-0.12-0.504-0.238-0.893-0.34c0.364-0.122,0.66-0.272,0.886-0.459c0.225-0.186,0.4-0.404,0.52-0.648
	c0.121-0.25,0.186-0.512,0.189-0.785c0.004-0.375-0.102-0.727-0.32-1.049c-0.221-0.318-0.538-0.564-0.945-0.744
	c-0.159-0.068-0.353-0.12-0.562-0.164l0.021-1.474l-1.413-0.018l-0.021,1.374l-0.909-0.014l0.021-1.373l-1.414-0.023l-0.023,1.381
	l-2.16-0.033l-0.014,1.153l0.33,0.01c0.217-0.005,0.368,0.021,0.446,0.065c0.074,0.038,0.129,0.092,0.16,0.163
	c0.03,0.067,0.044,0.226,0.04,0.474l-0.063,4.661c-0.001,0.242-0.021,0.399-0.055,0.466c-0.034,0.069-0.087,0.126-0.169,0.158
	c-0.076,0.042-0.225,0.058-0.441,0.053l-0.333-0.004l-0.016,1.155l2.157,0.03l-0.016,1.377l1.413,0.019l0.02-1.374l0.804,0.008
	c0.037,0.005,0.068-0.001,0.104,0l-0.017,1.379l1.411,0.02l0.024-1.492c0.236-0.045,0.443-0.102,0.624-0.168
	c0.491-0.188,0.875-0.469,1.147-0.839c0.271-0.368,0.411-0.772,0.418-1.217c0.004-0.374-0.078-0.712-0.251-1.014
	C203.564,193.887,203.328,193.65,203.032,193.479z M199.048,190.5l0.916,0.014c0.537,0.007,0.904,0.044,1.109,0.113
	c0.213,0.07,0.366,0.184,0.473,0.339c0.113,0.154,0.164,0.343,0.159,0.563c-0.002,0.213-0.063,0.4-0.181,0.56
	c-0.121,0.161-0.292,0.276-0.522,0.353c-0.23,0.08-0.587,0.114-1.064,0.11l-0.918-0.016L199.048,190.5z M201.565,195.699
	c-0.166,0.204-0.366,0.338-0.601,0.402c-0.236,0.061-0.529,0.091-0.885,0.087l-0.61-0.014c-0.202,0.002-0.325-0.015-0.374-0.036
	c-0.043-0.017-0.077-0.059-0.097-0.116c-0.01-0.042-0.021-0.197-0.021-0.448l0.024-1.81l1.082,0.013
	c0.477,0.008,0.824,0.057,1.056,0.147c0.231,0.094,0.401,0.227,0.517,0.399c0.112,0.174,0.166,0.383,0.163,0.629
	C201.816,195.245,201.729,195.494,201.565,195.699z M210.593,185.535c-2.067-2.309-4.803-4.452-11.558-4.502
	c-2.64-0.021-6.668,0.604-9.805,3.919c-1.896,2.004-3.294,4.532-2.896,8.667c0.087,0.896,1.367,1.934,0.466,3.669
	c0,0-1.933,3.4-1.866,3.968c0,0-0.033,1.035,1.566,1.067c0,0,0.4,0.052,0.285,0.933l-0.018,1.286c0,0,0.05,0.384,0.751,0.616
	c0,0,0.133,0.133-0.065,0.387c0,0-0.37,0.411,0.265,1.299c0.236,0.327,0.617,0.733,0.384,1.568c0,0-0.3,1.617,0.334,2
	c0,0,0.721,0.856,3.619,0.501c1.013-0.126,2.885-0.617,4.002,0.783c0,0,2.667,5.069,2.87,6.271c0,0,4.552-8.105,10.105-9.355
	c0,0-1.353-3.053,1.4-7.004c0,0,3.45-4.554,3.553-7.055C213.986,194.553,214.896,190.338,210.593,185.535z M201.601,202.726
	c-5.178,0.895-10.103-2.579-10.998-7.762c-0.896-5.181,2.577-10.105,7.757-11.001c5.181-0.896,10.108,2.577,11.004,7.761
	C210.259,196.903,206.784,201.829,201.601,202.726z"/>
</svg>
