<?xml version="1.0" encoding="utf-8"?>
<!-- Generator: Adobe Illustrator 16.0.0, SVG Export Plug-In . SVG Version: 6.00 Build 0)  -->
<!DOCTYPE svg PUBLIC "-//W3C//DTD SVG 1.1//EN" "http://www.w3.org/Graphics/SVG/1.1/DTD/svg11.dtd">
<svg version="1.1" id="Layer_1" xmlns="http://www.w3.org/2000/svg" xmlns:xlink="http://www.w3.org/1999/xlink" x="0px" y="0px"
	 width="50px" height="50px" viewBox="244.5 174.5 50 50" enable-background="new 244.5 174.5 50 50" xml:space="preserve">
<path d="M288.176,195.957l-15.133-15.136c-0.947-0.944-2.205-1.466-3.543-1.465c-1.338,0-2.597,0.521-3.543,1.466l-15.133,15.135
	c-1.953,1.953-1.953,5.133,0,7.087l15.132,15.131c0.947,0.947,2.205,1.469,3.544,1.469s2.597-0.521,3.543-1.469l15.133-15.131
	C290.129,201.09,290.129,197.91,288.176,195.957z M286.762,201.63l-15.134,15.131c-1.137,1.139-3.118,1.139-4.257,0l-15.133-15.131
	c-1.174-1.175-1.174-3.085,0-4.259l15.133-15.134c0.568-0.568,1.324-0.881,2.129-0.881s1.561,0.313,2.129,0.88l15.133,15.135
	C287.936,198.545,287.936,200.455,286.762,201.63z M270.58,183.054c-0.389-0.39-0.844-0.447-1.08-0.447s-0.69,0.058-1.079,0.445
	l-15.367,15.369c-0.288,0.288-0.446,0.672-0.446,1.08c0,0.407,0.158,0.791,0.446,1.079l15.368,15.365
	c0.389,0.39,0.842,0.448,1.078,0.448c0.235,0,0.689-0.059,1.079-0.448l15.366-15.365c0.288-0.287,0.447-0.671,0.447-1.079
	c0.001-0.408-0.158-0.792-0.446-1.08L270.58,183.054z M285.238,199.873l-15.366,15.365c-0.128,0.128-0.273,0.155-0.372,0.155
	c-0.081,0-0.236-0.02-0.37-0.154l-15.369-15.366c-0.1-0.1-0.153-0.231-0.153-0.372c0-0.142,0.054-0.273,0.153-0.373l15.366-15.368
	c0.134-0.134,0.291-0.153,0.373-0.153s0.238,0.021,0.373,0.154l15.366,15.367c0.1,0.1,0.153,0.231,0.153,0.372
	C285.393,199.642,285.338,199.773,285.238,199.873z M274.094,199.642c-0.312-0.18-0.764-0.346-1.354-0.497
	c0.549-0.186,0.993-0.421,1.326-0.706c0.337-0.289,0.592-0.619,0.767-0.989c0.181-0.373,0.273-0.767,0.273-1.181
	c0-0.571-0.169-1.097-0.506-1.575c-0.34-0.479-0.818-0.844-1.444-1.099c-0.241-0.097-0.527-0.173-0.844-0.234v-2.219h-2.127v2.072
	h-1.371v-2.072h-2.128v2.072h-3.249v1.735h0.492c0.331,0,0.559,0.031,0.673,0.093c0.115,0.059,0.2,0.143,0.25,0.246
	c0.049,0.1,0.072,0.338,0.072,0.712v7.014c0,0.366-0.023,0.601-0.072,0.706c-0.05,0.104-0.135,0.186-0.25,0.246
	c-0.114,0.056-0.342,0.084-0.673,0.084h-0.492v1.736h3.249v2.072h2.128v-2.072h1.211c0.056,0,0.108,0,0.16,0v2.072h2.127v-2.248
	c0.359-0.067,0.673-0.157,0.939-0.265c0.736-0.293,1.306-0.721,1.706-1.281c0.405-0.566,0.604-1.18,0.604-1.847
	c0-0.559-0.133-1.064-0.397-1.52C274.903,200.247,274.546,199.893,274.094,199.642z M268.036,195.237h1.378
	c0.805,0,1.365,0.052,1.678,0.151c0.312,0.099,0.553,0.266,0.715,0.498c0.166,0.237,0.247,0.521,0.247,0.852
	c0,0.316-0.087,0.597-0.261,0.84c-0.175,0.245-0.433,0.427-0.778,0.544c-0.346,0.123-0.88,0.185-1.601,0.185h-1.378V195.237z
	 M271.93,203.014c-0.247,0.312-0.544,0.518-0.896,0.616c-0.35,0.099-0.791,0.15-1.325,0.15h-0.918c-0.305,0-0.493-0.019-0.563-0.052
	c-0.071-0.031-0.118-0.09-0.148-0.174c-0.022-0.067-0.038-0.291-0.042-0.679v-2.723h1.625c0.719,0,1.245,0.066,1.595,0.198
	c0.346,0.134,0.611,0.327,0.781,0.588c0.176,0.257,0.266,0.569,0.266,0.946C272.303,202.323,272.177,202.697,271.93,203.014z"/>
</svg>
