<?xml version="1.0" encoding="utf-8"?>
<!-- Generator: Adobe Illustrator 16.0.0, SVG Export Plug-In . SVG Version: 6.00 Build 0)  -->
<!DOCTYPE svg PUBLIC "-//W3C//DTD SVG 1.1//EN" "http://www.w3.org/Graphics/SVG/1.1/DTD/svg11.dtd">
<svg version="1.1" id="Layer_1" xmlns="http://www.w3.org/2000/svg" xmlns:xlink="http://www.w3.org/1999/xlink" x="0px" y="0px"
	 width="50px" height="50px" viewBox="314.5 174.5 50 50" enable-background="new 314.5 174.5 50 50" xml:space="preserve">
<path d="M347.989,205.211h-0.485v-1.078h0.485c0.282,0,0.479,0.019,0.589,0.053c0.108,0.035,0.196,0.094,0.251,0.177
	c0.058,0.082,0.089,0.18,0.089,0.298c0,0.108-0.031,0.212-0.093,0.296c-0.06,0.085-0.152,0.15-0.275,0.193
	C348.429,205.192,348.242,205.211,347.989,205.211z M348.636,205.934c-0.122-0.049-0.31-0.071-0.559-0.071h-0.573v0.957
	c0,0.137,0.006,0.215,0.016,0.239c0.009,0.03,0.026,0.05,0.051,0.061c0.024,0.013,0.09,0.02,0.196,0.02h0.326
	c0.186,0,0.34-0.02,0.466-0.054c0.125-0.036,0.229-0.108,0.313-0.217c0.088-0.11,0.13-0.244,0.13-0.398
	c0-0.131-0.029-0.24-0.091-0.333C348.85,206.046,348.759,205.979,348.636,205.934z M356.825,207.81
	c0.161-1.086-0.192-1.45-0.722-1.45c-1.196,0-2.271,6.963-15.575,6.155c3.755,0,6.909-0.638,9.272-1.735
	c-0.439,0.104-0.894,0.17-1.361,0.198c-7.189,2.289-14.186-1.087-14.186-3.738c0-0.137,0.011-0.274,0.026-0.41
	c-0.519,1.897,1.776,4.02,3.194,4.616c-2.479-0.658-3.768-2.663-3.902-3.153c-0.552,0.826-1.568,2.05-2.524,2.155
	c0.81-0.424,1.721-1.461,1.831-2.684c-4.44,1.099-9.963-0.755-10.931-2.662c1.377,1.828,7.578,2.853,10.347,1.734
	c-2.019,0.689-6.618,0.057-8.875-2.733c2.17,1.996,6.534,2.026,8.957,1.439c-1.141,0.284-4.369-0.748-6.721-3.102
	c1.139,1.142,5.864,2.261,7.461,1.615c-0.906,0-3.412-0.699-4.563-2.519c2.424,1.64,7.191,1.789,7.604,1.378
	c0.248-0.248-2.14-0.235-3.591-1.828c0.748,0.745,3.783,1.021,6.219,0.655c1.826-0.916,4.015-1.533,6.21-1.736
	c4.86-0.451,7.878,0.822,9.67,1.979c0.007-0.131,0.002-0.262-0.014-0.394c-0.146-0.533-0.337-1.048-0.604-1.521
	c-2.632-3.915-13.301-7.245-23.702,0.897c5.551-4.866,11.682-6.18,16.669-5.271c0.312-0.038,0.625-0.063,0.947-0.063
	c3.333,0,6.182,2.037,7.326,4.9C356.789,202.59,357.432,205.107,356.825,207.81z M350.153,206.589c0-0.195-0.049-0.375-0.141-0.535
	c-0.094-0.159-0.219-0.282-0.378-0.372c-0.11-0.063-0.269-0.123-0.477-0.176c0.194-0.065,0.351-0.147,0.468-0.248
	c0.119-0.1,0.208-0.217,0.27-0.348c0.062-0.13,0.093-0.271,0.093-0.415c0-0.201-0.061-0.385-0.175-0.555
	c-0.117-0.166-0.289-0.295-0.508-0.386c-0.086-0.034-0.187-0.06-0.298-0.082v-0.782h-0.749v0.729h-0.479v-0.729h-0.75v0.729h-1.145
	v0.611h0.174c0.119,0,0.196,0.013,0.238,0.033c0.038,0.022,0.068,0.05,0.086,0.085c0.016,0.037,0.024,0.121,0.024,0.251v2.469
	c0,0.127-0.009,0.212-0.024,0.249c-0.018,0.036-0.048,0.064-0.086,0.085c-0.042,0.02-0.119,0.029-0.238,0.029h-0.174v0.613h1.145
	v0.728h0.75v-0.728h0.424c0.02,0,0.037-0.002,0.056-0.002v0.729h0.749v-0.789c0.126-0.026,0.239-0.057,0.332-0.095
	c0.258-0.104,0.458-0.255,0.598-0.452C350.08,207.04,350.153,206.821,350.153,206.589z M341.014,203.316
	c0,2.926,1.921,5.416,4.597,6.356c-1.38-0.824-2.313-2.316-2.313-4.041c0-1.893,1.121-3.514,2.729-4.267
	c-1.917,0.005-3.514,0.218-4.845,0.559C341.084,202.374,341.014,202.836,341.014,203.316z M347.14,210.958
	c-3.953-0.403-7.046-3.677-7.046-7.642c0-0.374,0.041-0.739,0.095-1.099c-3.592,1.215-4.816,3.421-4.816,4.524
	C335.372,209.254,340.404,212.253,347.14,210.958z M350.84,201.866c1.146,0.862,1.899,2.221,1.899,3.766
	c0,1.612-0.811,3.032-2.043,3.884c1.664-0.7,3-2.003,3.69-3.639c0.049-0.224,0.091-0.449,0.112-0.68
	C354.554,204.563,354.252,202.754,350.84,201.866z M343.162,192.526c5.227,1.026,7.231-0.985,7.748-2.395
	c-2.947,2.41-13.091-5.273-22.736-3.42c-5.756,1.105-6.133,6.771-4.778,12.973C322.257,184.36,338.661,191.638,343.162,192.526z"/>
</svg>
