<?xml version="1.0" encoding="utf-8"?>
<!-- Generator: Adobe Illustrator 16.0.0, SVG Export Plug-In . SVG Version: 6.00 Build 0)  -->
<!DOCTYPE svg PUBLIC "-//W3C//DTD SVG 1.1//EN" "http://www.w3.org/Graphics/SVG/1.1/DTD/svg11.dtd">
<svg version="1.1" id="Layer_1" xmlns="http://www.w3.org/2000/svg" xmlns:xlink="http://www.w3.org/1999/xlink" x="0px" y="0px"
	 width="50px" height="50px" viewBox="-315.5 244.5 50 50" enable-background="new -315.5 244.5 50 50" xml:space="preserve">
<path d="M-292.964,273.063h1.865v-1.812h1.06c0.047,0,0.092-0.002,0.138-0.002v1.813h1.865v-1.969
	c0.313-0.061,0.588-0.136,0.823-0.23c0.644-0.257,1.142-0.633,1.493-1.125c0.352-0.491,0.528-1.028,0.528-1.613
	c0-0.489-0.116-0.933-0.347-1.33c-0.232-0.397-0.545-0.706-0.938-0.928c-0.274-0.158-0.668-0.303-1.183-0.434
	c0.48-0.164,0.867-0.369,1.159-0.62c0.293-0.25,0.518-0.539,0.673-0.863c0.155-0.327,0.233-0.672,0.233-1.035
	c0-0.499-0.147-0.958-0.441-1.377c-0.295-0.418-0.716-0.739-1.262-0.962c-0.212-0.087-0.465-0.153-0.738-0.205v-1.943h-1.865v1.812
	h-1.198v-1.812h-1.865v1.812h-2.844v1.524h0.434c0.29,0,0.485,0.026,0.588,0.078c0.103,0.053,0.175,0.124,0.217,0.214
	c0.043,0.089,0.063,0.297,0.063,0.623v6.141c0,0.321-0.021,0.527-0.063,0.619c-0.042,0.093-0.114,0.163-0.217,0.214
	c-0.103,0.05-0.298,0.074-0.588,0.074h-0.434v1.524h2.844V273.063z M-291.782,262.017h1.208c0.705,0,1.194,0.043,1.467,0.131
	c0.273,0.086,0.483,0.232,0.628,0.438c0.145,0.206,0.217,0.452,0.217,0.742c0,0.278-0.076,0.525-0.229,0.738
	c-0.153,0.212-0.38,0.371-0.683,0.478c-0.303,0.104-0.77,0.157-1.4,0.157h-1.208V262.017z M-291.782,266.318h1.425
	c0.625,0,1.089,0.059,1.395,0.174c0.304,0.115,0.532,0.287,0.685,0.513c0.152,0.227,0.229,0.502,0.229,0.829
	c0,0.385-0.108,0.712-0.323,0.986c-0.216,0.273-0.477,0.455-0.784,0.54c-0.308,0.087-0.695,0.133-1.162,0.133h-0.804
	c-0.267,0-0.431-0.017-0.492-0.046c-0.061-0.028-0.104-0.079-0.13-0.153c-0.022-0.058-0.034-0.255-0.04-0.593V266.318z
	 M-306.75,255.271v20.875h32.5v-20.875H-306.75z M-276.25,274.146h-28.5v-16.875h28.5V274.146z M-300.5,276.583h20v2h-4.477
	l3.47,6.089l-1.737,0.99l-4.035-7.079h-6.443l-4.035,7.079l-1.737-0.99l3.47-6.089h-4.477V276.583z M-287,254.833h-7v-2h7V254.833z"
	/>
</svg>
