<?xml version="1.0" encoding="utf-8"?>
<!-- Generator: Adobe Illustrator 16.0.0, SVG Export Plug-In . SVG Version: 6.00 Build 0)  -->
<!DOCTYPE svg PUBLIC "-//W3C//DTD SVG 1.1//EN" "http://www.w3.org/Graphics/SVG/1.1/DTD/svg11.dtd">
<svg version="1.1" id="Layer_1" xmlns="http://www.w3.org/2000/svg" xmlns:xlink="http://www.w3.org/1999/xlink" x="0px" y="0px"
	 width="50px" height="50px" viewBox="-245.5 244.5 50 50" enable-background="new -245.5 244.5 50 50" xml:space="preserve">
<path d="M-229.568,259.523c-0.028,0-0.054,0.007-0.081,0.007c-0.082-0.002-0.162-0.008-0.245-0.007H-229.568z M-218.191,253.753h-7
	v2h7V253.753z M-229.694,272.041c-0.015,0-0.028-0.003-0.042-0.003c-0.01,0-0.021,0.003-0.031,0.003H-229.694z M-224.861,265.414
	c-0.022-0.003-0.043,0.011-0.064,0.011c-0.098-4.31-2.145-5.829-4.724-5.895c-2.659,0.012-5.039,1.86-4.889,5.896
	c-0.026-0.001-0.05-0.017-0.074-0.013c-0.338,0.059-0.535,0.557-0.44,1.115c0.093,0.557,0.443,0.963,0.783,0.906
	c0.011-0.002,0.02-0.014,0.032-0.018c0.724,2.619,2.598,4.579,4.501,4.62c1.735-0.078,3.864-2.004,4.573-4.609
	c0.326,0.021,0.653-0.364,0.743-0.899C-224.327,265.971-224.523,265.473-224.861,265.414z M-205.441,271.129v5.937h-13.908
	c0.051,0.142,0.099,0.287,0.141,0.438h7.517v2h-4.477l3.47,6.089l-1.737,0.99l-4.035-7.079h-0.478c0,0.007,0.001,0.014,0.001,0.021
	h-5.978l-4.023,7.059l-1.737-0.99l3.458-6.068h-13.301c0-2.485,0.975-4.138,2.586-5.206V256.19h19.108
	c5.016-1.682,8.618-3.772,8.618-3.772h0.007c0,0,4.145,2.34,9.614,4.095C-200.594,256.513-199.26,265.047-205.441,271.129z
	 M-207.441,272.808c-0.817,0.584-1.723,1.13-2.739,1.622h-0.064c-8.917-4.316-9.772-12.676-9.703-16.239h-15.994v15.184
	c0.802-0.267,1.681-0.46,2.624-0.587l2.407,4.716h0.007l0.381-3.065l-0.597-0.488h1.321h1.445l-0.597,0.488l0.381,3.065h0.007
	l2.409-4.716c2.308,0.311,4.253,0.998,5.541,2.278h13.172V272.808z M-201.57,257.645l-0.023-0.333l-0.316-0.106
	c-3.698-1.251-6.639-2.692-8.063-3.439l-0.235-0.124l-0.234,0.126c-1.409,0.755-4.331,2.206-8.063,3.441l-0.322,0.106l-0.02,0.338
	c-0.15,2.513,0.011,11.052,8.401,15.47l0.233,0.123l0.232-0.123C-201.494,268.665-201.398,260.148-201.57,257.645z
	 M-202.549,258.043c0.12,2.667-0.276,10.042-7.662,14.07c-7.3-3.992-7.75-11.384-7.652-14.064c3.456-1.169,6.195-2.502,7.662-3.275
	C-208.724,255.538-205.972,256.861-202.549,258.043z M-205.095,263.086c0-2.826-2.291-5.116-5.117-5.116
	c-2.826,0-5.116,2.29-5.116,5.116s2.291,5.116,5.116,5.116C-207.385,268.202-205.095,265.912-205.095,263.086z M-207.995,263.557
	c0.103,0.176,0.154,0.374,0.154,0.592c0,0.262-0.079,0.502-0.235,0.721c-0.158,0.221-0.38,0.388-0.667,0.503
	c-0.105,0.043-0.228,0.076-0.368,0.103v0.879h-0.833v-0.809c-0.021,0-0.04,0-0.062,0h-0.474v0.809h-0.832v-0.809h-1.271v-0.68h0.195
	c0.129,0,0.216-0.013,0.262-0.034s0.078-0.054,0.097-0.095c0.02-0.042,0.029-0.134,0.029-0.277v-2.742
	c0-0.146-0.009-0.237-0.029-0.277c-0.019-0.041-0.051-0.073-0.097-0.096c-0.046-0.023-0.133-0.036-0.262-0.036h-0.195v-0.681h1.271
	v-0.808h0.832v0.808h0.535v-0.808h0.833v0.867c0.123,0.023,0.235,0.054,0.33,0.092c0.244,0.099,0.432,0.242,0.564,0.428
	c0.131,0.188,0.197,0.394,0.197,0.617c0,0.161-0.035,0.314-0.104,0.462c-0.07,0.145-0.17,0.273-0.3,0.385
	c-0.131,0.111-0.304,0.204-0.518,0.277c0.23,0.058,0.406,0.123,0.529,0.192C-208.239,263.238-208.099,263.378-207.995,263.557z
	 M-210.784,262.619h0.539c0.282,0,0.49-0.023,0.625-0.07s0.236-0.118,0.305-0.213c0.069-0.095,0.102-0.206,0.102-0.329
	c0-0.131-0.032-0.24-0.096-0.332c-0.065-0.093-0.158-0.156-0.281-0.194c-0.122-0.04-0.341-0.059-0.655-0.059h-0.539V262.619z
	 M-209.117,264.019c0-0.146-0.034-0.27-0.102-0.37c-0.069-0.1-0.17-0.177-0.307-0.229c-0.136-0.053-0.343-0.077-0.623-0.077h-0.636
	v1.063c0.002,0.151,0.007,0.238,0.017,0.264c0.012,0.033,0.031,0.057,0.059,0.071c0.026,0.012,0.1,0.017,0.22,0.017h0.358
	c0.208,0,0.381-0.017,0.519-0.058c0.138-0.038,0.254-0.118,0.351-0.241S-209.117,264.19-209.117,264.019z"/>
</svg>
