<?xml version="1.0" encoding="utf-8"?>
<!-- Generator: Adobe Illustrator 16.0.0, SVG Export Plug-In . SVG Version: 6.00 Build 0)  -->
<!DOCTYPE svg PUBLIC "-//W3C//DTD SVG 1.1//EN" "http://www.w3.org/Graphics/SVG/1.1/DTD/svg11.dtd">
<svg version="1.1" id="Layer_1" xmlns="http://www.w3.org/2000/svg" xmlns:xlink="http://www.w3.org/1999/xlink" x="0px" y="0px"
	 width="50px" height="50px" viewBox="-175.5 244.5 50 50" enable-background="new -175.5 244.5 50 50" xml:space="preserve">
<path d="M-145.73,268.018h0.525v-0.511h0.299c0.015,0,0.027,0,0.04,0v0.511h0.526v-0.556c0.087-0.018,0.166-0.036,0.23-0.064
	c0.181-0.071,0.323-0.18,0.422-0.318c0.099-0.135,0.149-0.286,0.149-0.453c0-0.137-0.032-0.264-0.098-0.376
	c-0.065-0.112-0.155-0.197-0.265-0.259c-0.075-0.045-0.188-0.086-0.334-0.123c0.136-0.046,0.246-0.104,0.329-0.175
	c0.084-0.07,0.146-0.152,0.188-0.245c0.043-0.092,0.066-0.188,0.066-0.289c0-0.143-0.042-0.271-0.124-0.39
	c-0.082-0.116-0.2-0.209-0.354-0.271c-0.06-0.024-0.132-0.042-0.208-0.058v-0.549h-0.526v0.512h-0.339v-0.512h-0.525v0.512h-0.801
	v0.429h0.124c0.079,0,0.137,0.01,0.163,0.023c0.031,0.013,0.05,0.034,0.063,0.059c0.013,0.026,0.017,0.085,0.017,0.177v1.73
	c0,0.091-0.004,0.149-0.017,0.175c-0.013,0.026-0.032,0.046-0.063,0.062c-0.026,0.013-0.084,0.021-0.163,0.021h-0.124v0.429h0.801
	V268.018z M-145.397,264.902h0.342c0.196,0,0.335,0.012,0.412,0.038c0.078,0.025,0.137,0.066,0.179,0.123
	c0.04,0.058,0.059,0.128,0.059,0.209c0,0.08-0.021,0.148-0.064,0.207c-0.042,0.062-0.107,0.106-0.191,0.137
	c-0.086,0.028-0.216,0.044-0.395,0.044h-0.342V264.902z M-145.397,266.117h0.402c0.177,0,0.308,0.017,0.394,0.049
	c0.086,0.033,0.15,0.08,0.193,0.144c0.044,0.065,0.063,0.143,0.063,0.234c0,0.107-0.031,0.199-0.09,0.277
	c-0.062,0.078-0.136,0.129-0.221,0.155c-0.086,0.021-0.195,0.033-0.328,0.033h-0.228c-0.074,0-0.12-0.001-0.138-0.013
	c-0.017-0.006-0.029-0.021-0.037-0.041c-0.008-0.016-0.009-0.071-0.012-0.166V266.117z M-150.926,267.038
	c0.321,0.012,0.656,0.324,0.844,0.627c0.477,0.77,1.123,1.401,1.748,2.011l0.083,0.084c0.008,0.096-0.015,0.326-0.055,0.504
	l-0.008,0.077c0,0.495,0.398,0.9,0.891,0.9h1.531c0.319,0,0.603-0.171,0.758-0.433c0.193,0.009,0.378,0.009,0.567,0
	c0.16,0.262,0.443,0.433,0.761,0.433h1.534c0.49,0,0.886-0.405,0.886-0.9c-0.006-0.199,0.012-0.42,0.039-0.509
	c1.107-0.821,2.21-2.535,2.21-4.271c0-1.253-0.481-2.405-1.276-3.31c0.077-0.034,0.151-0.064,0.229-0.092
	c0.073-0.021,0.146-0.042,0.221-0.054c0.075-0.017,0.128-0.021,0.224-0.023c0.122-0.004,0.253,0.018,0.388,0.047
	c-0.026,0.09-0.041,0.178-0.044,0.273c-0.006,0.148,0.019,0.313,0.12,0.466c0.048,0.072,0.118,0.147,0.199,0.19
	c0.04,0.029,0.084,0.051,0.126,0.065l0.07,0.024l0.015,0.005l0.037,0.004l0.026,0.005c0.019,0.003,0.028,0.005,0.057,0.007h0.083
	c0.055-0.004,0.108-0.012,0.168-0.034c0.059-0.02,0.117-0.062,0.164-0.114c0.043-0.05,0.074-0.111,0.091-0.167
	c0.031-0.114,0.019-0.214,0.002-0.309c-0.02-0.092-0.05-0.181-0.091-0.261l-0.005-0.008l-0.006-0.01
	c-0.096-0.131-0.22-0.243-0.354-0.314c-0.078-0.048-0.16-0.086-0.244-0.119c0.009-0.012,0.015-0.029,0.027-0.042
	c0.01-0.023,0.028-0.038,0.042-0.056c0.015-0.018,0.031-0.038,0.043-0.049c0.012-0.008,0.028-0.017,0.04-0.033l0.073-0.036
	c0.071-0.028,0.162-0.043,0.248-0.043c0.176,0,0.341,0.043,0.482,0.096c0.14,0.048,0.257,0.104,0.348,0.151
	c0.094,0.048,0.162,0.094,0.204,0.121c0.046,0.032,0.07,0.049,0.07,0.049s-0.019-0.021-0.06-0.063
	c-0.04-0.033-0.104-0.09-0.188-0.152c-0.089-0.066-0.199-0.14-0.34-0.21c-0.141-0.071-0.311-0.141-0.521-0.165
	c-0.105-0.01-0.22-0.008-0.344,0.035c-0.023,0.008-0.044,0.012-0.075,0.032c-0.029,0.016-0.063,0.032-0.089,0.054
	c-0.05,0.042-0.1,0.082-0.141,0.135c-0.025,0.029-0.044,0.061-0.065,0.096c-0.173-0.045-0.34-0.078-0.539-0.074l-0.133,0.008
	l-0.15,0.021c-0.097,0.021-0.19,0.042-0.275,0.071c-0.147,0.054-0.28,0.116-0.405,0.188c-1.046-1.021-2.525-1.665-4.166-1.665
	c-0.643,0-1.274,0.098-1.879,0.291c-0.441-0.191-1.21-0.453-2.062-0.453c-0.162,0-0.325,0.009-0.477,0.029l-0.032,0.007
	c-0.081,0.017-0.475,0.119-0.592,0.479c-0.055,0.161-0.058,0.423,0.212,0.735c0.048,0.073,0.288,0.422,0.461,0.789
	c-0.225,0.259-0.401,0.541-0.575,0.814c-0.082,0.134-0.164,0.264-0.254,0.398c-0.413,0.598-0.946,0.662-1.159,0.662
	c-0.043,0-0.07-0.002-0.076-0.005l-0.382-0.046l-0.021,0.381c-0.024,0.523-0.06,0.861-0.094,1.153
	c-0.02,0.157-0.037,0.295-0.046,0.438c-0.024,0.33,0.046,0.597,0.211,0.78C-151.381,267.015-151.051,267.03-150.926,267.038z
	 M-139.073,262.219c0.189,0.079,0.338,0.181,0.388,0.252c0.055,0.106,0.082,0.233,0.067,0.291c-0.009,0.027-0.007,0.022-0.026,0.033
	c-0.007,0.007-0.029,0.009-0.046,0.012c-0.01,0-0.017,0-0.025,0.004l-0.057-0.007l-0.017-0.002l-0.007-0.002l-0.037-0.011
	c-0.014-0.003-0.023-0.005-0.035-0.011l-0.03-0.015c-0.019-0.013-0.039-0.021-0.053-0.04c-0.018-0.015-0.034-0.029-0.044-0.051
	c-0.053-0.071-0.086-0.178-0.088-0.285C-139.084,262.329-139.083,262.273-139.073,262.219z M-146.684,261.959
	c0.583-0.259,1.185-0.393,1.795-0.393c1.843,0,3.162,1.212,3.173,1.226c0.028,0.025,0.043,0.06,0.043,0.097
	c0.003,0.036-0.012,0.072-0.038,0.1c-0.027,0.027-0.063,0.042-0.098,0.042l-0.011-0.002c-0.033,0-0.064-0.013-0.089-0.038
	c-0.012-0.011-1.257-1.149-2.98-1.149c-0.569,0-1.134,0.124-1.676,0.368c-0.019,0.008-0.038,0.011-0.059,0.011
	c-0.052,0-0.104-0.029-0.126-0.076c-0.016-0.034-0.019-0.07-0.006-0.104C-146.744,262.004-146.716,261.975-146.684,261.959z
	 M-145.123,263.056c1.594,0,2.888,1.269,2.888,2.834c0,1.566-1.293,2.837-2.888,2.837c-1.597,0-2.888-1.271-2.888-2.837
	C-148.011,264.324-146.72,263.056-145.123,263.056z M-158.54,258.604c-0.028,0-0.054,0.007-0.081,0.007
	c-0.082-0.002-0.162-0.008-0.245-0.007H-158.54z M-158.739,271.121c0.01,0,0.021-0.003,0.031-0.003c0.015,0,0.028,0.003,0.042,0.003
	H-158.739z M-154.135,266.509c-0.709,2.605-2.838,4.531-4.573,4.609c-1.903-0.041-3.777-2.001-4.501-4.62
	c-0.012,0.004-0.021,0.016-0.032,0.018c-0.339,0.057-0.689-0.35-0.783-0.906c-0.095-0.559,0.103-1.057,0.44-1.115
	c0.024-0.004,0.048,0.012,0.074,0.013c-0.15-4.036,2.23-5.885,4.889-5.896c2.579,0.065,4.626,1.585,4.724,5.895
	c0.021,0,0.042-0.014,0.064-0.011c0.338,0.059,0.535,0.557,0.44,1.115C-153.482,266.145-153.809,266.529-154.135,266.509z
	 M-134.412,276.146v-20.875h-32.5v18.127c-1.611,1.068-2.586,2.721-2.586,5.206h13.301l-3.458,6.068l1.737,0.99l4.023-7.059h5.978
	c0-0.007-0.001-0.014-0.001-0.021h0.478l4.035,7.079l1.737-0.99l-3.47-6.089h4.477v-2h-7.517c-0.042-0.15-0.089-0.296-0.141-0.438
	H-134.412z M-157.541,276.583l-0.381-3.065l0.597-0.488h-1.445h-1.321l0.597,0.488l-0.381,3.065h-0.007l-2.407-4.716
	c-0.943,0.127-1.821,0.32-2.624,0.587v-15.184h28.5v16.875h-13.172c-1.288-1.28-3.233-1.968-5.541-2.278l-2.409,4.716H-157.541z
	 M-147.162,254.833h-7v-2h7V254.833z"/>
</svg>
