<?xml version="1.0" encoding="utf-8"?>
<!-- Generator: Adobe Illustrator 16.0.0, SVG Export Plug-In . SVG Version: 6.00 Build 0)  -->
<!DOCTYPE svg PUBLIC "-//W3C//DTD SVG 1.1//EN" "http://www.w3.org/Graphics/SVG/1.1/DTD/svg11.dtd">
<svg version="1.1" id="Layer_1" xmlns="http://www.w3.org/2000/svg" xmlns:xlink="http://www.w3.org/1999/xlink" x="0px" y="0px"
	 width="50px" height="50px" viewBox="-105.5 244.5 50 50" enable-background="new -105.5 244.5 50 50" xml:space="preserve">
<path d="M-67.914,267.968c0-1.619-0.792-3.049-2.005-3.936c0.319-0.021,0.573-0.285,0.573-0.61c0-0.338-0.275-0.612-0.614-0.612
	h-0.138l1.059-2.067h-7.504l1.059,2.067h-0.138c-0.339,0-0.614,0.274-0.614,0.612c0,0.325,0.254,0.59,0.573,0.61
	c-1.213,0.887-2.005,2.316-2.005,3.936v7.072h9.752V267.968z M-72.79,273.11c-1.898,0-3.438-1.54-3.438-3.438
	c0-1.899,1.54-3.438,3.438-3.438c1.898,0,3.438,1.539,3.438,3.438C-69.352,271.57-70.892,273.11-72.79,273.11z M-71.626,269.708
	c-0.079-0.047-0.193-0.088-0.342-0.125c0.139-0.05,0.25-0.108,0.335-0.18c0.085-0.074,0.15-0.156,0.195-0.251s0.067-0.194,0.067-0.3
	c0-0.145-0.042-0.277-0.127-0.399c-0.085-0.12-0.208-0.213-0.366-0.277c-0.062-0.025-0.134-0.045-0.213-0.061v-0.56h-0.54v0.522
	h-0.347v-0.522h-0.54v0.522h-0.823v0.441h0.125c0.083,0,0.14,0.008,0.169,0.022c0.031,0.017,0.051,0.036,0.063,0.062
	c0.012,0.026,0.018,0.087,0.018,0.18v1.779c0,0.093-0.006,0.152-0.018,0.18c-0.013,0.026-0.033,0.047-0.063,0.061
	c-0.029,0.016-0.086,0.021-0.169,0.021h-0.125v0.442h0.823v0.523h0.54v-0.523h0.308c0.014,0,0.026-0.002,0.04-0.002v0.525h0.54
	v-0.569c0.09-0.018,0.17-0.039,0.238-0.067c0.186-0.074,0.331-0.183,0.432-0.326c0.102-0.141,0.153-0.297,0.153-0.466
	c0-0.142-0.034-0.27-0.101-0.385C-71.42,269.86-71.512,269.771-71.626,269.708z M-73.161,268.593h0.35
	c0.204,0,0.346,0.012,0.424,0.038c0.08,0.024,0.141,0.066,0.183,0.126c0.042,0.061,0.062,0.131,0.062,0.215
	c0,0.081-0.021,0.152-0.065,0.215c-0.045,0.061-0.11,0.106-0.198,0.138c-0.088,0.029-0.222,0.045-0.405,0.045h-0.35V268.593z
	 M-72.174,270.563c-0.062,0.078-0.138,0.131-0.226,0.156c-0.089,0.026-0.202,0.039-0.336,0.039h-0.233
	c-0.078,0-0.125-0.007-0.142-0.013c-0.019-0.01-0.031-0.024-0.039-0.046c-0.006-0.015-0.01-0.073-0.011-0.17v-0.691h0.412
	c0.181,0,0.315,0.018,0.404,0.05c0.088,0.034,0.154,0.083,0.198,0.149c0.044,0.065,0.066,0.145,0.066,0.239
	C-72.081,270.387-72.111,270.482-72.174,270.563z M-87.417,260.604c-0.028,0-0.054,0.007-0.081,0.007
	c-0.082-0.002-0.162-0.008-0.245-0.007H-87.417z M-87.617,273.121c0.01,0,0.021-0.003,0.031-0.003c0.015,0,0.028,0.003,0.042,0.003
	H-87.617z M-92.901,267.609c-0.095-0.559,0.103-1.057,0.44-1.115c0.024-0.004,0.048,0.012,0.074,0.013
	c-0.15-4.036,2.23-5.885,4.889-5.896c2.579,0.065,4.626,1.585,4.724,5.895c0.021,0,0.042-0.014,0.064-0.011
	c0.338,0.059,0.535,0.557,0.44,1.115c-0.09,0.535-0.417,0.92-0.743,0.899c-0.709,2.605-2.838,4.531-4.573,4.609
	c-1.903-0.041-3.777-2.001-4.501-4.62c-0.012,0.004-0.021,0.016-0.032,0.018C-92.458,268.572-92.808,268.166-92.901,267.609z
	 M-76.04,256.833h-7v-2h7V256.833z M-63.29,257.271h-32.5v18.127c-1.611,1.068-2.586,2.721-2.586,5.206h13.301l-3.458,6.068
	l1.737,0.99l4.023-7.059h5.978c0-0.007-0.001-0.014-0.001-0.021h0.478l4.035,7.079l1.737-0.99l-3.47-6.089h4.477v-2h-7.517
	c-0.042-0.15-0.089-0.296-0.141-0.438h13.908V257.271z M-65.29,276.146h-13.172c-1.288-1.28-3.233-1.968-5.541-2.278l-2.409,4.716
	h-0.007l-0.381-3.065l0.597-0.488h-1.445h-1.321l0.597,0.488l-0.381,3.065h-0.007l-2.407-4.716c-0.943,0.127-1.821,0.32-2.624,0.587
	v-15.184h28.5V276.146z"/>
</svg>
