<?xml version="1.0" encoding="utf-8"?>
<!-- Generator: Adobe Illustrator 16.0.0, SVG Export Plug-In . SVG Version: 6.00 Build 0)  -->
<!DOCTYPE svg PUBLIC "-//W3C//DTD SVG 1.1//EN" "http://www.w3.org/Graphics/SVG/1.1/DTD/svg11.dtd">
<svg version="1.1" id="Layer_1" xmlns="http://www.w3.org/2000/svg" xmlns:xlink="http://www.w3.org/1999/xlink" x="0px" y="0px"
	 width="50px" height="50px" viewBox="-35.5 244.5 50 50" enable-background="new -35.5 244.5 50 50" xml:space="preserve">
<path d="M-1.563,271.638h0.939v-0.913h0.534c0.024,0,0.046,0,0.07-0.001v0.914h0.939v-0.991c0.158-0.03,0.297-0.069,0.416-0.116
	c0.324-0.13,0.574-0.319,0.752-0.567c0.177-0.247,0.266-0.519,0.266-0.813c0-0.247-0.058-0.47-0.175-0.67
	c-0.116-0.2-0.275-0.356-0.473-0.468c-0.139-0.079-0.336-0.152-0.597-0.219c0.243-0.082,0.438-0.187,0.585-0.313
	c0.148-0.125,0.261-0.271,0.339-0.436c0.079-0.164,0.119-0.338,0.119-0.521c0-0.253-0.075-0.483-0.223-0.694
	c-0.149-0.211-0.362-0.372-0.636-0.485c-0.107-0.044-0.234-0.076-0.373-0.104v-0.979H-0.02v0.913h-0.604v-0.913h-0.939v0.913h-1.434
	v0.768h0.218c0.146,0,0.246,0.013,0.297,0.04c0.052,0.026,0.088,0.062,0.11,0.107c0.021,0.045,0.031,0.149,0.031,0.313v3.096
	c0,0.162-0.011,0.266-0.031,0.313c-0.022,0.046-0.058,0.081-0.11,0.107c-0.052,0.024-0.151,0.037-0.297,0.037h-0.218v0.768h1.434
	V271.638z M-0.968,266.071h0.608c0.355,0,0.602,0.021,0.74,0.065s0.243,0.117,0.316,0.221c0.074,0.104,0.109,0.228,0.109,0.374
	c0,0.141-0.038,0.264-0.115,0.372c-0.077,0.106-0.192,0.188-0.345,0.24s-0.388,0.079-0.706,0.079h-0.608V266.071z M-0.968,268.238
	h0.718c0.314,0,0.55,0.029,0.703,0.088c0.153,0.058,0.268,0.145,0.345,0.259c0.078,0.114,0.115,0.253,0.115,0.417
	c0,0.194-0.054,0.359-0.163,0.498c-0.108,0.138-0.241,0.229-0.396,0.271c-0.154,0.044-0.349,0.066-0.585,0.066h-0.405
	c-0.134,0-0.217-0.008-0.248-0.022c-0.03-0.015-0.052-0.04-0.065-0.076c-0.01-0.03-0.017-0.13-0.019-0.3V268.238z M-3.532,271.652
	h-3.167v-4.377h3.167V271.652z M6.054,271.652H2.887v-10.295h3.167V271.652z M-13.423,258.604c-0.028,0-0.054,0.007-0.081,0.007
	c-0.082-0.002-0.162-0.008-0.245-0.007H-13.423z M-13.623,271.121c0.01,0,0.021-0.003,0.031-0.003c0.015,0,0.028,0.003,0.042,0.003
	H-13.623z M-9.019,266.509c-0.709,2.605-2.838,4.531-4.573,4.609c-1.903-0.041-3.777-2.001-4.501-4.62
	c-0.012,0.004-0.021,0.016-0.032,0.018c-0.339,0.057-0.689-0.35-0.783-0.906c-0.095-0.559,0.103-1.057,0.44-1.115
	c0.024-0.004,0.048,0.012,0.074,0.013c-0.15-4.036,2.23-5.885,4.889-5.896c2.579,0.065,4.626,1.585,4.724,5.895
	c0.021,0,0.042-0.014,0.064-0.011c0.338,0.059,0.535,0.557,0.44,1.115C-8.366,266.145-8.692,266.529-9.019,266.509z M10.705,276.146
	v-20.875h-32.5v18.127c-1.611,1.068-2.586,2.721-2.586,5.206h13.301l-3.458,6.068l1.737,0.99l4.023-7.059h5.978
	c0-0.007-0.001-0.014-0.001-0.021h0.478l4.035,7.079l1.737-0.99l-3.47-6.089h4.477v-2h-7.517c-0.042-0.15-0.089-0.296-0.141-0.438
	H10.705z M-12.424,276.583l-0.381-3.065l0.597-0.488h-1.445h-1.321l0.597,0.488l-0.381,3.065h-0.007l-2.407-4.716
	c-0.943,0.127-1.821,0.32-2.624,0.587v-15.184h28.5v16.875H-4.468c-1.288-1.28-3.233-1.968-5.541-2.278l-2.409,4.716H-12.424z
	 M-2.045,254.833h-7v-2h7V254.833z"/>
</svg>
