<?xml version="1.0" encoding="utf-8"?>
<!-- Generator: Adobe Illustrator 16.0.0, SVG Export Plug-In . SVG Version: 6.00 Build 0)  -->
<!DOCTYPE svg PUBLIC "-//W3C//DTD SVG 1.1//EN" "http://www.w3.org/Graphics/SVG/1.1/DTD/svg11.dtd">
<svg version="1.1" id="Layer_1" xmlns="http://www.w3.org/2000/svg" xmlns:xlink="http://www.w3.org/1999/xlink" x="0px" y="0px"
	 width="50px" height="50px" viewBox="34.5 244.5 50 50" enable-background="new 34.5 244.5 50 50" xml:space="preserve">
<path d="M71.178,266.796V265.5c0.207-0.039,0.387-0.089,0.543-0.151c0.422-0.169,0.75-0.416,0.982-0.74
	c0.23-0.323,0.348-0.678,0.348-1.063c0-0.322-0.076-0.613-0.229-0.875s-0.359-0.466-0.619-0.61c-0.18-0.104-0.439-0.199-0.779-0.286
	c0.316-0.107,0.572-0.243,0.766-0.407c0.191-0.165,0.34-0.355,0.443-0.569c0.102-0.215,0.152-0.442,0.152-0.682
	c0-0.328-0.096-0.631-0.291-0.906c-0.193-0.275-0.471-0.486-0.83-0.634c-0.141-0.057-0.305-0.1-0.486-0.135v-1.278h-1.227v1.192
	h-0.789v-1.192h-1.229v1.192h-1.871v1.003h0.285c0.189,0,0.32,0.018,0.387,0.052c0.068,0.034,0.115,0.081,0.143,0.141
	c0.029,0.059,0.043,0.195,0.043,0.41v4.043c0,0.211-0.014,0.347-0.043,0.407c-0.027,0.061-0.074,0.107-0.143,0.141
	c-0.066,0.032-0.197,0.05-0.387,0.05h-0.285v1.002h1.871v1.192h1.229v-1.192h0.697c0.031,0,0.061-0.001,0.092-0.001v1.193H71.178z
	 M68.711,259.524h0.795c0.465,0,0.787,0.028,0.967,0.086c0.18,0.057,0.318,0.153,0.414,0.288c0.096,0.136,0.143,0.298,0.143,0.488
	c0,0.185-0.051,0.346-0.15,0.486c-0.102,0.14-0.25,0.245-0.449,0.314s-0.508,0.104-0.924,0.104h-0.795V259.524z M69.676,264.445
	h-0.527c-0.178,0-0.285-0.01-0.326-0.029c-0.039-0.019-0.066-0.052-0.084-0.101c-0.014-0.038-0.023-0.168-0.027-0.39v-1.569h0.939
	c0.412,0,0.717,0.038,0.918,0.114c0.199,0.076,0.35,0.188,0.451,0.338c0.1,0.148,0.15,0.33,0.15,0.545c0,0.254-0.07,0.47-0.213,0.65
	c-0.143,0.18-0.314,0.299-0.516,0.355C70.238,264.416,69.984,264.445,69.676,264.445z M81.08,264.038
	c-0.387,0.394-1.021,0.396-1.414,0.008l-0.811-0.803c-0.463,3.435-2.793,6.394-6.139,7.596v6.66H58.809
	c0.051,0.142,0.1,0.287,0.141,0.438h7.518v2H61.99l3.471,6.089l-1.738,0.99l-4.035-7.079h-0.477c0,0.007,0,0.014,0,0.021h-5.977
	l-4.023,7.059l-1.738-0.99l3.459-6.068H37.631c0-2.485,0.975-4.138,2.586-5.206v-18.127h21.576c1.129-1.634,2.77-2.915,4.756-3.579
	c4.068-1.359,8.545,0.208,10.881,3.813c0.301,0.464,0.168,1.083-0.295,1.383c-0.463,0.302-1.082,0.167-1.383-0.295
	c-1.84-2.839-5.361-4.073-8.568-3.005c-2.572,0.858-4.391,3.032-4.898,5.597l0.641-0.61c0.398-0.381,1.031-0.366,1.414,0.033
	c0.381,0.399,0.365,1.032-0.033,1.414l-2.494,2.381c-0.188,0.178-0.434,0.276-0.691,0.276c-0.008,0-0.016,0-0.023,0
	c-0.266-0.007-0.518-0.118-0.699-0.31l-2.379-2.495c-0.381-0.4-0.367-1.033,0.033-1.414s1.033-0.366,1.414,0.033l0.756,0.795
	c0.1-0.696,0.273-1.372,0.52-2.018H42.217v15.184c0.803-0.267,1.68-0.46,2.623-0.587l2.408,4.716h0.006l0.381-3.065l-0.596-0.488
	h1.32h1.445l-0.598,0.488l0.381,3.065h0.008l2.408-4.716c2.307,0.311,4.252,0.998,5.541,2.278h13.172v-4.181
	c-0.393,0.05-0.787,0.082-1.178,0.082c-3.125,0-6.129-1.563-7.902-4.299c-0.301-0.464-0.168-1.083,0.295-1.383
	c0.465-0.303,1.084-0.168,1.383,0.295c1.842,2.84,5.367,4.072,8.57,3.004c2.545-0.85,4.355-2.99,4.883-5.524l-0.564,0.569
	c-0.195,0.197-0.451,0.296-0.709,0.296c-0.256,0-0.51-0.097-0.705-0.29c-0.391-0.389-0.395-1.021-0.006-1.414l2.426-2.448
	c0.389-0.392,1.021-0.395,1.414-0.007l2.449,2.425C81.465,263.013,81.469,263.646,81.08,264.038z M48.59,259.957
	c-0.027,0-0.055,0.007-0.082,0.007c-0.082-0.002-0.162-0.008-0.244-0.007H48.59z M48.391,272.475c0.01,0,0.02-0.003,0.031-0.003
	c0.014,0,0.027,0.003,0.041,0.003H48.391z M48.422,272.472c-1.904-0.041-3.777-2.001-4.502-4.62
	c-0.012,0.004-0.02,0.016-0.031,0.018c-0.34,0.057-0.689-0.35-0.783-0.906c-0.094-0.559,0.104-1.057,0.441-1.115
	c0.023-0.004,0.047,0.012,0.072,0.013c-0.15-4.036,2.23-5.885,4.889-5.896c2.58,0.065,4.627,1.585,4.725,5.895
	c0.021,0,0.043-0.014,0.064-0.011c0.338,0.059,0.535,0.557,0.439,1.115c-0.09,0.535-0.416,0.92-0.742,0.899
	C52.285,270.468,50.156,272.394,48.422,272.472z M59.967,256.187h-7v-2h7V256.187z"/>
</svg>
