<?xml version="1.0" encoding="utf-8"?>
<!-- Generator: Adobe Illustrator 16.0.0, SVG Export Plug-In . SVG Version: 6.00 Build 0)  -->
<!DOCTYPE svg PUBLIC "-//W3C//DTD SVG 1.1//EN" "http://www.w3.org/Graphics/SVG/1.1/DTD/svg11.dtd">
<svg version="1.1" id="Layer_1" xmlns="http://www.w3.org/2000/svg" xmlns:xlink="http://www.w3.org/1999/xlink" x="0px" y="0px"
	 width="50px" height="50px" viewBox="104.5 244.5 50 50" enable-background="new 104.5 244.5 50 50" xml:space="preserve">
<path d="M134.774,271.891h0.939v-0.914h0.534c0.023,0,0.047,0,0.07,0v0.914h0.938v-0.992c0.157-0.029,0.297-0.068,0.415-0.115
	c0.324-0.131,0.574-0.32,0.753-0.568c0.177-0.246,0.267-0.518,0.267-0.813c0-0.248-0.059-0.471-0.176-0.67
	c-0.116-0.201-0.275-0.357-0.473-0.469c-0.139-0.078-0.336-0.152-0.598-0.219c0.244-0.082,0.438-0.186,0.586-0.313
	c0.148-0.125,0.261-0.271,0.338-0.436c0.079-0.164,0.119-0.338,0.119-0.52c0-0.254-0.074-0.484-0.223-0.695
	s-0.361-0.371-0.637-0.484c-0.106-0.045-0.233-0.076-0.372-0.104v-0.979h-0.938v0.912h-0.604v-0.912h-0.939v0.912h-1.435v0.768
	h0.219c0.146,0,0.245,0.014,0.297,0.041c0.053,0.025,0.088,0.061,0.109,0.107c0.021,0.045,0.031,0.148,0.031,0.313v3.096
	c0,0.162-0.01,0.266-0.031,0.313s-0.057,0.082-0.109,0.107c-0.052,0.025-0.151,0.037-0.297,0.037h-0.219v0.768h1.435V271.891z
	 M135.369,266.324h0.608c0.354,0,0.603,0.021,0.74,0.064c0.138,0.045,0.243,0.117,0.316,0.221s0.108,0.229,0.108,0.375
	c0,0.141-0.037,0.264-0.114,0.371s-0.192,0.188-0.345,0.24s-0.389,0.08-0.706,0.08h-0.608V266.324z M135.369,268.49h0.719
	c0.314,0,0.549,0.029,0.703,0.088c0.152,0.059,0.268,0.145,0.344,0.26c0.078,0.113,0.115,0.252,0.115,0.416
	c0,0.195-0.053,0.359-0.162,0.498c-0.108,0.139-0.24,0.229-0.396,0.271c-0.153,0.045-0.349,0.066-0.585,0.066h-0.405
	c-0.134,0-0.218-0.008-0.248-0.021c-0.03-0.016-0.052-0.041-0.065-0.076c-0.01-0.031-0.018-0.131-0.02-0.301V268.49z
	 M132.807,271.904h-3.168v-4.377h3.168V271.904z M142.393,271.904h-3.168v-10.295h3.168V271.904z M122.915,258.855
	c-0.028,0-0.054,0.008-0.081,0.008c-0.082-0.002-0.162-0.008-0.245-0.008H122.915z M122.715,271.373
	c0.011,0,0.021-0.002,0.031-0.002c0.016,0,0.028,0.002,0.043,0.002H122.715z M127.319,266.762c-0.709,2.605-2.838,4.531-4.573,4.609
	c-1.902-0.041-3.776-2.002-4.5-4.621c-0.013,0.004-0.021,0.016-0.032,0.018c-0.339,0.057-0.689-0.35-0.782-0.906
	c-0.096-0.559,0.102-1.057,0.439-1.115c0.024-0.004,0.049,0.012,0.074,0.014c-0.15-4.037,2.23-5.885,4.889-5.896
	c2.578,0.064,4.626,1.584,4.724,5.895c0.021,0,0.042-0.014,0.064-0.012c0.338,0.059,0.534,0.557,0.44,1.115
	C127.973,266.396,127.646,266.781,127.319,266.762z M147.043,276.398v-20.875h-32.5v18.127c-1.611,1.068-2.586,2.721-2.586,5.205
	h13.3l-3.458,6.068l1.738,0.99l4.022-7.059h5.978c0-0.006-0.001-0.014-0.001-0.02h0.478l4.035,7.078l1.738-0.99l-3.471-6.088h4.477
	v-2h-7.518c-0.042-0.15-0.09-0.297-0.141-0.438H147.043z M123.914,276.836l-0.381-3.066l0.597-0.488h-1.445h-1.321l0.598,0.488
	l-0.382,3.066h-0.007l-2.406-4.717c-0.942,0.127-1.82,0.32-2.623,0.588v-15.184h28.5v16.875H131.87
	c-1.287-1.281-3.233-1.969-5.541-2.279l-2.408,4.717H123.914z M134.293,255.086h-7v-2h7V255.086z"/>
</svg>
