<?xml version="1.0" encoding="utf-8"?>
<!-- Generator: Adobe Illustrator 16.0.0, SVG Export Plug-In . SVG Version: 6.00 Build 0)  -->
<!DOCTYPE svg PUBLIC "-//W3C//DTD SVG 1.1//EN" "http://www.w3.org/Graphics/SVG/1.1/DTD/svg11.dtd">
<svg version="1.1" id="Layer_1" xmlns="http://www.w3.org/2000/svg" xmlns:xlink="http://www.w3.org/1999/xlink" x="0px" y="0px"
	 width="50px" height="50px" viewBox="174.5 244.5 50 50" enable-background="new 174.5 244.5 50 50" xml:space="preserve">
<path d="M208.432,269.267c-0.102-0.061-0.25-0.114-0.443-0.164c0.179-0.062,0.325-0.138,0.435-0.231s0.194-0.203,0.253-0.325
	c0.058-0.122,0.087-0.252,0.087-0.389c0-0.187-0.055-0.358-0.165-0.516c-0.11-0.156-0.268-0.277-0.474-0.361
	c-0.08-0.032-0.174-0.057-0.277-0.077v-0.728h-0.699v0.679h-0.449v-0.679h-0.699v0.679h-1.067v0.571h0.163
	c0.108,0,0.183,0.011,0.221,0.029c0.038,0.02,0.065,0.047,0.081,0.08c0.016,0.034,0.023,0.113,0.023,0.234v2.304
	c0,0.12-0.008,0.198-0.023,0.231c-0.016,0.036-0.043,0.063-0.081,0.081s-0.112,0.028-0.221,0.028h-0.163v0.571h1.067v0.679h0.699
	v-0.679h0.397c0.018,0,0.034,0,0.052,0v0.679h0.699v-0.737c0.118-0.023,0.221-0.052,0.31-0.087c0.241-0.097,0.428-0.237,0.559-0.422
	c0.134-0.184,0.199-0.387,0.199-0.605c0-0.183-0.044-0.35-0.131-0.498C208.697,269.465,208.579,269.349,208.432,269.267z
	 M206.441,267.821h0.453c0.265,0,0.448,0.016,0.551,0.048s0.182,0.088,0.236,0.164c0.054,0.078,0.08,0.17,0.08,0.279
	c0,0.104-0.028,0.196-0.086,0.277c-0.057,0.078-0.142,0.139-0.256,0.178c-0.114,0.04-0.288,0.06-0.525,0.06h-0.453V267.821z
	 M207.721,270.373c-0.08,0.103-0.179,0.17-0.294,0.203c-0.115,0.032-0.261,0.049-0.436,0.049h-0.302
	c-0.101,0-0.161-0.007-0.185-0.017c-0.021-0.011-0.039-0.03-0.048-0.058c-0.008-0.021-0.014-0.096-0.016-0.223v-0.895h0.535
	c0.234,0,0.408,0.022,0.523,0.066c0.113,0.044,0.199,0.107,0.256,0.191c0.058,0.086,0.087,0.188,0.087,0.312
	C207.843,270.146,207.802,270.271,207.721,270.373z M212.322,271.11v-0.585h0.584v0.585H212.322z M205.305,274.618h0.584v0.585
	h-0.584V274.618z M211.152,274.033h1.754v0.585h-0.584v0.585h-0.586v-0.585h-0.584V274.033z M212.906,262.924h-4.093v1.219
	c-0.372-0.139-0.763-0.238-1.169-0.293v-0.341h-0.586v0.294c-0.046-0.001-0.09-0.007-0.136-0.007c-0.151,0-0.3,0.011-0.448,0.022
	v-0.31h0.584v-0.585h-1.754v1.119c-0.201,0.063-0.395,0.141-0.585,0.225v-1.344h-4.093v4.093h1.345
	c-0.302,0.674-0.473,1.419-0.473,2.203c0,0.046,0.006,0.09,0.007,0.136h-0.294v-1.754h-0.585v2.34h0.926
	c0.055,0.406,0.154,0.797,0.293,1.169h-1.219v4.093h4.093v-1.032c0.674,0.302,1.418,0.473,2.203,0.473
	c0.451,0,0.887-0.062,1.306-0.165v0.725h0.585v-0.906c0.2-0.075,0.396-0.159,0.584-0.257v0.578h0.585v-0.924
	c0.112-0.077,0.221-0.16,0.327-0.245h2.013v-0.585h-1.395c0.169-0.185,0.328-0.378,0.47-0.585h0.339v-0.57
	c0.193-0.371,0.342-0.769,0.445-1.184h0.141v-0.824c0.01-0.114,0.015-0.229,0.018-0.346h0.566v-0.584h-0.582
	c-0.017-0.198-0.042-0.395-0.079-0.586h0.661v-0.584H212.1c-0.063-0.201-0.141-0.395-0.226-0.585h1.032V262.924z M206.923,273.626
	c-2.434,0-4.406-1.973-4.406-4.406s1.973-4.406,4.406-4.406s4.407,1.973,4.407,4.406S209.356,273.626,206.923,273.626z
	 M201.212,266.433v-2.924h2.924v1.066c-0.204,0.123-0.399,0.257-0.585,0.404v-0.886h-1.754v1.754h0.886
	c-0.147,0.186-0.281,0.381-0.404,0.585H201.212z M204.136,274.618h-2.924v-2.924h0.891c0.104,0.202,0.218,0.398,0.346,0.585h-0.651
	v1.754h1.754v-0.573c0.186,0.147,0.381,0.281,0.585,0.404V274.618z M212.322,266.433h-0.755c-0.123-0.204-0.257-0.399-0.404-0.585
	h0.573v-1.754h-1.754v0.651c-0.187-0.128-0.383-0.242-0.585-0.346v-0.891h2.925V266.433z M212.906,272.864h-0.584v-0.585h0.584
	V272.864z M209.982,275.203v-0.585h0.585v0.585H209.982z M192.99,261.92c-0.028,0-0.054,0.007-0.081,0.007
	c-0.082-0.002-0.162-0.008-0.245-0.007H192.99z M192.79,274.438c0.011,0,0.021-0.003,0.031-0.003c0.016,0,0.028,0.003,0.043,0.003
	H192.79z M197.395,269.825c-0.709,2.605-2.838,4.531-4.573,4.609c-1.902-0.041-3.776-2.001-4.5-4.62
	c-0.013,0.004-0.021,0.016-0.032,0.018c-0.339,0.057-0.689-0.35-0.782-0.906c-0.096-0.559,0.102-1.057,0.439-1.115
	c0.024-0.004,0.049,0.012,0.074,0.013c-0.15-4.036,2.23-5.885,4.889-5.896c2.578,0.065,4.626,1.585,4.724,5.895
	c0.021,0,0.042-0.014,0.064-0.011c0.338,0.059,0.534,0.557,0.44,1.115C198.048,269.461,197.721,269.846,197.395,269.825z
	 M217.118,279.462v-20.875h-32.5v18.127c-1.61,1.068-2.586,2.721-2.586,5.206h13.3l-3.458,6.068l1.738,0.99l4.022-7.059h5.978
	c0-0.007-0.001-0.014-0.001-0.021h0.478l4.035,7.079l1.738-0.99l-3.471-6.089h4.477v-2h-7.518c-0.042-0.15-0.09-0.296-0.141-0.438
	H217.118z M193.989,279.899l-0.381-3.065l0.597-0.488h-1.445h-1.321l0.598,0.488l-0.382,3.065h-0.007l-2.406-4.716
	c-0.942,0.127-1.82,0.32-2.623,0.587v-15.184h28.5v16.875h-13.173c-1.287-1.28-3.232-1.968-5.541-2.278l-2.408,4.716H193.989z
	 M204.368,258.149h-7v-2h7V258.149z"/>
</svg>
