<?xml version="1.0" encoding="utf-8"?>
<!-- Generator: Adobe Illustrator 16.0.0, SVG Export Plug-In . SVG Version: 6.00 Build 0)  -->
<!DOCTYPE svg PUBLIC "-//W3C//DTD SVG 1.1//EN" "http://www.w3.org/Graphics/SVG/1.1/DTD/svg11.dtd">
<svg version="1.1" id="Layer_1" xmlns="http://www.w3.org/2000/svg" xmlns:xlink="http://www.w3.org/1999/xlink" x="0px" y="0px"
	 width="50px" height="50px" viewBox="244.5 244.5 50 50" enable-background="new 244.5 244.5 50 50" xml:space="preserve">
<path d="M270.778,270.913h0.407v-0.397h0.232c0.011,0,0.021,0,0.031,0v0.397h0.406v-0.431c0.069-0.013,0.129-0.03,0.181-0.05
	c0.141-0.057,0.249-0.139,0.326-0.246c0.078-0.108,0.116-0.226,0.116-0.354c0-0.106-0.025-0.204-0.076-0.291
	s-0.119-0.154-0.205-0.202c-0.061-0.034-0.146-0.066-0.26-0.096c0.106-0.035,0.19-0.08,0.254-0.134
	c0.064-0.056,0.113-0.119,0.147-0.19s0.052-0.146,0.052-0.227c0-0.108-0.032-0.21-0.097-0.301c-0.065-0.092-0.157-0.161-0.276-0.21
	c-0.046-0.02-0.102-0.034-0.162-0.046v-0.424h-0.406v0.396h-0.264v-0.396h-0.407v0.396h-0.622v0.333h0.095
	c0.063,0,0.107,0.005,0.129,0.017c0.022,0.012,0.038,0.027,0.048,0.047s0.014,0.064,0.014,0.137v1.343
	c0,0.07-0.004,0.115-0.014,0.136c-0.01,0.02-0.025,0.035-0.048,0.047c-0.021,0.011-0.065,0.016-0.129,0.016h-0.095v0.332h0.622
	V270.913z M271.037,268.497h0.264c0.154,0,0.262,0.009,0.321,0.028s0.105,0.051,0.137,0.097c0.032,0.045,0.048,0.099,0.048,0.162
	c0,0.061-0.018,0.113-0.05,0.161c-0.034,0.047-0.083,0.081-0.149,0.104c-0.066,0.024-0.168,0.036-0.307,0.036h-0.264V268.497z
	 M271.037,269.438h0.312c0.138,0,0.238,0.012,0.306,0.037c0.065,0.025,0.116,0.063,0.149,0.113c0.032,0.049,0.05,0.108,0.05,0.181
	c0,0.084-0.023,0.155-0.07,0.216c-0.048,0.06-0.104,0.1-0.172,0.118s-0.152,0.028-0.254,0.028h-0.176
	c-0.059,0-0.095-0.003-0.107-0.01c-0.015-0.005-0.022-0.017-0.029-0.032c-0.004-0.013-0.007-0.057-0.008-0.131V269.438z
	 M269.499,265.632c0.094,0.159,0.261,0.247,0.432,0.247c0.086,0,0.173-0.022,0.253-0.068l1.667-0.977
	c0.238-0.14,0.318-0.446,0.179-0.685c-0.141-0.237-0.445-0.315-0.685-0.179l-0.589,0.346c0.579-1.443,1.915-2.485,3.513-2.632
	c0.173-0.017,0.344-0.021,0.514-0.015c-0.01,0.035-0.025,0.067-0.034,0.104c-0.195,0.824-0.057,1.675,0.39,2.396
	c0.445,0.72,1.145,1.224,1.969,1.417c0.239,0.057,0.484,0.085,0.729,0.085c1.479,0,2.747-1.005,3.083-2.443
	c0.195-0.824,0.057-1.675-0.389-2.395c-0.445-0.721-1.146-1.225-1.97-1.418c-0.239-0.057-0.483-0.085-0.728-0.085
	c-1.074,0-2.033,0.536-2.609,1.379c-0.343-0.038-0.691-0.051-1.044-0.021c-2.038,0.188-3.737,1.544-4.417,3.414l-0.376-0.642
	c-0.141-0.238-0.447-0.316-0.685-0.179c-0.238,0.14-0.318,0.446-0.179,0.685L269.499,265.632z M277.832,260.33
	c0.167,0,0.335,0.02,0.499,0.058c0.563,0.133,1.043,0.478,1.348,0.971s0.399,1.075,0.266,1.64c-0.269,1.147-1.445,1.884-2.609,1.615
	c-0.563-0.133-1.042-0.478-1.348-0.971c-0.305-0.493-0.399-1.075-0.267-1.64C275.953,261.019,276.821,260.33,277.832,260.33z
	 M270.658,272.37c0.24,0.057,0.486,0.086,0.73,0.086c1.083,0,2.05-0.544,2.624-1.4c0.21,0.026,0.421,0.049,0.637,0.049
	c0.159,0,0.319-0.008,0.48-0.021c2.05-0.188,3.761-1.56,4.431-3.447l0.405,0.647c0.095,0.151,0.258,0.234,0.424,0.234
	c0.091,0,0.183-0.024,0.266-0.076c0.233-0.146,0.305-0.455,0.158-0.689l-1.024-1.638c-0.146-0.234-0.456-0.304-0.688-0.158
	l-1.638,1.023c-0.234,0.146-0.306,0.455-0.159,0.688c0.147,0.236,0.457,0.307,0.688,0.159l0.547-0.342
	c-0.586,1.428-1.912,2.456-3.499,2.602c-0.201,0.018-0.399,0.018-0.597,0.009c0.008-0.029,0.021-0.055,0.027-0.083
	c0.195-0.824,0.057-1.676-0.39-2.396c-0.445-0.721-1.145-1.224-1.969-1.417c-0.239-0.057-0.484-0.085-0.729-0.085
	c-1.477,0-2.744,1.005-3.083,2.444c-0.194,0.824-0.056,1.675,0.39,2.395S269.835,272.177,270.658,272.37z M269.273,268.788
	c0.232-0.985,1.101-1.673,2.11-1.673c0.167,0,0.335,0.02,0.5,0.058c0.563,0.133,1.042,0.478,1.348,0.97
	c0.305,0.493,0.399,1.076,0.267,1.641c-0.271,1.147-1.447,1.889-2.61,1.614c-0.564-0.133-1.042-0.477-1.348-0.97
	C269.235,269.935,269.141,269.353,269.273,268.788z M278.105,263.118c0-0.156-0.132-0.255-0.437-0.358
	c-0.441-0.148-0.743-0.355-0.743-0.755c0-0.363,0.256-0.648,0.697-0.734v-0.393h0.404v0.363c0.276,0.013,0.463,0.069,0.599,0.136
	l-0.12,0.467c-0.106-0.046-0.297-0.14-0.595-0.14c-0.267,0-0.354,0.114-0.354,0.229c0,0.138,0.144,0.224,0.495,0.355
	c0.49,0.174,0.689,0.4,0.689,0.771c0,0.367-0.261,0.681-0.735,0.764v0.421h-0.404v-0.392c-0.276-0.013-0.546-0.087-0.702-0.178
	l0.125-0.482c0.173,0.094,0.416,0.181,0.685,0.181C277.945,263.374,278.105,263.283,278.105,263.118z M260.753,258.604
	c-0.028,0-0.054,0.007-0.081,0.007c-0.082-0.002-0.162-0.008-0.245-0.007H260.753z M260.553,271.121
	c0.011,0,0.021-0.003,0.031-0.003c0.016,0,0.028,0.003,0.043,0.003H260.553z M265.157,266.509c-0.709,2.605-2.838,4.531-4.573,4.609
	c-1.902-0.041-3.776-2.001-4.5-4.62c-0.013,0.004-0.021,0.016-0.032,0.018c-0.339,0.057-0.689-0.35-0.782-0.906
	c-0.096-0.559,0.102-1.057,0.439-1.115c0.024-0.004,0.049,0.012,0.074,0.013c-0.15-4.036,2.23-5.885,4.889-5.896
	c2.578,0.065,4.626,1.585,4.724,5.895c0.021,0,0.042-0.014,0.064-0.011c0.338,0.059,0.534,0.557,0.44,1.115
	C265.811,266.145,265.483,266.529,265.157,266.509z M284.881,276.146v-20.875h-32.5v18.127c-1.611,1.068-2.586,2.721-2.586,5.206
	h13.3l-3.458,6.068l1.738,0.99l4.022-7.059h5.978c0-0.007-0.001-0.014-0.001-0.021h0.478l4.035,7.079l1.738-0.99l-3.471-6.089h4.477
	v-2h-7.518c-0.042-0.15-0.09-0.296-0.141-0.438H284.881z M261.752,276.583l-0.381-3.065l0.597-0.488h-1.445h-1.321l0.598,0.488
	l-0.382,3.065h-0.007l-2.406-4.716c-0.942,0.127-1.82,0.32-2.623,0.587v-15.184h28.5v16.875h-13.173
	c-1.287-1.28-3.233-1.968-5.541-2.278l-2.408,4.716H261.752z M272.131,254.833h-7v-2h7V254.833z"/>
</svg>
