<?xml version="1.0" encoding="utf-8"?>
<!-- Generator: Adobe Illustrator 16.0.0, SVG Export Plug-In . SVG Version: 6.00 Build 0)  -->
<!DOCTYPE svg PUBLIC "-//W3C//DTD SVG 1.1//EN" "http://www.w3.org/Graphics/SVG/1.1/DTD/svg11.dtd">
<svg version="1.1" id="Layer_1" xmlns="http://www.w3.org/2000/svg" xmlns:xlink="http://www.w3.org/1999/xlink" x="0px" y="0px"
	 width="50px" height="50px" viewBox="314.5 244.5 50 50" enable-background="new 314.5 244.5 50 50" xml:space="preserve">
<path d="M331.258,269.213v-1.752c-1.531-0.055-3.018-0.387-3.887-0.793l0.687-2.158c0.96,0.424,2.31,0.811,3.795,0.811
	c1.303,0,2.194-0.406,2.194-1.143c0-0.701-0.73-1.145-2.422-1.605c-2.448-0.664-4.117-1.586-4.117-3.375
	c0-1.625,1.418-2.896,3.863-3.285v-1.752h2.242v1.623c1.531,0.057,2.561,0.313,3.314,0.609l-0.663,2.084
	c-0.593-0.203-1.646-0.627-3.292-0.627c-1.486,0-1.966,0.516-1.966,1.033c0,0.607,0.8,0.996,2.743,1.586
	c2.722,0.775,3.819,1.789,3.819,3.451c0,1.641-1.441,3.043-4.069,3.412v1.881H331.258z M343.404,267.607v-2.951h-3.543v-1.309h3.543
	v-1.182h-3.543v-1.311h2.721l-3.727-5.238h3.727l1.601,2.951c0.411,0.738,0.663,1.365,0.961,2.012h0.045
	c0.298-0.609,0.595-1.311,0.983-2.029l1.623-2.934h3.658l-3.909,5.238h2.721v1.311h-3.589v1.182h3.589v1.309h-3.589v2.951H343.404z
	 M341.098,284.049v-1.496c1.212-0.404,2.561-1.457,2.561-2.711c0-0.258-0.023-0.479-0.068-0.736h-2.24v-1.9h1.828
	c-0.113-0.463-0.184-0.998-0.184-1.496c0-2.324,2.104-3.855,5.168-3.855c1.258,0,2.195,0.221,2.698,0.443l-0.571,2.121
	c-0.436-0.203-1.075-0.332-1.921-0.332c-1.623,0-2.126,0.85-2.126,1.734c0,0.48,0.068,0.922,0.205,1.385h3.132v1.9h-2.834
	c0.022,0.461-0.022,0.883-0.206,1.309c-0.206,0.461-0.571,0.922-1.12,1.311v0.035h6.104v2.289H341.098z M335.608,277.551v-0.033
	c1.486-0.434,2.17-1.301,2.17-2.23c0-0.945-0.665-1.658-1.585-2.047c-0.256-0.119-0.525-0.213-0.814-0.293v-1.92h-2.223v1.645
	c-0.209-0.008-0.418-0.014-0.648-0.016v-1.629h-2.225v1.68c-0.748,0.039-1.412,0.096-1.835,0.162v10.262
	c0.431,0.049,1.06,0.098,1.835,0.125v1.584h2.225v-1.568c0.227-0.008,0.438-0.02,0.648-0.031v1.6h2.223v-1.91
	c0.609-0.154,1.1-0.35,1.48-0.59c0.821-0.527,1.369-1.271,1.369-2.217C338.229,278.773,337.113,277.875,335.608,277.551z
	 M334.785,275.58c0,0.775-0.84,1.289-2.404,1.289h-0.979v-2.436c0.254-0.029,0.625-0.063,1.271-0.063
	C334.023,274.371,334.785,274.791,334.785,275.58z M331.402,281.502v-2.945h1.018c1.486,0,2.68,0.42,2.68,1.473
	c0,1.102-1.193,1.504-2.545,1.504C332.049,281.533,331.695,281.533,331.402,281.502z"/>
</svg>
