<?xml version="1.0" encoding="utf-8"?>
<!-- Generator: Adobe Illustrator 16.0.0, SVG Export Plug-In . SVG Version: 6.00 Build 0)  -->
<!DOCTYPE svg PUBLIC "-//W3C//DTD SVG 1.1//EN" "http://www.w3.org/Graphics/SVG/1.1/DTD/svg11.dtd">
<svg version="1.1" id="Layer_1" xmlns="http://www.w3.org/2000/svg" xmlns:xlink="http://www.w3.org/1999/xlink" x="0px" y="0px"
	 width="50px" height="50px" viewBox="-315.5 314.5 50 50" enable-background="new -315.5 314.5 50 50" xml:space="preserve">
<path d="M-286.478,338.867c-0.274-0.158-0.668-0.303-1.183-0.434c0.48-0.164,0.867-0.369,1.159-0.62
	c0.293-0.25,0.518-0.539,0.673-0.863c0.155-0.327,0.233-0.672,0.233-1.035c0-0.499-0.147-0.958-0.441-1.377
	c-0.295-0.418-0.716-0.739-1.262-0.962c-0.212-0.087-0.465-0.153-0.738-0.205v-1.943h-1.865v1.812h-1.198v-1.812h-1.865v1.812
	h-2.844v1.524h0.434c0.29,0,0.485,0.026,0.588,0.078c0.103,0.053,0.175,0.124,0.217,0.214c0.043,0.089,0.063,0.297,0.063,0.623
	v6.141c0,0.321-0.021,0.527-0.063,0.619c-0.042,0.093-0.114,0.163-0.217,0.214c-0.103,0.05-0.298,0.074-0.588,0.074h-0.434v1.524
	h2.844v1.812h1.865v-1.812h1.06c0.047,0,0.092-0.002,0.138-0.002v1.813h1.865v-1.969c0.313-0.061,0.588-0.136,0.823-0.23
	c0.644-0.257,1.142-0.633,1.493-1.125c0.352-0.491,0.528-1.028,0.528-1.613c0-0.489-0.116-0.933-0.347-1.33
	C-285.771,339.397-286.084,339.089-286.478,338.867z M-291.782,335.016h1.208c0.705,0,1.194,0.043,1.467,0.131
	c0.273,0.086,0.483,0.232,0.628,0.438c0.145,0.206,0.217,0.452,0.217,0.742c0,0.278-0.076,0.525-0.229,0.738
	c-0.153,0.212-0.38,0.371-0.683,0.478c-0.303,0.104-0.77,0.157-1.4,0.157h-1.208V335.016z M-288.372,341.819
	c-0.216,0.273-0.477,0.455-0.784,0.54c-0.308,0.087-0.695,0.133-1.162,0.133h-0.804c-0.267,0-0.431-0.017-0.492-0.046
	c-0.061-0.028-0.104-0.079-0.13-0.153c-0.022-0.058-0.034-0.255-0.04-0.593v-2.383h1.425c0.625,0,1.089,0.059,1.395,0.174
	c0.304,0.115,0.532,0.287,0.685,0.513c0.152,0.227,0.229,0.502,0.229,0.829C-288.049,341.218-288.157,341.545-288.372,341.819z
	 M-282.81,322.581h-15.381c-1.84,0-3.336,1.562-3.336,3.481v26.875c0,1.92,1.497,3.481,3.336,3.481h15.381
	c1.84,0,3.336-1.562,3.336-3.481v-26.875C-279.473,324.143-280.97,322.581-282.81,322.581z M-293.063,323.875h5.125
	c0.276,0,0.5,0.224,0.5,0.5s-0.224,0.5-0.5,0.5h-5.125c-0.276,0-0.5-0.224-0.5-0.5S-293.339,323.875-293.063,323.875z
	 M-290.5,355.625c-0.829,0-1.5-0.672-1.5-1.5s0.671-1.5,1.5-1.5s1.5,0.672,1.5,1.5S-289.671,355.625-290.5,355.625z
	 M-281.473,351.696h-18.054v-25.634c0-0.048,0.009-0.093,0.013-0.14h18.028c0.004,0.047,0.013,0.092,0.013,0.14V351.696z"/>
</svg>
