<?xml version="1.0" encoding="utf-8"?>
<!-- Generator: Adobe Illustrator 16.0.0, SVG Export Plug-In . SVG Version: 6.00 Build 0)  -->
<!DOCTYPE svg PUBLIC "-//W3C//DTD SVG 1.1//EN" "http://www.w3.org/Graphics/SVG/1.1/DTD/svg11.dtd">
<svg version="1.1" id="Layer_1" xmlns="http://www.w3.org/2000/svg" xmlns:xlink="http://www.w3.org/1999/xlink" x="0px" y="0px"
	 width="50px" height="50px" viewBox="-245.5 314.5 50 50" enable-background="new -245.5 314.5 50 50" xml:space="preserve">
<path d="M-220.5,348.777c-0.133,0-0.261-0.054-0.355-0.148c-0.24-0.242-5.888-6.005-5.888-11.28c0-3.442,2.801-6.243,6.244-6.243
	s6.244,2.801,6.244,6.243c0,4.936-5.639,11.014-5.879,11.271c-0.093,0.1-0.222,0.156-0.358,0.158
	C-220.495,348.777-220.498,348.777-220.5,348.777z M-220.5,332.105c-2.892,0-5.244,2.353-5.244,5.243
	c0,4.126,3.992,8.825,5.234,10.188c1.234-1.417,5.253-6.326,5.253-10.188C-215.256,334.458-217.608,332.105-220.5,332.105z
	 M-220.056,336.726c0.1-0.035,0.176-0.088,0.228-0.159c0.05-0.07,0.076-0.153,0.076-0.247c0-0.097-0.024-0.179-0.072-0.247
	c-0.048-0.069-0.119-0.118-0.209-0.146c-0.091-0.029-0.254-0.044-0.491-0.044h-0.404v0.896h0.404
	C-220.314,336.778-220.158,336.76-220.056,336.726z M-219.987,337.378c-0.103-0.04-0.257-0.059-0.465-0.059h-0.478v0.796
	c0.003,0.112,0.008,0.178,0.014,0.198c0.01,0.023,0.023,0.042,0.043,0.052c0.021,0.008,0.076,0.014,0.165,0.014h0.268
	c0.156,0,0.286-0.014,0.389-0.043c0.102-0.029,0.189-0.09,0.262-0.182c0.071-0.091,0.107-0.201,0.107-0.329
	c0-0.109-0.024-0.201-0.076-0.277C-219.808,337.473-219.885,337.416-219.987,337.378z M-220.5,332.935
	c-2.372,0-4.293,1.922-4.293,4.293c0,2.372,1.921,4.294,4.293,4.294s4.293-1.922,4.293-4.294
	C-216.207,334.856-218.128,332.935-220.5,332.935z M-218.903,338.462c-0.118,0.164-0.284,0.289-0.499,0.376
	c-0.079,0.031-0.17,0.056-0.275,0.076v0.658h-0.623v-0.605c-0.016,0-0.03,0-0.047,0h-0.354v0.605h-0.623v-0.605h-0.95v-0.509h0.145
	c0.097,0,0.162-0.008,0.197-0.025c0.035-0.017,0.058-0.04,0.072-0.071c0.014-0.03,0.021-0.1,0.021-0.207v-2.051
	c0-0.109-0.007-0.179-0.021-0.209c-0.015-0.029-0.037-0.054-0.072-0.071c-0.035-0.017-0.1-0.025-0.197-0.025h-0.145v-0.509h0.95
	v-0.605h0.623v0.605h0.401v-0.605h0.623v0.648c0.092,0.019,0.175,0.04,0.246,0.068c0.184,0.074,0.324,0.183,0.422,0.321
	c0.098,0.14,0.147,0.294,0.147,0.461c0,0.121-0.026,0.236-0.078,0.346c-0.053,0.108-0.127,0.205-0.226,0.288
	c-0.099,0.084-0.227,0.152-0.387,0.207c0.172,0.044,0.304,0.092,0.395,0.145c0.132,0.074,0.237,0.178,0.313,0.311
	c0.078,0.133,0.116,0.281,0.116,0.444C-218.727,338.118-218.786,338.298-218.903,338.462z M-212.81,322.581h-15.381
	c-1.84,0-3.336,1.562-3.336,3.481v26.875c0,1.92,1.497,3.481,3.336,3.481h15.381c1.84,0,3.336-1.562,3.336-3.481v-26.875
	C-209.473,324.143-210.97,322.581-212.81,322.581z M-223.063,323.875h5.125c0.276,0,0.5,0.224,0.5,0.5s-0.224,0.5-0.5,0.5h-5.125
	c-0.276,0-0.5-0.224-0.5-0.5S-223.339,323.875-223.063,323.875z M-220.5,355.625c-0.829,0-1.5-0.672-1.5-1.5s0.671-1.5,1.5-1.5
	s1.5,0.672,1.5,1.5S-219.671,355.625-220.5,355.625z M-211.473,351.696h-18.054v-25.634c0-0.048,0.009-0.093,0.013-0.14h18.028
	c0.004,0.047,0.013,0.092,0.013,0.14V351.696z"/>
</svg>
