<?xml version="1.0" encoding="utf-8"?>
<!-- Generator: Adobe Illustrator 16.0.0, SVG Export Plug-In . SVG Version: 6.00 Build 0)  -->
<!DOCTYPE svg PUBLIC "-//W3C//DTD SVG 1.1//EN" "http://www.w3.org/Graphics/SVG/1.1/DTD/svg11.dtd">
<svg version="1.1" id="Layer_1" xmlns="http://www.w3.org/2000/svg" xmlns:xlink="http://www.w3.org/1999/xlink" x="0px" y="0px"
	 width="50px" height="50px" viewBox="-175.5 314.5 50 50" enable-background="new -175.5 314.5 50 50" xml:space="preserve">
<path d="M-151.036,337.51c-0.015-0.009-0.023-0.024-0.026-0.046c-0.002-0.015,0.004-0.068,0.019-0.155l0.116-0.622l0.374,0.068
	c0.163,0.031,0.282,0.067,0.354,0.113c0.074,0.045,0.125,0.104,0.155,0.169c0.028,0.065,0.034,0.142,0.018,0.227
	c-0.018,0.101-0.063,0.181-0.132,0.241c-0.07,0.062-0.146,0.095-0.231,0.103c-0.084,0.008-0.188,0-0.31-0.021l-0.209-0.041
	C-150.979,337.533-151.021,337.521-151.036,337.51z M-150.158,336.35c0.084-0.014,0.15-0.043,0.202-0.091
	c0.049-0.049,0.082-0.109,0.095-0.182c0.014-0.077,0.007-0.144-0.02-0.205c-0.028-0.061-0.075-0.107-0.143-0.145
	c-0.067-0.036-0.192-0.07-0.376-0.106l-0.315-0.058l-0.131,0.7l0.315,0.06C-150.367,336.353-150.242,336.362-150.158,336.35z
	 M-142.88,336.199v8.056c0,0.011-0.005,0.019-0.006,0.029c-0.002,0.033-0.011,0.065-0.02,0.099
	c-0.009,0.032-0.017,0.064-0.031,0.094c-0.005,0.009-0.004,0.02-0.01,0.028c-0.007,0.013-0.021,0.018-0.029,0.028
	c-0.035,0.052-0.078,0.094-0.129,0.128c-0.018,0.012-0.032,0.025-0.051,0.034c-0.068,0.035-0.142,0.06-0.224,0.06h-14.239
	c-0.189,0-0.348-0.109-0.433-0.264c-0.005-0.009-0.014-0.011-0.019-0.02c-0.003-0.006-0.003-0.013-0.006-0.019
	c-0.001-0.004-0.002-0.009-0.004-0.014c-0.054-0.111-0.068-0.234-0.037-0.348v-8.057c0-0.008,0.006-0.015,0.006-0.023
	c0.003-0.077,0.019-0.154,0.061-0.227s0.101-0.125,0.167-0.166c0.006-0.005,0.009-0.013,0.016-0.017l7.12-4.11
	c0.154-0.09,0.346-0.09,0.5,0l7.12,4.11c0.026,0.015,0.04,0.043,0.063,0.063c0.015,0.011,0.026,0.027,0.041,0.04
	c0.03,0.032,0.064,0.059,0.084,0.097c0.004,0.006,0.011,0.01,0.015,0.017C-142.859,335.938-142.846,336.075-142.88,336.199z
	 M-157.12,343.352l5.616-3.209l-5.616-3.242V343.352z M-151.447,335.437c0.008,0.025,0.004,0.081-0.013,0.167l-0.3,1.603
	c-0.015,0.085-0.03,0.137-0.046,0.158s-0.038,0.036-0.067,0.045c-0.029,0.008-0.081,0.005-0.157-0.01l-0.115-0.02l-0.074,0.396
	l0.743,0.139l-0.087,0.474l0.486,0.092l0.088-0.474l0.276,0.052c0.013,0.003,0.025,0.003,0.037,0.007l-0.088,0.474l0.487,0.09
	l0.095-0.513c0.085-0.002,0.16-0.008,0.226-0.021c0.181-0.035,0.33-0.109,0.445-0.221c0.115-0.111,0.188-0.242,0.217-0.396
	c0.024-0.127,0.015-0.25-0.026-0.363c-0.041-0.115-0.108-0.212-0.2-0.289c-0.063-0.054-0.16-0.112-0.287-0.17
	c0.133-0.021,0.244-0.055,0.332-0.105c0.089-0.052,0.162-0.117,0.219-0.193c0.056-0.078,0.094-0.164,0.111-0.259
	c0.024-0.129,0.008-0.257-0.048-0.38c-0.057-0.125-0.151-0.229-0.283-0.313c-0.05-0.033-0.114-0.063-0.183-0.091l0.095-0.507
	l-0.486-0.09l-0.089,0.473l-0.313-0.059l0.089-0.474l-0.487-0.092l-0.089,0.476l-0.743-0.141l-0.074,0.396l0.114,0.023
	c0.076,0.012,0.126,0.028,0.15,0.048C-151.468,335.389-151.452,335.411-151.447,335.437z M-155.809,343.755h10.563l-5.254-3.033
	L-155.809,343.755z M-143.88,343.39v-6.451l-5.616,3.209L-143.88,343.39z M-156.62,336.035l2.934,1.694
	c-0.128-0.354-0.21-0.731-0.21-1.131c0-1.84,1.492-3.331,3.332-3.331c1.84,0,3.332,1.491,3.332,3.331c0,0.44-0.09,0.858-0.245,1.242
	l3.128-1.787l-6.151-3.552L-156.62,336.035z M-139.473,326.063v26.875c0,1.92-1.497,3.481-3.336,3.481h-15.381
	c-1.84,0-3.336-1.562-3.336-3.481v-26.875c0-1.92,1.497-3.481,3.336-3.481h15.381C-140.97,322.581-139.473,324.143-139.473,326.063z
	 M-153.563,324.375c0,0.276,0.224,0.5,0.5,0.5h5.125c0.276,0,0.5-0.224,0.5-0.5s-0.224-0.5-0.5-0.5h-5.125
	C-153.339,323.875-153.563,324.099-153.563,324.375z M-149,354.125c0-0.828-0.671-1.5-1.5-1.5s-1.5,0.672-1.5,1.5s0.671,1.5,1.5,1.5
	S-149,354.953-149,354.125z M-141.473,326.063c0-0.048-0.009-0.093-0.013-0.14h-18.028c-0.004,0.047-0.013,0.092-0.013,0.14v25.634
	h18.054V326.063z"/>
</svg>
