<?xml version="1.0" encoding="utf-8"?>
<!-- Generator: Adobe Illustrator 16.0.0, SVG Export Plug-In . SVG Version: 6.00 Build 0)  -->
<!DOCTYPE svg PUBLIC "-//W3C//DTD SVG 1.1//EN" "http://www.w3.org/Graphics/SVG/1.1/DTD/svg11.dtd">
<svg version="1.1" id="Layer_1" xmlns="http://www.w3.org/2000/svg" xmlns:xlink="http://www.w3.org/1999/xlink" x="0px" y="0px"
	 width="50px" height="50px" viewBox="-105.5 314.5 50 50" enable-background="new -105.5 314.5 50 50" xml:space="preserve">
<path d="M-72.81,322.581H-88.19c-1.84,0-3.336,1.562-3.336,3.481v26.875c0,1.92,1.497,3.481,3.336,3.481h15.381
	c1.84,0,3.336-1.562,3.336-3.481v-26.875C-69.473,324.143-70.97,322.581-72.81,322.581z M-83.063,323.875h5.125
	c0.276,0,0.5,0.224,0.5,0.5s-0.224,0.5-0.5,0.5h-5.125c-0.276,0-0.5-0.224-0.5-0.5S-83.339,323.875-83.063,323.875z M-80.5,355.625
	c-0.829,0-1.5-0.672-1.5-1.5s0.671-1.5,1.5-1.5s1.5,0.672,1.5,1.5S-79.671,355.625-80.5,355.625z M-71.473,351.696h-18.054v-25.634
	c0-0.048,0.009-0.093,0.013-0.14h18.028c0.004,0.047,0.013,0.092,0.013,0.14V351.696z M-72.527,339.478
	c0,1.528-1.239,2.768-2.767,2.768h-3.416v1.89h1.08l-2.533,2.532l-2.534-2.534h1.08v-1.888h-3.537c-1.528,0-2.767-1.239-2.767-2.768
	c0-1.011,0.544-1.892,1.355-2.375c-0.042-0.235-0.068-0.475-0.068-0.722c0-2.251,1.825-4.076,4.075-4.076
	c1.917,0,3.521,1.324,3.956,3.107c0.415-0.248,0.898-0.393,1.416-0.393c1.182,0,2.188,0.741,2.585,1.783
	C-73.409,337.111-72.527,338.19-72.527,339.478z M-80.682,337.577c-0.093-0.161-0.221-0.287-0.381-0.378
	c-0.111-0.063-0.271-0.123-0.481-0.176c0.196-0.067,0.353-0.151,0.473-0.252c0.119-0.102,0.209-0.22,0.273-0.353
	c0.063-0.131,0.094-0.271,0.094-0.42c0-0.203-0.059-0.39-0.179-0.561c-0.12-0.169-0.291-0.3-0.513-0.391
	c-0.087-0.036-0.189-0.063-0.3-0.084v-0.789h-0.758v0.735h-0.486v-0.735h-0.759v0.735h-1.157v0.619h0.177
	c0.118,0,0.197,0.012,0.239,0.033c0.042,0.021,0.07,0.051,0.088,0.086c0.017,0.037,0.026,0.122,0.026,0.254v2.498
	c0,0.13-0.009,0.215-0.026,0.251c-0.018,0.039-0.046,0.067-0.088,0.087c-0.042,0.021-0.121,0.031-0.239,0.031h-0.177v0.618h1.157
	v0.738h0.759v-0.738h0.43c0.02,0,0.038,0,0.057,0v0.738h0.758v-0.801c0.127-0.023,0.239-0.056,0.334-0.093
	c0.262-0.106,0.464-0.258,0.607-0.459c0.143-0.2,0.216-0.419,0.216-0.655C-80.54,337.919-80.587,337.738-80.682,337.577z
	 M-82.132,335.687c0.111,0.035,0.195,0.095,0.255,0.177c0.059,0.085,0.088,0.185,0.088,0.304c0,0.112-0.03,0.213-0.093,0.299
	c-0.061,0.086-0.155,0.152-0.277,0.195c-0.123,0.042-0.313,0.063-0.57,0.063h-0.49v-1.092h0.49
	C-82.443,335.633-82.244,335.651-82.132,335.687z M-82.625,338.674h-0.327c-0.109,0-0.176-0.006-0.2-0.018
	c-0.025-0.013-0.042-0.033-0.053-0.063c-0.009-0.023-0.014-0.103-0.015-0.241v-0.969h0.579c0.254,0,0.443,0.023,0.567,0.07
	c0.125,0.048,0.217,0.117,0.279,0.209c0.062,0.093,0.093,0.203,0.093,0.337c0,0.156-0.043,0.289-0.131,0.401
	c-0.087,0.111-0.194,0.185-0.319,0.22C-82.278,338.656-82.436,338.674-82.625,338.674z"/>
</svg>
