<?xml version="1.0" encoding="utf-8"?>
<!-- Generator: Adobe Illustrator 16.0.0, SVG Export Plug-In . SVG Version: 6.00 Build 0)  -->
<!DOCTYPE svg PUBLIC "-//W3C//DTD SVG 1.1//EN" "http://www.w3.org/Graphics/SVG/1.1/DTD/svg11.dtd">
<svg version="1.1" id="Layer_1" xmlns="http://www.w3.org/2000/svg" xmlns:xlink="http://www.w3.org/1999/xlink" x="0px" y="0px"
	 width="50px" height="50px" viewBox="-35.5 314.5 50 50" enable-background="new -35.5 314.5 50 50" xml:space="preserve">
<path d="M-0.973,323.608h-15.381c-1.84,0-3.336,1.562-3.336,3.481v26.875c0,1.92,1.497,3.481,3.336,3.481h15.381
	c1.84,0,3.336-1.562,3.336-3.481V327.09C2.364,325.17,0.867,323.608-0.973,323.608z M-11.226,324.902h5.125
	c0.276,0,0.5,0.224,0.5,0.5s-0.224,0.5-0.5,0.5h-5.125c-0.276,0-0.5-0.224-0.5-0.5S-11.502,324.902-11.226,324.902z M-8.663,356.652
	c-0.829,0-1.5-0.672-1.5-1.5s0.671-1.5,1.5-1.5s1.5,0.672,1.5,1.5S-7.834,356.652-8.663,356.652z M0.364,352.724H-17.69V327.09
	c0-0.048,0.009-0.093,0.013-0.14H0.351c0.004,0.047,0.013,0.092,0.013,0.14V352.724z M-11.114,337.752h-0.49v-1.092h0.49
	c0.287,0,0.486,0.019,0.598,0.054c0.111,0.035,0.195,0.095,0.255,0.177c0.059,0.085,0.088,0.185,0.088,0.304
	c0,0.112-0.03,0.213-0.093,0.299c-0.061,0.086-0.155,0.152-0.277,0.195C-10.667,337.73-10.856,337.752-11.114,337.752z
	 M-10.179,338.689c0.062,0.093,0.093,0.203,0.093,0.337c0,0.156-0.043,0.289-0.131,0.401c-0.087,0.111-0.194,0.185-0.319,0.22
	c-0.125,0.036-0.282,0.054-0.472,0.054h-0.327c-0.109,0-0.176-0.006-0.2-0.018c-0.025-0.013-0.042-0.033-0.053-0.063
	c-0.009-0.023-0.014-0.103-0.015-0.241v-0.969h0.579c0.254,0,0.443,0.023,0.567,0.07C-10.334,338.528-10.241,338.598-10.179,338.689
	z M-2.984,337.83c-0.397-1.042-1.403-1.783-2.585-1.783c-0.518,0-1.001,0.145-1.416,0.393c-0.435-1.783-2.039-3.107-3.956-3.107
	c-2.25,0-4.075,1.825-4.075,4.076c0,0.247,0.026,0.486,0.068,0.722c-0.811,0.483-1.355,1.364-1.355,2.375
	c0,1.528,1.238,2.768,2.767,2.768h9.859c1.528,0,2.767-1.239,2.767-2.768C-0.911,339.218-1.792,338.139-2.984,337.83z
	 M-9.14,339.801c-0.143,0.201-0.345,0.353-0.607,0.459c-0.096,0.037-0.208,0.069-0.334,0.093v0.801h-0.758v-0.738
	c-0.019,0-0.037,0-0.057,0h-0.43v0.738h-0.759v-0.738h-1.157v-0.618h0.177c0.118,0,0.197-0.011,0.239-0.031
	c0.042-0.02,0.07-0.048,0.088-0.087c0.017-0.036,0.026-0.121,0.026-0.251v-2.498c0-0.132-0.009-0.217-0.026-0.254
	c-0.018-0.035-0.046-0.064-0.088-0.086c-0.042-0.021-0.121-0.033-0.239-0.033h-0.177v-0.619h1.157v-0.735h0.759v0.735h0.486v-0.735
	h0.758v0.789c0.111,0.021,0.213,0.048,0.3,0.084c0.223,0.091,0.394,0.222,0.513,0.391c0.12,0.171,0.179,0.357,0.179,0.561
	c0,0.148-0.031,0.289-0.094,0.42c-0.064,0.133-0.155,0.251-0.273,0.353c-0.12,0.101-0.277,0.185-0.473,0.252
	c0.21,0.053,0.371,0.112,0.481,0.176c0.161,0.091,0.288,0.217,0.381,0.378c0.095,0.161,0.142,0.342,0.142,0.541
	C-8.924,339.382-8.997,339.601-9.14,339.801z M-4.543,339.943v2.223h-2.171v-2.224h-0.807l1.892-1.892l1.893,1.893H-4.543z"/>
</svg>
