<?xml version="1.0" encoding="utf-8"?>
<!-- Generator: Adobe Illustrator 16.0.0, SVG Export Plug-In . SVG Version: 6.00 Build 0)  -->
<!DOCTYPE svg PUBLIC "-//W3C//DTD SVG 1.1//EN" "http://www.w3.org/Graphics/SVG/1.1/DTD/svg11.dtd">
<svg version="1.1" id="Layer_1" xmlns="http://www.w3.org/2000/svg" xmlns:xlink="http://www.w3.org/1999/xlink" x="0px" y="0px"
	 width="50px" height="50px" viewBox="34.5 314.5 50 50" enable-background="new 34.5 314.5 50 50" xml:space="preserve">
<path d="M72.663,331.673c-1.599-0.513-3.082-1.073-4.397-1.614v-3.996c0-1.92-1.497-3.481-3.337-3.481H49.548
	c-1.84,0-3.337,1.562-3.337,3.481v26.875c0,1.92,1.497,3.481,3.337,3.481h15.381c1.84,0,3.337-1.562,3.337-3.481v-6.746
	C73.956,339.936,72.663,331.673,72.663,331.673z M54.676,323.875h5.125c0.276,0,0.5,0.224,0.5,0.5s-0.224,0.5-0.5,0.5h-5.125
	c-0.276,0-0.5-0.224-0.5-0.5S54.399,323.875,54.676,323.875z M57.238,355.625c-0.828,0-1.5-0.672-1.5-1.5s0.672-1.5,1.5-1.5
	s1.5,0.672,1.5,1.5S58.066,355.625,57.238,355.625z M66.266,351.696H48.211v-25.634c0-0.048,0.01-0.093,0.014-0.14h18.027
	c0.004,0.047,0.014,0.092,0.014,0.14v3.135c-2.216-1.002-3.588-1.776-3.588-1.776H62.67c0,0-4.241,2.462-9.982,4.252
	c0,0-2.015,12.813,9.954,18.606h0.065c1.362-0.659,2.535-1.413,3.559-2.225V351.696z M62.907,348.905l-0.232,0.122l-0.233-0.122
	c-8.701-4.581-8.869-13.439-8.714-16.046l0.021-0.338l0.321-0.106c3.873-1.282,6.911-2.791,8.377-3.576l0.234-0.126l0.234,0.124
	c1.188,0.624,4.384,2.223,8.375,3.573l0.315,0.106l0.023,0.333C71.809,335.446,71.71,344.28,62.907,348.905z M62.685,329.845
	c-1.523,0.804-4.379,2.194-7.975,3.41c-0.103,2.778,0.356,10.486,7.965,14.641c7.704-4.194,8.103-11.885,7.976-14.647
	C67.08,332.017,64.216,330.638,62.685,329.845z M62.675,343.813c-2.935,0-5.313-2.378-5.313-5.313c0-2.936,2.378-5.314,5.313-5.314
	s5.313,2.379,5.313,5.314C67.988,341.435,65.609,343.813,62.675,343.813z M64.54,338.556c-0.127-0.072-0.31-0.141-0.548-0.201
	c0.222-0.075,0.4-0.171,0.537-0.287c0.136-0.116,0.24-0.25,0.312-0.4c0.072-0.152,0.109-0.312,0.109-0.479
	c0-0.233-0.069-0.446-0.205-0.641c-0.136-0.193-0.332-0.343-0.585-0.445c-0.1-0.04-0.215-0.071-0.342-0.096v-0.9h-0.865v0.839
	h-0.557v-0.839h-0.864v0.839h-1.32v0.707h0.203c0.134,0,0.226,0.014,0.271,0.038c0.049,0.023,0.082,0.057,0.101,0.099
	c0.021,0.041,0.03,0.138,0.03,0.289v2.847c0,0.149-0.01,0.245-0.03,0.289c-0.019,0.042-0.052,0.075-0.101,0.098
	c-0.046,0.022-0.138,0.035-0.271,0.035h-0.203v0.706h1.32v0.84h0.864v-0.84h0.492c0.022,0,0.042,0,0.064,0v0.84h0.865v-0.912
	c0.145-0.028,0.271-0.063,0.381-0.107c0.299-0.119,0.529-0.293,0.693-0.521c0.162-0.228,0.245-0.477,0.245-0.749
	c0-0.226-0.055-0.432-0.161-0.615C64.867,338.803,64.723,338.658,64.54,338.556z M62.08,336.771h0.561
	c0.326,0,0.554,0.019,0.681,0.061c0.127,0.04,0.224,0.105,0.292,0.201c0.065,0.096,0.099,0.21,0.099,0.346
	c0,0.128-0.034,0.243-0.105,0.342s-0.176,0.172-0.316,0.221s-0.356,0.073-0.649,0.073H62.08V336.771z M63.662,339.925
	c-0.101,0.128-0.221,0.212-0.363,0.251c-0.144,0.042-0.323,0.06-0.539,0.06h-0.372c-0.125,0-0.201-0.005-0.229-0.018
	c-0.028-0.015-0.048-0.039-0.062-0.073c-0.009-0.027-0.015-0.117-0.018-0.274v-1.104h0.66c0.291,0,0.506,0.026,0.647,0.081
	c0.142,0.053,0.248,0.133,0.319,0.237c0.068,0.104,0.104,0.232,0.104,0.384C63.812,339.646,63.763,339.798,63.662,339.925z"/>
</svg>
