<?xml version="1.0" encoding="utf-8"?>
<!-- Generator: Adobe Illustrator 16.0.0, SVG Export Plug-In . SVG Version: 6.00 Build 0)  -->
<!DOCTYPE svg PUBLIC "-//W3C//DTD SVG 1.1//EN" "http://www.w3.org/Graphics/SVG/1.1/DTD/svg11.dtd">
<svg version="1.1" id="Layer_1" xmlns="http://www.w3.org/2000/svg" xmlns:xlink="http://www.w3.org/1999/xlink" x="0px" y="0px"
	 width="50px" height="50px" viewBox="104.5 314.5 50 50" enable-background="new 104.5 314.5 50 50" xml:space="preserve">
<path d="M128.825,335.362c-2.434,0-4.406,1.973-4.406,4.406s1.973,4.406,4.406,4.406s4.407-1.973,4.407-4.406
	S131.259,335.362,128.825,335.362z M130.617,341.267c-0.131,0.185-0.317,0.325-0.559,0.422c-0.089,0.035-0.191,0.063-0.31,0.087
	v0.737h-0.699v-0.679c-0.018,0-0.034,0-0.052,0h-0.397v0.679h-0.699v-0.679h-1.067v-0.571h0.163c0.108,0,0.183-0.01,0.221-0.028
	s0.065-0.045,0.081-0.081c0.016-0.033,0.023-0.111,0.023-0.231v-2.304c0-0.121-0.008-0.2-0.023-0.234
	c-0.016-0.033-0.043-0.061-0.081-0.08c-0.038-0.019-0.112-0.029-0.221-0.029h-0.163v-0.571h1.067v-0.679h0.699v0.679h0.449v-0.679
	h0.699v0.728c0.104,0.021,0.197,0.045,0.277,0.077c0.206,0.084,0.363,0.205,0.474,0.361c0.11,0.157,0.165,0.329,0.165,0.516
	c0,0.137-0.029,0.267-0.087,0.389c-0.059,0.122-0.144,0.231-0.253,0.325s-0.256,0.17-0.435,0.231
	c0.193,0.05,0.342,0.104,0.443,0.164c0.147,0.082,0.266,0.198,0.352,0.348c0.087,0.148,0.131,0.315,0.131,0.498
	C130.816,340.88,130.751,341.083,130.617,341.267z M131.885,345.752v-0.585h0.585v0.585H131.885z M134.225,341.659v-0.585h0.584
	v0.585H134.225z M127.207,345.167h0.584v0.585h-0.584V345.167z M133.055,344.582h1.754v0.585h-0.584v0.585h-0.586v-0.585h-0.584
	V344.582z M134.809,343.413h-0.584v-0.585h0.584V343.413z M134.809,333.473h-4.093v1.219c-0.372-0.139-0.763-0.238-1.169-0.293
	v-0.341h-0.586v0.294c-0.046-0.001-0.09-0.007-0.136-0.007c-0.151,0-0.3,0.011-0.448,0.022v-0.31h0.584v-0.585h-1.754v1.119
	c-0.201,0.063-0.395,0.141-0.585,0.225v-1.344h-4.093v4.093h1.345c-0.302,0.674-0.473,1.419-0.473,2.203
	c0,0.046,0.006,0.09,0.007,0.136h-0.294v-1.754h-0.585v2.34h0.926c0.055,0.406,0.154,0.797,0.293,1.169h-1.219v4.093h4.093v-1.032
	c0.674,0.302,1.418,0.473,2.203,0.473c0.451,0,0.887-0.062,1.306-0.165v0.725h0.585v-0.906c0.2-0.075,0.396-0.159,0.584-0.257v0.578
	h0.585v-0.924c0.112-0.077,0.221-0.16,0.327-0.245h2.013v-0.585h-1.395c0.169-0.185,0.328-0.378,0.47-0.585h0.339v-0.57
	c0.193-0.371,0.342-0.769,0.445-1.184h0.141v-0.824c0.01-0.114,0.015-0.229,0.018-0.346h0.566v-0.584h-0.582
	c-0.017-0.198-0.042-0.395-0.079-0.586h0.661v-0.584h-0.807c-0.063-0.201-0.141-0.395-0.226-0.585h1.032V333.473z M123.114,336.981
	v-2.924h2.924v1.066c-0.204,0.123-0.399,0.257-0.585,0.404v-0.886h-1.754v1.754h0.886c-0.147,0.186-0.281,0.381-0.404,0.585H123.114
	z M126.038,345.167h-2.924v-2.924h0.891c0.104,0.202,0.218,0.398,0.346,0.585h-0.651v1.754h1.754v-0.573
	c0.186,0.147,0.381,0.281,0.585,0.404V345.167z M128.825,344.692c-2.719,0-4.924-2.204-4.924-4.924c0-2.719,2.205-4.924,4.924-4.924
	s4.924,2.205,4.924,4.924C133.749,342.488,131.544,344.692,128.825,344.692z M134.225,336.981h-0.755
	c-0.123-0.204-0.257-0.399-0.404-0.585h0.573v-1.754h-1.754v0.651c-0.187-0.128-0.383-0.242-0.585-0.346v-0.891h2.925V336.981z
	 M129.658,340.24c0.058,0.086,0.087,0.188,0.087,0.312c0,0.144-0.041,0.268-0.122,0.37c-0.08,0.103-0.179,0.17-0.294,0.203
	c-0.115,0.032-0.261,0.049-0.436,0.049h-0.302c-0.101,0-0.161-0.007-0.185-0.017c-0.021-0.011-0.039-0.03-0.048-0.058
	c-0.008-0.021-0.014-0.096-0.016-0.223v-0.895h0.535c0.234,0,0.408,0.022,0.523,0.066
	C129.516,340.093,129.602,340.156,129.658,340.24z M128.797,339.376h-0.453v-1.006h0.453c0.265,0,0.448,0.016,0.551,0.048
	s0.182,0.088,0.236,0.164c0.054,0.078,0.08,0.17,0.08,0.279c0,0.104-0.028,0.196-0.086,0.277c-0.057,0.078-0.142,0.139-0.256,0.178
	C129.208,339.356,129.034,339.376,128.797,339.376z M136.359,323.608h-15.381c-1.84,0-3.337,1.562-3.337,3.481v26.875
	c0,1.92,1.497,3.481,3.337,3.481h15.381c1.84,0,3.337-1.562,3.337-3.481V327.09C139.696,325.17,138.199,323.608,136.359,323.608z
	 M126.106,324.902h5.125c0.276,0,0.5,0.224,0.5,0.5s-0.224,0.5-0.5,0.5h-5.125c-0.276,0-0.5-0.224-0.5-0.5
	S125.83,324.902,126.106,324.902z M128.669,356.652c-0.828,0-1.5-0.672-1.5-1.5s0.672-1.5,1.5-1.5s1.5,0.672,1.5,1.5
	S129.497,356.652,128.669,356.652z M137.696,352.724h-18.055V327.09c0-0.048,0.01-0.093,0.014-0.14h18.027
	c0.004,0.047,0.014,0.092,0.014,0.14V352.724z"/>
</svg>
