<?xml version="1.0" encoding="utf-8"?>
<!-- Generator: Adobe Illustrator 16.0.0, SVG Export Plug-In . SVG Version: 6.00 Build 0)  -->
<!DOCTYPE svg PUBLIC "-//W3C//DTD SVG 1.1//EN" "http://www.w3.org/Graphics/SVG/1.1/DTD/svg11.dtd">
<svg version="1.1" id="Layer_1" xmlns="http://www.w3.org/2000/svg" xmlns:xlink="http://www.w3.org/1999/xlink" x="0px" y="0px"
	 width="50px" height="50px" viewBox="174.5 314.5 50 50" enable-background="new 174.5 314.5 50 50" xml:space="preserve">
<path d="M201.121,339.692c-0.076-0.131-0.178-0.23-0.309-0.304c-0.088-0.051-0.217-0.099-0.385-0.141
	c0.156-0.055,0.283-0.121,0.379-0.203c0.096-0.081,0.17-0.176,0.219-0.282c0.051-0.106,0.078-0.219,0.078-0.338
	c0-0.163-0.049-0.313-0.145-0.45c-0.098-0.137-0.234-0.241-0.412-0.314c-0.07-0.028-0.152-0.05-0.242-0.067v-0.634h-0.607v0.592
	h-0.393v-0.592h-0.609v0.592h-0.93v0.498h0.143c0.094,0,0.158,0.008,0.191,0.025c0.033,0.017,0.057,0.041,0.07,0.069
	c0.016,0.029,0.021,0.098,0.021,0.204v2.006c0,0.105-0.006,0.173-0.021,0.203c-0.014,0.029-0.037,0.053-0.07,0.068
	c-0.033,0.018-0.098,0.025-0.191,0.025h-0.143v0.498h0.93v0.591h0.609v-0.591h0.346c0.016,0,0.031-0.001,0.047-0.001v0.592h0.607
	v-0.643c0.104-0.02,0.193-0.044,0.27-0.075c0.209-0.084,0.373-0.207,0.488-0.367c0.113-0.161,0.172-0.337,0.172-0.527
	C201.234,339.967,201.195,339.822,201.121,339.692z M199.082,338.131h0.395c0.229,0,0.389,0.015,0.479,0.043
	c0.088,0.028,0.158,0.076,0.205,0.143s0.07,0.148,0.07,0.242c0,0.092-0.023,0.172-0.074,0.242c-0.049,0.068-0.125,0.121-0.223,0.156
	c-0.1,0.033-0.252,0.051-0.457,0.051h-0.395V338.131z M200.195,340.354c-0.07,0.089-0.156,0.148-0.256,0.177
	c-0.102,0.028-0.229,0.043-0.379,0.043h-0.264c-0.086,0-0.141-0.006-0.16-0.015c-0.021-0.01-0.033-0.026-0.043-0.051
	c-0.008-0.019-0.012-0.083-0.012-0.193v-0.778h0.465c0.203,0,0.355,0.02,0.455,0.057c0.1,0.038,0.174,0.094,0.225,0.168
	c0.049,0.074,0.074,0.164,0.074,0.271C200.301,340.156,200.266,340.264,200.195,340.354z M206.625,342.3
	c-0.003-0.884-0.453-1.913-1.265-2.951c1.182-1.512,1.604-3.007,0.982-4.056c-0.468-0.79-1.419-1.208-2.748-1.208
	c-0.365,0-0.755,0.038-1.155,0.1c-0.481-1.18-1.128-2.053-1.873-2.484c-0.024-0.571-0.489-1.03-1.067-1.03
	c-0.577,0-1.041,0.459-1.066,1.03c-0.744,0.432-1.391,1.305-1.872,2.484c-0.4-0.062-0.791-0.1-1.156-0.1
	c-1.329,0-2.279,0.418-2.748,1.208c-0.623,1.05-0.199,2.544,0.982,4.056c-0.812,1.038-1.262,2.067-1.265,2.951
	c-0.221,0.197-0.366,0.476-0.366,0.796c0,0.594,0.48,1.076,1.076,1.076c0.108,0,0.207-0.032,0.306-0.062
	c0.512,0.319,1.178,0.504,2.015,0.504c0.366,0,0.756-0.038,1.157-0.1c0.699,1.715,1.746,2.79,2.938,2.79s2.239-1.075,2.938-2.79
	c0.401,0.062,0.791,0.1,1.156,0.1c0.837,0,1.504-0.185,2.015-0.505c0.099,0.03,0.198,0.063,0.307,0.063
	c0.596,0,1.076-0.482,1.076-1.076C206.992,342.775,206.847,342.497,206.625,342.3z M203.595,335.085
	c0.943,0,1.613,0.255,1.889,0.718c0.355,0.6,0.056,1.631-0.797,2.773c-0.433-0.454-0.93-0.902-1.484-1.335
	c-0.096-0.751-0.241-1.452-0.431-2.093C203.058,335.111,203.336,335.085,203.595,335.085z M200.947,341.791
	c-0.477,0.283-0.963,0.537-1.447,0.76c-0.484-0.223-0.971-0.477-1.447-0.76c-0.473-0.28-0.907-0.574-1.313-0.873
	c-0.05-0.499-0.078-1.021-0.078-1.569c0-0.547,0.028-1.069,0.078-1.568c0.405-0.299,0.84-0.592,1.313-0.872
	c0.477-0.283,0.963-0.537,1.447-0.76c0.484,0.223,0.971,0.477,1.447,0.76c0.473,0.28,0.907,0.573,1.313,0.872
	c0.05,0.499,0.078,1.021,0.078,1.568c0,0.548-0.028,1.07-0.078,1.569C201.854,341.217,201.42,341.511,200.947,341.791z
	 M202.06,342.273c-0.077,0.387-0.167,0.752-0.271,1.092c-0.341-0.085-0.69-0.191-1.047-0.315c0.239-0.127,0.478-0.259,0.715-0.399
	C201.664,342.527,201.863,342.401,202.06,342.273z M198.258,343.05c-0.356,0.124-0.706,0.23-1.047,0.315
	c-0.104-0.34-0.193-0.705-0.271-1.092c0.196,0.128,0.396,0.254,0.603,0.377C197.78,342.791,198.019,342.923,198.258,343.05z
	 M195.679,340.056c-0.262-0.236-0.503-0.472-0.722-0.707c0.219-0.234,0.46-0.471,0.722-0.706c-0.01,0.232-0.017,0.467-0.017,0.706
	S195.669,339.822,195.679,340.056z M196.94,336.426c0.077-0.387,0.167-0.752,0.271-1.092c0.34,0.085,0.69,0.191,1.047,0.315
	c-0.239,0.127-0.478,0.259-0.715,0.399C197.336,336.171,197.137,336.298,196.94,336.426z M200.742,335.649
	c0.356-0.124,0.707-0.231,1.047-0.315c0.104,0.339,0.193,0.705,0.271,1.092c-0.196-0.128-0.396-0.255-0.603-0.377
	C201.22,335.908,200.981,335.776,200.742,335.649z M203.321,338.643c0.262,0.236,0.503,0.472,0.722,0.706
	c-0.219,0.235-0.46,0.471-0.722,0.706c0.01-0.232,0.017-0.467,0.017-0.706C203.338,339.11,203.331,338.876,203.321,338.643z
	 M198.875,332.599c0.179,0.13,0.387,0.223,0.624,0.223c0.238,0,0.446-0.093,0.625-0.223c0.477,0.296,0.939,0.912,1.318,1.786
	c-0.629,0.161-1.282,0.392-1.942,0.674c-0.66-0.281-1.314-0.512-1.942-0.674C197.937,333.511,198.399,332.896,198.875,332.599z
	 M193.516,335.803c0.275-0.463,0.946-0.718,1.889-0.718c0.26,0,0.538,0.026,0.824,0.063c-0.189,0.641-0.335,1.342-0.431,2.092
	c-0.556,0.433-1.053,0.881-1.485,1.336C193.46,337.434,193.16,336.402,193.516,335.803z M195.404,343.614
	c-0.532,0-0.965-0.089-1.302-0.243c0.024-0.09,0.056-0.178,0.056-0.275c0-0.48-0.319-0.872-0.753-1.011
	c0.061-0.556,0.361-1.23,0.907-1.964c0.434,0.455,0.93,0.904,1.485,1.337c0.096,0.75,0.242,1.452,0.431,2.093
	C195.942,343.588,195.664,343.614,195.404,343.614z M199.5,346.305c-0.68,0-1.398-0.735-1.942-1.99
	c0.629-0.162,1.282-0.393,1.942-0.674c0.66,0.282,1.313,0.512,1.942,0.674C200.897,345.57,200.18,346.305,199.5,346.305z
	 M202.771,343.551c0.188-0.641,0.335-1.343,0.431-2.093c0.555-0.434,1.052-0.882,1.484-1.337c0.547,0.733,0.847,1.408,0.908,1.964
	c-0.434,0.139-0.753,0.53-0.753,1.011c0,0.098,0.031,0.186,0.056,0.275c-0.337,0.153-0.77,0.243-1.303,0.243
	C203.335,343.614,203.057,343.588,202.771,343.551z M207.19,322.581H191.81c-1.84,0-3.337,1.562-3.337,3.481v26.875
	c0,1.92,1.497,3.481,3.337,3.481h15.381c1.84,0,3.337-1.562,3.337-3.481v-26.875C210.527,324.143,209.03,322.581,207.19,322.581z
	 M196.938,323.875h5.125c0.276,0,0.5,0.224,0.5,0.5s-0.224,0.5-0.5,0.5h-5.125c-0.276,0-0.5-0.224-0.5-0.5
	S196.661,323.875,196.938,323.875z M199.5,355.625c-0.828,0-1.5-0.672-1.5-1.5s0.672-1.5,1.5-1.5s1.5,0.672,1.5,1.5
	S200.328,355.625,199.5,355.625z M208.527,351.696h-18.055v-25.634c0-0.048,0.01-0.093,0.014-0.14h18.027
	c0.004,0.047,0.014,0.092,0.014,0.14V351.696z"/>
</svg>
