<?xml version="1.0" encoding="utf-8"?>
<!-- Generator: Adobe Illustrator 16.0.0, SVG Export Plug-In . SVG Version: 6.00 Build 0)  -->
<!DOCTYPE svg PUBLIC "-//W3C//DTD SVG 1.1//EN" "http://www.w3.org/Graphics/SVG/1.1/DTD/svg11.dtd">
<svg version="1.1" id="Layer_1" xmlns="http://www.w3.org/2000/svg" xmlns:xlink="http://www.w3.org/1999/xlink" x="0px" y="0px"
	 width="50px" height="50px" viewBox="244.5 314.5 50 50" enable-background="new 244.5 314.5 50 50" xml:space="preserve">
<path d="M272.074,343.271c-0.173-0.099-0.42-0.189-0.744-0.271c0.303-0.103,0.545-0.232,0.729-0.39
	c0.186-0.156,0.326-0.338,0.423-0.542c0.097-0.205,0.147-0.422,0.147-0.649c0-0.313-0.093-0.603-0.278-0.865
	c-0.184-0.263-0.449-0.464-0.791-0.604c-0.134-0.054-0.292-0.095-0.465-0.128v-1.219h-1.17v1.137h-0.752v-1.137h-1.17v1.137h-1.786
	v0.956h0.271c0.182,0,0.306,0.017,0.37,0.05s0.109,0.077,0.137,0.134c0.024,0.057,0.039,0.187,0.039,0.392v3.854
	c0,0.201-0.015,0.332-0.039,0.39c-0.027,0.058-0.072,0.102-0.137,0.133s-0.188,0.048-0.37,0.048h-0.271v0.955h1.786v1.138h1.17
	v-1.138h0.666c0.028,0,0.057,0,0.086,0v1.138h1.17v-1.235c0.196-0.037,0.37-0.085,0.518-0.144c0.403-0.163,0.715-0.396,0.938-0.706
	c0.221-0.309,0.332-0.647,0.332-1.014c0-0.308-0.073-0.586-0.22-0.836C272.519,343.605,272.32,343.41,272.074,343.271z
	 M268.744,340.854h0.757c0.443,0,0.751,0.027,0.923,0.082c0.172,0.056,0.303,0.146,0.394,0.275c0.092,0.128,0.136,0.283,0.136,0.466
	c0,0.175-0.047,0.329-0.143,0.464c-0.097,0.134-0.24,0.232-0.43,0.3c-0.189,0.065-0.483,0.099-0.88,0.099h-0.757V340.854z
	 M270.885,345.125c-0.135,0.172-0.3,0.286-0.492,0.34s-0.437,0.082-0.729,0.082h-0.504c-0.168,0-0.271-0.01-0.31-0.028
	c-0.036-0.018-0.064-0.05-0.082-0.096c-0.013-0.037-0.021-0.161-0.023-0.372v-1.497h0.894c0.393,0,0.687,0.037,0.876,0.11
	c0.19,0.072,0.335,0.18,0.43,0.321c0.097,0.144,0.144,0.315,0.144,0.521C271.087,344.747,271.021,344.953,270.885,345.125z
	 M261.605,342.355h3.946v5.451h-3.946V342.355z M273.547,334.982h3.945v12.824h-3.945V334.982z M273.811,333.761l-0.318-0.445
	l-11.292,8.123l-0.692-0.964l11.292-8.123l-0.32-0.445l1.594,0.261L273.811,333.761z M282.938,328.473h-26.875
	c-1.92,0-3.481,1.497-3.481,3.337v15.381c0,1.84,1.562,3.337,3.481,3.337h26.875c1.92,0,3.481-1.497,3.481-3.337V331.81
	C286.419,329.97,284.857,328.473,282.938,328.473z M254.875,341c-0.828,0-1.5-0.672-1.5-1.5s0.672-1.5,1.5-1.5s1.5,0.672,1.5,1.5
	S255.703,341,254.875,341z M283.077,348.514c-0.047,0.004-0.092,0.014-0.14,0.014h-25.634v-18.055h25.634
	c0.048,0,0.093,0.01,0.14,0.014V348.514z M285.125,342.063c0,0.276-0.224,0.5-0.5,0.5s-0.5-0.224-0.5-0.5v-5.125
	c0-0.276,0.224-0.5,0.5-0.5s0.5,0.224,0.5,0.5V342.063z"/>
</svg>
